%FSTAX25Y25*%
%MOIN*%
G70*
G01*
G75*
G04 Layer_Physical_Order=2*
G04 Layer_Color=16711680*
%ADD10R,0.07874X0.07480*%
%ADD11R,0.01969X0.15748*%
%ADD12R,0.04331X0.02559*%
%ADD13R,0.07874X0.05512*%
%ADD14R,0.17011X0.12579*%
%ADD15R,0.20011X0.12579*%
%ADD16R,0.13780X0.11811*%
%ADD17R,0.06102X0.04331*%
%ADD18R,0.06102X0.04331*%
%ADD19R,0.06102X0.13583*%
%ADD20R,0.04724X0.07000*%
%ADD21R,0.04724X0.07874*%
%ADD22R,0.03543X0.03740*%
%ADD23R,0.03543X0.03740*%
%ADD24R,0.05906X0.13780*%
%ADD25R,0.09843X0.07874*%
%ADD26R,0.07480X0.07874*%
%ADD27C,0.01200*%
%ADD28C,0.02000*%
%ADD29C,0.01400*%
%ADD30C,0.01600*%
%ADD31C,0.01000*%
%ADD32C,0.00394*%
%ADD33C,0.15748*%
%ADD34R,0.08000X0.08000*%
%ADD35C,0.08000*%
%ADD36C,0.09000*%
%ADD37O,0.08000X0.06400*%
%ADD38O,0.08000X0.06000*%
%ADD39R,0.08000X0.08000*%
%ADD40C,0.03000*%
%ADD41C,0.02600*%
%ADD42C,0.02700*%
%ADD43C,0.02800*%
%ADD44R,0.07874X0.09843*%
%ADD45R,0.07874X0.07842*%
%ADD46R,0.13780X0.01969*%
%ADD47R,0.15748X0.08071*%
%ADD48R,0.10236X0.08071*%
%ADD49R,0.13780X0.08071*%
G04:AMPARAMS|DCode=50|XSize=39.37mil|YSize=31.5mil|CornerRadius=7.87mil|HoleSize=0mil|Usage=FLASHONLY|Rotation=0.000|XOffset=0mil|YOffset=0mil|HoleType=Round|Shape=RoundedRectangle|*
%AMROUNDEDRECTD50*
21,1,0.03937,0.01575,0,0,0.0*
21,1,0.02362,0.03150,0,0,0.0*
1,1,0.01575,0.01181,-0.00787*
1,1,0.01575,-0.01181,-0.00787*
1,1,0.01575,-0.01181,0.00787*
1,1,0.01575,0.01181,0.00787*
%
%ADD50ROUNDEDRECTD50*%
G04:AMPARAMS|DCode=51|XSize=39.37mil|YSize=31.5mil|CornerRadius=7.87mil|HoleSize=0mil|Usage=FLASHONLY|Rotation=270.000|XOffset=0mil|YOffset=0mil|HoleType=Round|Shape=RoundedRectangle|*
%AMROUNDEDRECTD51*
21,1,0.03937,0.01575,0,0,270.0*
21,1,0.02362,0.03150,0,0,270.0*
1,1,0.01575,-0.00787,-0.01181*
1,1,0.01575,-0.00787,0.01181*
1,1,0.01575,0.00787,0.01181*
1,1,0.01575,0.00787,-0.01181*
%
%ADD51ROUNDEDRECTD51*%
G04:AMPARAMS|DCode=52|XSize=90mil|YSize=90mil|CornerRadius=22.5mil|HoleSize=0mil|Usage=FLASHONLY|Rotation=180.000|XOffset=0mil|YOffset=0mil|HoleType=Round|Shape=RoundedRectangle|*
%AMROUNDEDRECTD52*
21,1,0.09000,0.04500,0,0,180.0*
21,1,0.04500,0.09000,0,0,180.0*
1,1,0.04500,-0.02250,0.02250*
1,1,0.04500,0.02250,0.02250*
1,1,0.04500,0.02250,-0.02250*
1,1,0.04500,-0.02250,-0.02250*
%
%ADD52ROUNDEDRECTD52*%
%ADD53R,0.06693X0.09843*%
%ADD54R,0.05512X0.00984*%
%ADD55R,0.00984X0.05512*%
%ADD56C,0.01063*%
%ADD57R,0.10630X0.10630*%
%ADD58R,0.09843X0.06693*%
%ADD59R,0.11811X0.07874*%
%ADD60R,0.11811X0.02953*%
%ADD61R,0.09843X0.07874*%
G04:AMPARAMS|DCode=62|XSize=100mil|YSize=100mil|CornerRadius=25mil|HoleSize=0mil|Usage=FLASHONLY|Rotation=0.000|XOffset=0mil|YOffset=0mil|HoleType=Round|Shape=RoundedRectangle|*
%AMROUNDEDRECTD62*
21,1,0.10000,0.05000,0,0,0.0*
21,1,0.05000,0.10000,0,0,0.0*
1,1,0.05000,0.02500,-0.02500*
1,1,0.05000,-0.02500,-0.02500*
1,1,0.05000,-0.02500,0.02500*
1,1,0.05000,0.02500,0.02500*
%
%ADD62ROUNDEDRECTD62*%
%ADD63O,0.01181X0.10236*%
%ADD64O,0.10236X0.01181*%
%ADD65R,0.04567X0.05906*%
%ADD66R,0.08661X0.15748*%
%ADD67R,0.08661X0.13780*%
%ADD68R,0.11024X0.09055*%
%ADD69R,0.01575X0.05512*%
%ADD70R,0.05512X0.01575*%
%ADD71R,0.02756X0.03543*%
%ADD72R,0.04724X0.03543*%
%ADD73R,0.01969X0.07087*%
%ADD74R,0.05906X0.07874*%
%ADD75R,0.05906X0.07574*%
%ADD76R,0.02165X0.07874*%
%ADD77R,0.07874X0.02165*%
G04:AMPARAMS|DCode=78|XSize=51.18mil|YSize=51.18mil|CornerRadius=12.8mil|HoleSize=0mil|Usage=FLASHONLY|Rotation=270.000|XOffset=0mil|YOffset=0mil|HoleType=Round|Shape=RoundedRectangle|*
%AMROUNDEDRECTD78*
21,1,0.05118,0.02559,0,0,270.0*
21,1,0.02559,0.05118,0,0,270.0*
1,1,0.02559,-0.01280,-0.01280*
1,1,0.02559,-0.01280,0.01280*
1,1,0.02559,0.01280,0.01280*
1,1,0.02559,0.01280,-0.01280*
%
%ADD78ROUNDEDRECTD78*%
%ADD79R,0.13780X0.05906*%
%ADD80R,0.10880X0.05906*%
%ADD81R,0.02559X0.04331*%
%ADD82O,0.02362X0.08661*%
%ADD83C,0.01500*%
D10*
X0187Y0299811D02*
D03*
Y0289181D02*
D03*
X0141Y0370189D02*
D03*
Y0380819D02*
D03*
X0201Y0190189D02*
D03*
Y0200819D02*
D03*
X0219Y0227811D02*
D03*
Y0217181D02*
D03*
X0091Y0374189D02*
D03*
Y0384819D02*
D03*
X0093Y0362819D02*
D03*
Y0352189D02*
D03*
X0115Y0352819D02*
D03*
Y0342189D02*
D03*
X0127Y0343181D02*
D03*
Y0353811D02*
D03*
X0141Y0345181D02*
D03*
Y0355811D02*
D03*
X0115Y0318189D02*
D03*
Y0328819D02*
D03*
X01055Y0247181D02*
D03*
Y0257811D02*
D03*
X0217Y0134189D02*
D03*
Y0144819D02*
D03*
X0163Y0423811D02*
D03*
Y0413181D02*
D03*
X0155Y0348189D02*
D03*
Y0358819D02*
D03*
X0175Y0070189D02*
D03*
Y0080819D02*
D03*
X0161Y0072189D02*
D03*
Y0082819D02*
D03*
X0079Y0068189D02*
D03*
Y0078819D02*
D03*
X0097Y0094189D02*
D03*
Y0104819D02*
D03*
X0109Y0094189D02*
D03*
Y0104819D02*
D03*
X0189Y0190189D02*
D03*
Y0200819D02*
D03*
X0177Y0190189D02*
D03*
Y0200819D02*
D03*
X0165Y0190189D02*
D03*
Y0200819D02*
D03*
X0153Y0190189D02*
D03*
Y0200819D02*
D03*
X0025Y0177811D02*
D03*
Y0167181D02*
D03*
X0081Y0353181D02*
D03*
Y0363811D02*
D03*
X0069Y0353181D02*
D03*
Y0363811D02*
D03*
X0203Y0036189D02*
D03*
Y0046819D02*
D03*
X0189Y0045811D02*
D03*
Y0035181D02*
D03*
X0173Y0050189D02*
D03*
Y0060819D02*
D03*
X0147Y0072189D02*
D03*
Y0082819D02*
D03*
X0175Y0094189D02*
D03*
Y0104819D02*
D03*
X0187Y0105811D02*
D03*
Y0095181D02*
D03*
X0199Y0105811D02*
D03*
Y0095181D02*
D03*
X0213Y0092189D02*
D03*
Y0102819D02*
D03*
X0219Y0123811D02*
D03*
Y0113181D02*
D03*
X0203Y0130189D02*
D03*
Y0140819D02*
D03*
X0093Y0077811D02*
D03*
Y0067181D02*
D03*
X0085Y0128189D02*
D03*
Y0138819D02*
D03*
D22*
X016974Y0173374D02*
D03*
X0166Y0182626D02*
D03*
X0216Y0392626D02*
D03*
X021974Y0383374D02*
D03*
X002974Y0413374D02*
D03*
X0026Y0422626D02*
D03*
D23*
X016226Y0173374D02*
D03*
X021226Y0383374D02*
D03*
X002226Y0413374D02*
D03*
D24*
X0196Y0018D02*
D03*
X0186D02*
D03*
X0071Y0404D02*
D03*
X0061D02*
D03*
X0051D02*
D03*
X0041D02*
D03*
X0102Y0324D02*
D03*
X0092D02*
D03*
X0082D02*
D03*
X0072D02*
D03*
X0141Y0028D02*
D03*
X0151D02*
D03*
X0132D02*
D03*
X0122D02*
D03*
X0112D02*
D03*
X0102D02*
D03*
X0092D02*
D03*
X0082D02*
D03*
D25*
X01905Y0214D02*
D03*
X0178D02*
D03*
D26*
X0168189Y0353D02*
D03*
X0178819D02*
D03*
X0175181Y0335D02*
D03*
X0185811D02*
D03*
X0217811Y0283D02*
D03*
X0207181D02*
D03*
X0155181Y0335D02*
D03*
X0165811D02*
D03*
X0023811Y0265D02*
D03*
X0013181D02*
D03*
X0090689Y0283D02*
D03*
X0101319D02*
D03*
X0012189Y0351D02*
D03*
X0022819D02*
D03*
X0201811Y0359D02*
D03*
X0191181D02*
D03*
X0059811Y0157D02*
D03*
X0049181D02*
D03*
X0219811Y0297D02*
D03*
X0209181D02*
D03*
X0201811Y0373D02*
D03*
X0191181D02*
D03*
X0180189Y0179D02*
D03*
X0190819D02*
D03*
X0056819Y0211D02*
D03*
X0046189D02*
D03*
X0143811Y0229D02*
D03*
X0133181D02*
D03*
X0197811Y0271D02*
D03*
X0187181D02*
D03*
D27*
X012344Y0288341D02*
Y02975D01*
X0222Y0392D02*
Y0397D01*
X0217Y0402D02*
X0222Y0397D01*
X0194Y0396D02*
Y0418D01*
X0191Y0421D02*
Y04335D01*
Y0421D02*
X0194Y0418D01*
Y0396D02*
X0197374Y0392626D01*
X0216D01*
X0193216Y03215D02*
X0198284Y0326567D01*
X01655Y0334689D02*
X0165811Y0335D01*
X0198284Y0326567D02*
Y0327189D01*
X00355Y0426D02*
X0069D01*
X0032126Y0422626D02*
X00355Y0426D01*
X0026Y0422626D02*
X0032126D01*
X00275Y04075D02*
X002974Y040974D01*
X00135Y04075D02*
X00275D01*
X002974Y040974D02*
Y0413374D01*
X001Y0411D02*
X00135Y04075D01*
X0044793Y0091207D02*
X00475Y00885D01*
X00375Y00985D02*
X0044793Y0091207D01*
X00175Y00985D02*
X00375D01*
X00475Y00885D02*
X0068106D01*
X0072Y0092394D01*
Y0101055D02*
X0085D01*
X0055Y0099D02*
X0057055Y0101055D01*
X0072D01*
X00235Y01225D02*
X0036283Y0109716D01*
X0072D01*
X00375Y0134D02*
Y01385D01*
Y0134D02*
X0053122Y0118378D01*
X0072D01*
X0051Y01315D02*
Y0139D01*
Y01315D02*
X0059791Y0122709D01*
X0051Y01315D02*
Y0132D01*
X0059791Y0122709D02*
X0072D01*
X0138374Y0262751D02*
X0143125Y0258D01*
Y025094D02*
Y0258D01*
X012344Y0262751D02*
X0138374D01*
X0127503Y0236003D02*
X0135251Y0243751D01*
X0125Y02375D02*
X0132021Y0244521D01*
X0135251Y0243751D02*
Y025094D01*
X01345Y0238D02*
X01395D01*
X0137681Y0235D02*
X01405D01*
X0133681Y0231D02*
X0137681Y0235D01*
X0141156Y0239656D02*
Y02435D01*
X01395Y0238D02*
X0141156Y0239656D01*
Y02435D02*
Y025094D01*
X01405Y0235D02*
X0143125Y0237625D01*
Y025094D01*
X0213Y0217D02*
X0219D01*
X0152936Y03135D02*
X0154936Y03115D01*
Y0296215D02*
Y03115D01*
X01525Y03135D02*
X0152936D01*
X0025Y01785D02*
X0044D01*
X00945Y01455D02*
Y0183D01*
Y01455D02*
X0099843Y0140157D01*
X0091Y0114D02*
X0103378Y0126378D01*
X0088Y0114D02*
X0091D01*
X0085Y0128D02*
Y013D01*
X0086Y0131D01*
X0015Y0101D02*
X00175Y00985D01*
X0015Y0101D02*
Y0184D01*
X0011Y0342D02*
X0021Y0332D01*
X0049D01*
X00205Y03325D02*
X0021Y0332D01*
X02155Y0345D02*
X0218D01*
X01995D02*
X02155D01*
X02225Y03165D02*
Y0380614D01*
X021974Y0383374D02*
X02225Y0380614D01*
X0198284Y0339D02*
Y0343783D01*
X01995Y0345D01*
X0102Y0324D02*
Y03425D01*
Y03215D02*
Y0324D01*
Y03425D02*
X01035D01*
X0093D02*
X0102D01*
X0069Y0313D02*
X01325D01*
X00645Y03175D02*
X0069Y0313D01*
X00645Y03175D02*
Y0333D01*
X00615Y03155D02*
X0067Y031D01*
X00615Y03155D02*
Y03315D01*
X0046Y0347D02*
X00615Y03315D01*
X0154936Y0245564D02*
X0161Y02395D01*
X0154936Y0245564D02*
Y025094D01*
X016Y02805D02*
X0160033Y0280467D01*
X0168715D01*
X0156904Y0296215D02*
X0156973Y0296284D01*
X0112071Y036D02*
Y0364D01*
X0109071Y0357D02*
X0112071Y036D01*
X01045Y0357D02*
X0109071D01*
X0103Y03525D02*
X0115319D01*
X0101Y03545D02*
X0103Y03525D01*
X0101Y03545D02*
Y0366D01*
X0093Y0352189D02*
X0095189Y035D01*
X0160127Y0286373D02*
X0168715D01*
X01585Y0288D02*
X0160127Y0286373D01*
X0036Y0337D02*
Y03465D01*
X0022819Y0351D02*
X00315D01*
X0036Y03465D01*
X01085Y028D02*
X0110001Y0278499D01*
X012344D01*
X0101319Y0278181D02*
X010297Y027653D01*
X0101319Y0278181D02*
Y0283D01*
X010297Y027653D02*
X012344D01*
X0112533Y0280467D02*
X012344D01*
X01075Y02855D02*
Y0288D01*
Y02855D02*
X0112533Y0280467D01*
X011Y02865D02*
X0114064Y0282436D01*
X011Y02865D02*
Y02905D01*
X0114064Y0282436D02*
X012344D01*
X011325Y028725D02*
X0116096Y0284404D01*
X012344D01*
X0211Y02275D02*
X0211311Y0227811D01*
X02065Y02235D02*
Y0228D01*
X0202Y02325D02*
X02065Y0228D01*
X01735Y02325D02*
X0202D01*
X01715Y02345D02*
X01735Y02325D01*
X02065Y02235D02*
X0213Y0217D01*
X02035Y0222D02*
Y02275D01*
Y0222D02*
X02165Y0209D01*
X0201Y023D02*
X02035Y02275D01*
X02165Y0209D02*
X0222D01*
X01515Y0278D02*
Y0287D01*
Y02775D02*
Y0278D01*
X014903Y028947D02*
X01515Y0287D01*
X02075Y0209723D02*
X02115Y0205724D01*
X0202777Y0209723D02*
X02075D01*
X02115Y01995D02*
Y0205724D01*
X00905Y0249D02*
Y0264D01*
Y0248D02*
Y0249D01*
X0122452Y0239452D02*
X0131314Y0248314D01*
Y025094D01*
X0201Y02115D02*
X0202777Y0209723D01*
X0163Y0211D02*
X0172126Y0220126D01*
X01418Y0211D02*
X0163D01*
X0172126Y0220126D02*
X0186126D01*
X0034412Y0183588D02*
X0047912D01*
X005Y0176D02*
Y01815D01*
X0047912Y0183588D02*
X005Y01815D01*
X0114032Y0148093D02*
X0114094Y0148031D01*
X0107437Y0146063D02*
X0114094D01*
X0105905Y0144095D02*
X0114094D01*
X0102874Y0142126D02*
X0114094D01*
X01005Y01445D02*
X0102874Y0142126D01*
X0096311Y0138189D02*
X0114094D01*
X00945Y014D02*
X0096311Y0138189D01*
X0165532Y0148031D02*
X0173Y01555D01*
X015937Y0148031D02*
X0165532D01*
X0135748Y0169D02*
Y0172748D01*
Y0155905D02*
Y0169D01*
X01285Y0174D02*
X013378Y016872D01*
X0126Y0174D02*
X01285D01*
X013378Y0155905D02*
Y016872D01*
X01285Y017D02*
X0131811Y0166689D01*
X0122Y017D02*
X01285D01*
X0131811Y0155905D02*
Y0166689D01*
X0138Y01885D02*
X0147559Y0178941D01*
Y01785D02*
Y0178941D01*
Y0155905D02*
Y01785D01*
X0137672Y0183919D02*
X0145591Y0176D01*
Y0155905D02*
Y0176D01*
X013Y01875D02*
X0143622Y0173878D01*
Y0155905D02*
Y0173878D01*
X01295Y01835D02*
X0141654Y0171346D01*
X0129Y01835D02*
X01295D01*
X012611D02*
X0129D01*
X0141654Y0155905D02*
Y0171346D01*
X0133Y0143D02*
Y0147D01*
Y0132283D02*
X015937D01*
X0123216D02*
X0133D01*
Y0147D02*
X0136D01*
X013D02*
X0133D01*
X0121248Y0134252D02*
X0123216Y0132283D01*
X0114094Y0134252D02*
X0121248D01*
X0123189Y0138189D02*
X01395D01*
X0121221Y0136221D02*
X0123189Y0138189D01*
X0114094Y0136221D02*
X0121221D01*
X01395Y0138189D02*
X0139685Y0138374D01*
X01395Y0138189D02*
X015937D01*
X0139685Y0138374D02*
Y0155905D01*
X013Y0178D02*
X0130496D01*
X0135748Y0172748D01*
X01065Y01815D02*
Y01865D01*
Y01725D02*
Y01815D01*
Y01725D02*
X0112Y0167D01*
X012D01*
X0123937Y0163063D01*
X0102374Y0171126D02*
X0109362Y0164138D01*
X0117862D01*
X0121968Y0160031D01*
Y0155905D02*
Y0160031D01*
X0102374Y0171126D02*
Y0183012D01*
X0123937Y0155905D02*
Y0163063D01*
X0134181Y0338D02*
X0152181D01*
X0155181Y0335D01*
X0129Y0343181D02*
X0134181Y0338D01*
X0155Y0347D02*
Y0348189D01*
X0143819Y0345181D02*
X0147Y0342D01*
X0141Y0345181D02*
X0143819D01*
X0076Y0373276D02*
Y0378D01*
X0087189D01*
X007D02*
X0076D01*
X0052425Y0388299D02*
X0058724Y0382D01*
X0060724D01*
X0061Y04D02*
Y0404D01*
X0071Y0408D02*
X0078D01*
X0044Y038515D02*
X004685D01*
X0033716D02*
X0044D01*
X0093Y0362819D02*
X0097Y0366819D01*
Y0369D01*
X0098Y037D01*
X0144Y0358D02*
X0146Y036D01*
X0144Y0356724D02*
Y0358D01*
X018Y0384196D02*
X0184804Y0389D01*
X0185D01*
X018Y0384D02*
Y0384196D01*
X0179Y0388D02*
X0184Y0393D01*
X0192D02*
X0195Y039D01*
X0184Y0393D02*
X0192D01*
X0164Y0388D02*
X0179D01*
X0185181Y0353D02*
X0191181Y0359D01*
X0178819Y0353D02*
X0185181D01*
X0173539Y0358279D02*
Y0364858D01*
Y0358279D02*
X0178819Y0353D01*
X0163697Y0357492D02*
X0168189Y0353D01*
X0163697Y0357492D02*
Y0364858D01*
X0153Y0360819D02*
X0155Y0358819D01*
X0182Y0363D02*
Y0367D01*
X0179795Y0369205D02*
X0182Y0367D01*
X0177476Y0369205D02*
X0179795D01*
X0182827Y0371173D02*
X0188Y0366D01*
X0177476Y0371173D02*
X0182827D01*
X0191039Y0373142D02*
X0191181Y0373D01*
X0177476Y0373142D02*
X0191039D01*
X0183251Y037511D02*
X0184724Y0376584D01*
Y0381D01*
Y0384D01*
Y0380276D02*
Y0381D01*
X0177476Y037511D02*
X0183251D01*
X0181079Y0377079D02*
X0182Y0378D01*
X018Y0382D02*
Y0384D01*
Y0382D02*
X0182Y038D01*
Y0378D02*
Y038D01*
X0177476Y0377079D02*
X0181079D01*
X0153Y0360819D02*
Y037D01*
X0154173Y0371173D01*
X0158776D01*
X0146Y036D02*
X015Y0364D01*
Y0375D01*
X0152079Y0377079D01*
X0158776D01*
X0134Y0363D02*
X0145D01*
X0147Y0365D01*
Y0376D01*
X0150047Y0379047D01*
X0158776D01*
X0141189Y0372D02*
X0143Y0370189D01*
X014Y0372D02*
X0141189D01*
X0139929Y0372071D02*
X014Y0372D01*
X013Y0372071D02*
X0139929D01*
X0163205Y0387205D02*
X0164Y0388D01*
X0163205Y0383476D02*
Y0387205D01*
X0178Y0391D02*
X018Y0393D01*
X014426Y039626D02*
X015074D01*
X0156Y0391D01*
X0178D01*
X018Y0393D02*
Y0396D01*
X0087189Y0378D02*
X0091Y0374189D01*
X0098Y037D02*
Y0376D01*
X010037Y037837D01*
X0104D01*
X0137819Y0380819D02*
X0143D01*
X0134056Y0377056D02*
X0137819Y0380819D01*
X0132232Y037522D02*
X0134056Y0377044D01*
X013Y037522D02*
X0132232D01*
X0134056Y0377044D02*
Y0377056D01*
X0112071Y039D02*
Y0396929D01*
X0091Y04D02*
X0153D01*
X014903Y028947D02*
Y0296215D01*
X0147062Y0287438D02*
X01485Y0286D01*
Y0281D02*
Y0286D01*
X0147062Y0287438D02*
Y0296215D01*
X0155Y0284404D02*
X0168715D01*
X0069Y02765D02*
Y0288D01*
Y02765D02*
Y0279311D01*
X00875Y0234D02*
Y0272D01*
X00915Y0276D01*
X0142062Y0274562D02*
X01485Y0281D01*
X0145093Y0284593D02*
Y0296215D01*
X01415Y0281D02*
Y0287D01*
X0143125Y0288625D01*
Y0296215D01*
X00655Y0275811D02*
X0069Y0279311D01*
X01385Y0287D02*
X0141156Y0289656D01*
X01355Y027653D02*
X01385Y027953D01*
X012344Y027653D02*
X01355D01*
X01385Y027953D02*
Y0287D01*
X0141156Y0289656D02*
Y0296215D01*
X0101319Y0283D02*
Y0283181D01*
X0076Y0254D02*
X007935Y025735D01*
Y0265181D01*
X0090689Y0283D02*
X0099127Y0274562D01*
X012344D01*
X00905Y0264D02*
X0097125Y0270625D01*
X01135D01*
X012344D01*
X0103125D02*
X01135D01*
X00965Y0259D02*
X01015Y0264D01*
X01105D01*
X0113188Y0266688D01*
X012344D01*
X01055Y0247181D02*
X0110681D01*
X0112345Y0248845D01*
Y0258845D01*
X0202Y01315D02*
X0215D01*
X0217Y01335D02*
Y0134189D01*
X0215Y01315D02*
X0217Y01335D01*
Y0123811D02*
X0218811D01*
X0222Y0127D01*
X0217Y0113181D02*
X0219181Y0111D01*
X0222D01*
X02Y0142D02*
X0203D01*
Y0143D01*
X0211Y0151D01*
X0081Y0414D02*
X0104D01*
X0078Y0408D02*
X0082Y0404D01*
X0016Y036261D02*
X0032732D01*
X003839Y040139D02*
X0041Y0404D01*
X0153Y04D02*
X0159Y0394D01*
X0085D02*
X0091Y04D01*
X0159Y0394D02*
X0177D01*
X0077D02*
X0085D01*
X016Y0397D02*
X0167D01*
X0078321Y0397679D02*
X0084679D01*
X0167Y0397D02*
X0169Y0399D01*
X0154Y0403D02*
X016Y0397D01*
X009Y0403D02*
X0154D01*
X0084679Y0397679D02*
X009Y0403D01*
X0077Y0399D02*
X0078321Y0397679D01*
X0080099Y0400901D02*
X0083901D01*
X0156Y0406D02*
X0162Y04D01*
X0083901Y0400901D02*
X0089Y0406D01*
X0077Y0404D02*
X0080099Y0400901D01*
X0033716Y0388299D02*
X0052425D01*
X0030709Y0391307D02*
X0033716Y0388299D01*
X0015181Y0167181D02*
X0025D01*
X0092779Y0136221D02*
X0114094D01*
X0153Y0093D02*
X0162Y0084D01*
X0147Y0093D02*
X0153D01*
X0137716Y0102284D02*
X0147Y0093D01*
X019Y0126D02*
Y0131496D01*
Y0121213D02*
Y0126D01*
X0167Y0122441D02*
X0173Y0116441D01*
X015937Y0122441D02*
X0167D01*
X0049Y0156D02*
Y0169016D01*
X0038Y017D02*
X0038984Y0169016D01*
X0049D01*
X0127874Y0103874D02*
Y011063D01*
X0126Y0102D02*
X0127874Y0103874D01*
X0165528Y0120472D02*
X0168Y0118D01*
X015937Y0120472D02*
X0165528D01*
X015937Y0118504D02*
X0163496D01*
X0137716Y0102284D02*
Y011063D01*
X0135748Y0100252D02*
Y011063D01*
Y0100252D02*
X0148Y0088D01*
Y0084D02*
Y0088D01*
X013378Y009822D02*
X0136Y0096D01*
Y0092D02*
Y0096D01*
X013378Y009822D02*
Y011063D01*
X0127Y0166D02*
X0129842Y0163157D01*
Y0155905D02*
Y0163157D01*
X0182Y0154D02*
Y0158D01*
Y0151842D02*
Y0154D01*
X015937Y0146063D02*
X0169063D01*
X0171716Y0132283D02*
X0174Y013D01*
X015937Y0132283D02*
X0171716D01*
X0174748Y0134252D02*
X0177504Y0131496D01*
X015937Y0134252D02*
X0174748D01*
X0177504Y0131496D02*
X0180976D01*
Y0121524D02*
Y0131496D01*
X0182Y0158D02*
X01835Y01565D01*
X0178976Y0148819D02*
X0182Y0151842D01*
X0102Y0028D02*
Y0039D01*
X0098Y0043D02*
X0102Y0039D01*
X0112Y0028D02*
Y0038D01*
X0104Y0046D02*
X0112Y0038D01*
X011Y0049D02*
X0122Y0037D01*
Y0028D02*
Y0037D01*
X003Y0078D02*
X0065Y0043D01*
X0098D01*
X0035Y0078D02*
X0067Y0046D01*
X0104D01*
X0069Y0049D02*
X011D01*
X0041Y0077D02*
X0069Y0049D01*
X0071Y0052D02*
X0114D01*
X0073Y0055D02*
X0116D01*
X0055Y0078D02*
X0075Y0058D01*
X0045Y0078D02*
X0071Y0052D01*
X005Y0078D02*
X0073Y0055D01*
X0075Y0058D02*
X0118D01*
X00805Y00785D02*
X0094D01*
X008Y0078D02*
X00805Y00785D01*
X0178976Y0121524D02*
X01805Y012D01*
X0191Y0149031D02*
Y0159D01*
X0201996Y0131496D02*
X0202Y01315D01*
X01825Y0157D02*
Y0163D01*
X0191213Y0131496D02*
X0201996D01*
X0128Y0098D02*
X0129842Y0099843D01*
Y011063D01*
X0108472Y0120472D02*
X0114094D01*
X0106Y0118D02*
X0108472Y0120472D01*
X0106Y011D02*
Y0118D01*
Y011D02*
X0108Y0108D01*
X0107441Y0122441D02*
X0114094D01*
X0096Y0103D02*
Y0111D01*
X0107441Y0122441D01*
X0099315Y0130315D02*
X0114094D01*
X0097Y0128D02*
X0099315Y0130315D01*
X0093Y013D02*
X0095284Y0132283D01*
X0114094D01*
X0105409Y0124409D02*
X0114094D01*
X0072Y0109716D02*
X0072284Y011D01*
X0091D01*
X0105409Y0124409D01*
X0103378Y0126378D02*
X0114094D01*
X0102347Y0128347D02*
X0114094D01*
X0097659Y0123659D02*
X0102347Y0128347D01*
X0072Y0122709D02*
X0089709D01*
X0093Y0126D02*
Y013D01*
X0089709Y0122709D02*
X0093Y0126D01*
X0072Y0118378D02*
X0090378D01*
X0095659Y0123659D01*
X0097659D01*
X0169063Y0146063D02*
X0176Y0153D01*
X0127874Y0149126D02*
Y0155905D01*
Y0149126D02*
X013Y0147D01*
X0136D02*
X0137716Y0148716D01*
Y0155905D01*
X0125906Y0138189D02*
Y0155905D01*
X015937Y0136221D02*
X0174221D01*
X0178Y014D01*
X0188D01*
X0191213Y0143213D01*
Y0145D01*
X015937Y0138189D02*
X0171189D01*
X0175Y0142D01*
X0030709Y0391307D02*
Y040139D01*
X0033716Y0375701D02*
X0043D01*
X0069Y0426D02*
X0081Y0414D01*
X0104D02*
X0112Y0422D01*
X0096D02*
Y0424D01*
X0098221Y0426221D01*
X0135779D01*
X0138Y0424D01*
Y0422D02*
Y0424D01*
X0214Y0167D02*
X0219Y0172D01*
X0163Y0413D02*
X018Y0396D01*
X0163Y0413D02*
Y0413181D01*
Y0423811D02*
X0187Y0399811D01*
Y0399D02*
Y0399811D01*
X0089Y0406D02*
X0156D01*
X0122Y041D02*
Y0421D01*
Y0422D01*
X012344Y0264719D02*
X0141471D01*
X0145093Y0261097D01*
Y025094D02*
Y0261097D01*
X012344Y0274562D02*
X0142062D01*
X0149907Y0272593D02*
X0168715D01*
X012344Y025494D02*
Y0258814D01*
X0117282Y0260782D02*
X012344D01*
X0116345Y0259845D02*
X0117282Y0260782D01*
X0116345Y0254845D02*
Y0259845D01*
X0116251Y0262751D02*
X012344D01*
X0112345Y0258845D02*
X0116251Y0262751D01*
X0115219Y0264719D02*
X012344D01*
X0111156Y0260656D02*
X0115219Y0264719D01*
X0106345Y0260656D02*
X0111156D01*
X0117818Y0286373D02*
X012344D01*
X0116345Y0287845D02*
X0117818Y0286373D01*
X0145093Y0228407D02*
Y025094D01*
X0133282Y0245707D02*
Y025094D01*
X0132097Y0244521D02*
X0133282Y0245707D01*
X0118Y0058D02*
X012Y0056D01*
X0116Y0055D02*
X0119107Y0051893D01*
X0127Y0067D02*
X0134D01*
X0154Y0047D01*
X0135Y0056D02*
X0151Y004D01*
X012Y0056D02*
X0135D01*
X0151Y0028D02*
Y004D01*
X0132107Y0051893D02*
X0141Y0043D01*
X0119107Y0051893D02*
X0132107D01*
X0141Y0028D02*
Y0043D01*
X0114Y0052D02*
X0118102Y0047898D01*
X01475Y0275D02*
X0149907Y0272593D01*
X0131314Y0249814D02*
Y025094D01*
X002Y0344D02*
X00325D01*
X0067Y0375D02*
X007Y0378D01*
X0067Y0372D02*
Y0375D01*
X007974Y038126D02*
Y0382724D01*
Y0364984D02*
Y0373276D01*
Y0364984D02*
X008Y0364724D01*
X0193181Y0333095D02*
X0196315D01*
X0204583Y0327189D02*
X0207732D01*
Y0339D02*
X0210882D01*
X0207732Y0327189D02*
Y0333D01*
Y0339D01*
X0203Y0333D02*
X0207732D01*
X0201552Y0334448D02*
X0203Y0333D01*
X0201552Y0334448D02*
Y0338881D01*
X0201433Y0339D02*
X0201552Y0338881D01*
X0216Y0333095D02*
X0217094D01*
X0219932Y0335932D01*
Y0343068D01*
X0218Y0345D02*
X0219932Y0343068D01*
X0214032Y0339D02*
Y0344969D01*
X0204583Y0339D02*
Y0344583D01*
X0201433Y0317709D02*
Y0327189D01*
X0200724Y0317D02*
X0201433Y0317709D01*
X0204583Y0317768D02*
Y0327189D01*
Y0317768D02*
X020535Y0317D01*
X0033716Y037885D02*
X004415D01*
X0046Y0377D01*
X0033716Y0382D02*
X0045D01*
X0049Y0378D01*
X004685Y038515D02*
X0052Y038D01*
X007226Y0371071D02*
Y0373276D01*
X0067094Y0365905D02*
X007226Y0371071D01*
X0103921Y0368921D02*
X0104D01*
X0101Y0366D02*
X0103921Y0368921D01*
X0102921D02*
X0103921D01*
X0129Y0358D02*
X0134Y0363D01*
X0129Y0353811D02*
Y0358D01*
X0125992Y0346189D02*
X0129Y0343181D01*
X0080992Y0352D02*
X0092D01*
X0032287Y0185713D02*
X0034412Y0183588D01*
X0063118Y0171382D02*
Y0177382D01*
Y0171382D02*
X00635Y0171D01*
X0089Y014D02*
X0092779Y0136221D01*
X0086Y0131D02*
X0089748D01*
X0093Y0134252D01*
X0114094D01*
X02015Y0167D02*
X0214D01*
X022Y01845D02*
Y0189276D01*
X02065Y0171D02*
X022Y01845D01*
X02015Y01745D02*
X02045D01*
X0212Y0182D01*
Y0189276D01*
X02185Y01585D02*
X0219Y0158D01*
X02065Y01585D02*
X02185D01*
X0153Y0190189D02*
X0165D01*
X0177D02*
X0189D01*
X0201D01*
X0208Y0198D02*
X0212Y0194D01*
X0208Y0198D02*
Y0205D01*
X0166Y0182626D02*
Y0190189D01*
X0165Y0190189D02*
X0177D01*
X0090677Y0145D02*
Y0186677D01*
X008674Y014874D02*
Y01835D01*
X0075Y0175D02*
X0078Y0178D01*
X016226Y0173374D02*
X0162374D01*
X0075Y0161D02*
Y0175D01*
X0082803Y01525D02*
Y0187197D01*
X0099843Y0140157D02*
X0114094D01*
X00865Y01485D02*
X008674Y014874D01*
X01015Y01485D02*
X0105905Y0144095D01*
X00985Y01485D02*
X01015D01*
X0102Y01515D02*
X01035Y015D01*
X0107437Y0146063D01*
X0101Y01525D02*
X01035Y015D01*
X0099Y01525D02*
X0101D01*
X0098Y01565D02*
X0101D01*
X016Y0114D02*
Y0117874D01*
X015937Y0118504D02*
X016Y0117874D01*
X0168Y01155D02*
Y0118D01*
X0203Y01215D02*
Y0130189D01*
X0150094Y0144095D02*
X015937D01*
X015Y0144D02*
X0150094Y0144095D01*
X0098437Y0166563D02*
Y0186551D01*
X0131811Y0095D02*
Y011063D01*
X0066817Y0180183D02*
X00745D01*
X00995Y0161D02*
X01135D01*
X0118Y01565D01*
X0101D02*
X0109468Y0148031D01*
X0114094D01*
X0075Y0184D02*
X0078Y0181D01*
X0075Y0184D02*
Y0187D01*
X0078Y0178D02*
Y0181D01*
X0079Y0183403D02*
Y0185D01*
Y01565D02*
Y0174097D01*
X0080452Y0175548D01*
X0079Y0183403D02*
X0080452Y0181952D01*
Y0175548D02*
Y0181952D01*
X02065Y02065D02*
X0208Y0205D01*
X02Y02065D02*
X02065D01*
X01975Y0209D02*
X02Y02065D01*
X022Y0194D02*
Y0197D01*
X02185Y01985D02*
X022Y0197D01*
X02115Y01995D02*
X02125Y01985D01*
X02185D01*
X0186126Y0220126D02*
X0189252Y0217D01*
X0176Y0153D02*
Y0163D01*
X0173Y01555D02*
Y01635D01*
X02Y0171D02*
X02065D01*
X016974Y0173374D02*
X0172626D01*
X0179Y01695D02*
X01985D01*
X02Y0171D01*
X01685Y0179D02*
X0180189D01*
X01625Y0173D02*
X01685Y0179D01*
X0172626Y0173374D02*
X01735Y01725D01*
X0173Y01635D02*
X01785Y0169D01*
X0179Y01695D01*
X0176Y0163D02*
X018Y0167D01*
X02015D01*
X019Y0178181D02*
X0190819Y0179D01*
X0173Y0106D02*
Y0116441D01*
X0032287Y0185713D02*
Y0192287D01*
X00345Y01945D01*
X0015Y0184D02*
X0028Y0197D01*
X01225Y0207D02*
Y0239404D01*
X0032Y02015D02*
X0034Y01995D01*
X0091Y022D02*
X00965Y02255D01*
X0017Y022D02*
X0091D01*
X00965Y02255D02*
Y0237D01*
Y0259D01*
X002Y02235D02*
X00895D01*
X00935Y02275D01*
X0023Y02265D02*
X00855D01*
X00905Y02315D02*
Y0249D01*
X00855Y02265D02*
X00905Y02315D01*
X002Y023D02*
X00835D01*
X00875Y0234D01*
X0219181Y0147D02*
X0222D01*
X0217Y0144819D02*
X0219181Y0147D01*
X01975Y0209D02*
Y0224D01*
X01555Y02275D02*
X0199D01*
X0201Y02255D01*
Y02115D02*
Y02255D01*
X0147062Y0235938D02*
Y025094D01*
Y0235938D02*
X01555Y02275D01*
X0017Y02845D02*
X0053D01*
X0014Y028D02*
X0053D01*
X0052782Y0303218D02*
X00575Y02985D01*
X0049Y0332D02*
X0052782Y0328218D01*
Y0303218D02*
Y0328218D01*
X004Y0344D02*
X0041D01*
X0056Y03045D02*
X0059Y03015D01*
X0041Y0344D02*
X0056Y0329D01*
Y03045D02*
Y0329D01*
X0131314Y0296215D02*
Y0302186D01*
X00635Y0304D02*
X01295D01*
X0060852Y0306648D02*
X00635Y0304D01*
X01295D02*
X0131314Y0302186D01*
X0133282Y0296215D02*
Y0303718D01*
X013Y0307D02*
X0133282Y0303718D01*
X0137219Y0296215D02*
Y0303781D01*
X0131Y031D02*
X0137219Y0303781D01*
X0139188Y0296215D02*
Y0306312D01*
X01325Y0313D02*
X0139188Y0306312D01*
X0052Y03505D02*
Y038D01*
X0049Y03485D02*
Y0378D01*
X0046Y0347D02*
Y0377D01*
X0043Y0346D02*
Y0375701D01*
X0052Y03505D02*
X0060926Y0341574D01*
X0049Y03485D02*
X00645Y0333D01*
X0043Y0346D02*
X0059Y033D01*
Y03135D02*
Y033D01*
Y03135D02*
X00655Y0307D01*
X013D01*
X0067Y031D02*
X0131D01*
X014903Y023847D02*
Y025094D01*
Y023847D02*
X01525Y0235D01*
X0150999Y0242001D02*
X01565Y02365D01*
Y02315D02*
Y02365D01*
X0150999Y0242001D02*
Y025094D01*
X0152967Y0243533D02*
Y025094D01*
Y0243533D02*
X01615Y0235D01*
Y02315D02*
Y0235D01*
X005Y02335D02*
Y02495D01*
X005625Y023375D02*
Y0249D01*
X0061Y03865D02*
Y0404D01*
Y03865D02*
X0063Y03845D01*
X0071Y03915D02*
Y0404D01*
X00665Y0387D02*
X0071Y03915D01*
X006Y0353D02*
Y0372D01*
X00665Y03785D01*
Y0387D01*
X0056Y03555D02*
Y03725D01*
X0063Y03795D01*
Y03845D01*
X01655Y0236D02*
X01715Y023D01*
X0201D01*
X01275Y0336D02*
X01295Y0334D01*
X01645Y0297D02*
Y0319D01*
X0150999Y0296215D02*
Y0302501D01*
X0168715Y0286373D02*
X0174373D01*
X01755Y02875D01*
X0168715Y0284404D02*
X0176404D01*
X0178Y0286D01*
X0169Y0288626D02*
Y0319D01*
X0168715Y0288341D02*
X0169Y0288626D01*
X01755Y02875D02*
Y029D01*
X01735Y0292D02*
Y0319D01*
Y0292D02*
X01755Y029D01*
X0178Y0286D02*
Y0319D01*
X0149Y03045D02*
X0150999Y0302501D01*
X01485Y0305D02*
X0149Y03045D01*
X0152967Y0296215D02*
Y0305033D01*
X0152Y0306D02*
X0152967Y0305033D01*
X0152Y0306D02*
Y0308D01*
X0209D02*
X02095D01*
X0214032Y0313032D02*
Y0327189D01*
X0209Y0308D02*
X0214032Y0313032D01*
X02055Y03095D02*
X0210882Y0314882D01*
Y0327189D01*
X02105Y024D02*
X0214D01*
X0204Y02465D02*
X02105Y024D01*
X0168715Y0274562D02*
X0177938D01*
X01815Y0271D01*
X0187181D01*
X0161Y02395D02*
X01725D01*
X0176Y0236D02*
X01885D01*
X01725Y02395D02*
X0176Y0236D01*
X0168715Y0278499D02*
X0179499D01*
X01795Y02785D01*
X020075Y030475D02*
X02055Y03095D01*
X02005Y0299D02*
X0205Y03035D01*
X0168715Y0282436D02*
X018D01*
X0105Y0346189D02*
X0108008Y0343181D01*
X0134181Y0345181D02*
X0141D01*
X01115Y03345D02*
X01205D01*
X01035Y03425D02*
X01115Y03345D01*
X013325Y032625D02*
X01375Y0322D01*
X01205Y03345D02*
X012875Y032625D01*
X013325D01*
X0107811Y0318189D02*
X0115D01*
X0102Y0324D02*
X0107811Y0318189D01*
X0075811Y0346189D02*
X009D01*
X0105D01*
X009Y0337D02*
Y0346189D01*
Y0337D02*
X0092Y0335D01*
Y0324D02*
Y0335D01*
X0068819Y0353181D02*
X0075811Y0346189D01*
X0108008Y0343181D02*
X0127D01*
X0129D01*
X01055Y029D02*
X01075Y0288D01*
X00995Y029D02*
X01055D01*
X0091Y02985D02*
X00995Y029D01*
X00575Y02985D02*
X0091D01*
X011325Y028725D02*
Y029225D01*
X01Y02945D02*
X0111D01*
X0093Y03015D02*
X01Y02945D01*
X0111D02*
X011325Y029225D01*
X0059Y03015D02*
X0093D01*
X0116345Y0287845D02*
Y02975D01*
X0205Y03035D02*
X02095D01*
X02225Y03165D01*
X0155181Y0335D02*
X0167181Y0323D01*
X0182D02*
X0187Y0318D01*
Y0299811D02*
Y0318D01*
X0167181Y0323D02*
X0182D01*
X02005Y0282499D02*
Y0299D01*
X0179499Y0278499D02*
X01965D01*
X02005Y0282499D01*
X00935Y02275D02*
Y0261D01*
X01095Y0268656D02*
X012344D01*
X0109156D02*
X01095D01*
X0099557Y02665D02*
X0107D01*
X00935Y0261D02*
X0099278Y0266778D01*
X0099557Y02665D01*
X0107D02*
X0109156Y0268656D01*
X0034Y01995D02*
X0115D01*
X006Y0078D02*
X0079D01*
X0115Y01995D02*
X01225Y0207D01*
X0028Y0197D02*
X0117D01*
X01245Y02045D01*
X0125D02*
Y02375D01*
X01245Y02045D02*
X0125D01*
X00345Y01945D02*
X01195D01*
X0127Y0202D01*
X01275D02*
Y0236D01*
X0127Y0202D02*
X01275D01*
X01735Y01725D02*
X0184319D01*
X0190819Y0179D01*
X0191819Y018D02*
X02015D01*
X0190819Y0179D02*
X0191819Y018D01*
X0132Y0028D02*
Y0034D01*
X0118102Y0047898D02*
X0132Y0034D01*
X0188Y0366D02*
X0201811D01*
X0195Y0383374D02*
Y039D01*
X0187716Y0333095D02*
X0196315D01*
X0185811Y0335D02*
X0187716Y0333095D01*
X0168189Y0347D02*
X0187406D01*
X0168189D02*
Y0353D01*
X0175181Y0335D02*
X0181181Y0341D01*
X01915D02*
X0198Y03475D01*
X0181181Y0341D02*
X01915D01*
X0195Y035D02*
X02085D01*
X0213Y03545D01*
Y03705D01*
X0215972Y0385972D02*
X0222Y0392D01*
X0213Y03705D02*
X0215972Y0373472D01*
Y0385972D01*
X0187406Y0347D02*
X0193Y0352594D01*
X0195405D01*
X0200095D02*
X02015Y0354D01*
Y0358689D02*
X0201811Y0359D01*
X0155Y0347D02*
X0168189D01*
X0195405Y0352594D02*
X0200095D01*
X02015Y0354D02*
Y0358689D01*
X0188941Y034394D02*
X0195Y035D01*
X0188881Y0344D02*
X0188941Y034394D01*
X01785Y0344D02*
X0188881D01*
X01775Y0343D02*
X01785Y0344D01*
X0175181Y0335D02*
Y0336319D01*
X01695Y0342D02*
X0175181Y0336319D01*
X0147Y0342D02*
X01695D01*
X0198Y03475D02*
X02105D01*
X0218Y0355D02*
Y036D01*
X02105Y03475D02*
X0218Y0355D01*
X0165811Y0331189D02*
Y0335D01*
Y0331189D02*
X01705Y03265D01*
X0185D01*
X019Y03215D01*
X0193216D01*
X0138Y03265D02*
X01405D01*
X01495Y03175D02*
X0153973D01*
X01405Y03265D02*
X01495Y03175D01*
X0156973Y0296284D02*
Y03145D01*
X0153973Y03175D02*
X0156973Y03145D01*
X0158873Y0296215D02*
Y03165D01*
X0154373Y0321D02*
X0158873Y03165D01*
X01505Y0321D02*
X0154373D01*
X01415Y033D02*
X01505Y0321D01*
X0131Y033D02*
X01415D01*
X01295Y0334D02*
X0142D01*
X01515Y03245D01*
X01555D01*
X0160841Y0296215D02*
Y0319159D01*
X01555Y03245D02*
X0160841Y0319159D01*
D28*
X0201811Y0383374D02*
X021226D01*
X018937Y0384D02*
X0189996Y0383374D01*
X0017Y00385D02*
Y00565D01*
X00215Y0061D01*
X0031D01*
X00215Y0034D02*
X0027D01*
X0017Y00385D02*
X00215Y0034D01*
X0031Y0061D02*
X0034Y0058D01*
X0011Y0032D02*
Y0084D01*
X0091Y0094D02*
X0097D01*
X0025Y01115D02*
X0031114Y0105386D01*
X0072D01*
X0024Y0135D02*
X0044953Y0114047D01*
X0024Y0135D02*
Y01385D01*
X0044953Y0114047D02*
X0072D01*
X0107Y0067D02*
X0109Y0069D01*
X0107Y0067D02*
Y00905D01*
X0105142Y0092642D02*
X0108Y00955D01*
X0097Y0092642D02*
X0105142D01*
X004Y02105D02*
X00475D01*
X0107Y0067D02*
X0117D01*
X0109Y0094189D02*
Y00945D01*
X0061Y01435D02*
Y01535D01*
Y01435D02*
X00675Y0137D01*
X00835D01*
X0081953Y0114047D02*
X0082Y0114D01*
X0072Y0114047D02*
X0081953D01*
X0072Y0105386D02*
X0086614D01*
X00895Y00955D02*
X0091Y0094D01*
X00895Y00955D02*
Y01025D01*
X0086614Y0105386D02*
X00895Y01025D01*
X00215Y03365D02*
X0026D01*
X0012189Y0345811D02*
X00215Y03365D01*
X0012189Y0345811D02*
Y0351D01*
X0219811Y0283689D02*
X02205Y0283D01*
X0219811Y0283689D02*
Y0297D01*
X0089319Y0295D02*
X0101319Y0283D01*
X0203Y02355D02*
X0211Y02275D01*
X0211311Y0227811D02*
X0219D01*
X0193Y02355D02*
X0203D01*
X0164Y0223D02*
X0193D01*
X0056Y0210181D02*
X0056819Y0211D01*
X0056Y0205D02*
Y0210181D01*
X00535Y02025D02*
X0056Y0205D01*
X0044Y02025D02*
X00535D01*
X01305Y0191D02*
X0146816Y0207315D01*
X0171316D01*
X0178Y0214D01*
X0095Y0397D02*
X0112D01*
X0091Y0384819D02*
Y0393D01*
X0095Y0397D01*
X0085Y0387D02*
Y0391D01*
Y0387D02*
X0088819D01*
X0076535D02*
X0085D01*
X007226Y0382724D02*
X0076535Y0387D01*
X0112Y0397D02*
X0112071Y0396929D01*
X0112Y0397D02*
X0132D01*
X0011Y0327D02*
X004D01*
X00955Y0289D02*
X0101319Y0283181D01*
X00835Y0275811D02*
X0090689Y0283D01*
X00795Y0275811D02*
X00835D01*
X00655Y0265D02*
X00665D01*
X00655D02*
Y0265181D01*
Y0257D02*
Y0265D01*
Y0257D02*
X00685Y0254D01*
X0077311Y0275811D02*
X00795D01*
X00665Y0265D02*
X0077311Y0275811D01*
X00765Y0278811D02*
X00795Y0275811D01*
X00765Y0278811D02*
Y0288D01*
X0016Y036261D02*
X0021Y036761D01*
X0016Y040139D02*
X0030709D01*
X003839D01*
X0051Y0404D02*
Y0415D01*
X0188189Y0045D02*
X0189Y0045811D01*
X0173Y0045D02*
X0188189D01*
X0173D02*
Y005D01*
Y00335D02*
Y0045D01*
X01705Y00335D02*
X0173D01*
X0159Y0052D02*
X0171D01*
X0172Y0062D02*
X0173Y0061D01*
X0159Y0062D02*
X0172D01*
X0199Y0095181D02*
X02Y0094181D01*
Y0088D02*
Y0094181D01*
X0213Y0081898D02*
Y0092D01*
Y0081898D02*
X0215449Y0079449D01*
X02025Y0104D02*
X021D01*
X02Y01065D02*
X02025Y0104D01*
X0205181Y0046819D02*
X0216Y0036D01*
X0203Y0046819D02*
X0205181D01*
X02015Y0048319D02*
X0203Y0046819D01*
X02015Y0048319D02*
Y0060551D01*
X0201992Y0035181D02*
X0203Y0036189D01*
X0189Y0035181D02*
X0201992D01*
X0108Y00955D02*
X0109Y00945D01*
X0094Y0066D02*
X0095Y0067D01*
X0031Y00145D02*
Y0023D01*
X0036Y0024D02*
X004Y0028D01*
X0036Y00145D02*
Y0024D01*
X00585Y0156D02*
X0061Y01535D01*
X0173Y00335D02*
X0178D01*
X0159Y0062D02*
X0159318D01*
X01965Y0060551D02*
Y00675D01*
X01705D02*
X01915D01*
Y0072D01*
Y0060551D02*
Y00675D01*
X02015Y00735D02*
Y0079449D01*
X02Y0072D02*
X02015Y00735D01*
X01915Y0072D02*
X02D01*
X01915D02*
Y0079449D01*
X0176Y00935D02*
X01875D01*
X0176Y008D02*
Y00935D01*
X01875Y00485D02*
X0192D01*
X01915Y0060551D02*
Y00645D01*
Y0049D02*
X0192Y00485D01*
X01915Y0049D02*
Y0060551D01*
X0216Y00485D02*
Y007D01*
X02015Y0079449D02*
X0215449D01*
X01965Y00845D02*
X02Y0088D01*
X01965Y0079449D02*
Y00845D01*
X0188Y0104D02*
X02D01*
X0049Y0039D02*
Y0053D01*
X0027Y0044D02*
X0039D01*
X0011Y0032D02*
X0016Y0027D01*
X0063Y0023D02*
Y0035D01*
X0196Y0018D02*
Y0025D01*
X0193Y0028D02*
X0196Y0025D01*
X01835Y0028D02*
X0193D01*
X0178Y00335D02*
X01835Y0028D01*
X0163Y0026D02*
X01705Y00335D01*
X0178Y0026D02*
X0186Y0018D01*
X0173Y0026D02*
X0178D01*
X0092Y0028D02*
Y0039D01*
X0046Y0035D02*
X0063D01*
X0039Y0042D02*
X0046Y0035D01*
X0039Y0042D02*
Y0064D01*
X0148Y00715D02*
X01665D01*
X01705Y00675D01*
X0139Y008D02*
X0143Y0084D01*
X0148D01*
X0033716Y0375701D02*
X0040299D01*
X0081Y0409D02*
X0102D01*
X0068Y0422D02*
X0081Y0409D01*
X0036Y0422D02*
X0068D01*
X0132Y0397D02*
X0141Y0388D01*
X0048Y0418D02*
X0051Y0415D01*
X0026886Y0418D02*
X0048D01*
X002226Y0413374D02*
X0026886Y0418D01*
X0017374Y0413374D02*
X002226D01*
X0015Y0411D02*
X0017374Y0413374D01*
X0021Y036761D02*
Y039639D01*
X0016Y040139D02*
X0021Y039639D01*
X0095Y0067D02*
X0099D01*
X0107D01*
X0117D02*
X0124Y006D01*
X0139Y0069D02*
Y008D01*
Y0069D02*
X0146Y0062D01*
X0159D01*
X0136Y006D02*
X0148Y0048D01*
X0124Y006D02*
X0136D01*
X0148Y0412626D02*
Y0422D01*
X0148Y0422D02*
X0148Y0422D01*
X0053Y0214819D02*
Y0217D01*
Y0214819D02*
X0056819Y0211D01*
X00475Y0212311D02*
Y0217D01*
X0046189Y0211D02*
X00475Y0212311D01*
X0036Y0191D02*
X01305D01*
X02085Y0213D02*
X0215Y02065D01*
X02045Y0213D02*
X02085D01*
X0133181Y0223319D02*
Y0229D01*
Y0223319D02*
X01355Y0221D01*
X0162D01*
X0164Y0223D01*
X00575Y0288D02*
X00645Y0295D01*
X0211Y026D02*
X0214D01*
X0213Y0271D02*
X0214Y027D01*
X0197811Y0271D02*
X0213D01*
X02005Y02495D02*
X0211Y026D01*
X02005Y02415D02*
Y02495D01*
X0199Y024D02*
X02005Y02415D01*
X0186Y024D02*
X0199D01*
X00645Y0295D02*
X0082D01*
X0089319D01*
X003Y0275D02*
X0054D01*
X00575Y02785D02*
Y0288D01*
X0054Y0275D02*
X00575Y02785D01*
X0025Y0288D02*
X00515D01*
X00575Y0294D01*
X0214Y027D02*
X02205D01*
X0209181Y0297D02*
X02155Y0303319D01*
Y0304D01*
X0209181Y0283D02*
Y029D01*
Y0297D01*
X0025Y0265181D02*
X00655D01*
X0025Y0317D02*
X004D01*
X0189996Y0383374D02*
X0195D01*
X0201811D01*
Y0366D02*
Y0373D01*
Y0383374D01*
Y0361689D02*
Y0366D01*
X0016Y0027D02*
X00315D01*
X0037Y00325D02*
X00425D01*
X00315Y0027D02*
X0037Y00325D01*
X00485Y0022D02*
Y00295D01*
X00425Y00325D02*
X0045Y003D01*
X0058D01*
X00165Y0084D02*
Y00855D01*
X0011Y0091D02*
X00165Y00855D01*
X0011Y03105D02*
X0023Y03225D01*
X0011Y0091D02*
Y03105D01*
D31*
X000767Y002933D02*
X0024751Y0012249D01*
X-0089Y0459D02*
X-0088Y046D01*
X0055Y002D02*
X0076D01*
X0157D02*
X0179D01*
X0157Y0007D02*
Y002D01*
X0076Y0007D02*
X0157D01*
X0076D02*
Y002D01*
X000767Y002933D02*
Y00355D01*
X0196307Y00075D02*
X0225D01*
X0025Y00015D02*
X003D01*
X0179Y00075D02*
Y002D01*
Y00075D02*
X0196307D01*
X0055Y00015D02*
Y002D01*
X0225Y0035D02*
Y04375D01*
X003Y00015D02*
X0055D01*
X0024751D02*
Y0009249D01*
X0077Y04285D02*
Y0437D01*
Y04285D02*
X01575D01*
Y04375D01*
X0225D01*
X0024751Y0009249D02*
Y0012249D01*
X0225Y00075D02*
Y0035D01*
X000767Y0437D02*
X0077D01*
X000767Y00355D02*
Y0437D01*
D32*
X0164188Y0257436D02*
G03*
X0164188Y0257436I-0001969J0D01*
G01*
X0122559Y0117126D02*
G03*
X0122559Y0117126I-0001969J0D01*
G01*
X0189669Y0074331D02*
G03*
X0189669Y0074331I-0001969J0D01*
G01*
X0126392Y0253892D02*
X0165762D01*
X0126392Y0293263D02*
X0165762D01*
Y0253892D02*
Y0293263D01*
X0126392Y0253892D02*
Y0293263D01*
X0059543Y0375898D02*
Y0388102D01*
X0052457Y0375898D02*
Y0388102D01*
Y0375898D02*
X0059543D01*
X0052457Y0388102D02*
X0059543D01*
X0117047Y0113583D02*
Y0152953D01*
X0156417Y0113583D02*
Y0152953D01*
X0117047Y0113583D02*
X0156417D01*
X0117047Y0152953D02*
X0156417D01*
X0069898Y0374457D02*
X0082102D01*
X0069898Y0381543D02*
X0082102D01*
Y0374457D02*
Y0381543D01*
X0069898Y0374457D02*
Y0381543D01*
X0203842Y0062126D02*
Y0077874D01*
X0184158Y0062126D02*
Y0077874D01*
Y0062126D02*
X0203842D01*
X0184158Y0077874D02*
X0203842D01*
X01197Y02472D02*
X0172455D01*
X01197Y0299955D02*
X0172455D01*
Y02472D02*
Y0299955D01*
X01197Y02472D02*
Y0299955D01*
X0146077Y0271609D02*
Y0275546D01*
X0144109Y0273577D02*
X0148046D01*
X0063874Y0374913D02*
Y0389087D01*
X0048126Y0374913D02*
Y0389087D01*
Y0374913D02*
X0063874D01*
X0048126Y0389087D02*
X0063874D01*
X0054031Y0382D02*
X0057968D01*
X0056Y0380031D02*
Y0383968D01*
X0110354Y010689D02*
Y0159646D01*
X016311Y010689D02*
Y0159646D01*
X0110354Y010689D02*
X016311D01*
X0110354Y0159646D02*
X016311D01*
X0134764Y0133268D02*
X0138701D01*
X0136732Y0131299D02*
Y0135236D01*
X0068913Y0370126D02*
X0083087D01*
X0068913Y0385874D02*
X0083087D01*
Y0370126D02*
Y0385874D01*
X0068913Y0370126D02*
Y0385874D01*
X0076Y0376031D02*
Y0379969D01*
X0074032Y0378D02*
X0077969D01*
X0192032Y007D02*
X0195968D01*
X0194Y0068032D02*
Y0071969D01*
X0204827Y0055236D02*
Y0084764D01*
X0183173Y0055236D02*
Y0084764D01*
Y0055236D02*
X0204827D01*
X0183173Y0084764D02*
X0204827D01*
D33*
X00155Y0429D02*
D03*
X02175Y00155D02*
D03*
X0217Y04295D02*
D03*
D34*
X0027Y0034D02*
D03*
X0187Y0413D02*
D03*
D35*
X0027Y0044D02*
D03*
Y0054D02*
D03*
X0201Y0413D02*
D03*
Y0399D02*
D03*
X0187D02*
D03*
X0173Y0026D02*
D03*
D36*
X0107Y0067D02*
D03*
X0127D02*
D03*
D37*
X0159Y0062D02*
D03*
Y0052D02*
D03*
D38*
Y0042D02*
D03*
D39*
X0163Y0026D02*
D03*
D40*
X0217Y0402D02*
D03*
X01345Y0238D02*
D03*
X0152936Y03135D02*
D03*
X00835Y0137D02*
D03*
X0082Y0114D02*
D03*
X0087Y0128D02*
D03*
X0097Y0094D02*
D03*
X0196Y0018D02*
D03*
X0026Y03365D02*
D03*
X0023Y03225D02*
D03*
X02155Y0345D02*
D03*
X02095Y0339D02*
D03*
Y02495D02*
D03*
X0204Y02465D02*
D03*
X01645Y0297D02*
D03*
X0159Y02805D02*
D03*
X0138Y03265D02*
D03*
X0131Y033D02*
D03*
X01275Y0336D02*
D03*
X01085Y028D02*
D03*
X0193Y0223D02*
D03*
Y02355D02*
D03*
X01715Y02345D02*
D03*
X0222Y0209D02*
D03*
X01515Y0278D02*
D03*
X00985Y01485D02*
D03*
X01005Y01445D02*
D03*
X013Y01875D02*
D03*
X0133Y0132283D02*
D03*
X0132886Y0143D02*
D03*
X01065Y01865D02*
D03*
X0102374Y0183012D02*
D03*
X0098437Y0186551D02*
D03*
X0044Y038515D02*
D03*
X0191181Y0359D02*
D03*
X0185Y0389D02*
D03*
X0182Y0363D02*
D03*
X008Y0382D02*
D03*
X0155Y0284404D02*
D03*
X01585Y0288D02*
D03*
X011Y02905D02*
D03*
X01415Y0281D02*
D03*
X0145093Y0284593D02*
D03*
X00795Y0265D02*
D03*
X00915Y0276D02*
D03*
X01655Y0236D02*
D03*
X02015Y01745D02*
D03*
Y0167D02*
D03*
X02065Y0171D02*
D03*
X0211Y0151D02*
D03*
X0036Y0422D02*
D03*
X0021Y0391D02*
D03*
X001Y0411D02*
D03*
X0015D02*
D03*
X014426Y039626D02*
D03*
X002974Y040226D02*
D03*
X0032Y039D02*
D03*
X0082Y0404D02*
D03*
X0141Y0388D02*
D03*
X0085Y0391D02*
D03*
X0162Y04D02*
D03*
X0191Y04335D02*
D03*
X019Y0126D02*
D03*
X004Y0028D02*
D03*
X0044Y01785D02*
D03*
X02065Y01585D02*
D03*
X0222Y0127D02*
D03*
Y0111D02*
D03*
X0049Y0156D02*
D03*
X0148Y0083D02*
D03*
X0099Y0067D02*
D03*
X01255Y01015D02*
D03*
X01105Y01025D02*
D03*
X00995Y01065D02*
D03*
X00945Y014D02*
D03*
X0067055Y0180055D02*
D03*
X0127Y0166D02*
D03*
X016Y0114D02*
D03*
X0168Y01155D02*
D03*
X0136Y0092D02*
D03*
X0132Y0095D02*
D03*
X00985Y0167D02*
D03*
X00945Y0183D02*
D03*
X013Y0178D02*
D03*
X0126Y0174D02*
D03*
X0122Y017D02*
D03*
X0215Y01315D02*
D03*
X0175Y0142D02*
D03*
X0182Y0154D02*
D03*
X0175Y0129D02*
D03*
X0154Y0047D02*
D03*
X0055Y0078D02*
D03*
X0035D02*
D03*
X01965Y00675D02*
D03*
X01915Y0079449D02*
D03*
X0049Y0039D02*
D03*
X0031Y0023D02*
D03*
X0058Y003D02*
D03*
X0011Y0327D02*
D03*
X0063Y0035D02*
D03*
Y0023D02*
D03*
X0082D02*
D03*
X0092Y0039D02*
D03*
X0034Y0058D02*
D03*
X0049Y0053D02*
D03*
X0039Y0064D02*
D03*
X0011Y0084D02*
D03*
X003Y0078D02*
D03*
X004D02*
D03*
X0045D02*
D03*
X005D02*
D03*
X008Y0068D02*
D03*
X006Y0078D02*
D03*
X0203Y0142D02*
D03*
X0128Y0098D02*
D03*
X0138Y01885D02*
D03*
X0137672Y0183919D02*
D03*
X012611Y01835D02*
D03*
X0097Y0128D02*
D03*
X0088Y0114D02*
D03*
X0085Y0101D02*
D03*
X0043Y0375701D02*
D03*
X0077Y0404D02*
D03*
Y0399D02*
D03*
Y0394D02*
D03*
X0177D02*
D03*
X0169Y0399D02*
D03*
X0086Y0422D02*
D03*
X0148Y0412626D02*
D03*
X0102Y0409D02*
D03*
X0122Y04105D02*
D03*
X0222Y0147D02*
D03*
X0211Y02275D02*
D03*
X01475Y0275D02*
D03*
X01375Y0278D02*
D03*
X0123345Y0254845D02*
D03*
X0116345D02*
D03*
X01525Y0235D02*
D03*
X0148Y0048D02*
D03*
X00375Y02965D02*
D03*
X0041Y03065D02*
D03*
X0011Y0342D02*
D03*
X002Y0344D02*
D03*
X00325D02*
D03*
X004D02*
D03*
X0067Y0372D02*
D03*
X0195Y0383374D02*
D03*
X0091Y0373D02*
D03*
X01045Y0357D02*
D03*
X0196Y0317D02*
D03*
X0093Y03425D02*
D03*
Y03505D02*
D03*
X00635Y0171D02*
D03*
X0063118Y0177382D02*
D03*
X00745Y018D02*
D03*
X004Y02105D02*
D03*
X0219Y0217D02*
D03*
X0155Y0199D02*
D03*
X01655Y02005D02*
D03*
X01765Y0201D02*
D03*
X01885Y02005D02*
D03*
X01985D02*
D03*
X008674Y01835D02*
D03*
X0090677Y0186677D02*
D03*
X0082803Y0187197D02*
D03*
X0075Y0187D02*
D03*
X0090677Y0145D02*
D03*
X00865Y01485D02*
D03*
X0082803Y01525D02*
D03*
X0079Y01565D02*
D03*
X02015Y018D02*
D03*
X0075Y0161D02*
D03*
X0203Y01215D02*
D03*
X01625Y0173D02*
D03*
X015Y0144D02*
D03*
X00995Y0161D02*
D03*
X01Y01525D02*
D03*
X0098Y01565D02*
D03*
X0118D02*
D03*
X0044Y02025D02*
D03*
X0053Y0217D02*
D03*
X00165Y0084D02*
D03*
X0036Y0191D02*
D03*
X0079Y0185D02*
D03*
X0215Y02065D02*
D03*
X02045Y0213D02*
D03*
X0189252Y0217D02*
D03*
X0032Y02015D02*
D03*
X01975Y0224D02*
D03*
X01885Y0236D02*
D03*
X0025Y0265D02*
D03*
X003Y0275D02*
D03*
X0066Y02765D02*
D03*
X0053Y028D02*
D03*
Y02845D02*
D03*
X0036Y0337D02*
D03*
X0060852Y0306648D02*
D03*
Y03415D02*
D03*
X01565Y02315D02*
D03*
X01615Y02305D02*
D03*
X005Y02335D02*
D03*
X005625Y023375D02*
D03*
X005Y02495D02*
D03*
X005625Y0249D02*
D03*
X0056Y03555D02*
D03*
X006Y0353D02*
D03*
X01645Y0319D02*
D03*
X0149Y03045D02*
D03*
X0152Y0308D02*
D03*
X0169Y0319D02*
D03*
X01735D02*
D03*
X0178D02*
D03*
X0209Y0308D02*
D03*
X020075Y030475D02*
D03*
X0186Y024D02*
D03*
X018Y0282436D02*
D03*
X0134181Y0345181D02*
D03*
X01375Y0322D02*
D03*
X0082Y0295D02*
D03*
Y032D02*
D03*
X0025Y0288D02*
D03*
X00575Y0294D02*
D03*
X0072Y032D02*
D03*
X0115Y0329D02*
D03*
X01235Y02975D02*
D03*
X0116345D02*
D03*
X0092Y0321D02*
D03*
X0102Y03215D02*
D03*
X0141858Y0225D02*
D03*
X02205Y027D02*
D03*
X021925Y02855D02*
D03*
X02155Y0304D02*
D03*
X0209181Y029D02*
D03*
X0187D02*
D03*
X0025Y0317D02*
D03*
X0201811Y0359D02*
D03*
X0156Y0335D02*
D03*
X01775Y0343D02*
D03*
X0218Y036D02*
D03*
D41*
X002Y02235D02*
D03*
X0014Y028D02*
D03*
X0017Y02845D02*
D03*
Y022D02*
D03*
X0023Y02265D02*
D03*
X002Y023D02*
D03*
D42*
X00475Y0217D02*
D03*
X0181228Y021685D02*
D03*
X01418Y0211D02*
D03*
D43*
X006Y0382D02*
D03*
D44*
X0096Y0422D02*
D03*
X0086D02*
D03*
X0148D02*
D03*
X0138D02*
D03*
X0216Y0036D02*
D03*
Y00485D02*
D03*
D45*
X0122Y0421D02*
D03*
X0112D02*
D03*
D46*
X0033716Y0388299D02*
D03*
Y038515D02*
D03*
Y0382D02*
D03*
Y037885D02*
D03*
Y0375701D02*
D03*
D47*
X0016Y040139D02*
D03*
Y036261D02*
D03*
D48*
X0030709Y040139D02*
D03*
D49*
X0032732Y036261D02*
D03*
D50*
X018937Y0384D02*
D03*
X018D02*
D03*
X0184724D02*
D03*
X02054Y0317D02*
D03*
X0196D02*
D03*
X0200724D02*
D03*
D51*
X0212Y0194D02*
D03*
Y0189276D02*
D03*
X022Y0194D02*
D03*
Y0189276D02*
D03*
D52*
X0219Y0172D02*
D03*
Y0158D02*
D03*
X0038Y017D02*
D03*
D53*
X0182189Y0133D02*
D03*
X0192819D02*
D03*
Y014685D02*
D03*
X0182189Y0147D02*
D03*
D54*
X0158776Y0379047D02*
D03*
Y0377079D02*
D03*
Y0369205D02*
D03*
Y0371173D02*
D03*
Y037511D02*
D03*
Y0373142D02*
D03*
X0177476Y0379047D02*
D03*
Y0377079D02*
D03*
Y0369205D02*
D03*
Y0371173D02*
D03*
Y037511D02*
D03*
Y0373142D02*
D03*
D55*
X0163205Y0383476D02*
D03*
X0165173D02*
D03*
X0173047D02*
D03*
X0171079D02*
D03*
X0167142D02*
D03*
X016911D02*
D03*
X0169602Y0364858D02*
D03*
X0167634D02*
D03*
X0171571D02*
D03*
X0173539D02*
D03*
X0165665D02*
D03*
X0163697D02*
D03*
D56*
X0160252Y0366252D02*
D03*
X0176D02*
D03*
Y0382D02*
D03*
X0160252D02*
D03*
X0129345Y029031D02*
D03*
X016281D02*
D03*
Y0256845D02*
D03*
X0129345D02*
D03*
X0129591Y0364D02*
D03*
X0104D02*
D03*
Y0389591D02*
D03*
X0129591D02*
D03*
X0153465Y015D02*
D03*
Y0116535D02*
D03*
X012D02*
D03*
Y015D02*
D03*
X0216492Y0339492D02*
D03*
X0195823D02*
D03*
Y0326697D02*
D03*
X0216492D02*
D03*
D57*
X0168126Y0374126D02*
D03*
D58*
X00655Y0275811D02*
D03*
Y0265181D02*
D03*
X007935D02*
D03*
X00795Y0275811D02*
D03*
D59*
X0072Y0147D02*
D03*
X003263Y009D02*
D03*
D60*
X0072Y0092394D02*
D03*
Y0101055D02*
D03*
Y0096724D02*
D03*
Y0109716D02*
D03*
Y0105386D02*
D03*
Y0122709D02*
D03*
Y0118378D02*
D03*
Y0114047D02*
D03*
Y0127039D02*
D03*
D61*
X003263Y0150756D02*
D03*
D62*
X00545Y0098D02*
D03*
X0025Y0109D02*
D03*
X00235Y01225D02*
D03*
X0024Y01385D02*
D03*
X00375D02*
D03*
X0051Y0139D02*
D03*
D63*
X0160841Y025094D02*
D03*
X0158873D02*
D03*
X0156904D02*
D03*
X0154936D02*
D03*
X0152967D02*
D03*
X0150999D02*
D03*
X014903D02*
D03*
X0147062D02*
D03*
X0145093D02*
D03*
X0143125D02*
D03*
X0141156D02*
D03*
X0139188D02*
D03*
X0137219D02*
D03*
X0135251D02*
D03*
X0133282D02*
D03*
X0131314D02*
D03*
Y0296215D02*
D03*
X0133282D02*
D03*
X0135251D02*
D03*
X0137219D02*
D03*
X0139188D02*
D03*
X0141156D02*
D03*
X0143125D02*
D03*
X0145093D02*
D03*
X0147062D02*
D03*
X014903D02*
D03*
X0150999D02*
D03*
X0152967D02*
D03*
X0154936D02*
D03*
X0156904D02*
D03*
X0158873D02*
D03*
X0160841D02*
D03*
X0121968Y0155905D02*
D03*
X0123937D02*
D03*
X0125906D02*
D03*
X0127874D02*
D03*
X0129842D02*
D03*
X0131811D02*
D03*
X013378D02*
D03*
X0135748D02*
D03*
X0137716D02*
D03*
X0139685D02*
D03*
X0141654D02*
D03*
X0143622D02*
D03*
X0145591D02*
D03*
X0147559D02*
D03*
X0149528D02*
D03*
X0151496D02*
D03*
Y011063D02*
D03*
X0149528D02*
D03*
X0147559D02*
D03*
X0145591D02*
D03*
X0143622D02*
D03*
X0141654D02*
D03*
X0139685D02*
D03*
X0137716D02*
D03*
X0135748D02*
D03*
X013378D02*
D03*
X0131811D02*
D03*
X0129842D02*
D03*
X0127874D02*
D03*
X0125906D02*
D03*
X0123937D02*
D03*
X0121968D02*
D03*
D64*
X012344Y0258814D02*
D03*
Y0260782D02*
D03*
Y0262751D02*
D03*
Y0264719D02*
D03*
Y0266688D02*
D03*
Y0268656D02*
D03*
Y0270625D02*
D03*
Y0272593D02*
D03*
Y0274562D02*
D03*
Y027653D02*
D03*
Y0278499D02*
D03*
Y0280467D02*
D03*
Y0282436D02*
D03*
Y0284404D02*
D03*
Y0286373D02*
D03*
Y0288341D02*
D03*
X0168715D02*
D03*
Y0286373D02*
D03*
Y0284404D02*
D03*
Y0282436D02*
D03*
Y0280467D02*
D03*
Y0278499D02*
D03*
Y027653D02*
D03*
Y0274562D02*
D03*
Y0272593D02*
D03*
Y0270625D02*
D03*
Y0268656D02*
D03*
Y0266688D02*
D03*
Y0264719D02*
D03*
Y0262751D02*
D03*
Y0260782D02*
D03*
Y0258814D02*
D03*
X0114094Y0118504D02*
D03*
Y0120472D02*
D03*
Y0122441D02*
D03*
Y0124409D02*
D03*
Y0126378D02*
D03*
Y0128347D02*
D03*
Y0130315D02*
D03*
Y0132283D02*
D03*
Y0134252D02*
D03*
Y0136221D02*
D03*
Y0138189D02*
D03*
Y0140157D02*
D03*
Y0142126D02*
D03*
Y0144095D02*
D03*
Y0146063D02*
D03*
Y0148031D02*
D03*
X015937D02*
D03*
Y0146063D02*
D03*
Y0144095D02*
D03*
Y0142126D02*
D03*
Y0140157D02*
D03*
Y0138189D02*
D03*
Y0136221D02*
D03*
Y0134252D02*
D03*
Y0132283D02*
D03*
Y0130315D02*
D03*
Y0128347D02*
D03*
Y0126378D02*
D03*
Y0124409D02*
D03*
Y0122441D02*
D03*
Y0120472D02*
D03*
Y0118504D02*
D03*
D65*
X0047Y0014D02*
D03*
D66*
X0049Y0023D02*
D03*
D67*
X0039Y002D02*
D03*
D68*
X0028D02*
D03*
D69*
X0124669Y039D02*
D03*
X012152D02*
D03*
X0108921D02*
D03*
X0112071D02*
D03*
X011837D02*
D03*
X011522D02*
D03*
Y0364D02*
D03*
X011837D02*
D03*
X0112071D02*
D03*
X0108921D02*
D03*
X012152D02*
D03*
X0124669D02*
D03*
D70*
X0104Y037837D02*
D03*
Y037522D02*
D03*
Y038152D02*
D03*
Y0384669D02*
D03*
Y0372071D02*
D03*
Y0368921D02*
D03*
X013Y037837D02*
D03*
Y037522D02*
D03*
Y038152D02*
D03*
Y0384669D02*
D03*
Y0372071D02*
D03*
Y0368921D02*
D03*
D71*
X005315Y0012D02*
D03*
D72*
X0052362Y000315D02*
D03*
X0027559D02*
D03*
X0025606Y0012D02*
D03*
D73*
X00485Y00145D02*
D03*
X0036D02*
D03*
X0031D02*
D03*
D74*
X0076Y0288D02*
D03*
X00685D02*
D03*
X0188Y012D02*
D03*
X01805D02*
D03*
X00685Y0254D02*
D03*
X0076D02*
D03*
D75*
X019Y016D02*
D03*
X01825D02*
D03*
D76*
X0198284Y0327189D02*
D03*
X0207732Y0339D02*
D03*
X0204583D02*
D03*
X0210882D02*
D03*
X0214032D02*
D03*
X0201433D02*
D03*
X0198284D02*
D03*
X0207732Y0327189D02*
D03*
X0210882D02*
D03*
X0204583D02*
D03*
X0201433D02*
D03*
X0214032D02*
D03*
D77*
X0196315Y0333095D02*
D03*
X0216D02*
D03*
D78*
X005Y0176D02*
D03*
Y0170016D02*
D03*
D79*
X004Y0297D02*
D03*
Y0307D02*
D03*
Y0317D02*
D03*
Y0327D02*
D03*
X0216Y008D02*
D03*
Y007D02*
D03*
X0214Y027D02*
D03*
Y026D02*
D03*
Y025D02*
D03*
Y024D02*
D03*
D80*
X00374Y0337D02*
D03*
D81*
X007974Y0373276D02*
D03*
X0076D02*
D03*
X007226D02*
D03*
Y0382724D02*
D03*
X007974D02*
D03*
D82*
X02015Y0060551D02*
D03*
X01965D02*
D03*
X01915D02*
D03*
X01865D02*
D03*
X02015Y0079449D02*
D03*
X01965D02*
D03*
X01915D02*
D03*
X01865D02*
D03*
D83*
X0023Y03225D02*
X00235Y0323D01*
M02*
