%FSTAX25Y25*%
%MOIN*%
G70*
G01*
G75*
G04 Layer_Color=8388736*
%ADD10R,0.07874X0.07480*%
%ADD11R,0.01969X0.15748*%
%ADD12R,0.04331X0.02559*%
%ADD13R,0.07874X0.05512*%
%ADD14R,0.17011X0.12579*%
%ADD15R,0.20011X0.12579*%
%ADD16R,0.13780X0.11811*%
%ADD17R,0.06102X0.04331*%
%ADD18R,0.06102X0.04331*%
%ADD19R,0.06102X0.13583*%
%ADD20R,0.04724X0.07000*%
%ADD21R,0.04724X0.07874*%
%ADD22R,0.03543X0.03740*%
%ADD23R,0.03543X0.03740*%
%ADD24R,0.05906X0.13780*%
%ADD25R,0.09843X0.07874*%
%ADD26R,0.07480X0.07874*%
%ADD27C,0.01200*%
%ADD28C,0.02000*%
%ADD29C,0.01400*%
%ADD30C,0.01600*%
%ADD31C,0.01000*%
%ADD32C,0.00394*%
%ADD33C,0.15748*%
%ADD34R,0.08000X0.08000*%
%ADD35C,0.08000*%
%ADD36C,0.09000*%
%ADD37O,0.08000X0.06400*%
%ADD38O,0.08000X0.06000*%
%ADD39R,0.08000X0.08000*%
%ADD40C,0.03000*%
%ADD41C,0.02600*%
%ADD42C,0.02700*%
%ADD43C,0.02800*%
%ADD44R,0.07874X0.09843*%
%ADD45R,0.07874X0.07842*%
%ADD46R,0.13780X0.01969*%
%ADD47R,0.15748X0.08071*%
%ADD48R,0.10236X0.08071*%
%ADD49R,0.13780X0.08071*%
G04:AMPARAMS|DCode=50|XSize=39.37mil|YSize=31.5mil|CornerRadius=7.87mil|HoleSize=0mil|Usage=FLASHONLY|Rotation=0.000|XOffset=0mil|YOffset=0mil|HoleType=Round|Shape=RoundedRectangle|*
%AMROUNDEDRECTD50*
21,1,0.03937,0.01575,0,0,0.0*
21,1,0.02362,0.03150,0,0,0.0*
1,1,0.01575,0.01181,-0.00787*
1,1,0.01575,-0.01181,-0.00787*
1,1,0.01575,-0.01181,0.00787*
1,1,0.01575,0.01181,0.00787*
%
%ADD50ROUNDEDRECTD50*%
G04:AMPARAMS|DCode=51|XSize=39.37mil|YSize=31.5mil|CornerRadius=7.87mil|HoleSize=0mil|Usage=FLASHONLY|Rotation=270.000|XOffset=0mil|YOffset=0mil|HoleType=Round|Shape=RoundedRectangle|*
%AMROUNDEDRECTD51*
21,1,0.03937,0.01575,0,0,270.0*
21,1,0.02362,0.03150,0,0,270.0*
1,1,0.01575,-0.00787,-0.01181*
1,1,0.01575,-0.00787,0.01181*
1,1,0.01575,0.00787,0.01181*
1,1,0.01575,0.00787,-0.01181*
%
%ADD51ROUNDEDRECTD51*%
G04:AMPARAMS|DCode=52|XSize=90mil|YSize=90mil|CornerRadius=22.5mil|HoleSize=0mil|Usage=FLASHONLY|Rotation=180.000|XOffset=0mil|YOffset=0mil|HoleType=Round|Shape=RoundedRectangle|*
%AMROUNDEDRECTD52*
21,1,0.09000,0.04500,0,0,180.0*
21,1,0.04500,0.09000,0,0,180.0*
1,1,0.04500,-0.02250,0.02250*
1,1,0.04500,0.02250,0.02250*
1,1,0.04500,0.02250,-0.02250*
1,1,0.04500,-0.02250,-0.02250*
%
%ADD52ROUNDEDRECTD52*%
%ADD53R,0.06693X0.09843*%
%ADD54R,0.05512X0.00984*%
%ADD55R,0.00984X0.05512*%
%ADD56C,0.01063*%
%ADD57R,0.10630X0.10630*%
%ADD58R,0.09843X0.06693*%
%ADD59R,0.11811X0.07874*%
%ADD60R,0.11811X0.02953*%
%ADD61R,0.09843X0.07874*%
G04:AMPARAMS|DCode=62|XSize=100mil|YSize=100mil|CornerRadius=25mil|HoleSize=0mil|Usage=FLASHONLY|Rotation=0.000|XOffset=0mil|YOffset=0mil|HoleType=Round|Shape=RoundedRectangle|*
%AMROUNDEDRECTD62*
21,1,0.10000,0.05000,0,0,0.0*
21,1,0.05000,0.10000,0,0,0.0*
1,1,0.05000,0.02500,-0.02500*
1,1,0.05000,-0.02500,-0.02500*
1,1,0.05000,-0.02500,0.02500*
1,1,0.05000,0.02500,0.02500*
%
%ADD62ROUNDEDRECTD62*%
%ADD63O,0.01181X0.10236*%
%ADD64O,0.10236X0.01181*%
%ADD65R,0.04567X0.05906*%
%ADD66R,0.08661X0.15748*%
%ADD67R,0.08661X0.13780*%
%ADD68R,0.11024X0.09055*%
%ADD69R,0.01575X0.05512*%
%ADD70R,0.05512X0.01575*%
%ADD71R,0.02756X0.03543*%
%ADD72R,0.04724X0.03543*%
%ADD73R,0.01969X0.07087*%
%ADD74R,0.05906X0.07874*%
%ADD75R,0.05906X0.07574*%
%ADD76R,0.02165X0.07874*%
%ADD77R,0.07874X0.02165*%
G04:AMPARAMS|DCode=78|XSize=51.18mil|YSize=51.18mil|CornerRadius=12.8mil|HoleSize=0mil|Usage=FLASHONLY|Rotation=270.000|XOffset=0mil|YOffset=0mil|HoleType=Round|Shape=RoundedRectangle|*
%AMROUNDEDRECTD78*
21,1,0.05118,0.02559,0,0,270.0*
21,1,0.02559,0.05118,0,0,270.0*
1,1,0.02559,-0.01280,-0.01280*
1,1,0.02559,-0.01280,0.01280*
1,1,0.02559,0.01280,0.01280*
1,1,0.02559,0.01280,-0.01280*
%
%ADD78ROUNDEDRECTD78*%
%ADD79R,0.13780X0.05906*%
%ADD80R,0.10880X0.05906*%
%ADD81R,0.02559X0.04331*%
%ADD82O,0.02362X0.08661*%
%ADD83C,0.01500*%
%ADD84C,0.00984*%
%ADD85C,0.00787*%
%ADD86C,0.02756*%
%ADD87R,0.08674X0.08280*%
%ADD88R,0.02769X0.16548*%
%ADD89R,0.05131X0.03359*%
%ADD90R,0.08674X0.06312*%
%ADD91R,0.17811X0.13380*%
%ADD92R,0.20811X0.13380*%
%ADD93R,0.14579X0.12611*%
%ADD94R,0.06902X0.05131*%
%ADD95R,0.06902X0.05131*%
%ADD96R,0.06902X0.14383*%
%ADD97R,0.05524X0.07800*%
%ADD98R,0.05524X0.08674*%
%ADD99R,0.04343X0.04540*%
%ADD100R,0.04343X0.04540*%
%ADD101R,0.06706X0.14579*%
%ADD102R,0.10642X0.08674*%
%ADD103R,0.08280X0.08674*%
%ADD104C,0.16548*%
%ADD105R,0.08800X0.08800*%
%ADD106C,0.08800*%
%ADD107C,0.09800*%
%ADD108O,0.08800X0.07200*%
%ADD109O,0.08800X0.06800*%
%ADD110R,0.08800X0.08800*%
%ADD111C,0.03800*%
%ADD112C,0.03400*%
%ADD113C,0.03500*%
%ADD114C,0.03600*%
D31*
X000767Y002933D02*
X0024751Y0012249D01*
X-0089Y0459D02*
X-0088Y046D01*
X0055Y002D02*
X0076D01*
X0157D02*
X0179D01*
X0157Y0007D02*
Y002D01*
X0076Y0007D02*
X0157D01*
X0076D02*
Y002D01*
X000767Y002933D02*
Y00355D01*
X0196307Y00075D02*
X0225D01*
X0025Y00015D02*
X003D01*
X0179Y00075D02*
Y002D01*
Y00075D02*
X0196307D01*
X0055Y00015D02*
Y002D01*
X0225Y0035D02*
Y04375D01*
X003Y00015D02*
X0055D01*
X0024751D02*
Y0009249D01*
X0077Y04285D02*
Y0437D01*
Y04285D02*
X01575D01*
Y04375D01*
X0225D01*
X0024751Y0009249D02*
Y0012249D01*
X0225Y00075D02*
Y0035D01*
X000767Y0437D02*
X0077D01*
X000767Y00355D02*
Y0437D01*
D32*
X0164188Y0257436D02*
G03*
X0164188Y0257436I-0001969J0D01*
G01*
X0122559Y0117126D02*
G03*
X0122559Y0117126I-0001969J0D01*
G01*
X0189669Y0074331D02*
G03*
X0189669Y0074331I-0001969J0D01*
G01*
X0126392Y0253892D02*
X0165762D01*
X0126392Y0293263D02*
X0165762D01*
Y0253892D02*
Y0293263D01*
X0126392Y0253892D02*
Y0293263D01*
X0059543Y0375898D02*
Y0388102D01*
X0052457Y0375898D02*
Y0388102D01*
Y0375898D02*
X0059543D01*
X0052457Y0388102D02*
X0059543D01*
X0117047Y0113583D02*
Y0152953D01*
X0156417Y0113583D02*
Y0152953D01*
X0117047Y0113583D02*
X0156417D01*
X0117047Y0152953D02*
X0156417D01*
X0069898Y0374457D02*
X0082102D01*
X0069898Y0381543D02*
X0082102D01*
Y0374457D02*
Y0381543D01*
X0069898Y0374457D02*
Y0381543D01*
X0203842Y0062126D02*
Y0077874D01*
X0184158Y0062126D02*
Y0077874D01*
Y0062126D02*
X0203842D01*
X0184158Y0077874D02*
X0203842D01*
X01197Y02472D02*
X0172455D01*
X01197Y0299955D02*
X0172455D01*
Y02472D02*
Y0299955D01*
X01197Y02472D02*
Y0299955D01*
X0146077Y0271609D02*
Y0275546D01*
X0144109Y0273577D02*
X0148046D01*
X0063874Y0374913D02*
Y0389087D01*
X0048126Y0374913D02*
Y0389087D01*
Y0374913D02*
X0063874D01*
X0048126Y0389087D02*
X0063874D01*
X0054031Y0382D02*
X0057968D01*
X0056Y0380031D02*
Y0383968D01*
X0110354Y010689D02*
Y0159646D01*
X016311Y010689D02*
Y0159646D01*
X0110354Y010689D02*
X016311D01*
X0110354Y0159646D02*
X016311D01*
X0134764Y0133268D02*
X0138701D01*
X0136732Y0131299D02*
Y0135236D01*
X0068913Y0370126D02*
X0083087D01*
X0068913Y0385874D02*
X0083087D01*
Y0370126D02*
Y0385874D01*
X0068913Y0370126D02*
Y0385874D01*
X0076Y0376031D02*
Y0379969D01*
X0074032Y0378D02*
X0077969D01*
X0192032Y007D02*
X0195968D01*
X0194Y0068032D02*
Y0071969D01*
X0204827Y0055236D02*
Y0084764D01*
X0183173Y0055236D02*
Y0084764D01*
Y0055236D02*
X0204827D01*
X0183173Y0084764D02*
X0204827D01*
D87*
X0217Y0382189D02*
D03*
Y0392819D02*
D03*
X01308Y0409811D02*
D03*
Y0399181D02*
D03*
X01019Y0409811D02*
D03*
Y0399181D02*
D03*
X01158Y0409811D02*
D03*
Y0399181D02*
D03*
X0045Y0424189D02*
D03*
X0217Y0402189D02*
D03*
Y0412819D02*
D03*
X0017Y0045811D02*
D03*
Y0035181D02*
D03*
Y0056189D02*
D03*
Y0066819D02*
D03*
X0117Y0378189D02*
D03*
Y0388819D02*
D03*
X0131Y0378189D02*
D03*
Y0388819D02*
D03*
X0103Y0378189D02*
D03*
Y0388819D02*
D03*
X0021Y0391811D02*
D03*
Y0381181D02*
D03*
X0035Y0391811D02*
D03*
Y0381181D02*
D03*
X0045Y0407811D02*
D03*
Y0397181D02*
D03*
X0057Y0424189D02*
D03*
X0189D02*
D03*
X0165D02*
D03*
X0177D02*
D03*
X0069D02*
D03*
D88*
X0189102Y021685D02*
D03*
X0185165D02*
D03*
X0181228D02*
D03*
X0177291D02*
D03*
X0173354D02*
D03*
X0169417D02*
D03*
X016548D02*
D03*
X0161543D02*
D03*
X0157606D02*
D03*
X0153669D02*
D03*
X0149732D02*
D03*
X0145795D02*
D03*
X0141858D02*
D03*
X0137921D02*
D03*
X0133984D02*
D03*
X0130047D02*
D03*
X012611D02*
D03*
X0122173D02*
D03*
X0118236D02*
D03*
X0114299D02*
D03*
X0110362D02*
D03*
X0106425D02*
D03*
X0102488D02*
D03*
X0098551D02*
D03*
X0094614D02*
D03*
X0090677D02*
D03*
X008674D02*
D03*
X0082803D02*
D03*
X0078866D02*
D03*
X0074929D02*
D03*
X0070992D02*
D03*
X0067055D02*
D03*
X0063118D02*
D03*
X0059181D02*
D03*
X0055244D02*
D03*
X0051307D02*
D03*
X004737D02*
D03*
D89*
X0060724Y037826D02*
D03*
Y0382D02*
D03*
Y038574D02*
D03*
X0051276D02*
D03*
Y037826D02*
D03*
D90*
X0045Y0434819D02*
D03*
X0057D02*
D03*
X0189D02*
D03*
X0165D02*
D03*
X0177D02*
D03*
X0069D02*
D03*
D91*
X0081Y00525D02*
D03*
D92*
X008Y0067D02*
D03*
D93*
X006Y0066D02*
D03*
X0044D02*
D03*
D94*
X0063287Y0034945D02*
D03*
D95*
Y0044D02*
D03*
Y0053055D02*
D03*
D96*
X0036713Y0044D02*
D03*
D97*
X0071323Y03942D02*
D03*
X0063449D02*
D03*
X0056362D02*
D03*
D98*
X0071323Y0414D02*
D03*
X0063842D02*
D03*
X0056362D02*
D03*
X0177323Y0393921D02*
D03*
X0169449D02*
D03*
X0162362D02*
D03*
X0177323Y0414D02*
D03*
X0169843D02*
D03*
X0162362D02*
D03*
D99*
X0146Y0386626D02*
D03*
X014226Y0377374D02*
D03*
X0026Y0422626D02*
D03*
X002226Y0413374D02*
D03*
X0162Y0386626D02*
D03*
X015826Y0377374D02*
D03*
X0178Y0386626D02*
D03*
X017426Y0377374D02*
D03*
X0086Y0412626D02*
D03*
X008226Y0403374D02*
D03*
X0148Y0412626D02*
D03*
X014426Y0403374D02*
D03*
D100*
X014974Y0377374D02*
D03*
X002974Y0413374D02*
D03*
X016574Y0377374D02*
D03*
X018174D02*
D03*
X008974Y0403374D02*
D03*
X015174D02*
D03*
D101*
X0196Y0018D02*
D03*
X0186D02*
D03*
D102*
X01895Y008D02*
D03*
X0202D02*
D03*
X011Y0422D02*
D03*
X01225D02*
D03*
D103*
X0192189Y0385D02*
D03*
X0202819D02*
D03*
X0144819Y0423D02*
D03*
X0134189D02*
D03*
D104*
X00155Y0429D02*
D03*
X02175Y00155D02*
D03*
X0217Y04295D02*
D03*
D105*
X0027Y0034D02*
D03*
X0187Y0413D02*
D03*
D106*
X0027Y0044D02*
D03*
Y0054D02*
D03*
X0201Y0413D02*
D03*
Y0399D02*
D03*
X0187D02*
D03*
X0173Y0026D02*
D03*
D107*
X0107Y0067D02*
D03*
X0127D02*
D03*
D108*
X0159Y0062D02*
D03*
Y0052D02*
D03*
D109*
Y0042D02*
D03*
D110*
X0163Y0026D02*
D03*
D111*
X0217Y0402D02*
D03*
X01345Y0238D02*
D03*
X0152936Y03135D02*
D03*
X00835Y0137D02*
D03*
X0082Y0114D02*
D03*
X0087Y0128D02*
D03*
X0097Y0094D02*
D03*
X0196Y0018D02*
D03*
X0026Y03365D02*
D03*
X0023Y03225D02*
D03*
X02155Y0345D02*
D03*
X02095Y0339D02*
D03*
Y02495D02*
D03*
X0204Y02465D02*
D03*
X01645Y0297D02*
D03*
X0159Y02805D02*
D03*
X0138Y03265D02*
D03*
X0131Y033D02*
D03*
X01275Y0336D02*
D03*
X01085Y028D02*
D03*
X0193Y0223D02*
D03*
Y02355D02*
D03*
X01715Y02345D02*
D03*
X0222Y0209D02*
D03*
X01515Y0278D02*
D03*
X00985Y01485D02*
D03*
X01005Y01445D02*
D03*
X013Y01875D02*
D03*
X0133Y0132283D02*
D03*
X0132886Y0143D02*
D03*
X01065Y01865D02*
D03*
X0102374Y0183012D02*
D03*
X0098437Y0186551D02*
D03*
X0044Y038515D02*
D03*
X0191181Y0359D02*
D03*
X0185Y0389D02*
D03*
X0182Y0363D02*
D03*
X008Y0382D02*
D03*
X0155Y0284404D02*
D03*
X01585Y0288D02*
D03*
X011Y02905D02*
D03*
X01415Y0281D02*
D03*
X0145093Y0284593D02*
D03*
X00795Y0265D02*
D03*
X00915Y0276D02*
D03*
X01655Y0236D02*
D03*
X02015Y01745D02*
D03*
Y0167D02*
D03*
X02065Y0171D02*
D03*
X0211Y0151D02*
D03*
X0036Y0422D02*
D03*
X0021Y0391D02*
D03*
X001Y0411D02*
D03*
X0015D02*
D03*
X014426Y039626D02*
D03*
X002974Y040226D02*
D03*
X0032Y039D02*
D03*
X0082Y0404D02*
D03*
X0141Y0388D02*
D03*
X0085Y0391D02*
D03*
X0162Y04D02*
D03*
X0191Y04335D02*
D03*
X019Y0126D02*
D03*
X004Y0028D02*
D03*
X0044Y01785D02*
D03*
X02065Y01585D02*
D03*
X0222Y0127D02*
D03*
Y0111D02*
D03*
X0049Y0156D02*
D03*
X0148Y0083D02*
D03*
X0099Y0067D02*
D03*
X01255Y01015D02*
D03*
X01105Y01025D02*
D03*
X00995Y01065D02*
D03*
X00945Y014D02*
D03*
X0067055Y0180055D02*
D03*
X0127Y0166D02*
D03*
X016Y0114D02*
D03*
X0168Y01155D02*
D03*
X0136Y0092D02*
D03*
X0132Y0095D02*
D03*
X00985Y0167D02*
D03*
X00945Y0183D02*
D03*
X013Y0178D02*
D03*
X0126Y0174D02*
D03*
X0122Y017D02*
D03*
X0215Y01315D02*
D03*
X0175Y0142D02*
D03*
X0182Y0154D02*
D03*
X0175Y0129D02*
D03*
X0154Y0047D02*
D03*
X0055Y0078D02*
D03*
X0035D02*
D03*
X01965Y00675D02*
D03*
X01915Y0079449D02*
D03*
X0049Y0039D02*
D03*
X0031Y0023D02*
D03*
X0058Y003D02*
D03*
X0011Y0327D02*
D03*
X0063Y0035D02*
D03*
Y0023D02*
D03*
X0082D02*
D03*
X0092Y0039D02*
D03*
X0034Y0058D02*
D03*
X0049Y0053D02*
D03*
X0039Y0064D02*
D03*
X0011Y0084D02*
D03*
X003Y0078D02*
D03*
X004D02*
D03*
X0045D02*
D03*
X005D02*
D03*
X008Y0068D02*
D03*
X006Y0078D02*
D03*
X0203Y0142D02*
D03*
X0128Y0098D02*
D03*
X0138Y01885D02*
D03*
X0137672Y0183919D02*
D03*
X012611Y01835D02*
D03*
X0097Y0128D02*
D03*
X0088Y0114D02*
D03*
X0085Y0101D02*
D03*
X0043Y0375701D02*
D03*
X0077Y0404D02*
D03*
Y0399D02*
D03*
Y0394D02*
D03*
X0177D02*
D03*
X0169Y0399D02*
D03*
X0086Y0422D02*
D03*
X0148Y0412626D02*
D03*
X0102Y0409D02*
D03*
X0122Y04105D02*
D03*
X0222Y0147D02*
D03*
X0211Y02275D02*
D03*
X01475Y0275D02*
D03*
X01375Y0278D02*
D03*
X0123345Y0254845D02*
D03*
X0116345D02*
D03*
X01525Y0235D02*
D03*
X0148Y0048D02*
D03*
X00375Y02965D02*
D03*
X0041Y03065D02*
D03*
X0011Y0342D02*
D03*
X002Y0344D02*
D03*
X00325D02*
D03*
X004D02*
D03*
X0067Y0372D02*
D03*
X0195Y0383374D02*
D03*
X0091Y0373D02*
D03*
X01045Y0357D02*
D03*
X0196Y0317D02*
D03*
X0093Y03425D02*
D03*
Y03505D02*
D03*
X00635Y0171D02*
D03*
X0063118Y0177382D02*
D03*
X00745Y018D02*
D03*
X004Y02105D02*
D03*
X0219Y0217D02*
D03*
X0155Y0199D02*
D03*
X01655Y02005D02*
D03*
X01765Y0201D02*
D03*
X01885Y02005D02*
D03*
X01985D02*
D03*
X008674Y01835D02*
D03*
X0090677Y0186677D02*
D03*
X0082803Y0187197D02*
D03*
X0075Y0187D02*
D03*
X0090677Y0145D02*
D03*
X00865Y01485D02*
D03*
X0082803Y01525D02*
D03*
X0079Y01565D02*
D03*
X02015Y018D02*
D03*
X0075Y0161D02*
D03*
X0203Y01215D02*
D03*
X01625Y0173D02*
D03*
X015Y0144D02*
D03*
X00995Y0161D02*
D03*
X01Y01525D02*
D03*
X0098Y01565D02*
D03*
X0118D02*
D03*
X0044Y02025D02*
D03*
X0053Y0217D02*
D03*
X00165Y0084D02*
D03*
X0036Y0191D02*
D03*
X0079Y0185D02*
D03*
X0215Y02065D02*
D03*
X02045Y0213D02*
D03*
X0189252Y0217D02*
D03*
X0032Y02015D02*
D03*
X01975Y0224D02*
D03*
X01885Y0236D02*
D03*
X0025Y0265D02*
D03*
X003Y0275D02*
D03*
X0066Y02765D02*
D03*
X0053Y028D02*
D03*
Y02845D02*
D03*
X0036Y0337D02*
D03*
X0060852Y0306648D02*
D03*
Y03415D02*
D03*
X01565Y02315D02*
D03*
X01615Y02305D02*
D03*
X005Y02335D02*
D03*
X005625Y023375D02*
D03*
X005Y02495D02*
D03*
X005625Y0249D02*
D03*
X0056Y03555D02*
D03*
X006Y0353D02*
D03*
X01645Y0319D02*
D03*
X0149Y03045D02*
D03*
X0152Y0308D02*
D03*
X0169Y0319D02*
D03*
X01735D02*
D03*
X0178D02*
D03*
X0209Y0308D02*
D03*
X020075Y030475D02*
D03*
X0186Y024D02*
D03*
X018Y0282436D02*
D03*
X0134181Y0345181D02*
D03*
X01375Y0322D02*
D03*
X0082Y0295D02*
D03*
Y032D02*
D03*
X0025Y0288D02*
D03*
X00575Y0294D02*
D03*
X0072Y032D02*
D03*
X0115Y0329D02*
D03*
X01235Y02975D02*
D03*
X0116345D02*
D03*
X0092Y0321D02*
D03*
X0102Y03215D02*
D03*
X0141858Y0225D02*
D03*
X02205Y027D02*
D03*
X021925Y02855D02*
D03*
X02155Y0304D02*
D03*
X0209181Y029D02*
D03*
X0187D02*
D03*
X0025Y0317D02*
D03*
X0201811Y0359D02*
D03*
X0156Y0335D02*
D03*
X01775Y0343D02*
D03*
X0218Y036D02*
D03*
D112*
X002Y02235D02*
D03*
X0014Y028D02*
D03*
X0017Y02845D02*
D03*
Y022D02*
D03*
X0023Y02265D02*
D03*
X002Y023D02*
D03*
D113*
X00475Y0217D02*
D03*
X0181228Y021685D02*
D03*
X01418Y0211D02*
D03*
D114*
X006Y0382D02*
D03*
M02*
