%FSTAX25Y25*%
%MOIN*%
G70*
G01*
G75*
G04 Layer_Color=32896*
%ADD10R,0.07874X0.07480*%
%ADD11R,0.01969X0.15748*%
%ADD12R,0.04331X0.02559*%
%ADD13R,0.07874X0.05512*%
%ADD14R,0.17011X0.12579*%
%ADD15R,0.20011X0.12579*%
%ADD16R,0.13780X0.11811*%
%ADD17R,0.06102X0.04331*%
%ADD18R,0.06102X0.04331*%
%ADD19R,0.06102X0.13583*%
%ADD20R,0.04724X0.07000*%
%ADD21R,0.04724X0.07874*%
%ADD22R,0.03543X0.03740*%
%ADD23R,0.03543X0.03740*%
%ADD24R,0.05906X0.13780*%
%ADD25R,0.09843X0.07874*%
%ADD26R,0.07480X0.07874*%
%ADD27C,0.01200*%
%ADD28C,0.02000*%
%ADD29C,0.01400*%
%ADD30C,0.01600*%
%ADD31C,0.01000*%
%ADD32C,0.00394*%
%ADD33C,0.15748*%
%ADD34R,0.08000X0.08000*%
%ADD35C,0.08000*%
%ADD36C,0.09000*%
%ADD37O,0.08000X0.06400*%
%ADD38O,0.08000X0.06000*%
%ADD39R,0.08000X0.08000*%
%ADD40C,0.03000*%
%ADD41C,0.02600*%
%ADD42C,0.02700*%
%ADD43C,0.02800*%
%ADD44R,0.07874X0.09843*%
%ADD45R,0.07874X0.07842*%
%ADD46R,0.13780X0.01969*%
%ADD47R,0.15748X0.08071*%
%ADD48R,0.10236X0.08071*%
%ADD49R,0.13780X0.08071*%
G04:AMPARAMS|DCode=50|XSize=39.37mil|YSize=31.5mil|CornerRadius=7.87mil|HoleSize=0mil|Usage=FLASHONLY|Rotation=0.000|XOffset=0mil|YOffset=0mil|HoleType=Round|Shape=RoundedRectangle|*
%AMROUNDEDRECTD50*
21,1,0.03937,0.01575,0,0,0.0*
21,1,0.02362,0.03150,0,0,0.0*
1,1,0.01575,0.01181,-0.00787*
1,1,0.01575,-0.01181,-0.00787*
1,1,0.01575,-0.01181,0.00787*
1,1,0.01575,0.01181,0.00787*
%
%ADD50ROUNDEDRECTD50*%
G04:AMPARAMS|DCode=51|XSize=39.37mil|YSize=31.5mil|CornerRadius=7.87mil|HoleSize=0mil|Usage=FLASHONLY|Rotation=270.000|XOffset=0mil|YOffset=0mil|HoleType=Round|Shape=RoundedRectangle|*
%AMROUNDEDRECTD51*
21,1,0.03937,0.01575,0,0,270.0*
21,1,0.02362,0.03150,0,0,270.0*
1,1,0.01575,-0.00787,-0.01181*
1,1,0.01575,-0.00787,0.01181*
1,1,0.01575,0.00787,0.01181*
1,1,0.01575,0.00787,-0.01181*
%
%ADD51ROUNDEDRECTD51*%
G04:AMPARAMS|DCode=52|XSize=90mil|YSize=90mil|CornerRadius=22.5mil|HoleSize=0mil|Usage=FLASHONLY|Rotation=180.000|XOffset=0mil|YOffset=0mil|HoleType=Round|Shape=RoundedRectangle|*
%AMROUNDEDRECTD52*
21,1,0.09000,0.04500,0,0,180.0*
21,1,0.04500,0.09000,0,0,180.0*
1,1,0.04500,-0.02250,0.02250*
1,1,0.04500,0.02250,0.02250*
1,1,0.04500,0.02250,-0.02250*
1,1,0.04500,-0.02250,-0.02250*
%
%ADD52ROUNDEDRECTD52*%
%ADD53R,0.06693X0.09843*%
%ADD54R,0.05512X0.00984*%
%ADD55R,0.00984X0.05512*%
%ADD56C,0.01063*%
%ADD57R,0.10630X0.10630*%
%ADD58R,0.09843X0.06693*%
%ADD59R,0.11811X0.07874*%
%ADD60R,0.11811X0.02953*%
%ADD61R,0.09843X0.07874*%
G04:AMPARAMS|DCode=62|XSize=100mil|YSize=100mil|CornerRadius=25mil|HoleSize=0mil|Usage=FLASHONLY|Rotation=0.000|XOffset=0mil|YOffset=0mil|HoleType=Round|Shape=RoundedRectangle|*
%AMROUNDEDRECTD62*
21,1,0.10000,0.05000,0,0,0.0*
21,1,0.05000,0.10000,0,0,0.0*
1,1,0.05000,0.02500,-0.02500*
1,1,0.05000,-0.02500,-0.02500*
1,1,0.05000,-0.02500,0.02500*
1,1,0.05000,0.02500,0.02500*
%
%ADD62ROUNDEDRECTD62*%
%ADD63O,0.01181X0.10236*%
%ADD64O,0.10236X0.01181*%
%ADD65R,0.04567X0.05906*%
%ADD66R,0.08661X0.15748*%
%ADD67R,0.08661X0.13780*%
%ADD68R,0.11024X0.09055*%
%ADD69R,0.01575X0.05512*%
%ADD70R,0.05512X0.01575*%
%ADD71R,0.02756X0.03543*%
%ADD72R,0.04724X0.03543*%
%ADD73R,0.01969X0.07087*%
%ADD74R,0.05906X0.07874*%
%ADD75R,0.05906X0.07574*%
%ADD76R,0.02165X0.07874*%
%ADD77R,0.07874X0.02165*%
G04:AMPARAMS|DCode=78|XSize=51.18mil|YSize=51.18mil|CornerRadius=12.8mil|HoleSize=0mil|Usage=FLASHONLY|Rotation=270.000|XOffset=0mil|YOffset=0mil|HoleType=Round|Shape=RoundedRectangle|*
%AMROUNDEDRECTD78*
21,1,0.05118,0.02559,0,0,270.0*
21,1,0.02559,0.05118,0,0,270.0*
1,1,0.02559,-0.01280,-0.01280*
1,1,0.02559,-0.01280,0.01280*
1,1,0.02559,0.01280,0.01280*
1,1,0.02559,0.01280,-0.01280*
%
%ADD78ROUNDEDRECTD78*%
%ADD79R,0.13780X0.05906*%
%ADD80R,0.10880X0.05906*%
%ADD81R,0.02559X0.04331*%
%ADD82O,0.02362X0.08661*%
%ADD83C,0.01500*%
%ADD84C,0.00984*%
%ADD85C,0.00787*%
%ADD86C,0.02756*%
%ADD87R,0.08674X0.08280*%
%ADD88R,0.02769X0.16548*%
%ADD89R,0.05131X0.03359*%
%ADD90R,0.08674X0.06312*%
%ADD91R,0.17811X0.13380*%
%ADD92R,0.20811X0.13380*%
%ADD93R,0.14579X0.12611*%
%ADD94R,0.06902X0.05131*%
%ADD95R,0.06902X0.05131*%
%ADD96R,0.06902X0.14383*%
%ADD97R,0.05524X0.07800*%
%ADD98R,0.05524X0.08674*%
%ADD99R,0.04343X0.04540*%
%ADD100R,0.04343X0.04540*%
%ADD101R,0.06706X0.14579*%
%ADD102R,0.10642X0.08674*%
%ADD103R,0.08280X0.08674*%
%ADD104C,0.16548*%
%ADD105R,0.08800X0.08800*%
%ADD106C,0.08800*%
%ADD107C,0.09800*%
%ADD108O,0.08800X0.07200*%
%ADD109O,0.08800X0.06800*%
%ADD110R,0.08800X0.08800*%
%ADD111C,0.03800*%
%ADD112C,0.03400*%
%ADD113C,0.03500*%
%ADD114C,0.03600*%
%ADD115R,0.08674X0.10642*%
%ADD116R,0.08674X0.08643*%
%ADD117R,0.14579X0.02769*%
%ADD118R,0.16548X0.08871*%
%ADD119R,0.11036X0.08871*%
%ADD120R,0.14579X0.08871*%
G04:AMPARAMS|DCode=121|XSize=47.37mil|YSize=39.5mil|CornerRadius=9.87mil|HoleSize=0mil|Usage=FLASHONLY|Rotation=0.000|XOffset=0mil|YOffset=0mil|HoleType=Round|Shape=RoundedRectangle|*
%AMROUNDEDRECTD121*
21,1,0.04737,0.01975,0,0,0.0*
21,1,0.02762,0.03950,0,0,0.0*
1,1,0.01975,0.01381,-0.00987*
1,1,0.01975,-0.01381,-0.00987*
1,1,0.01975,-0.01381,0.00987*
1,1,0.01975,0.01381,0.00987*
%
%ADD121ROUNDEDRECTD121*%
G04:AMPARAMS|DCode=122|XSize=47.37mil|YSize=39.5mil|CornerRadius=9.87mil|HoleSize=0mil|Usage=FLASHONLY|Rotation=270.000|XOffset=0mil|YOffset=0mil|HoleType=Round|Shape=RoundedRectangle|*
%AMROUNDEDRECTD122*
21,1,0.04737,0.01975,0,0,270.0*
21,1,0.02762,0.03950,0,0,270.0*
1,1,0.01975,-0.00987,-0.01381*
1,1,0.01975,-0.00987,0.01381*
1,1,0.01975,0.00987,0.01381*
1,1,0.01975,0.00987,-0.01381*
%
%ADD122ROUNDEDRECTD122*%
G04:AMPARAMS|DCode=123|XSize=98mil|YSize=98mil|CornerRadius=24.5mil|HoleSize=0mil|Usage=FLASHONLY|Rotation=180.000|XOffset=0mil|YOffset=0mil|HoleType=Round|Shape=RoundedRectangle|*
%AMROUNDEDRECTD123*
21,1,0.09800,0.04900,0,0,180.0*
21,1,0.04900,0.09800,0,0,180.0*
1,1,0.04900,-0.02450,0.02450*
1,1,0.04900,0.02450,0.02450*
1,1,0.04900,0.02450,-0.02450*
1,1,0.04900,-0.02450,-0.02450*
%
%ADD123ROUNDEDRECTD123*%
%ADD124R,0.07493X0.10642*%
%ADD125R,0.06312X0.01784*%
%ADD126R,0.01784X0.06312*%
%ADD127C,0.01863*%
%ADD128R,0.11430X0.11430*%
%ADD129R,0.10642X0.07493*%
%ADD130R,0.12611X0.08674*%
%ADD131R,0.12611X0.03753*%
%ADD132R,0.10642X0.08674*%
G04:AMPARAMS|DCode=133|XSize=108mil|YSize=108mil|CornerRadius=27mil|HoleSize=0mil|Usage=FLASHONLY|Rotation=0.000|XOffset=0mil|YOffset=0mil|HoleType=Round|Shape=RoundedRectangle|*
%AMROUNDEDRECTD133*
21,1,0.10800,0.05400,0,0,0.0*
21,1,0.05400,0.10800,0,0,0.0*
1,1,0.05400,0.02700,-0.02700*
1,1,0.05400,-0.02700,-0.02700*
1,1,0.05400,-0.02700,0.02700*
1,1,0.05400,0.02700,0.02700*
%
%ADD133ROUNDEDRECTD133*%
%ADD134O,0.01981X0.11036*%
%ADD135O,0.11036X0.01981*%
%ADD136R,0.05367X0.06706*%
%ADD137R,0.09461X0.16548*%
%ADD138R,0.09461X0.14579*%
%ADD139R,0.11824X0.09855*%
%ADD140R,0.02375X0.06312*%
%ADD141R,0.06312X0.02375*%
%ADD142R,0.03556X0.04343*%
%ADD143R,0.05524X0.04343*%
%ADD144R,0.02769X0.07887*%
%ADD145R,0.06706X0.08674*%
%ADD146R,0.06706X0.08374*%
%ADD147R,0.02965X0.08674*%
%ADD148R,0.08674X0.02965*%
G04:AMPARAMS|DCode=149|XSize=59.18mil|YSize=59.18mil|CornerRadius=14.8mil|HoleSize=0mil|Usage=FLASHONLY|Rotation=270.000|XOffset=0mil|YOffset=0mil|HoleType=Round|Shape=RoundedRectangle|*
%AMROUNDEDRECTD149*
21,1,0.05918,0.02959,0,0,270.0*
21,1,0.02959,0.05918,0,0,270.0*
1,1,0.02959,-0.01480,-0.01480*
1,1,0.02959,-0.01480,0.01480*
1,1,0.02959,0.01480,0.01480*
1,1,0.02959,0.01480,-0.01480*
%
%ADD149ROUNDEDRECTD149*%
%ADD150R,0.14579X0.06706*%
%ADD151R,0.11680X0.06706*%
%ADD152R,0.03359X0.05131*%
%ADD153O,0.03162X0.09461*%
%ADD154C,0.02362*%
%ADD155R,0.01575X0.01969*%
%ADD156R,0.00984X0.00984*%
%ADD157R,0.01969X0.01575*%
%ADD158R,0.00984X0.00984*%
D31*
X0101Y045D02*
G03*
X0081Y045I-001J0D01*
G01*
X0127D02*
G03*
X0107Y045I-001J0D01*
G01*
X0153D02*
G03*
X0133Y045I-001J0D01*
G01*
X0212111Y0406D02*
G03*
X0212111Y0406I-0018111J0D01*
G01*
X0204D02*
G03*
X0204Y0406I-001J0D01*
G01*
X0198D02*
G03*
X0198Y0406I-0004J0D01*
G01*
X01955Y01555D02*
X01995D01*
Y0151D02*
Y01555D01*
X0086Y026D02*
Y0264D01*
X0082Y026D02*
X0086D01*
X0081Y0432D02*
Y0451D01*
X0101Y0432D02*
Y0451D01*
X0079Y0429D02*
X0103D01*
X0079Y0432D02*
X0103D01*
X0079Y0429D02*
Y0432D01*
X0103Y0429D02*
Y0432D01*
X0096Y0427D02*
Y0429D01*
X0085Y0427D02*
Y0429D01*
X0107Y0432D02*
Y0451D01*
X0127Y0432D02*
Y0451D01*
X0105Y0429D02*
X0129D01*
X0105Y0432D02*
X0129D01*
X0105Y0429D02*
Y0432D01*
X0129Y0429D02*
Y0432D01*
X0122Y0427D02*
Y0429D01*
X0111Y0427D02*
Y0429D01*
X0133Y0432D02*
Y0451D01*
X0153Y0432D02*
Y0451D01*
X0131Y0429D02*
X0155D01*
X0131Y0432D02*
X0155D01*
X0131Y0429D02*
Y0432D01*
X0155Y0429D02*
Y0432D01*
X0148Y0427D02*
Y0429D01*
X0137Y0427D02*
Y0429D01*
X0028Y03907D02*
Y0392D01*
Y0372D02*
Y03733D01*
X0036Y0368D02*
Y0372D01*
Y0392D02*
Y0396D01*
X0000252Y0397354D02*
X00067D01*
X0000252Y0366646D02*
X00067D01*
X0008276Y0394224D02*
Y03945D01*
X00135Y03695D02*
Y0382D01*
X0008276Y03695D02*
Y03945D01*
Y03695D02*
X00135D01*
Y0382D02*
Y03945D01*
X0008276D02*
X00135D01*
X0000252Y0382D02*
Y0397354D01*
Y0366646D02*
Y0382D01*
X0028Y0392D02*
X0036D01*
X0028Y0372D02*
X0036D01*
X0182Y0288D02*
X0192D01*
X0182D02*
Y0301D01*
X0192D01*
Y0288D02*
Y0301D01*
X0191319Y0381047D02*
X0191811D01*
X0192795Y0382031D01*
Y0382524D01*
Y0385968D01*
X018689Y0386953D02*
X0191811D01*
X0192795Y0385968D01*
X018689Y0381047D02*
X0191319D01*
X0177539D02*
X018689D01*
X0176555Y0382031D02*
X0177539Y0381047D01*
X0176555Y0382031D02*
Y0385968D01*
X0177539Y0386953D02*
X018689D01*
X0176555Y0385968D02*
X0177539Y0386953D01*
X0136Y0382D02*
X0146D01*
Y0369D02*
Y0382D01*
X0136Y0369D02*
X0146D01*
X0136D02*
Y0382D01*
X018Y0348D02*
Y0358D01*
X0167Y0348D02*
X018D01*
X0167D02*
Y0358D01*
X018D01*
X0167Y0359D02*
X0169D01*
X0167Y0347D02*
X0169D01*
Y0348D01*
X0167Y0347D02*
Y0348D01*
X0169Y0358D02*
Y0359D01*
X0167Y0358D02*
Y0359D01*
X0174Y033D02*
X0187D01*
Y034D01*
X0174D02*
X0187D01*
X0174Y033D02*
Y034D01*
X0206Y0278D02*
Y0288D01*
X0219D01*
Y0278D02*
Y0288D01*
X0206Y0278D02*
X0219D01*
X0217Y0277D02*
X0219D01*
X0217Y0289D02*
X0219D01*
X0217Y0288D02*
Y0289D01*
X0219Y0288D02*
Y0289D01*
X0217Y0277D02*
Y0278D01*
X0219Y0277D02*
Y0278D01*
X0209047Y018711D02*
Y0196461D01*
X0210032Y0197445D01*
X0213968D01*
X0214953Y018711D02*
Y0196461D01*
X0213968Y0197445D02*
X0214953Y0196461D01*
X0209047Y018711D02*
X0210032Y0186126D01*
X0213968D01*
X0214953Y018711D01*
X0217047D02*
Y0196461D01*
X0218032Y0197445D01*
X0221969D01*
X0222953Y018711D02*
Y0196461D01*
X0221969Y0197445D02*
X0222953Y0196461D01*
X0217047Y018711D02*
X0218032Y0186126D01*
X0221969D01*
X0222953Y018711D01*
X0225Y0166D02*
Y0178D01*
X0213Y0166D02*
X0225D01*
X0213D02*
Y0178D01*
X0225D01*
X0194Y0130315D02*
Y015D01*
X0181402Y0130315D02*
X0194D01*
X0181402D02*
Y015D01*
X0194D01*
X0196Y0202D02*
X0206D01*
Y0189D02*
Y0202D01*
X0196Y0189D02*
X0206D01*
X0196D02*
Y0202D01*
X0214Y0216D02*
X0224D01*
X0214D02*
Y0229D01*
X0224D01*
Y0216D02*
Y0229D01*
X0160252Y0382D02*
X0176D01*
X0160252Y0366252D02*
Y0382D01*
Y0366252D02*
X0176D01*
Y0382D01*
X0086Y0386D02*
X0096D01*
Y0373D02*
Y0386D01*
X0086Y0373D02*
X0096D01*
X0086D02*
Y0386D01*
X0085Y0373D02*
Y0375D01*
X0097Y0373D02*
Y0375D01*
X0096D02*
X0097D01*
X0096Y0373D02*
X0097D01*
X0085Y0375D02*
X0086D01*
X0085Y0373D02*
X0086D01*
X0088Y0351D02*
Y0364D01*
Y0351D02*
X0098D01*
Y0364D01*
X0088D02*
X0098D01*
X011Y0341D02*
Y0354D01*
Y0341D02*
X012D01*
Y0354D01*
X011D02*
X012D01*
X0132Y0342D02*
Y0355D01*
X0122D02*
X0132D01*
X0122Y0342D02*
Y0355D01*
Y0342D02*
X0132D01*
X0146Y0344D02*
Y0357D01*
X0136D02*
X0146D01*
X0136Y0344D02*
Y0357D01*
Y0344D02*
X0146D01*
X0154Y033D02*
X0167D01*
Y034D01*
X0154D02*
X0167D01*
X0154Y033D02*
Y034D01*
X0062815Y0264D02*
X00825D01*
X0062815D02*
Y0276598D01*
X00825D01*
Y0264D02*
Y0276598D01*
X0225Y0152D02*
Y0164D01*
X0213Y0152D02*
X0225D01*
X0213D02*
Y0164D01*
X0225D01*
X0022Y0024D02*
Y0064D01*
Y0024D02*
X00695D01*
X0022Y0064D02*
X00695D01*
Y0024D02*
Y0064D01*
X0015Y0142D02*
X0021Y0136D01*
Y0097D02*
Y0136D01*
X0018Y0094D02*
X0021Y0097D01*
X0018Y0092D02*
Y0094D01*
Y0092D02*
X0072D01*
Y0148D01*
X0015Y0142D02*
Y0148D01*
X0072D01*
X0004Y0094D02*
X0018D01*
X0004D02*
Y0139D01*
X00177D01*
X0004Y0094D02*
X0009Y0099D01*
Y0134D01*
X0004Y0139D02*
X0009Y0134D01*
X0012Y026D02*
Y027D01*
X0025D01*
Y026D02*
Y027D01*
X0012Y026D02*
X0025D01*
X0023Y0259D02*
X0025D01*
X0023Y0271D02*
X0025D01*
X0023Y027D02*
Y0271D01*
X0025Y027D02*
Y0271D01*
X0023Y0259D02*
Y026D01*
X0025Y0259D02*
Y026D01*
X01025Y0278D02*
Y0288D01*
X00895Y0278D02*
X01025D01*
X00895D02*
Y0288D01*
X01025D01*
X00895Y0289D02*
X00915D01*
X00895Y0277D02*
X00915D01*
Y0278D01*
X00895Y0277D02*
Y0278D01*
X00915Y0288D02*
Y0289D01*
X00895Y0288D02*
Y0289D01*
X011Y033D02*
X012D01*
Y0317D02*
Y033D01*
X011Y0317D02*
X012D01*
X011D02*
Y033D01*
X01105Y0259D02*
X01115D01*
X01105Y0257D02*
X01115D01*
X00995Y0259D02*
X01005D01*
X00995Y0257D02*
X01005D01*
X00995D02*
Y0259D01*
X01115Y0257D02*
Y0259D01*
X01105Y0246D02*
Y0259D01*
X01005D02*
X01105D01*
X01005Y0246D02*
Y0259D01*
Y0246D02*
X01105D01*
X0212Y0146D02*
X0222D01*
Y0133D02*
Y0146D01*
X0212Y0133D02*
X0222D01*
X0212D02*
Y0146D01*
X0211Y0133D02*
Y0135D01*
X0223Y0133D02*
Y0135D01*
X0222D02*
X0223D01*
X0222Y0133D02*
X0223D01*
X0211Y0135D02*
X0212D01*
X0211Y0133D02*
X0212D01*
X0024Y0346D02*
Y0356D01*
X0011Y0346D02*
X0024D01*
X0011D02*
Y0356D01*
X0024D01*
X0158Y0412D02*
X0168D01*
X0158D02*
Y0425D01*
X0168D01*
Y0412D02*
Y0425D01*
X019Y0354D02*
Y0364D01*
X0203D01*
Y0354D02*
Y0364D01*
X019Y0354D02*
X0203D01*
X0201Y0353D02*
X0203D01*
X0201Y0365D02*
X0203D01*
X0201Y0364D02*
Y0365D01*
X0203Y0364D02*
Y0365D01*
X0201Y0353D02*
Y0354D01*
X0203Y0353D02*
Y0354D01*
X015Y036D02*
X016D01*
Y0347D02*
Y036D01*
X015Y0347D02*
X016D01*
X015D02*
Y036D01*
X0149Y0347D02*
Y0349D01*
X0161Y0347D02*
Y0349D01*
X016D02*
X0161D01*
X016Y0347D02*
X0161D01*
X0149Y0349D02*
X015D01*
X0149Y0347D02*
X015D01*
X017Y0082D02*
X018D01*
Y0069D02*
Y0082D01*
X017Y0069D02*
X018D01*
X017D02*
Y0082D01*
X0169Y0069D02*
Y0071D01*
X0181Y0069D02*
Y0071D01*
X018D02*
X0181D01*
X018Y0069D02*
X0181D01*
X0169Y0071D02*
X017D01*
X0169Y0069D02*
X017D01*
X0156Y0084D02*
X0166D01*
Y0071D02*
Y0084D01*
X0156Y0071D02*
X0166D01*
X0156D02*
Y0084D01*
X0155Y0071D02*
Y0073D01*
X0167Y0071D02*
Y0073D01*
X0166D02*
X0167D01*
X0166Y0071D02*
X0167D01*
X0155Y0073D02*
X0156D01*
X0155Y0071D02*
X0156D01*
X0074Y008D02*
X0084D01*
Y0067D02*
Y008D01*
X0074Y0067D02*
X0084D01*
X0074D02*
Y008D01*
X0048Y0152D02*
Y0162D01*
X0061D01*
Y0152D02*
Y0162D01*
X0048Y0152D02*
X0061D01*
X0092Y0106D02*
X0102D01*
Y0093D02*
Y0106D01*
X0092Y0093D02*
X0102D01*
X0092D02*
Y0106D01*
X0104D02*
X0114D01*
Y0093D02*
Y0106D01*
X0104Y0093D02*
X0114D01*
X0104D02*
Y0106D01*
X0208Y0292D02*
Y0302D01*
X0221D01*
Y0292D02*
Y0302D01*
X0208Y0292D02*
X0221D01*
X0219Y0291D02*
X0221D01*
X0219Y0303D02*
X0221D01*
X0219Y0302D02*
Y0303D01*
X0221Y0302D02*
Y0303D01*
X0219Y0291D02*
Y0292D01*
X0221Y0291D02*
Y0292D01*
X0184Y0202D02*
X0194D01*
Y0189D02*
Y0202D01*
X0184Y0189D02*
X0194D01*
X0184D02*
Y0202D01*
X0172D02*
X0182D01*
Y0189D02*
Y0202D01*
X0172Y0189D02*
X0182D01*
X0172D02*
Y0202D01*
X016D02*
X017D01*
Y0189D02*
Y0202D01*
X016Y0189D02*
X017D01*
X016D02*
Y0202D01*
X0148D02*
X0158D01*
Y0189D02*
Y0202D01*
X0148Y0189D02*
X0158D01*
X0148D02*
Y0202D01*
X019Y0368D02*
Y0378D01*
X0203D01*
Y0368D02*
Y0378D01*
X019Y0368D02*
X0203D01*
X0201Y0367D02*
X0203D01*
X0201Y0379D02*
X0203D01*
X0201Y0378D02*
Y0379D01*
X0203Y0378D02*
Y0379D01*
X0201Y0367D02*
Y0368D01*
X0203Y0367D02*
Y0368D01*
X002Y0166D02*
X003D01*
X002D02*
Y0179D01*
X003D01*
Y0166D02*
Y0179D01*
X0192Y0174D02*
Y0184D01*
X0179Y0174D02*
X0192D01*
X0179D02*
Y0184D01*
X0192D01*
X01945Y0208D02*
X01955Y0209D01*
X01945Y022D02*
X01955Y0219D01*
X0188Y022D02*
X01945D01*
X0188Y0219D02*
Y022D01*
Y0208D02*
Y0209D01*
X0173D02*
Y0219D01*
X01955D01*
Y0209D02*
Y0219D01*
X0173Y0209D02*
X01955D01*
X0188Y0208D02*
X01945D01*
X0181Y0026D02*
X0201D01*
X0181Y001D02*
X0201D01*
Y0026D01*
X0191Y001D02*
Y0026D01*
X0181Y001D02*
Y0026D01*
X0104Y039D02*
X013D01*
X0104Y0364D02*
Y039D01*
Y0364D02*
X013D01*
Y039D01*
X0172Y0404D02*
X0176D01*
X0172Y0408D02*
X0176D01*
X0172Y0404D02*
Y0408D01*
X0036Y-0003D02*
Y0002D01*
X0031Y-0003D02*
X0036D01*
X0031D02*
Y0002D01*
X00535D02*
Y0012D01*
X0026D02*
X00535D01*
X0026Y0002D02*
X00535D01*
X0026D02*
Y0012D01*
X0066Y0293D02*
X00785D01*
X0066Y0283D02*
Y0293D01*
Y0283D02*
X00785D01*
Y0293D01*
X0076Y0412D02*
Y0444D01*
X0041Y041D02*
Y0412D01*
X0051Y041D02*
Y0412D01*
X0061Y041D02*
Y0412D01*
X0071Y041D02*
Y0412D01*
X0066D02*
Y0444D01*
X0056Y0412D02*
Y0444D01*
X0046Y0412D02*
Y0444D01*
X0036Y0412D02*
Y0444D01*
Y0412D02*
X0076D01*
X0036Y0444D02*
X0076D01*
X018Y0165D02*
X01925D01*
X018Y0155D02*
Y0165D01*
Y0155D02*
X01925D01*
Y0165D01*
X0196315Y0327189D02*
X0216D01*
Y0339D01*
X0196315D02*
X0216D01*
X0196315Y0327189D02*
Y0339D01*
X0053937Y0167634D02*
Y0178461D01*
X0052461Y0179937D02*
X0053937Y0178461D01*
X0052461Y0166157D02*
X0053937Y0167634D01*
X0047539Y0166157D02*
X0052461D01*
X0046063Y0167634D02*
X0047539Y0166157D01*
X0046063Y0167634D02*
Y0178461D01*
X0047539Y0179937D01*
X0052461D01*
X0044Y0164D02*
Y0176D01*
X0032Y0164D02*
X0044D01*
X0032D02*
Y0176D01*
X0044D01*
X0207319Y0314047D02*
X0207811D01*
X0208795Y0315032D01*
Y0315524D01*
Y0318969D01*
X020289Y0319953D02*
X0207811D01*
X0208795Y0318969D01*
X020289Y0314047D02*
X0207319D01*
X0193539D02*
X020289D01*
X0192555Y0315032D02*
X0193539Y0314047D01*
X0192555Y0315032D02*
Y0318969D01*
X0193539Y0319953D02*
X020289D01*
X0192555Y0318969D02*
X0193539Y0319953D01*
X0Y0292D02*
X0032D01*
X0Y0302D02*
X0032D01*
X0Y0312D02*
X0032D01*
X0Y0322D02*
X0032D01*
X0Y0332D02*
X0032D01*
Y0337D02*
X0034D01*
X0032Y0327D02*
X0034D01*
X0032Y0317D02*
X0034D01*
X0032Y0307D02*
X0034D01*
X0032Y0297D02*
X0034D01*
X0Y0342D02*
X0032D01*
Y0292D02*
Y0342D01*
X0Y0292D02*
Y0342D01*
X0107Y0315D02*
Y0333D01*
X0097Y0315D02*
Y0333D01*
X0087Y0315D02*
Y0333D01*
X0067Y0315D02*
Y0333D01*
X0076Y0315D02*
Y0333D01*
X0067D02*
X0107D01*
X0067Y0315D02*
X0107D01*
X0086Y0352D02*
Y0365D01*
X0076D02*
X0086D01*
X0076Y0352D02*
Y0365D01*
Y0352D02*
X0086D01*
X0074D02*
Y0365D01*
X0064D02*
X0074D01*
X0064Y0352D02*
Y0365D01*
Y0352D02*
X0074D01*
X0158Y0021D02*
Y0031D01*
Y0021D02*
X0166D01*
X0178D01*
Y0031D01*
X0167D02*
X0178D01*
X0158D02*
X0167D01*
X0168Y0021D02*
Y0031D01*
X0156Y0003D02*
Y002D01*
X0146Y0003D02*
Y002D01*
X0136Y0003D02*
Y002D01*
X0077D02*
X0156D01*
X0151D02*
Y0022D01*
X0141Y002D02*
Y0022D01*
X0127Y0003D02*
Y002D01*
X0117Y0003D02*
Y002D01*
X0107Y0003D02*
Y002D01*
X0097Y0003D02*
Y002D01*
X0087Y0003D02*
Y002D01*
X0082D02*
Y0022D01*
X0092Y002D02*
Y0022D01*
X0102Y002D02*
Y0022D01*
X0112Y002D02*
Y0022D01*
X0122Y002D02*
Y0022D01*
X0132Y002D02*
Y0022D01*
X0077Y0003D02*
X0156D01*
X0077D02*
Y002D01*
X0221Y0031D02*
Y00535D01*
X0211D02*
X0221D01*
X0211Y0031D02*
Y00535D01*
Y0031D02*
X0221D01*
X0198Y0048D02*
X0208D01*
Y0035D02*
Y0048D01*
X0198Y0035D02*
X0208D01*
X0198D02*
Y0048D01*
X0197Y0035D02*
Y0037D01*
X0209Y0035D02*
Y0037D01*
X0208D02*
X0209D01*
X0208Y0035D02*
X0209D01*
X0197Y0037D02*
X0198D01*
X0197Y0035D02*
X0198D01*
X0184Y0034D02*
X0194D01*
X0184D02*
Y0047D01*
X0194D01*
Y0034D02*
Y0047D01*
X0168Y0062D02*
X0178D01*
Y0049D02*
Y0062D01*
X0168Y0049D02*
X0178D01*
X0168D02*
Y0062D01*
X0167Y0049D02*
Y0051D01*
X0179Y0049D02*
Y0051D01*
X0178D02*
X0179D01*
X0178Y0049D02*
X0179D01*
X0167Y0051D02*
X0168D01*
X0167Y0049D02*
X0168D01*
X0208Y0085D02*
X0224D01*
X0208Y0075D02*
X0224D01*
X0208Y0065D02*
X0224D01*
X0208D02*
Y0085D01*
X0224Y0065D02*
Y0085D01*
X0142Y0084D02*
X0152D01*
Y0071D02*
Y0084D01*
X0142Y0071D02*
X0152D01*
X0142D02*
Y0084D01*
X017Y0106D02*
X018D01*
Y0093D02*
Y0106D01*
X017Y0093D02*
X018D01*
X017D02*
Y0106D01*
X0182Y0094D02*
X0192D01*
X0182D02*
Y0107D01*
X0192D01*
Y0094D02*
Y0107D01*
X0194Y0094D02*
X0204D01*
X0194D02*
Y0107D01*
X0204D01*
Y0094D02*
Y0107D01*
X0208Y0104D02*
X0218D01*
Y0091D02*
Y0104D01*
X0208Y0091D02*
X0218D01*
X0208D02*
Y0104D01*
X0207Y0091D02*
Y0093D01*
X0219Y0091D02*
Y0093D01*
X0218D02*
X0219D01*
X0218Y0091D02*
X0219D01*
X0207Y0093D02*
X0208D01*
X0207Y0091D02*
X0208D01*
X0214Y0112D02*
X0224D01*
X0214D02*
Y0125D01*
X0224D01*
Y0112D02*
Y0125D01*
X0198Y0142D02*
X0208D01*
Y0129D02*
Y0142D01*
X0198Y0129D02*
X0208D01*
X0198D02*
Y0142D01*
X0197Y0129D02*
Y0131D01*
X0209Y0129D02*
Y0131D01*
X0208D02*
X0209D01*
X0208Y0129D02*
X0209D01*
X0197Y0131D02*
X0198D01*
X0197Y0129D02*
X0198D01*
X0178Y0125D02*
X01905D01*
X0178Y0115D02*
Y0125D01*
Y0115D02*
X01905D01*
Y0125D01*
X0088Y0066D02*
X0098D01*
X0088D02*
Y0079D01*
X0098D01*
Y0066D02*
Y0079D01*
X008Y014D02*
X009D01*
Y0127D02*
Y014D01*
X008Y0127D02*
X009D01*
X008D02*
Y014D01*
X0045Y0216D02*
Y0217D01*
X0047Y0216D02*
Y0217D01*
X0045Y0205D02*
Y0206D01*
X0047Y0205D02*
Y0206D01*
X0045Y0205D02*
X0047D01*
X0045Y0217D02*
X0047D01*
X0045Y0216D02*
X0058D01*
X0045Y0206D02*
Y0216D01*
Y0206D02*
X0058D01*
Y0216D01*
X0066Y0249D02*
X00785D01*
Y0259D01*
X0066D02*
X00785D01*
X0066Y0249D02*
Y0259D01*
X0132Y0224D02*
Y0234D01*
X0145D01*
Y0224D02*
Y0234D01*
X0132Y0224D02*
X0145D01*
X0143Y0223D02*
X0145D01*
X0143Y0235D02*
X0145D01*
X0143Y0234D02*
Y0235D01*
X0145Y0234D02*
Y0235D01*
X0143Y0223D02*
Y0224D01*
X0145Y0223D02*
Y0224D01*
X0205Y0275D02*
X0223D01*
X0205Y0265D02*
X0223D01*
X0205Y0255D02*
X0223D01*
X0205Y0235D02*
X0223D01*
X0205Y0244D02*
X0223D01*
X0205Y0235D02*
Y0275D01*
X0223Y0235D02*
Y0275D01*
X0186Y0266D02*
Y0276D01*
X0199D01*
Y0266D02*
Y0276D01*
X0186Y0266D02*
X0199D01*
X0197Y0265D02*
X0199D01*
X0197Y0277D02*
X0199D01*
X0197Y0276D02*
Y0277D01*
X0199Y0276D02*
Y0277D01*
X0197Y0265D02*
Y0266D01*
X0199Y0265D02*
Y0266D01*
X01365Y01925D02*
X0142498D01*
Y0195499D01*
X0141498Y0196499D01*
X0139499D01*
X0138499Y0195499D01*
Y01925D01*
Y0194499D02*
X01365Y0196499D01*
X01375Y0198498D02*
X01365Y0199498D01*
Y0201497D01*
X01375Y0202497D01*
X0141498D01*
X0142498Y0201497D01*
Y0199498D01*
X0141498Y0198498D01*
X0140499D01*
X0139499Y0199498D01*
Y0202497D01*
X01365Y0207495D02*
X0142498D01*
X0139499Y0204496D01*
Y0208495D01*
X0195002Y02655D02*
X02D01*
X0201Y02645D01*
Y0262501D01*
X02Y0261501D01*
X0195002D01*
X0201Y0259502D02*
Y0256503D01*
X02Y0255503D01*
X0199001Y0256503D01*
Y0258502D01*
X0198001Y0259502D01*
X0197001Y0258502D01*
Y0255503D01*
Y0252504D02*
Y0250505D01*
X0198001Y0249505D01*
X0201D01*
Y0252504D01*
X02Y0253504D01*
X0199001Y0252504D01*
Y0249505D01*
X0197001Y0247506D02*
X0201D01*
X0199001D01*
X0198001Y0246506D01*
X0197001Y0245507D01*
Y0244507D01*
X0196002Y0240508D02*
X0197001D01*
Y0241508D01*
Y0239508D01*
Y0240508D01*
X02D01*
X0201Y0239508D01*
X0139Y0080498D02*
Y00745D01*
X0136001D01*
X0135001Y00755D01*
Y0076499D01*
X0136001Y0077499D01*
X0139D01*
X0136001D01*
X0135001Y0078499D01*
Y0079498D01*
X0136001Y0080498D01*
X0139D01*
X0133002Y00745D02*
X0131003D01*
X0132002D01*
Y0080498D01*
X0133002Y0079498D01*
X00275Y0081998D02*
Y0076D01*
X0024501D01*
X0023501Y0077D01*
Y0077999D01*
X0024501Y0078999D01*
X00275D01*
X0024501D01*
X0023501Y0079999D01*
Y0080998D01*
X0024501Y0081998D01*
X00275D01*
X0017503D02*
X0019503Y0080998D01*
X0021502Y0078999D01*
Y0077D01*
X0020502Y0076D01*
X0018503D01*
X0017503Y0077D01*
Y0077999D01*
X0018503Y0078999D01*
X0021502D01*
X0204498Y0147D02*
X01985D01*
Y0149999D01*
X01995Y0150999D01*
X0200499D01*
X0201499Y0149999D01*
Y0147D01*
Y0149999D01*
X0202499Y0150999D01*
X0203498D01*
X0204498Y0149999D01*
Y0147D01*
Y0152998D02*
Y0156997D01*
X0203498D01*
X01995Y0152998D01*
X01985D01*
X0109Y0241498D02*
Y02355D01*
X0106001D01*
X0105001Y02365D01*
Y0237499D01*
X0106001Y0238499D01*
X0109D01*
X0106001D01*
X0105001Y0239499D01*
Y0240498D01*
X0106001Y0241498D01*
X0109D01*
X0103002Y0240498D02*
X0102002Y0241498D01*
X0100003D01*
X0099003Y0240498D01*
Y0239499D01*
X0100003Y0238499D01*
X0099003Y0237499D01*
Y02365D01*
X0100003Y02355D01*
X0102002D01*
X0103002Y02365D01*
Y0237499D01*
X0102002Y0238499D01*
X0103002Y0239499D01*
Y0240498D01*
X0102002Y0238499D02*
X0100003D01*
X0102Y0296998D02*
Y0291D01*
X0099001D01*
X0098001Y0292D01*
Y0292999D01*
X0099001Y0293999D01*
X0102D01*
X0099001D01*
X0098001Y0294999D01*
Y0295998D01*
X0099001Y0296998D01*
X0102D01*
X0092003D02*
X0096002D01*
Y0293999D01*
X0094003Y0294999D01*
X0093003D01*
X0092003Y0293999D01*
Y0292D01*
X0093003Y0291D01*
X0095002D01*
X0096002Y0292D01*
X01265Y0234498D02*
Y02285D01*
X0123501D01*
X0122501Y02295D01*
Y0230499D01*
X0123501Y0231499D01*
X01265D01*
X0123501D01*
X0122501Y0232499D01*
Y0233498D01*
X0123501Y0234498D01*
X01265D01*
X0117503Y02285D02*
Y0234498D01*
X0120502Y0231499D01*
X0116503D01*
X0218Y0363998D02*
Y0358D01*
X0215001D01*
X0214001Y0359D01*
Y0359999D01*
X0215001Y0360999D01*
X0218D01*
X0215001D01*
X0214001Y0361999D01*
Y0362998D01*
X0215001Y0363998D01*
X0218D01*
X0208003Y0358D02*
X0212002D01*
X0208003Y0361999D01*
Y0362998D01*
X0209003Y0363998D01*
X0211002D01*
X0212002Y0362998D01*
X0154498Y03645D02*
X01485D01*
Y0367499D01*
X01495Y0368499D01*
X0150499D01*
X0151499Y0367499D01*
Y03645D01*
Y0367499D01*
X0152499Y0368499D01*
X0153498D01*
X0154498Y0367499D01*
Y03645D01*
X01485Y0370498D02*
Y0372497D01*
Y0371498D01*
X0154498D01*
X0153498Y0370498D01*
X01485Y0379495D02*
Y0375496D01*
X0152499Y0379495D01*
X0153498D01*
X0154498Y0378496D01*
Y0376496D01*
X0153498Y0375496D01*
X0094498Y03915D02*
X00885D01*
Y0394499D01*
X00895Y0395499D01*
X0090499D01*
X0091499Y0394499D01*
Y03915D01*
Y0394499D01*
X0092499Y0395499D01*
X0093498D01*
X0094498Y0394499D01*
Y03915D01*
X00885Y0397498D02*
Y0399497D01*
Y0398498D01*
X0094498D01*
X0093498Y0397498D01*
Y0402496D02*
X0094498Y0403496D01*
Y0405496D01*
X0093498Y0406495D01*
X0092499D01*
X0091499Y0405496D01*
Y0404496D01*
Y0405496D01*
X0090499Y0406495D01*
X00895D01*
X00885Y0405496D01*
Y0403496D01*
X00895Y0402496D01*
X01715Y0399998D02*
X0169501D01*
X01705D01*
Y0394D01*
X01715D01*
X0169501D01*
X0166502Y0399998D02*
X0162503D01*
X0164502D01*
Y0394D01*
X0156505Y0398998D02*
X0157504Y0399998D01*
X0159504D01*
X0160504Y0398998D01*
Y0395D01*
X0159504Y0394D01*
X0157504D01*
X0156505Y0395D01*
Y0396999D01*
X0158504D01*
X0154506D02*
X0150507D01*
X0148507Y0398998D02*
X0147508Y0399998D01*
X0145508D01*
X0144509Y0398998D01*
Y0397999D01*
X0145508Y0396999D01*
X0146508D01*
X0145508D01*
X0144509Y0395999D01*
Y0395D01*
X0145508Y0394D01*
X0147508D01*
X0148507Y0395D01*
X0138511Y0394D02*
X0142509D01*
X0138511Y0397999D01*
Y0398998D01*
X013951Y0399998D01*
X014151D01*
X0142509Y0398998D01*
X0136511D02*
X0135512Y0399998D01*
X0133512D01*
X0132513Y0398998D01*
Y0395D01*
X0133512Y0394D01*
X0135512D01*
X0136511Y0395D01*
Y0398998D01*
X0130513D02*
X0129514Y0399998D01*
X0127514D01*
X0126515Y0398998D01*
Y0395D01*
X0127514Y0394D01*
X0129514D01*
X0130513Y0395D01*
Y0398998D01*
X0135998Y0360499D02*
X0136998Y0359499D01*
Y03575D01*
X0135998Y03565D01*
X0132D01*
X0131Y03575D01*
Y0359499D01*
X0132Y0360499D01*
X0131Y0362498D02*
Y0364497D01*
Y0363498D01*
X0136998D01*
X0135998Y0362498D01*
Y0367496D02*
X0136998Y0368496D01*
Y0370496D01*
X0135998Y0371495D01*
X0134999D01*
X0133999Y0370496D01*
X0132999Y0371495D01*
X0132D01*
X0131Y0370496D01*
Y0368496D01*
X0132Y0367496D01*
X0132999D01*
X0133999Y0368496D01*
X0134999Y0367496D01*
X0135998D01*
X0133999Y0368496D02*
Y0370496D01*
X0201001Y0387498D02*
X0202001Y0388498D01*
X0204D01*
X0205Y0387498D01*
Y03835D01*
X0204Y03825D01*
X0202001D01*
X0201001Y03835D01*
X0199002Y03825D02*
X0197003D01*
X0198002D01*
Y0388498D01*
X0199002Y0387498D01*
X0194004Y0388498D02*
X0190005D01*
Y0387498D01*
X0194004Y03835D01*
Y03825D01*
X0026498Y01845D02*
X00205D01*
Y0188499D01*
X0024499Y0194497D02*
Y0191498D01*
X0023499Y0190498D01*
X00215D01*
X00205Y0191498D01*
Y0194497D01*
X0026498Y0200495D02*
X00205D01*
Y0197496D01*
X00215Y0196496D01*
X0023499D01*
X0024499Y0197496D01*
Y0200495D01*
X00205Y0202494D02*
X0026498D01*
Y0205493D01*
X0025498Y0206493D01*
X0023499D01*
X0022499Y0205493D01*
Y0202494D01*
Y0204493D02*
X00205Y0206493D01*
X0026498Y0212491D02*
Y0208492D01*
X00205D01*
Y0212491D01*
X0023499Y0208492D02*
Y0210492D01*
X0025498Y0218489D02*
X0026498Y0217489D01*
Y021549D01*
X0025498Y021449D01*
X0024499D01*
X0023499Y021549D01*
Y0217489D01*
X0022499Y0218489D01*
X00215D01*
X00205Y0217489D01*
Y021549D01*
X00215Y021449D01*
X02245Y0185998D02*
X0220501D01*
X0222501D01*
Y018D01*
X0218502Y0183999D02*
X0214503Y018D01*
X0216503Y0181999D01*
X0214503Y0183999D01*
X0218502Y018D01*
X02105Y016D02*
Y0165998D01*
X0207501D01*
X0206501Y0164998D01*
Y0162999D01*
X0207501Y0161999D01*
X02105D01*
X0208501D02*
X0206501Y016D01*
X0204502Y0163999D02*
X0200503Y016D01*
X0202503Y0161999D01*
X0200503Y0163999D01*
X0204502Y016D01*
X0035Y01795D02*
X0040998D01*
Y0182499D01*
X0039998Y0183499D01*
X0037999D01*
X0036999Y0182499D01*
Y01795D01*
Y0181499D02*
X0035Y0183499D01*
Y0188497D02*
Y0186498D01*
X0036Y0185498D01*
X0037999D01*
X0038999Y0186498D01*
Y0188497D01*
X0037999Y0189497D01*
X0036999D01*
Y0185498D01*
X0035Y0191496D02*
Y0194495D01*
X0036Y0195495D01*
X0036999Y0194495D01*
Y0192496D01*
X0037999Y0191496D01*
X0038999Y0192496D01*
Y0195495D01*
X0218501Y0369D02*
Y0372998D01*
X0219501Y0373998D01*
X02215D01*
X02225Y0372998D01*
Y0369D01*
X02215Y0368D01*
X0219501D01*
X0220501Y0369999D02*
X0218501Y0368D01*
X0219501D02*
X0218501Y0369D01*
X0212503Y0368D02*
X0216502D01*
X0212503Y0371999D01*
Y0372998D01*
X0213503Y0373998D01*
X0215502D01*
X0216502Y0372998D01*
X0210504Y0368D02*
Y0373998D01*
X0206505Y0368D01*
Y0373998D01*
X0176Y0039498D02*
Y0035499D01*
X0174001Y00335D01*
X0172001Y0035499D01*
Y0039498D01*
X0170002Y00335D02*
X0168003D01*
X0169002D01*
Y0037499D01*
X0170002D01*
X0165004Y00335D02*
Y0037499D01*
X0162004D01*
X0161005Y0036499D01*
Y00335D01*
X0199001Y0116498D02*
X0200001Y0117498D01*
X0202D01*
X0203Y0116498D01*
Y01125D01*
X0202Y01115D01*
X0200001D01*
X0199001Y01125D01*
X0197002Y0116498D02*
X0196002Y0117498D01*
X0194003D01*
X0193003Y0116498D01*
Y0115499D01*
X0194003Y0114499D01*
X0193003Y0113499D01*
Y01125D01*
X0194003Y01115D01*
X0196002D01*
X0197002Y01125D01*
Y0113499D01*
X0196002Y0114499D01*
X0197002Y0115499D01*
Y0116498D01*
X0196002Y0114499D02*
X0194003D01*
X0209498Y0018999D02*
X0210498Y0017999D01*
Y0016D01*
X0209498Y0015D01*
X02055D01*
X02045Y0016D01*
Y0017999D01*
X02055Y0018999D01*
X02045Y0020998D02*
Y0022997D01*
Y0021998D01*
X0210498D01*
X0209498Y0020998D01*
Y0025996D02*
X0210498Y0026996D01*
Y0028995D01*
X0209498Y0029995D01*
X02055D01*
X02045Y0028995D01*
Y0026996D01*
X02055Y0025996D01*
X0209498D01*
X0218998Y0018999D02*
X0219998Y0017999D01*
Y0016D01*
X0218998Y0015D01*
X0215D01*
X0214Y0016D01*
Y0017999D01*
X0215Y0018999D01*
X0214Y0020998D02*
Y0022997D01*
Y0021998D01*
X0219998D01*
X0218998Y0020998D01*
X0214Y0025996D02*
Y0027996D01*
Y0026996D01*
X0219998D01*
X0218998Y0025996D01*
X0184998Y0083499D02*
X0185998Y0082499D01*
Y00805D01*
X0184998Y00795D01*
X0181D01*
X018Y00805D01*
Y0082499D01*
X0181Y0083499D01*
X018Y0089497D02*
Y0085498D01*
X0183999Y0089497D01*
X0184998D01*
X0185998Y0088497D01*
Y0086498D01*
X0184998Y0085498D01*
X0223498Y0096499D02*
X0224498Y0095499D01*
Y00935D01*
X0223498Y00925D01*
X02195D01*
X02185Y00935D01*
Y0095499D01*
X02195Y0096499D01*
X0224498Y0102497D02*
Y0098498D01*
X0221499D01*
X0222499Y0100497D01*
Y0101497D01*
X0221499Y0102497D01*
X02195D01*
X02185Y0101497D01*
Y0099498D01*
X02195Y0098498D01*
X0184Y00445D02*
X0178002D01*
Y0041501D01*
X0179002Y0040501D01*
X0181001D01*
X0182001Y0041501D01*
Y00445D01*
Y0042501D02*
X0184Y0040501D01*
Y0035503D02*
X0178002D01*
X0181001Y0038502D01*
Y0034503D01*
X0168Y01035D02*
X0162002D01*
Y0100501D01*
X0163002Y0099501D01*
X0165001D01*
X0166001Y0100501D01*
Y01035D01*
Y0101501D02*
X0168Y0099501D01*
Y0093503D02*
Y0097502D01*
X0164001Y0093503D01*
X0163002D01*
X0162002Y0094503D01*
Y0096502D01*
X0163002Y0097502D01*
X01895Y01105D02*
Y0116498D01*
X0186501D01*
X0185501Y0115498D01*
Y0113499D01*
X0186501Y0112499D01*
X01895D01*
X0187501D02*
X0185501Y01105D01*
X0183502Y0115498D02*
X0182502Y0116498D01*
X0180503D01*
X0179503Y0115498D01*
Y0114499D01*
X0180503Y0113499D01*
X0181503D01*
X0180503D01*
X0179503Y0112499D01*
Y01115D01*
X0180503Y01105D01*
X0182502D01*
X0183502Y01115D01*
X0202Y0090998D02*
X0201Y0091998D01*
X0199001D01*
X0198001Y0090998D01*
Y0089999D01*
X0199001Y0088999D01*
X0200001D01*
X0199001D01*
X0198001Y0087999D01*
Y0087D01*
X0199001Y0086D01*
X0201D01*
X0202Y0087D01*
X0196002Y0090998D02*
X0195002Y0091998D01*
X0193003D01*
X0192003Y0090998D01*
Y0089999D01*
X0193003Y0088999D01*
X0192003Y0087999D01*
Y0087D01*
X0193003Y0086D01*
X0195002D01*
X0196002Y0087D01*
Y0087999D01*
X0195002Y0088999D01*
X0196002Y0089999D01*
Y0090998D01*
X0195002Y0088999D02*
X0193003D01*
X0186005Y0091998D02*
X0188005Y0090998D01*
X0190004Y0088999D01*
Y0087D01*
X0189004Y0086D01*
X0187005D01*
X0186005Y0087D01*
Y0087999D01*
X0187005Y0088999D01*
X0190004D01*
X019Y0168D02*
Y0173998D01*
X0187001D01*
X0186001Y0172998D01*
Y0170999D01*
X0187001Y0169999D01*
X019D01*
X0188001D02*
X0186001Y0168D01*
X0184002Y0172998D02*
X0183002Y0173998D01*
X0181003D01*
X0180003Y0172998D01*
Y0171999D01*
X0181003Y0170999D01*
X0180003Y0169999D01*
Y0169D01*
X0181003Y0168D01*
X0183002D01*
X0184002Y0169D01*
Y0169999D01*
X0183002Y0170999D01*
X0184002Y0171999D01*
Y0172998D01*
X0183002Y0170999D02*
X0181003D01*
X01675Y0431D02*
Y0436998D01*
X0164501D01*
X0163501Y0435998D01*
Y0433999D01*
X0164501Y0432999D01*
X01675D01*
X0165501D02*
X0163501Y0431D01*
X0157503D02*
X0161502D01*
X0157503Y0434999D01*
Y0435998D01*
X0158503Y0436998D01*
X0160502D01*
X0161502Y0435998D01*
X0155504D02*
X0154504Y0436998D01*
X0152505D01*
X0151505Y0435998D01*
Y0432D01*
X0152505Y0431D01*
X0154504D01*
X0155504Y0432D01*
Y0435998D01*
X02215Y0063498D02*
Y00575D01*
X0217501D01*
X0211503Y0062498D02*
X0212503Y0063498D01*
X0214502D01*
X0215502Y0062498D01*
Y0061499D01*
X0214502Y0060499D01*
X0212503D01*
X0211503Y0059499D01*
Y00585D01*
X0212503Y00575D01*
X0214502D01*
X0215502Y00585D01*
X0209504Y00575D02*
X0207505D01*
X0208504D01*
Y0063498D01*
X0209504Y0062498D01*
X01195Y0306D02*
Y0311998D01*
X0116501D01*
X0115501Y0310998D01*
Y0308999D01*
X0116501Y0307999D01*
X01195D01*
X0117501D02*
X0115501Y0306D01*
X0109503Y0311998D02*
X0111503Y0310998D01*
X0113502Y0308999D01*
Y0307D01*
X0112502Y0306D01*
X0110503D01*
X0109503Y0307D01*
Y0307999D01*
X0110503Y0308999D01*
X0113502D01*
X018Y02955D02*
Y0301498D01*
X0177001D01*
X0176001Y0300498D01*
Y0298499D01*
X0177001Y0297499D01*
X018D01*
X0178001D02*
X0176001Y02955D01*
X0170003Y0301498D02*
X0174002D01*
Y0298499D01*
X0172003Y0299499D01*
X0171003D01*
X0170003Y0298499D01*
Y02965D01*
X0171003Y02955D01*
X0173002D01*
X0174002Y02965D01*
X0135Y0405998D02*
Y04D01*
Y0402999D01*
X0131001D01*
Y0405998D01*
Y04D01*
X0129002D02*
Y0405998D01*
X0127003Y0403999D01*
X0125003Y0405998D01*
Y04D01*
X0119005Y0404998D02*
X0120005Y0405998D01*
X0122004D01*
X0123004Y0404998D01*
Y0401D01*
X0122004Y04D01*
X0120005D01*
X0119005Y0401D01*
X0113007Y0405998D02*
X0115006Y0404998D01*
X0117006Y0402999D01*
Y0401D01*
X0116006Y04D01*
X0114007D01*
X0113007Y0401D01*
Y0401999D01*
X0114007Y0402999D01*
X0117006D01*
X0111008Y0404998D02*
X0110008Y0405998D01*
X0108009D01*
X0107009Y0404998D01*
Y0403999D01*
X0108009Y0402999D01*
X0109008D01*
X0108009D01*
X0107009Y0401999D01*
Y0401D01*
X0108009Y04D01*
X0110008D01*
X0111008Y0401D01*
X0101011Y0405998D02*
X010501D01*
Y0402999D01*
X010301Y0403999D01*
X0102011D01*
X0101011Y0402999D01*
Y0401D01*
X0102011Y04D01*
X010401D01*
X010501Y0401D01*
X0095013Y04D02*
X0099012D01*
X0095013Y0403999D01*
Y0404998D01*
X0096013Y0405998D01*
X0098012D01*
X0099012Y0404998D01*
X0017Y01795D02*
X0011002D01*
Y0176501D01*
X0012002Y0175501D01*
X0014001D01*
X0015001Y0176501D01*
Y01795D01*
Y0177501D02*
X0017Y0175501D01*
Y0173502D02*
Y0171503D01*
Y0172502D01*
X0011002D01*
X0012002Y0173502D01*
X0016Y0168504D02*
X0017Y0167504D01*
Y0165505D01*
X0016Y0164505D01*
X0012002D01*
X0011002Y0165505D01*
Y0167504D01*
X0012002Y0168504D01*
X0013001D01*
X0014001Y0167504D01*
Y0164505D01*
X0055001Y0371998D02*
X0056001Y0372998D01*
X0058D01*
X0059Y0371998D01*
Y0368D01*
X0058Y0367D01*
X0056001D01*
X0055001Y0368D01*
X0052002Y0370999D02*
X0050003D01*
X0049003Y0369999D01*
Y0367D01*
X0052002D01*
X0053002Y0368D01*
X0052002Y0368999D01*
X0049003D01*
X0047004Y0370999D02*
Y0367D01*
Y0368999D01*
X0046004Y0369999D01*
X0045004Y0370999D01*
X0044005D01*
X0041006Y0367D02*
X0039007D01*
X0040006D01*
Y0370999D01*
X0041006D01*
X0032009D02*
X0035008D01*
X0036007Y0369999D01*
Y0368D01*
X0035008Y0367D01*
X0032009D01*
X002901Y0370999D02*
X002701D01*
X0026011Y0369999D01*
Y0367D01*
X002901D01*
X0030009Y0368D01*
X002901Y0368999D01*
X0026011D01*
X01595Y02655D02*
Y0271498D01*
X0156501D01*
X0155501Y0270498D01*
Y0268499D01*
X0156501Y0267499D01*
X01595D01*
X0153502Y02655D02*
X0151503D01*
X0152502D01*
Y0269499D01*
X0153502D01*
X0144505D02*
X0147504D01*
X0148504Y0268499D01*
Y02665D01*
X0147504Y02655D01*
X0144505D01*
X0142506Y0270498D02*
X0141506Y0271498D01*
X0139506D01*
X0138507Y0270498D01*
Y0269499D01*
X0139506Y0268499D01*
X0140506D01*
X0139506D01*
X0138507Y0267499D01*
Y02665D01*
X0139506Y02655D01*
X0141506D01*
X0142506Y02665D01*
X0132509Y02655D02*
X0136507D01*
X0132509Y0269499D01*
Y0270498D01*
X0133508Y0271498D01*
X0135508D01*
X0136507Y0270498D01*
X0044998Y0031999D02*
X0045998Y0030999D01*
Y0029D01*
X0044998Y0028D01*
X0043999D01*
X0042999Y0029D01*
Y0030999D01*
X0041999Y0031999D01*
X0041D01*
X004Y0030999D01*
Y0029D01*
X0041Y0028D01*
X0044998Y0034998D02*
X0043999D01*
Y0033998D01*
Y0035997D01*
Y0034998D01*
X0041D01*
X004Y0035997D01*
Y0041995D02*
Y0039996D01*
X0041Y0038996D01*
X0042999D01*
X0043999Y0039996D01*
Y0041995D01*
X0042999Y0042995D01*
X0041999D01*
Y0038996D01*
X0038001Y0044995D02*
X0043999D01*
Y0047993D01*
X0042999Y0048993D01*
X0041D01*
X004Y0047993D01*
Y0044995D01*
X0045998Y0050993D02*
X0041D01*
X004Y0051992D01*
Y0053992D01*
X0041Y0054991D01*
X0045998D01*
X0038001Y0056991D02*
X0043999D01*
Y005999D01*
X0042999Y0060989D01*
X0041D01*
X004Y005999D01*
Y0056991D01*
X0042Y01555D02*
Y0161498D01*
X0039001D01*
X0038001Y0160498D01*
Y0158499D01*
X0039001Y0157499D01*
X0042D01*
X0040001D02*
X0038001Y01555D01*
X0036002D02*
X0034003D01*
X0035002D01*
Y0161498D01*
X0036002Y0160498D01*
X0031004Y0161498D02*
X0027005D01*
Y0160498D01*
X0031004Y01565D01*
Y01555D01*
X01115Y00885D02*
X0105502D01*
Y0085501D01*
X0106502Y0084501D01*
X0108501D01*
X0109501Y0085501D01*
Y00885D01*
Y0086501D02*
X01115Y0084501D01*
Y0082502D02*
Y0080503D01*
Y0081502D01*
X0105502D01*
X0106502Y0082502D01*
X0105502Y0073505D02*
Y0077504D01*
X0108501D01*
X0107501Y0075504D01*
Y0074505D01*
X0108501Y0073505D01*
X01105D01*
X01115Y0074505D01*
Y0076504D01*
X01105Y0077504D01*
X0088Y00945D02*
Y0100498D01*
X0085001D01*
X0084001Y0099498D01*
Y0097499D01*
X0085001Y0096499D01*
X0088D01*
X0086001D02*
X0084001Y00945D01*
X0082002D02*
X0080003D01*
X0081002D01*
Y0100498D01*
X0082002Y0099498D01*
X0073005Y0100498D02*
X0075004Y0099498D01*
X0077004Y0097499D01*
Y00955D01*
X0076004Y00945D01*
X0074005D01*
X0073005Y00955D01*
Y0096499D01*
X0074005Y0097499D01*
X0077004D01*
X0082Y00615D02*
X0076002D01*
Y0058501D01*
X0077002Y0057501D01*
X0079001D01*
X0080001Y0058501D01*
Y00615D01*
Y0059501D02*
X0082Y0057501D01*
Y0051503D02*
Y0055502D01*
X0078001Y0051503D01*
X0077002D01*
X0076002Y0052503D01*
Y0054502D01*
X0077002Y0055502D01*
X0076002Y0045505D02*
Y0049504D01*
X0079001D01*
X0078001Y0047504D01*
Y0046505D01*
X0079001Y0045505D01*
X0081D01*
X0082Y0046505D01*
Y0048504D01*
X0081Y0049504D01*
X02086Y02299D02*
X0202602D01*
Y0226901D01*
X0203602Y0225901D01*
X0205601D01*
X0206601Y0226901D01*
Y02299D01*
Y0227901D02*
X02086Y0225901D01*
Y0223902D02*
Y0221903D01*
Y0222902D01*
X0202602D01*
X0203602Y0223902D01*
X02086Y0215904D02*
X0202602D01*
X0205601Y0218904D01*
Y0214905D01*
X0096Y00595D02*
X0090002D01*
Y0056501D01*
X0091002Y0055501D01*
X0093001D01*
X0094001Y0056501D01*
Y00595D01*
Y0057501D02*
X0096Y0055501D01*
X0090002Y0053502D02*
Y0049503D01*
X0091002D01*
X0095Y0053502D01*
X0096D01*
X0121Y0416998D02*
Y0412D01*
X012Y0411D01*
X0118001D01*
X0117001Y0412D01*
Y0416998D01*
X0115002D02*
Y0412999D01*
X0113003Y0411D01*
X0111003Y0412999D01*
Y0416998D01*
X0151Y0413998D02*
X0149001D01*
X015D01*
Y0408D01*
X0151D01*
X0149001D01*
X0146002D02*
Y0413998D01*
X0143003D01*
X0142003Y0412998D01*
Y0410999D01*
X0143003Y0409999D01*
X0146002D01*
X0144002D02*
X0142003Y0408D01*
X0136005D02*
X0140004D01*
X0136005Y0411999D01*
Y0412998D01*
X0137004Y0413998D01*
X0139004D01*
X0140004Y0412998D01*
X00955Y0416498D02*
X0093501D01*
X00945D01*
Y04105D01*
X00955D01*
X0093501D01*
X0090502D02*
Y0416498D01*
X0087503D01*
X0086503Y0415498D01*
Y0413499D01*
X0087503Y0412499D01*
X0090502D01*
X0088502D02*
X0086503Y04105D01*
X0084504D02*
X0082504D01*
X0083504D01*
Y0416498D01*
X0084504Y0415498D01*
X0046Y0009998D02*
X0044001D01*
X0045D01*
Y0004D01*
X0046D01*
X0044001D01*
X0041002D02*
Y0007999D01*
X0038003D01*
X0037003Y0006999D01*
Y0004D01*
X0034004Y0008998D02*
Y0007999D01*
X0035004D01*
X0033004D01*
X0034004D01*
Y0005D01*
X0033004Y0004D01*
X00315Y0288498D02*
X0029501D01*
X00305D01*
Y02825D01*
X00315D01*
X0029501D01*
X0022503Y0287498D02*
X0023503Y0288498D01*
X0025502D01*
X0026502Y0287498D01*
Y02835D01*
X0025502Y02825D01*
X0023503D01*
X0022503Y02835D01*
X0020504Y0288498D02*
Y02825D01*
X0017504D01*
X0016505Y02835D01*
Y0287498D01*
X0017504Y0288498D01*
X0020504D01*
X0010507Y02825D02*
X0014505D01*
X0010507Y0286499D01*
Y0287498D01*
X0011507Y0288498D01*
X0013506D01*
X0014505Y0287498D01*
X0159998Y0091499D02*
X0160998Y0090499D01*
Y00885D01*
X0159998Y00875D01*
X0156D01*
X0155Y00885D01*
Y0090499D01*
X0156Y0091499D01*
X0155Y0093498D02*
Y0095497D01*
Y0094498D01*
X0160998D01*
X0159998Y0093498D01*
X0155Y0101496D02*
X0160998D01*
X0157999Y0098496D01*
Y0102495D01*
X01995Y0283998D02*
Y0278D01*
X0196501D01*
X0195501Y0279D01*
Y0279999D01*
X0196501Y0280999D01*
X01995D01*
X0196501D01*
X0195501Y0281999D01*
Y0282998D01*
X0196501Y0283998D01*
X01995D01*
X0193502Y0281999D02*
Y0279D01*
X0192502Y0278D01*
X0189503D01*
Y0277D01*
X0190503Y0276001D01*
X0191503D01*
X0189503Y0278D02*
Y0281999D01*
X0187504Y0278D02*
Y0281999D01*
X0185504Y0283998D01*
X0183505Y0281999D01*
Y0278D01*
Y0280999D01*
X0187504D01*
X0177507Y0281999D02*
X0180506D01*
X0181506Y0280999D01*
Y0279D01*
X0180506Y0278D01*
X0177507D01*
X0171509Y0281999D02*
X0174508D01*
X0175508Y0280999D01*
Y0279D01*
X0174508Y0278D01*
X0171509D01*
X0223Y0314498D02*
Y03085D01*
X0220001D01*
X0219001Y03095D01*
Y0310499D01*
X0220001Y0311499D01*
X0223D01*
X0220001D01*
X0219001Y0312499D01*
Y0313498D01*
X0220001Y0314498D01*
X0223D01*
X0217002Y0312499D02*
Y03095D01*
X0216002Y03085D01*
X0213003D01*
Y03075D01*
X0214003Y0306501D01*
X0215003D01*
X0213003Y03085D02*
Y0312499D01*
X0211004Y03085D02*
Y0312499D01*
X0209004Y0314498D01*
X0207005Y0312499D01*
Y03085D01*
Y0311499D01*
X0211004D01*
X0201007Y0312499D02*
X0204006D01*
X0205006Y0311499D01*
Y03095D01*
X0204006Y03085D01*
X0201007D01*
X0195009Y0312499D02*
X0198008D01*
X0199008Y0311499D01*
Y03095D01*
X0198008Y03085D01*
X0195009D01*
X0189011D02*
X019301D01*
X0189011Y0312499D01*
Y0313498D01*
X0190011Y0314498D01*
X019201D01*
X019301Y0313498D01*
X0073001Y0245498D02*
X0074001Y0246498D01*
X0076D01*
X0077Y0245498D01*
Y02415D01*
X0076Y02405D01*
X0074001D01*
X0073001Y02415D01*
X0071002Y0245498D02*
X0070002Y0246498D01*
X0068003D01*
X0067003Y0245498D01*
Y0244499D01*
X0068003Y0243499D01*
X0069003D01*
X0068003D01*
X0067003Y0242499D01*
Y02415D01*
X0068003Y02405D01*
X0070002D01*
X0071002Y02415D01*
X0074401Y0301498D02*
X0075401Y0302498D01*
X00774D01*
X00784Y0301498D01*
Y02975D01*
X00774Y02965D01*
X0075401D01*
X0074401Y02975D01*
X0069403Y02965D02*
Y0302498D01*
X0072402Y0299499D01*
X0068403D01*
X0172501Y0121498D02*
X0173501Y0122498D01*
X01755D01*
X01765Y0121498D01*
Y01175D01*
X01755Y01165D01*
X0173501D01*
X0172501Y01175D01*
X0170502Y01165D02*
X0168503D01*
X0169502D01*
Y0122498D01*
X0170502Y0121498D01*
X0165504D02*
X0164504Y0122498D01*
X0162504D01*
X0161505Y0121498D01*
Y0120499D01*
X0162504Y0119499D01*
X0163504D01*
X0162504D01*
X0161505Y0118499D01*
Y01175D01*
X0162504Y01165D01*
X0164504D01*
X0165504Y01175D01*
X0173001Y0161998D02*
X0174001Y0162998D01*
X0176D01*
X0177Y0161998D01*
Y0158D01*
X0176Y0157D01*
X0174001D01*
X0173001Y0158D01*
X0171002Y0157D02*
X0169003D01*
X0170002D01*
Y0162998D01*
X0171002Y0161998D01*
X0162005Y0157D02*
X0166004D01*
X0162005Y0160999D01*
Y0161998D01*
X0163005Y0162998D01*
X0165004D01*
X0166004Y0161998D01*
X0188501Y0261998D02*
X0189501Y0262998D01*
X01915D01*
X01925Y0261998D01*
Y0258D01*
X01915Y0257D01*
X0189501D01*
X0188501Y0258D01*
X0186502D02*
X0185502Y0257D01*
X0183503D01*
X0182503Y0258D01*
Y0261998D01*
X0183503Y0262998D01*
X0185502D01*
X0186502Y0261998D01*
Y0260999D01*
X0185502Y0259999D01*
X0182503D01*
X017Y0217498D02*
Y02115D01*
X0167001D01*
X0166001Y02125D01*
Y0213499D01*
X0167001Y0214499D01*
X017D01*
X0167001D01*
X0166001Y0215499D01*
Y0216498D01*
X0167001Y0217498D01*
X017D01*
X0164002Y02115D02*
X0162003D01*
X0163002D01*
Y0217498D01*
X0164002Y0216498D01*
X0156005Y02115D02*
Y0217498D01*
X0159004Y0214499D01*
X0155005D01*
X0057Y0202498D02*
Y01965D01*
X0054001D01*
X0053001Y01975D01*
Y0198499D01*
X0054001Y0199499D01*
X0057D01*
X0054001D01*
X0053001Y0200499D01*
Y0201498D01*
X0054001Y0202498D01*
X0057D01*
X0051002Y01975D02*
X0050002Y01965D01*
X0048003D01*
X0047003Y01975D01*
Y0201498D01*
X0048003Y0202498D01*
X0050002D01*
X0051002Y0201498D01*
Y0200499D01*
X0050002Y0199499D01*
X0047003D01*
X00995Y01925D02*
X0105498D01*
Y0195499D01*
X0104498Y0196499D01*
X0102499D01*
X0101499Y0195499D01*
Y01925D01*
Y0194499D02*
X00995Y0196499D01*
X01005Y0198498D02*
X00995Y0199498D01*
Y0201497D01*
X01005Y0202497D01*
X0104498D01*
X0105498Y0201497D01*
Y0199498D01*
X0104498Y0198498D01*
X0103499D01*
X0102499Y0199498D01*
Y0202497D01*
X0104498Y0204496D02*
X0105498Y0205496D01*
Y0207495D01*
X0104498Y0208495D01*
X01005D01*
X00995Y0207495D01*
Y0205496D01*
X01005Y0204496D01*
X0104498D01*
X0109Y01925D02*
X0114998D01*
Y0195499D01*
X0113998Y0196499D01*
X0111999D01*
X0110999Y0195499D01*
Y01925D01*
Y0194499D02*
X0109Y0196499D01*
X011Y0198498D02*
X0109Y0199498D01*
Y0201497D01*
X011Y0202497D01*
X0113998D01*
X0114998Y0201497D01*
Y0199498D01*
X0113998Y0198498D01*
X0112999D01*
X0111999Y0199498D01*
Y0202497D01*
X0109Y0204496D02*
Y0206495D01*
Y0205496D01*
X0114998D01*
X0113998Y0204496D01*
X0118Y01925D02*
X0123998D01*
Y0195499D01*
X0122998Y0196499D01*
X0120999D01*
X0119999Y0195499D01*
Y01925D01*
Y0194499D02*
X0118Y0196499D01*
X0119Y0198498D02*
X0118Y0199498D01*
Y0201497D01*
X0119Y0202497D01*
X0122998D01*
X0123998Y0201497D01*
Y0199498D01*
X0122998Y0198498D01*
X0121999D01*
X0120999Y0199498D01*
Y0202497D01*
X0118Y0208495D02*
Y0204496D01*
X0121999Y0208495D01*
X0122998D01*
X0123998Y0207495D01*
Y0205496D01*
X0122998Y0204496D01*
X0127Y01925D02*
X0132998D01*
Y0195499D01*
X0131998Y0196499D01*
X0129999D01*
X0128999Y0195499D01*
Y01925D01*
Y0194499D02*
X0127Y0196499D01*
X0128Y0198498D02*
X0127Y0199498D01*
Y0201497D01*
X0128Y0202497D01*
X0131998D01*
X0132998Y0201497D01*
Y0199498D01*
X0131998Y0198498D01*
X0130999D01*
X0129999Y0199498D01*
Y0202497D01*
X0131998Y0204496D02*
X0132998Y0205496D01*
Y0207495D01*
X0131998Y0208495D01*
X0130999D01*
X0129999Y0207495D01*
Y0206495D01*
Y0207495D01*
X0128999Y0208495D01*
X0128D01*
X0127Y0207495D01*
Y0205496D01*
X0128Y0204496D01*
X02005Y0385498D02*
X0196501D01*
X0198501D01*
Y03795D01*
X0194502Y0385498D02*
X0192503D01*
X0193502D01*
Y03795D01*
X0194502D01*
X0192503D01*
X0189504D02*
Y0385498D01*
X0186504D01*
X0185505Y0384498D01*
Y0382499D01*
X0186504Y0381499D01*
X0189504D01*
X0187504D02*
X0185505Y03795D01*
X0173Y0047498D02*
Y00415D01*
X0170001D01*
X0169001Y00425D01*
Y0043499D01*
X0170001Y0044499D01*
X0173D01*
X0170001D01*
X0169001Y0045499D01*
Y0046498D01*
X0170001Y0047498D01*
X0173D01*
X0167002Y0046498D02*
X0166002Y0047498D01*
X0164003D01*
X0163003Y0046498D01*
Y0045499D01*
X0164003Y0044499D01*
X0165003D01*
X0164003D01*
X0163003Y0043499D01*
Y00425D01*
X0164003Y00415D01*
X0166002D01*
X0167002Y00425D01*
X0121501Y0043998D02*
X01255D01*
Y0038D01*
X0121501D01*
X01255Y0040999D02*
X0123501D01*
X0119502Y0043998D02*
X0115503Y0038D01*
Y0043998D02*
X0119502Y0038D01*
X0113504Y0043998D02*
X0109505D01*
X0111504D01*
Y0038D01*
X00755Y0453498D02*
X0071501Y04475D01*
Y0453498D02*
X00755Y04475D01*
X0069502Y0453498D02*
Y04475D01*
X0066503D01*
X0065503Y04485D01*
Y0449499D01*
X0066503Y0450499D01*
X0069502D01*
X0066503D01*
X0065503Y0451499D01*
Y0452498D01*
X0066503Y0453498D01*
X0069502D01*
X0060505Y04475D02*
X0062504D01*
X0063504Y04485D01*
Y0450499D01*
X0062504Y0451499D01*
X0060505D01*
X0059505Y0450499D01*
Y0449499D01*
X0063504D01*
X0054507Y04475D02*
X0056506D01*
X0057506Y04485D01*
Y0450499D01*
X0056506Y0451499D01*
X0054507D01*
X0053507Y0450499D01*
Y0449499D01*
X0057506D01*
X0047509Y0452498D02*
X0048509Y0453498D01*
X0050508D01*
X0051508Y0452498D01*
Y04485D01*
X0050508Y04475D01*
X0048509D01*
X0047509Y04485D01*
X004451Y04475D02*
X0042511D01*
X0041511Y04485D01*
Y0450499D01*
X0042511Y0451499D01*
X004451D01*
X004551Y0450499D01*
Y04485D01*
X004451Y04475D01*
X0039512D02*
Y0451499D01*
X0036513D01*
X0035513Y0450499D01*
Y04475D01*
X01639Y01644D02*
Y0170398D01*
X0160901D01*
X0159901Y0169398D01*
Y0167399D01*
X0160901Y0166399D01*
X01639D01*
X0157902Y01644D02*
X0155903D01*
X0156902D01*
Y0168399D01*
X0157902D01*
X0148905D02*
X0151904D01*
X0152904Y0167399D01*
Y01654D01*
X0151904Y01644D01*
X0148905D01*
X0145906Y0168399D02*
X0143906D01*
X0142907Y0167399D01*
Y01644D01*
X0145906D01*
X0146906Y01654D01*
X0145906Y0166399D01*
X0142907D01*
X0140907Y01644D02*
X0137908D01*
X0136909Y01654D01*
X0137908Y0166399D01*
X0139908D01*
X0140907Y0167399D01*
X0139908Y0168399D01*
X0136909D01*
X013391Y01644D02*
X013191D01*
X0130911Y01654D01*
Y0167399D01*
X013191Y0168399D01*
X013391D01*
X0134909Y0167399D01*
Y01654D01*
X013391Y01644D01*
X0128911Y0167399D02*
X0124913D01*
X0118915Y0169398D02*
X0119914Y0170398D01*
X0121914D01*
X0122913Y0169398D01*
Y0168399D01*
X0121914Y0167399D01*
X0119914D01*
X0118915Y0166399D01*
Y01654D01*
X0119914Y01644D01*
X0121914D01*
X0122913Y01654D01*
X0112917Y0169398D02*
X0113916Y0170398D01*
X0115916D01*
X0116915Y0169398D01*
Y01654D01*
X0115916Y01644D01*
X0113916D01*
X0112917Y01654D01*
Y0167399D01*
X0114916D01*
X0110917Y0170398D02*
X0106918Y01644D01*
Y0170398D02*
X0110917Y01644D01*
X0210498Y0146999D02*
X0211498Y0145999D01*
Y0144D01*
X0210498Y0143D01*
X02065D01*
X02055Y0144D01*
Y0145999D01*
X02065Y0146999D01*
X02055Y0148998D02*
Y0150997D01*
Y0149998D01*
X0211498D01*
X0210498Y0148998D01*
X0211498Y0157995D02*
X0210498Y0155996D01*
X0208499Y0153996D01*
X02065D01*
X02055Y0154996D01*
Y0156995D01*
X02065Y0157995D01*
X0207499D01*
X0208499Y0156995D01*
Y0153996D01*
X0212Y01245D02*
X0206002D01*
Y0121501D01*
X0207002Y0120501D01*
X0209001D01*
X0210001Y0121501D01*
Y01245D01*
Y0122501D02*
X0212Y0120501D01*
Y0114503D02*
Y0118502D01*
X0208001Y0114503D01*
X0207002D01*
X0206002Y0115503D01*
Y0117502D01*
X0207002Y0118502D01*
Y0112504D02*
X0206002Y0111504D01*
Y0109505D01*
X0207002Y0108505D01*
X0208001D01*
X0209001Y0109505D01*
X0210001Y0108505D01*
X0211D01*
X0212Y0109505D01*
Y0111504D01*
X0211Y0112504D01*
X0210001D01*
X0209001Y0111504D01*
X0208001Y0112504D01*
X0207002D01*
X0209001Y0111504D02*
Y0109505D01*
X0036998Y0121499D02*
X0037998Y0120499D01*
Y01185D01*
X0036998Y01175D01*
X0035999D01*
X0034999Y01185D01*
Y0120499D01*
X0033999Y0121499D01*
X0033D01*
X0032Y0120499D01*
Y01185D01*
X0033Y01175D01*
X0037998Y0127497D02*
X0032D01*
Y0124498D01*
X0033Y0123498D01*
X0034999D01*
X0035999Y0124498D01*
Y0127497D01*
X02193Y03463D02*
Y0350299D01*
X0217301Y0352298D01*
X0215301Y0350299D01*
Y03463D01*
Y0349299D01*
X02193D01*
X0213302Y0352298D02*
Y03463D01*
X0210303D01*
X0209303Y03473D01*
Y0351298D01*
X0210303Y0352298D01*
X0213302D01*
X0207304D02*
X0203305Y03463D01*
Y0352298D02*
X0207304Y03463D01*
X0201306Y0352298D02*
Y03463D01*
X0197307D01*
X0195308Y0351298D02*
X0194308Y0352298D01*
X0192309D01*
X0191309Y0351298D01*
Y0350299D01*
X0192309Y0349299D01*
X0193308D01*
X0192309D01*
X0191309Y0348299D01*
Y03473D01*
X0192309Y03463D01*
X0194308D01*
X0195308Y03473D01*
X0186311Y03463D02*
Y0352298D01*
X018931Y0349299D01*
X0185311D01*
X0179313Y0352298D02*
X0183312D01*
Y0349299D01*
X0181312Y0350299D01*
X0180313D01*
X0179313Y0349299D01*
Y03473D01*
X0180313Y03463D01*
X0182312D01*
X0183312Y03473D01*
X019Y03135D02*
Y0317499D01*
X0188001Y0319498D01*
X0186001Y0317499D01*
Y03135D01*
Y0316499D01*
X019D01*
X0184002Y0319498D02*
Y03135D01*
X0181003D01*
X0180003Y03145D01*
Y0318498D01*
X0181003Y0319498D01*
X0184002D01*
X0178004Y0318498D02*
X0177004Y0319498D01*
X0175005D01*
X0174005Y0318498D01*
Y03145D01*
X0175005Y03135D01*
X0177004D01*
X0178004Y03145D01*
Y0318498D01*
X0172006Y03135D02*
Y0317499D01*
X0170007Y0319498D01*
X0168007Y0317499D01*
Y03135D01*
Y0316499D01*
X0172006D01*
X0162009Y0317499D02*
X0165008D01*
X0166008Y0316499D01*
Y03145D01*
X0165008Y03135D01*
X0162009D01*
X0156011Y0317499D02*
X015901D01*
X016001Y0316499D01*
Y03145D01*
X015901Y03135D01*
X0156011D01*
X0095Y0207498D02*
Y02015D01*
X0091001D01*
X0085003Y0205499D02*
X0088002D01*
X0089002Y0204499D01*
Y02025D01*
X0088002Y02015D01*
X0085003D01*
X0079005Y0207498D02*
Y02015D01*
X0082004D01*
X0083004Y02025D01*
Y0204499D01*
X0082004Y0205499D01*
X0079005D01*
X0077006Y02015D02*
Y0207498D01*
X0074007D01*
X0073007Y0206498D01*
Y0204499D01*
X0074007Y0203499D01*
X0077006D01*
X0075007D02*
X0073007Y02015D01*
X0071008Y0207498D02*
X0067009Y02015D01*
Y0207498D02*
X0071008Y02015D01*
X0094Y0198498D02*
Y01925D01*
X0090001D01*
X0084003Y0196499D02*
X0087002D01*
X0088002Y0195499D01*
Y01935D01*
X0087002Y01925D01*
X0084003D01*
X0078005Y0198498D02*
Y01925D01*
X0081004D01*
X0082004Y01935D01*
Y0195499D01*
X0081004Y0196499D01*
X0078005D01*
X0076006Y0198498D02*
X0072007D01*
X0074006D01*
Y01925D01*
X0070008Y0198498D02*
X0066009Y01925D01*
Y0198498D02*
X0070008Y01925D01*
X0205Y0446D02*
Y0449999D01*
X0203001Y0451998D01*
X0201001Y0449999D01*
Y0446D01*
Y0448999D01*
X0205D01*
X0199002Y0451998D02*
Y0446D01*
X0196003D01*
X0195003Y0447D01*
Y0450998D01*
X0196003Y0451998D01*
X0199002D01*
X0193004Y0450998D02*
X0192004Y0451998D01*
X0190005D01*
X0189005Y0450998D01*
Y0447D01*
X0190005Y0446D01*
X0192004D01*
X0193004Y0447D01*
Y0450998D01*
X0183007D02*
X0184007Y0451998D01*
X0186006D01*
X0187006Y0450998D01*
Y0447D01*
X0186006Y0446D01*
X0184007D01*
X0183007Y0447D01*
Y0448999D01*
X0185006D01*
X0181008Y0449999D02*
Y0447D01*
X0180008Y0446D01*
X0177009D01*
Y0445D01*
X0178009Y0444001D01*
X0179008D01*
X0177009Y0446D02*
Y0449999D01*
X017501D02*
Y0446D01*
Y0447999D01*
X017401Y0448999D01*
X017301Y0449999D01*
X0172011D01*
X0168012Y0446D02*
X0166013D01*
X0165013Y0447D01*
Y0448999D01*
X0166013Y0449999D01*
X0168012D01*
X0169012Y0448999D01*
Y0447D01*
X0168012Y0446D01*
X01065Y0342498D02*
X0104501D01*
X01055D01*
Y03365D01*
X01065D01*
X0104501D01*
X0097503D02*
X0101502D01*
X0097503Y0340499D01*
Y0341498D01*
X0098503Y0342498D01*
X0100502D01*
X0101502Y0341498D01*
X0091505D02*
X0092505Y0342498D01*
X0094504D01*
X0095504Y0341498D01*
Y03375D01*
X0094504Y03365D01*
X0092505D01*
X0091505Y03375D01*
X0151Y0386D02*
Y0391998D01*
X0148001D01*
X0147001Y0390998D01*
Y0388999D01*
X0148001Y0387999D01*
X0151D01*
X0149001D02*
X0147001Y0386D01*
X0145002D02*
X0143003D01*
X0144002D01*
Y0391998D01*
X0145002Y0390998D01*
X0124002Y0331001D02*
X0123002Y0332001D01*
Y0334D01*
X0124002Y0335D01*
X0125001D01*
X0126001Y0334D01*
Y0332001D01*
X0127001Y0331001D01*
X0128D01*
X0129Y0332001D01*
Y0334D01*
X0128Y0335D01*
X0129Y0329002D02*
Y0327003D01*
Y0328002D01*
X0123002D01*
X0124002Y0329002D01*
X0137502Y0333001D02*
X0136502Y0334001D01*
Y0336D01*
X0137502Y0337D01*
X0138501D01*
X0139501Y0336D01*
Y0334001D01*
X0140501Y0333001D01*
X01415D01*
X01425Y0334001D01*
Y0336D01*
X01415Y0337D01*
X01425Y0327003D02*
Y0331002D01*
X0138501Y0327003D01*
X0137502D01*
X0136502Y0328003D01*
Y0330002D01*
X0137502Y0331002D01*
X0181501Y0326998D02*
X0182501Y0327998D01*
X01845D01*
X01855Y0326998D01*
Y0325999D01*
X01845Y0324999D01*
X0182501D01*
X0181501Y0323999D01*
Y0323D01*
X0182501Y0322D01*
X01845D01*
X01855Y0323D01*
X0179502Y0326998D02*
X0178502Y0327998D01*
X0176503D01*
X0175503Y0326998D01*
Y0325999D01*
X0176503Y0324999D01*
X0177503D01*
X0176503D01*
X0175503Y0323999D01*
Y0323D01*
X0176503Y0322D01*
X0178502D01*
X0179502Y0323D01*
X0161001Y0326998D02*
X0162001Y0327998D01*
X0164D01*
X0165Y0326998D01*
Y0325999D01*
X0164Y0324999D01*
X0162001D01*
X0161001Y0323999D01*
Y0323D01*
X0162001Y0322D01*
X0164D01*
X0165Y0323D01*
X0156003Y0322D02*
Y0327998D01*
X0159002Y0324999D01*
X0155003D01*
X0105001Y0350498D02*
X0106001Y0351498D01*
X0108D01*
X0109Y0350498D01*
Y0349499D01*
X0108Y0348499D01*
X0106001D01*
X0105001Y0347499D01*
Y03465D01*
X0106001Y03455D01*
X0108D01*
X0109Y03465D01*
X0099003Y0351498D02*
X0103002D01*
Y0348499D01*
X0101003Y0349499D01*
X0100003D01*
X0099003Y0348499D01*
Y03465D01*
X0100003Y03455D01*
X0102002D01*
X0103002Y03465D01*
X0092001Y0347498D02*
X0093001Y0348498D01*
X0095D01*
X0096Y0347498D01*
Y0346499D01*
X0095Y0345499D01*
X0093001D01*
X0092001Y0344499D01*
Y03435D01*
X0093001Y03425D01*
X0095D01*
X0096Y03435D01*
X0086003Y0348498D02*
X0088003Y0347498D01*
X0090002Y0345499D01*
Y03435D01*
X0089002Y03425D01*
X0087003D01*
X0086003Y03435D01*
Y0344499D01*
X0087003Y0345499D01*
X0090002D01*
X0025Y0256998D02*
Y0251D01*
X0022001D01*
X0021001Y0252D01*
Y0252999D01*
X0022001Y0253999D01*
X0025D01*
X0022001D01*
X0021001Y0254999D01*
Y0255998D01*
X0022001Y0256998D01*
X0025D01*
X0015003Y0255998D02*
X0016003Y0256998D01*
X0018002D01*
X0019002Y0255998D01*
Y0252D01*
X0018002Y0251D01*
X0016003D01*
X0015003Y0252D01*
X0046Y0347D02*
Y0352998D01*
X0043001D01*
X0042001Y0351998D01*
Y0349999D01*
X0043001Y0348999D01*
X0046D01*
X0044001D02*
X0042001Y0347D01*
X0036003D02*
X0040002D01*
X0036003Y0350999D01*
Y0351998D01*
X0037003Y0352998D01*
X0039002D01*
X0040002Y0351998D01*
X0034004Y0352998D02*
X0030005D01*
Y0351998D01*
X0034004Y0348D01*
Y0347D01*
X00575Y0273498D02*
Y0272498D01*
X0055501Y0270499D01*
X0053501Y0272498D01*
Y0273498D01*
X0055501Y0270499D02*
Y02675D01*
X0051502D02*
X0049503D01*
X0050502D01*
Y0273498D01*
X0051502Y0272498D01*
X0176Y0151498D02*
Y0150498D01*
X0174001Y0148499D01*
X0172001Y0150498D01*
Y0151498D01*
X0174001Y0148499D02*
Y01455D01*
X0166003D02*
X0170002D01*
X0166003Y0149499D01*
Y0150498D01*
X0167003Y0151498D01*
X0169002D01*
X0170002Y0150498D01*
X0057Y0363999D02*
Y0361D01*
X0056Y036D01*
X0053001D01*
Y0363999D01*
X0051002Y036D02*
X0048003D01*
X0047003Y0361D01*
X0048003Y0361999D01*
X0050002D01*
X0051002Y0362999D01*
X0050002Y0363999D01*
X0047003D01*
X0045004Y0365998D02*
Y036D01*
X0042005D01*
X0041005Y0361D01*
Y0361999D01*
Y0362999D01*
X0042005Y0363999D01*
X0045004D01*
X0029651Y04289D02*
Y0432898D01*
X0030651Y0433898D01*
X003265D01*
X003365Y0432898D01*
Y04289D01*
X003265Y04279D01*
X0030651D01*
X003165Y0429899D02*
X0029651Y04279D01*
X0030651D02*
X0029651Y04289D01*
X0023653Y0433898D02*
X0025652Y0432898D01*
X0027652Y0430899D01*
Y04289D01*
X0026652Y04279D01*
X0024653D01*
X0023653Y04289D01*
Y0429899D01*
X0024653Y0430899D01*
X0027652D01*
X0021654Y04279D02*
Y0433898D01*
X0018654D01*
X0017655Y0432898D01*
Y0430899D01*
X0018654Y0429899D01*
X0021654D01*
X0077502Y0343501D02*
X0076502Y0344501D01*
Y03465D01*
X0077502Y03475D01*
X0078501D01*
X0079501Y03465D01*
Y0344501D01*
X0080501Y0343501D01*
X00815D01*
X00825Y0344501D01*
Y03465D01*
X00815Y03475D01*
X0076502Y0341502D02*
Y0337503D01*
X0077502D01*
X00815Y0341502D01*
X00825D01*
X0067002Y0343001D02*
X0066002Y0344001D01*
Y0346D01*
X0067002Y0347D01*
X0068001D01*
X0069001Y0346D01*
Y0344001D01*
X0070001Y0343001D01*
X0071D01*
X0072Y0344001D01*
Y0346D01*
X0071Y0347D01*
X0067002Y0341002D02*
X0066002Y0340002D01*
Y0338003D01*
X0067002Y0337003D01*
X0068001D01*
X0069001Y0338003D01*
X0070001Y0337003D01*
X0071D01*
X0072Y0338003D01*
Y0340002D01*
X0071Y0341002D01*
X0070001D01*
X0069001Y0340002D01*
X0068001Y0341002D01*
X0067002D01*
X0069001Y0340002D02*
Y0338003D01*
X0079201Y0395098D02*
X00832D01*
Y03891D01*
X0079201D01*
X00832Y0392099D02*
X0081201D01*
X0073203Y0395098D02*
X0077202D01*
Y03891D01*
X0073203D01*
X0077202Y0392099D02*
X0075203D01*
X0153001Y0179D02*
Y0182998D01*
X0154001Y0183998D01*
X0156D01*
X0157Y0182998D01*
Y0179D01*
X0156Y0178D01*
X0154001D01*
X0155001Y0179999D02*
X0153001Y0178D01*
X0154001D02*
X0153001Y0179D01*
X0147003Y0183998D02*
X0151002D01*
Y0180999D01*
X0149003Y0181999D01*
X0148003D01*
X0147003Y0180999D01*
Y0179D01*
X0148003Y0178D01*
X0150002D01*
X0151002Y0179D01*
X0145004Y0178D02*
Y0183998D01*
X0141005Y0178D01*
Y0183998D01*
X0012Y03915D02*
X0010032D01*
X0012Y0390188D01*
X0010032D01*
Y0388548D02*
Y0389204D01*
X001036Y0389532D01*
X0011672D01*
X0012Y0389204D01*
Y0388548D01*
X0011672Y038822D01*
X001036D01*
X0010032Y0388548D01*
X0012Y0385596D02*
X0010032D01*
Y0384612D01*
X001036Y0384284D01*
X0011016D01*
X0011344Y0384612D01*
Y0385596D01*
X0012Y0383629D02*
X0010688D01*
X0010032Y0382973D01*
X0010688Y0382317D01*
X0012D01*
X0011016D01*
Y0383629D01*
X0010032Y0381661D02*
Y0380349D01*
Y0381005D01*
X0012D01*
X0010032Y0379693D02*
Y0378381D01*
Y0379037D01*
X0012D01*
X0010032Y0376413D02*
Y0377725D01*
X0012D01*
Y0376413D01*
X0011016Y0377725D02*
Y0377069D01*
X0012Y0375757D02*
X0010032D01*
Y0374773D01*
X001036Y0374445D01*
X0011016D01*
X0011344Y0374773D01*
Y0375757D01*
Y0375101D02*
X0012Y0374445D01*
Y0373789D02*
X0010032D01*
X0012Y0372477D01*
X0010032D01*
X00295Y00265D02*
Y0028166D01*
Y0027333D01*
X0034498D01*
X0033665Y00265D01*
X0045999Y0112D02*
X0043D01*
X0042Y0113D01*
Y0115999D01*
X0045999D01*
X0046998Y0121997D02*
X0047998Y0120997D01*
Y0118998D01*
X0046998Y0117998D01*
X0045999D01*
X0044999Y0118998D01*
Y0120997D01*
X0043999Y0121997D01*
X0043D01*
X0042Y0120997D01*
Y0118998D01*
X0043Y0117998D01*
X0047998Y0123996D02*
X0042D01*
Y0126995D01*
X0043Y0127995D01*
X0046998D01*
X0047998Y0126995D01*
Y0123996D01*
X0205Y0017D02*
X0203001D01*
X0204D01*
Y0022998D01*
X0205Y0021998D01*
X0215Y0061D02*
Y0062999D01*
Y0062D01*
X0220998D01*
X0219998Y0061D01*
X000767Y002933D02*
X0024751Y0012249D01*
X-0089Y0459D02*
X-0088Y046D01*
X0055Y002D02*
X0076D01*
X0157D02*
X0179D01*
X0157Y0007D02*
Y002D01*
X0076Y0007D02*
X0157D01*
X0076D02*
Y002D01*
X000767Y002933D02*
Y00355D01*
X0196307Y00075D02*
X0225D01*
X0025Y00015D02*
X003D01*
X0179Y00075D02*
Y002D01*
Y00075D02*
X0196307D01*
X0055Y00015D02*
Y002D01*
X0225Y0035D02*
Y04375D01*
X003Y00015D02*
X0055D01*
X0024751D02*
Y0009249D01*
X0077Y04285D02*
Y0437D01*
Y04285D02*
X01575D01*
Y04375D01*
X0225D01*
X0024751Y0009249D02*
Y0012249D01*
X0225Y00075D02*
Y0035D01*
X000767Y0437D02*
X0077D01*
X000767Y00355D02*
Y0437D01*
D32*
X0164188Y0257436D02*
G03*
X0164188Y0257436I-0001969J0D01*
G01*
X0122559Y0117126D02*
G03*
X0122559Y0117126I-0001969J0D01*
G01*
X0189669Y0074331D02*
G03*
X0189669Y0074331I-0001969J0D01*
G01*
X0126392Y0253892D02*
X0165762D01*
X0126392Y0293263D02*
X0165762D01*
Y0253892D02*
Y0293263D01*
X0126392Y0253892D02*
Y0293263D01*
X0059543Y0375898D02*
Y0388102D01*
X0052457Y0375898D02*
Y0388102D01*
Y0375898D02*
X0059543D01*
X0052457Y0388102D02*
X0059543D01*
X0117047Y0113583D02*
Y0152953D01*
X0156417Y0113583D02*
Y0152953D01*
X0117047Y0113583D02*
X0156417D01*
X0117047Y0152953D02*
X0156417D01*
X0069898Y0374457D02*
X0082102D01*
X0069898Y0381543D02*
X0082102D01*
Y0374457D02*
Y0381543D01*
X0069898Y0374457D02*
Y0381543D01*
X0203842Y0062126D02*
Y0077874D01*
X0184158Y0062126D02*
Y0077874D01*
Y0062126D02*
X0203842D01*
X0184158Y0077874D02*
X0203842D01*
X01197Y02472D02*
X0172455D01*
X01197Y0299955D02*
X0172455D01*
Y02472D02*
Y0299955D01*
X01197Y02472D02*
Y0299955D01*
X0146077Y0271609D02*
Y0275546D01*
X0144109Y0273577D02*
X0148046D01*
X0063874Y0374913D02*
Y0389087D01*
X0048126Y0374913D02*
Y0389087D01*
Y0374913D02*
X0063874D01*
X0048126Y0389087D02*
X0063874D01*
X0054031Y0382D02*
X0057968D01*
X0056Y0380031D02*
Y0383968D01*
X0110354Y010689D02*
Y0159646D01*
X016311Y010689D02*
Y0159646D01*
X0110354Y010689D02*
X016311D01*
X0110354Y0159646D02*
X016311D01*
X0134764Y0133268D02*
X0138701D01*
X0136732Y0131299D02*
Y0135236D01*
X0068913Y0370126D02*
X0083087D01*
X0068913Y0385874D02*
X0083087D01*
Y0370126D02*
Y0385874D01*
X0068913Y0370126D02*
Y0385874D01*
X0076Y0376031D02*
Y0379969D01*
X0074032Y0378D02*
X0077969D01*
X0192032Y007D02*
X0195968D01*
X0194Y0068032D02*
Y0071969D01*
X0204827Y0055236D02*
Y0084764D01*
X0183173Y0055236D02*
Y0084764D01*
Y0055236D02*
X0204827D01*
X0183173Y0084764D02*
X0204827D01*
D84*
X0174169Y0173374D02*
G03*
X0174169Y0173374I-0000492J0D01*
G01*
X0224169Y0383374D02*
G03*
X0224169Y0383374I-0000492J0D01*
G01*
X0164089Y0251727D02*
G03*
X0164089Y0251727I-0000492J0D01*
G01*
X0115374Y0115748D02*
G03*
X0115374Y0115748I-0000492J0D01*
G01*
X0034169Y0413374D02*
G03*
X0034169Y0413374I-0000492J0D01*
G01*
X0083677Y0373276D02*
G03*
X0083677Y0373276I-0000492J0D01*
G01*
X0183646Y0079449D02*
G03*
X0183646Y0079449I-0000492J0D01*
G01*
D85*
X0160882Y0182626D02*
X0162654D01*
X0169346D02*
X0171118D01*
Y0176819D02*
Y0182626D01*
X0160882Y0176819D02*
Y0182626D01*
X0210882Y0386819D02*
Y0392626D01*
X0221118Y0386819D02*
Y0392626D01*
X0219346D02*
X0221118D01*
X0210882D02*
X0212653D01*
X0129345Y0256845D02*
X016281D01*
X0129345Y029031D02*
X016281D01*
Y0256845D02*
Y029031D01*
X0129345Y0256845D02*
Y029031D01*
X012Y0116535D02*
Y015D01*
X0153465Y0116535D02*
Y015D01*
X012Y0116535D02*
X0153465D01*
X012Y015D02*
X0153465D01*
X0020882Y0422626D02*
X0022654D01*
X0029346D02*
X0031118D01*
Y0416819D02*
Y0422626D01*
X0020882Y0416819D02*
Y0422626D01*
X0082102Y0377016D02*
Y0378984D01*
X0069898Y0377016D02*
Y0378984D01*
Y0377016D02*
X0082102D01*
X0069898Y0378984D02*
X0082102D01*
X0203842Y0066457D02*
Y0073543D01*
X0184158Y0066457D02*
Y0073543D01*
Y0066457D02*
X0203842D01*
X0184158Y0073543D02*
X0203842D01*
D154*
X0160054Y0260782D02*
G03*
X0160054Y0260782I-0001181J0D01*
G01*
X0125118Y0120472D02*
G03*
X0125118Y0120472I-0001181J0D01*
G01*
D155*
X0192032Y0147835D02*
D03*
D156*
X0161236Y0381016D02*
D03*
X0197791Y0337524D02*
D03*
D157*
X0080335Y0265968D02*
D03*
D158*
X0126146Y0368626D02*
D03*
M02*
