%FSTAX25Y25*%
%MOIN*%
G70*
G01*
G75*
G04 Layer_Physical_Order=1*
G04 Layer_Color=255*
%ADD10R,0.07874X0.07480*%
%ADD11R,0.01969X0.15748*%
%ADD12R,0.04331X0.02559*%
%ADD13R,0.07874X0.05512*%
%ADD14R,0.17011X0.12579*%
%ADD15R,0.20011X0.12579*%
%ADD16R,0.13780X0.11811*%
%ADD17R,0.06102X0.04331*%
%ADD18R,0.06102X0.04331*%
%ADD19R,0.06102X0.13583*%
%ADD20R,0.04724X0.07000*%
%ADD21R,0.04724X0.07874*%
%ADD22R,0.03543X0.03740*%
%ADD23R,0.03543X0.03740*%
%ADD24R,0.05906X0.13780*%
%ADD25R,0.09843X0.07874*%
%ADD26R,0.07480X0.07874*%
%ADD27C,0.01200*%
%ADD28C,0.02000*%
%ADD29C,0.01400*%
%ADD30C,0.01600*%
%ADD31C,0.01000*%
%ADD32C,0.00394*%
%ADD33C,0.15748*%
%ADD34R,0.08000X0.08000*%
%ADD35C,0.08000*%
%ADD36C,0.09000*%
%ADD37O,0.08000X0.06400*%
%ADD38O,0.08000X0.06000*%
%ADD39R,0.08000X0.08000*%
%ADD40C,0.03000*%
%ADD41C,0.02600*%
%ADD42C,0.02700*%
%ADD43C,0.02800*%
D10*
X0217Y0382189D02*
D03*
Y0392819D02*
D03*
X01308Y0409811D02*
D03*
Y0399181D02*
D03*
X01019Y0409811D02*
D03*
Y0399181D02*
D03*
X01158Y0409811D02*
D03*
Y0399181D02*
D03*
X0045Y0424189D02*
D03*
X0217Y0402189D02*
D03*
Y0412819D02*
D03*
X0017Y0045811D02*
D03*
Y0035181D02*
D03*
Y0056189D02*
D03*
Y0066819D02*
D03*
X0117Y0378189D02*
D03*
Y0388819D02*
D03*
X0131Y0378189D02*
D03*
Y0388819D02*
D03*
X0103Y0378189D02*
D03*
Y0388819D02*
D03*
X0021Y0391811D02*
D03*
Y0381181D02*
D03*
X0035Y0391811D02*
D03*
Y0381181D02*
D03*
X0045Y0407811D02*
D03*
Y0397181D02*
D03*
X0057Y0424189D02*
D03*
X0189D02*
D03*
X0165D02*
D03*
X0177D02*
D03*
X0069D02*
D03*
D11*
X0189102Y021685D02*
D03*
X0185165D02*
D03*
X0181228D02*
D03*
X0177291D02*
D03*
X0173354D02*
D03*
X0169417D02*
D03*
X016548D02*
D03*
X0161543D02*
D03*
X0157606D02*
D03*
X0153669D02*
D03*
X0149732D02*
D03*
X0145795D02*
D03*
X0141858D02*
D03*
X0137921D02*
D03*
X0133984D02*
D03*
X0130047D02*
D03*
X012611D02*
D03*
X0122173D02*
D03*
X0118236D02*
D03*
X0114299D02*
D03*
X0110362D02*
D03*
X0106425D02*
D03*
X0102488D02*
D03*
X0098551D02*
D03*
X0094614D02*
D03*
X0090677D02*
D03*
X008674D02*
D03*
X0082803D02*
D03*
X0078866D02*
D03*
X0074929D02*
D03*
X0070992D02*
D03*
X0067055D02*
D03*
X0063118D02*
D03*
X0059181D02*
D03*
X0055244D02*
D03*
X0051307D02*
D03*
X004737D02*
D03*
D12*
X0060724Y037826D02*
D03*
Y0382D02*
D03*
Y038574D02*
D03*
X0051276D02*
D03*
Y037826D02*
D03*
D13*
X0045Y0434819D02*
D03*
X0057D02*
D03*
X0189D02*
D03*
X0165D02*
D03*
X0177D02*
D03*
X0069D02*
D03*
D14*
X0081Y00525D02*
D03*
D15*
X008Y0067D02*
D03*
D16*
X006Y0066D02*
D03*
X0044D02*
D03*
D17*
X0063287Y0034945D02*
D03*
D18*
Y0044D02*
D03*
Y0053055D02*
D03*
D19*
X0036713Y0044D02*
D03*
D20*
X0071323Y03942D02*
D03*
X0063449D02*
D03*
X0056362D02*
D03*
D21*
X0071323Y0414D02*
D03*
X0063842D02*
D03*
X0056362D02*
D03*
X0177323Y0393921D02*
D03*
X0169449D02*
D03*
X0162362D02*
D03*
X0177323Y0414D02*
D03*
X0169843D02*
D03*
X0162362D02*
D03*
D22*
X0146Y0386626D02*
D03*
X014226Y0377374D02*
D03*
X0026Y0422626D02*
D03*
X002226Y0413374D02*
D03*
X0162Y0386626D02*
D03*
X015826Y0377374D02*
D03*
X0178Y0386626D02*
D03*
X017426Y0377374D02*
D03*
X0086Y0412626D02*
D03*
X008226Y0403374D02*
D03*
X0148Y0412626D02*
D03*
X014426Y0403374D02*
D03*
D23*
X014974Y0377374D02*
D03*
X002974Y0413374D02*
D03*
X016574Y0377374D02*
D03*
X018174D02*
D03*
X008974Y0403374D02*
D03*
X015174D02*
D03*
D24*
X0196Y0018D02*
D03*
X0186D02*
D03*
D25*
X01895Y008D02*
D03*
X0202D02*
D03*
X011Y0422D02*
D03*
X01225D02*
D03*
D26*
X0192189Y0385D02*
D03*
X0202819D02*
D03*
X0144819Y0423D02*
D03*
X0134189D02*
D03*
D27*
X0182Y0154D02*
X0203D01*
X0102Y0319D02*
Y03215D01*
X0043Y0434D02*
X0047181D01*
X0031626Y0422626D02*
X0043Y0434D01*
X0026Y0422626D02*
X0031626D01*
X0189681Y0434819D02*
X0192181D01*
X0061Y0235D02*
X01525D01*
X00585Y02375D02*
X0061Y0235D01*
X01345Y0238D02*
X01635D01*
X00585Y02315D02*
X01565D01*
X0055Y02285D02*
X01585D01*
X01715Y0248D02*
Y0258D01*
X01515Y0278D02*
X01715Y0258D01*
Y02345D02*
Y0248D01*
X01775Y03135D02*
X0182Y0318D01*
X0152936Y03135D02*
X01775D01*
X002Y0344D02*
Y03715D01*
X0015Y03765D02*
X002Y03715D01*
X0015Y03765D02*
Y0406114D01*
X01065Y01205D02*
Y01635D01*
Y01205D02*
X01255Y01015D01*
X0094614Y0183D02*
Y021685D01*
X0073Y0156D02*
X0097Y0132D01*
X0049Y0156D02*
X0073D01*
X0097Y0128D02*
Y0132D01*
X0088Y0104D02*
Y0114D01*
X0085Y0101D02*
X0088Y0104D01*
X00955Y00955D02*
Y0123D01*
X0087Y0128D02*
X00905D01*
X00955Y0123D01*
Y00955D02*
X0097Y0094D01*
X0196Y0317D02*
X02155D01*
X01615Y02275D02*
Y02305D01*
X01585Y02335D02*
X0163D01*
X01565Y02315D02*
X01585Y02335D01*
X0117Y03755D02*
X012Y03725D01*
X0117Y03755D02*
Y0378189D01*
X0131Y033D02*
Y0378189D01*
X0103Y03645D02*
X0115Y03525D01*
X0103Y03645D02*
Y0378189D01*
X011Y02835D02*
Y02905D01*
X0112Y02785D02*
Y02815D01*
X01095Y0276D02*
X0112Y02785D01*
X011Y02835D02*
X0112Y02815D01*
X01485Y0291D02*
X01515Y0288D01*
X01335Y0291D02*
X01485D01*
X01515Y0288D02*
X01585D01*
X0067Y0365D02*
X007D01*
X0064Y0362D02*
X0067Y0365D01*
X0064Y0351D02*
Y0362D01*
X00745Y03695D02*
Y0379D01*
X007Y0365D02*
X00745Y03695D01*
Y0379D02*
X00775Y0382D01*
X008D01*
X00535Y029D02*
X0056Y02875D01*
X00785D01*
X00535Y03405D02*
X0064Y0351D01*
X00535Y029D02*
Y03405D01*
X00785Y02875D02*
X0086Y028D01*
X01085D01*
X00915Y0276D02*
X01095D01*
X0099Y0357D02*
X01045D01*
X0091Y0365D02*
X0099Y0357D01*
X0091Y0365D02*
Y0373D01*
X0099Y0422D02*
X011D01*
X0047181Y0381181D02*
X0055Y0389D01*
X0093Y0416D02*
X0099Y0422D01*
X00955Y04145D02*
X0097Y0416D01*
X00955Y03925D02*
Y04145D01*
X0088Y0385D02*
X00955Y03925D01*
X014Y0416D02*
X0144819Y0420819D01*
X0097Y0416D02*
X014D01*
X0144819Y0420819D02*
Y0423D01*
X0014Y01D02*
Y0224D01*
X0090677Y0186677D02*
Y021685D01*
X0137921Y01885D02*
Y021685D01*
X0133984Y0191516D02*
X0134Y01915D01*
X0133984Y0191516D02*
Y021685D01*
X013Y01875D02*
X0130047Y0187547D01*
Y021685D01*
X012611Y01835D02*
Y021685D01*
X0132886Y0132398D02*
X0133Y0132283D01*
X0132886Y0132398D02*
Y0143D01*
X0102488Y0183012D02*
Y021685D01*
X0122173Y0182327D02*
X01265Y0178D01*
X013D01*
X0122173Y0182327D02*
Y021685D01*
X0118236Y0181264D02*
X01255Y0174D01*
X0118236Y0181264D02*
Y021685D01*
X0114299Y0177701D02*
X0122Y017D01*
X0114299Y0177701D02*
Y021685D01*
X0110362Y0184D02*
Y021685D01*
Y0183138D02*
Y0184D01*
Y0176138D02*
X01205Y0166D01*
X0110362Y0176138D02*
Y0184D01*
X01205Y0166D02*
X0127D01*
X01065Y01865D02*
Y0216776D01*
X00985Y01865D02*
X0098551Y0186551D01*
X0043Y0381181D02*
X0047181D01*
X0035D02*
X0043D01*
Y0375701D02*
Y0381181D01*
X0067Y0372D02*
Y038D01*
X0065Y0382D02*
X0067Y038D01*
X0060724Y0382D02*
X0065D01*
X0060724Y0371276D02*
Y037826D01*
Y0371276D02*
X0064Y0368D01*
X0069D01*
X0082Y0389D02*
X0083Y0388D01*
X0087D01*
X0055Y0389D02*
X0082D01*
X0044Y0396181D02*
X0045Y0397181D01*
X0044Y038515D02*
Y0396181D01*
X0015Y0406114D02*
X002226Y0413374D01*
X0012576Y0408576D02*
X0015Y0411D01*
X0012576Y0369424D02*
Y0408576D01*
X0074Y0385D02*
X0088D01*
X0071Y0382D02*
X0074Y0385D01*
X0071Y037D02*
Y0382D01*
X0069Y0368D02*
X0071Y037D01*
X0151096Y0284404D02*
X0155D01*
X0135156Y0284593D02*
X0145093D01*
X0129563Y0279D02*
X0135156Y0284593D01*
X0129563Y0279D02*
Y0279656D01*
Y0274063D02*
Y0279D01*
X01235Y0277D02*
Y0281D01*
X01195Y0273D02*
X01235Y0277D01*
X01265Y0275D02*
Y028D01*
X01225Y0271D02*
X01265Y0275D01*
X00855Y0271D02*
X01225D01*
X01235Y0268D02*
X0129563Y0274063D01*
X00835Y0268D02*
X01235D01*
X00875Y0265D02*
X01245D01*
X00795D02*
X00875D01*
X01235Y0281D02*
X01335Y0291D01*
X01265Y028D02*
X01345Y0288D01*
X01475D01*
X0151096Y0284404D01*
X01325Y0278D02*
X01355Y0281D01*
X01415D01*
X01325Y0273D02*
Y0278D01*
X01245Y0265D02*
X01325Y0273D01*
X01405Y0275D02*
X01475D01*
X0137235Y0278265D02*
X01405Y0275D01*
X02015Y0167D02*
Y01745D01*
X0222Y0127D02*
Y0147D01*
X0027Y0371D02*
X0047D01*
X001891Y037909D02*
X0027Y0371D01*
X014426Y039626D02*
Y0403374D01*
X0162Y0394284D02*
Y04D01*
X0177Y0434819D02*
X0189D01*
X0165D02*
X0177D01*
X0162362Y0421551D02*
X0165Y0424189D01*
X0162362Y0414D02*
Y0421551D01*
X0169843Y0417031D02*
X0177Y0424189D01*
X0169843Y0414D02*
Y0417031D01*
X0177323Y0414D02*
X0187512Y0424189D01*
X0048Y0434819D02*
X0057D01*
X0045D02*
X0048D01*
X0047181Y0434D02*
X0048Y0434819D01*
X0057D02*
X0069D01*
Y0424189D02*
X0071323Y0421866D01*
Y0414D02*
Y0421866D01*
X0057Y0424189D02*
X0063842Y0417346D01*
Y0414D02*
Y0417346D01*
X0045Y0419D02*
Y0424189D01*
Y0419D02*
X005Y0414D01*
X0056362D01*
X013Y0387819D02*
X0131Y0386819D01*
Y0387819D02*
Y0398D01*
X0116D02*
X0117Y0397D01*
X0116Y0386819D02*
Y0397D01*
X0102Y0398D02*
X0103Y0397D01*
Y0386819D02*
Y0397D01*
X0178Y0126D02*
X019D01*
X0175Y0129D02*
X0178Y0126D01*
X0222Y0051D02*
Y0111D01*
X01145Y01295D02*
X0136Y0108D01*
Y0092D02*
Y0108D01*
X0132Y0095D02*
Y0107D01*
X0109Y0125D02*
X013Y0104D01*
Y01D02*
Y0104D01*
X0128Y0098D02*
X013Y01D01*
X0175Y0142D02*
X0203D01*
X0159Y0042D02*
X0213D01*
X0222Y0051D01*
X0214Y0047D02*
X0219Y0052D01*
X0154Y0047D02*
X0214D01*
X0014Y0099D02*
Y01D01*
Y0094D02*
Y01D01*
Y0094D02*
X003Y0078D01*
X0017Y0101D02*
Y0103D01*
Y0096D02*
Y0103D01*
Y0096D02*
X0035Y0078D01*
X002Y0098D02*
X004Y0078D01*
X0026Y0102D02*
X005Y0078D01*
X0029Y0104D02*
X0055Y0078D01*
X0032Y0106D02*
X006Y0078D01*
X0178Y0386626D02*
Y0393244D01*
X0177323Y0393921D02*
X0178Y0393244D01*
X0159921Y0393921D02*
X0162362D01*
X005041Y037441D02*
Y0377126D01*
X0047Y0371D02*
X005041Y037441D01*
X0071323Y0393921D02*
X0076921D01*
X0063449D02*
Y0395449D01*
X0068Y04D01*
X0056362Y0393921D02*
Y0395362D01*
X0065Y0404D01*
X0077D01*
X0073382Y04D02*
X0074382Y0399D01*
X0077D01*
X0068Y04D02*
X0073382D01*
X0162Y0394284D02*
X0162362Y0393921D01*
X0169Y039437D02*
Y0399D01*
Y039437D02*
X0169449Y0393921D01*
X0086Y0412626D02*
Y0422D01*
X0086Y0422D02*
X0086Y0422D01*
X0087Y0388D02*
X0093Y0394D01*
Y0416D01*
X0201Y0386819D02*
X0202819Y0385D01*
X0023Y01D02*
X0045Y0078D01*
X001Y0367D02*
Y0411D01*
Y0367D02*
X0011Y0366D01*
Y0342D02*
Y0366D01*
X00325Y0344D02*
X004D01*
X0162Y0386626D02*
X0167626D01*
X0169449Y0388449D01*
Y0393921D01*
X0152626Y0386626D02*
X0153Y0387D01*
X0146Y0386626D02*
X0152626D01*
X0153Y0387D02*
X0159921Y0393921D01*
X0201Y0413D02*
X0217D01*
X0138Y039D02*
X014426Y039626D01*
X0138Y03265D02*
Y039D01*
X0093Y03425D02*
Y03505D01*
X00635Y0171D02*
X0099D01*
X0122311Y04225D02*
X0133D01*
X0133189Y0424D02*
X0134189Y0423D01*
X0059181Y0176819D02*
Y021685D01*
Y0176819D02*
X0062Y0174D01*
X01D01*
X0063118Y0177382D02*
Y021685D01*
Y0177382D02*
X00635Y0177D01*
X0067055Y0180055D02*
Y021685D01*
X0067Y018D02*
X0067055Y0180055D01*
X0070992Y021685D02*
X0071Y0216843D01*
Y01785D02*
X00725Y0177D01*
X0101D01*
X0071Y01785D02*
Y0216843D01*
X019Y0126D02*
X01995D01*
X02065Y0133D01*
X0203Y0154D02*
X02065Y01505D01*
Y0133D02*
Y01505D01*
X0219Y0052D02*
Y0217D01*
X02065Y01595D02*
Y0171D01*
X0161543Y0209043D02*
Y021685D01*
X016548Y020052D02*
Y021685D01*
Y020052D02*
X01655Y02005D01*
X0169417Y0208083D02*
Y021685D01*
Y0208083D02*
X01765Y0201D01*
X0173354Y0209146D02*
Y021685D01*
X0177291Y0209209D02*
Y021685D01*
Y0209209D02*
X0182Y02045D01*
X01945D02*
X01985Y02005D01*
X0182Y02045D02*
X01945D01*
X0181584Y0200916D02*
X0182Y02005D01*
X0173354Y0209146D02*
X0181584Y0200916D01*
X0182Y02005D02*
X01885D01*
X0155Y0199D02*
X0158D01*
X0161543Y0202543D01*
Y021685D01*
X01415Y0204D02*
X0145795Y0208295D01*
Y021685D01*
X0149732Y0208232D02*
Y021685D01*
X0144Y02025D02*
X0149732Y0208232D01*
X0153669Y0208169D02*
Y021685D01*
X0147Y02015D02*
X0153669Y0208169D01*
X0157606Y0207106D02*
Y021685D01*
X0082803Y0187197D02*
Y021685D01*
X008674Y01835D02*
Y021685D01*
X0074929Y0187071D02*
Y021685D01*
X0078866Y0185D02*
Y021685D01*
X02015Y018D02*
X02075Y0186D01*
X0079Y01565D02*
X0098D01*
X0075Y0161D02*
X00995D01*
X0087114Y01485D02*
X00985D01*
X0091177Y01445D02*
X01005D01*
X0090677Y0145D02*
X0091177Y01445D01*
X00995Y01065D02*
X0115D01*
X01325Y0089D01*
X01105Y01025D02*
X01145D01*
X0131Y0086D01*
X01325Y0089D02*
X0138D01*
X01405Y00915D01*
Y0104D01*
X0146Y01095D01*
X01675D02*
X01715Y01135D01*
Y01175D01*
X0165Y0124D02*
X01715Y01175D01*
X0146Y01095D02*
X01675D01*
X0131Y0086D02*
X01395D01*
X01435Y009D01*
Y01025D02*
X0147Y0106D01*
X01685D01*
X0174Y01115D02*
Y0119D01*
X01435Y009D02*
Y01025D01*
X01685Y0106D02*
X0174Y01115D01*
X0177Y01215D02*
X0203D01*
X0171Y01275D02*
X0177Y01215D01*
X0171Y01275D02*
Y01645D01*
X01625Y0173D02*
X0163D01*
X01625D02*
X0171Y01645D01*
X01415Y01745D02*
Y0204D01*
X0144Y01765D02*
Y02025D01*
X0147Y0178D02*
Y02015D01*
X0168Y0125D02*
X0174Y0119D01*
X0168Y0125D02*
Y0162D01*
X0165Y0124D02*
Y016D01*
X0147Y0178D02*
X0165Y016D01*
X01625Y0121D02*
Y0158D01*
X0144Y01765D02*
X01625Y0158D01*
Y0121D02*
X0168Y01155D01*
X01415Y01745D02*
X016Y0156D01*
Y0114D02*
Y0144D01*
Y0156D01*
X0147Y0144D02*
X015D01*
X0144Y0147D02*
X0147Y0144D01*
X0082803Y01525D02*
X01D01*
X00945Y014D02*
X0101D01*
X00985Y0167D02*
X0104Y01615D01*
Y0143D02*
Y01615D01*
X0101Y014D02*
X0104Y0143D01*
X0098551Y0186551D02*
Y021685D01*
X0099Y0171D02*
X01065Y01635D01*
X01Y0174D02*
X0109Y0165D01*
Y0125D02*
Y0165D01*
X0101Y0177D02*
X01115Y01665D01*
Y01275D02*
Y01665D01*
Y01275D02*
X0132Y0107D01*
X0102Y018D02*
X01145Y01675D01*
Y01295D02*
Y01675D01*
X0074501Y01802D02*
X0102Y018D01*
X01275Y0147D02*
X0144D01*
X0118Y01565D02*
X01275Y0147D01*
X0151Y02005D02*
X0157606Y0207106D01*
X0151Y0179D02*
X0168Y0162D01*
X0151Y0179D02*
Y02005D01*
X0133984Y0187606D02*
Y0191516D01*
Y0187606D02*
X0137672Y0183919D01*
X0032Y0106D02*
Y02015D01*
X0017Y0103D02*
Y022D01*
X002Y0098D02*
Y02235D01*
X0023Y01D02*
Y02265D01*
X0014Y0224D02*
X002Y023D01*
X0014Y02405D02*
Y028D01*
Y02405D02*
X0026Y02285D01*
Y0102D02*
Y02285D01*
X0029Y0104D02*
Y02295D01*
X0222Y0147D02*
Y0209D01*
X0017Y02415D02*
X0029Y02295D01*
X0017Y02415D02*
Y02845D01*
X0075Y02765D02*
X00835Y0268D01*
X0066Y02765D02*
X0075D01*
X00765Y028D02*
X00855Y0271D01*
X0053Y028D02*
X00765D01*
X00885Y0273D02*
X01195D01*
X0053Y02845D02*
X0077D01*
X00885Y0273D01*
X0123345Y0246845D02*
Y0254845D01*
X0060852Y0306648D02*
Y03415D01*
X0041Y02505D02*
Y03065D01*
X0116345Y02485D02*
Y0254845D01*
X00375Y0248D02*
Y02965D01*
X0115Y02385D02*
X0123345Y0246845D01*
X005625Y023375D02*
X00585Y02315D01*
X0045Y02545D02*
X005Y02495D01*
X0049Y025625D02*
X005625Y0249D01*
X0049Y025625D02*
Y0342D01*
X005975Y035275D01*
X0045Y03445D02*
X0056Y03555D01*
X0045Y02545D02*
Y03445D01*
X0034Y0246D02*
X00425Y02375D01*
X00585D01*
X00375Y0248D02*
X0044Y02415D01*
X0041Y02505D02*
X00465Y0245D01*
X0064Y02385D02*
X0115D01*
X0061Y02415D02*
X0064Y02385D01*
X0044Y02415D02*
X0061D01*
X0109845Y0242D02*
X0116345Y02485D01*
X00665Y0242D02*
X0109845D01*
X00635Y0245D02*
X00665Y0242D01*
X00465Y0245D02*
X00635D01*
X01635Y0238D02*
X01655Y0236D01*
X02075Y0186D02*
Y02385D01*
X02125Y02435D01*
X01645Y0286D02*
Y0297D01*
X0159Y02805D02*
X01645Y0286D01*
X012Y03435D02*
Y03725D01*
Y03435D02*
X01275Y0336D01*
X0115Y034D02*
Y03525D01*
Y034D02*
X0136Y0319D01*
X01645D01*
X0152Y0308D02*
X0209D01*
X02075Y02435D02*
X02095Y02455D01*
Y02495D01*
X0163Y02335D02*
X01665Y023D01*
X01765Y024D02*
X0183Y02465D01*
X0204D01*
X01765Y0234D02*
Y024D01*
X01665Y023D02*
X01725D01*
X01765Y0234D01*
X0184Y02435D02*
X02075D01*
X01795Y0239D02*
X0184Y02435D01*
X01795Y02325D02*
Y0239D01*
X01615Y02275D02*
X01745D01*
X01795Y02325D01*
X01955Y02385D02*
X01975Y02365D01*
Y0224D02*
Y02365D01*
X01875Y0236D02*
X01885D01*
X0191Y02385D02*
X01955D01*
X01885Y0236D02*
X0191Y02385D01*
X0149Y03045D02*
X020075D01*
X0209064Y0282436D02*
X02125Y0279D01*
Y02435D02*
Y0279D01*
X018Y0282436D02*
X0209064D01*
X0134181Y0325319D02*
Y0345181D01*
Y0325319D02*
X01375Y0322D01*
X01015Y02975D02*
X0116345D01*
X0092Y0307D02*
X01015Y02975D01*
X0092Y0307D02*
Y0321D01*
X0102Y0319D02*
X01235Y02975D01*
X005Y02335D02*
X0055Y02285D01*
X01595Y02275D02*
X01615D01*
X01585Y02285D02*
X01595Y02275D01*
X0034Y0246D02*
Y0291D01*
Y0335D02*
X0036Y0337D01*
X0034Y0291D02*
Y0335D01*
X01465Y0365614D02*
X015826Y0377374D01*
X01465Y03265D02*
Y0365614D01*
X014226Y032424D02*
Y0377374D01*
Y032424D02*
X01445Y0322D01*
X0166D02*
X0169Y0319D01*
X01445Y0322D02*
X0166D01*
X0168Y03245D02*
X01735Y0319D01*
X01465Y03265D02*
X01485Y03245D01*
X0168D01*
X017Y0327D02*
X0178Y0319D01*
X0151Y0327D02*
X017D01*
X01495Y03285D02*
X0151Y0327D01*
X01495Y03285D02*
Y03625D01*
X0169386Y03725D02*
X017426Y0377374D01*
X01495Y03625D02*
X01595Y03725D01*
X0169386D01*
X01565Y0363D02*
X0182D01*
X01525Y0359D02*
X01565Y0363D01*
X01525Y0331D02*
Y0359D01*
Y0331D02*
X01545Y0329D01*
X01755D01*
X0182Y03225D01*
Y0318D02*
Y03225D01*
X0156Y0335D02*
X01695D01*
X01775Y0343D01*
X0218Y036D02*
Y0381189D01*
X0217Y0382189D02*
X0218Y0381189D01*
D28*
X0194Y0406D02*
X02035D01*
X0210181Y0392819D02*
X0217D01*
X02085Y03945D02*
X0210181Y0392819D01*
X02085Y03945D02*
Y0401D01*
X02035Y0406D02*
X02085Y0401D01*
X0187Y0413D02*
X0194Y0406D01*
X0135Y0034945D02*
X0152Y0051945D01*
X0131Y0083D02*
X0148D01*
X01295D02*
X0131D01*
X01255D02*
X01295D01*
X0067Y0089D02*
X01195D01*
X01255Y0083D01*
X0082Y01355D02*
X00835Y0137D01*
X0082Y0114D02*
Y01355D01*
X0026Y0326D02*
X003Y0322D01*
Y0275D02*
Y0322D01*
X0026Y0326D02*
Y03365D01*
X00205Y02425D02*
Y0317D01*
X0015Y03225D02*
X00205Y0317D01*
X0015Y03225D02*
Y0366942D01*
X021925Y027125D02*
X02205Y027D01*
X0191Y0378D02*
X0191181Y0377819D01*
X0191Y0378D02*
X0201D01*
X0185D02*
X0191D01*
X02155Y0304D02*
Y0317D01*
Y02415D02*
Y0304D01*
X0215Y02345D02*
X02205Y024D01*
X0211Y0237D02*
X02155Y02415D01*
X0211Y02275D02*
Y0237D01*
X0193Y0223D02*
Y02355D01*
X0211Y0151D02*
Y02275D01*
X0215Y01315D02*
Y02065D01*
X004Y011D02*
Y02105D01*
X0044Y01785D02*
Y02025D01*
Y0112D02*
Y01785D01*
X0051307Y021685D02*
X0055244D01*
X0052199Y0058D02*
X006Y0065801D01*
X0034Y0058D02*
X0034394Y0058394D01*
X006Y0065801D02*
Y0066D01*
X0072Y0043D02*
X0095D01*
X00662Y00488D02*
X0072Y0043D01*
X00452Y00488D02*
X00662D01*
X0185Y0378D02*
Y0389D01*
X0011Y0084D02*
Y0327D01*
X0211Y0059D02*
Y0151D01*
X0022Y0391D02*
X0034811D01*
X0202819Y0379819D02*
Y0385D01*
X008974Y0399D02*
Y0403374D01*
X0022181Y0066819D02*
X0027Y0062D01*
X0015Y0066819D02*
X0022181D01*
X0027Y0054D02*
Y0062D01*
X0049Y0037D02*
Y0039D01*
X004Y0028D02*
X0049Y0037D01*
X0215Y0055D02*
Y01315D01*
X0044Y0112D02*
X0067Y0089D01*
X004Y011D02*
X0065Y0085D01*
X0095D01*
X0099Y0081D01*
Y0067D02*
Y0081D01*
X0036Y0108D02*
X0063Y0081D01*
X0092D01*
X0095Y0078D01*
Y0043D02*
Y0078D01*
Y0043D02*
X0124D01*
X0152Y0051945D02*
Y0052D01*
X0095945Y0034945D02*
X0135D01*
X0153Y0062D02*
X0159D01*
X013Y0039D02*
X0153Y0062D01*
X0092Y0039D02*
X013D01*
X0152Y0052D02*
X0159D01*
X0202Y0073D02*
Y008D01*
X01965Y00675D02*
X0202Y0073D01*
X007Y0031D02*
X01495D01*
X0058Y003D02*
X0069D01*
X0015Y0044D02*
X0027D01*
X0016Y0048D02*
Y0057D01*
Y00355D02*
X00175Y0034D01*
X0027D01*
X0036713Y0044D02*
X0036713Y0044D01*
X0063287D01*
X0069Y003D02*
X007Y0031D01*
X0082Y0023D02*
X0155D01*
X0063D02*
X0082D01*
X0158Y0033D02*
X0166404D01*
X0152Y0027D02*
X0158Y0033D01*
X01545Y0036D02*
X01565D01*
X0166404Y0033D02*
X0173Y0026404D01*
X0186Y0018D02*
Y00235D01*
X0173Y0026D02*
Y0026404D01*
X0155Y0023D02*
X0158Y0026D01*
X0163D01*
X0063287Y0034945D02*
X0095945D01*
X0096Y0035D01*
X0063287Y0044D02*
X0068287Y0039D01*
X01735Y0036D02*
X0186Y00235D01*
X01545Y0036D02*
X01735D01*
X01495Y0031D02*
X01545Y0036D01*
X0054Y0068D02*
X0079D01*
X008Y0069D01*
X0054Y0064D02*
Y0068D01*
X0068287Y0039D02*
X0092D01*
X0124Y0043D02*
X0149Y0068D01*
X0196D01*
X0159Y0052D02*
X0212D01*
X0159Y0062D02*
X0164Y0057D01*
X0209D01*
X0027Y0054D02*
X004D01*
X0063287Y0049287D02*
Y0053055D01*
X004Y0054D02*
X00452Y00488D01*
X0059Y0058D02*
X00785D01*
X008Y00565D01*
X0049Y0053D02*
X0054D01*
X0209Y0057D02*
X0211Y0059D01*
X0212Y0052D02*
X0215Y0055D01*
X015174Y0403374D02*
X0182626D01*
X0187Y0399D01*
X0192189Y0385D02*
Y0393811D01*
X0187Y0399D02*
X0192189Y0393811D01*
X0147114Y0408D02*
X015174Y0403374D01*
X0144Y0408D02*
X0147114D01*
X01415Y04105D02*
X0144Y0408D01*
X0102Y04105D02*
X01415D01*
X0201Y0386819D02*
Y0399D01*
Y0378D02*
X0202819Y0379819D01*
X0085Y039426D02*
X008974Y0399D01*
X0085Y0391D02*
Y039426D01*
X0085303Y0407811D02*
X008974Y0403374D01*
X0045Y0407811D02*
X0085303D01*
X0036Y0422D02*
X0039Y0419D01*
Y0412D02*
Y0419D01*
X0034Y0407D02*
X0039Y0412D01*
X002974Y0407D02*
X0034D01*
X002974D02*
Y0413374D01*
Y040226D02*
Y0407D01*
X0177Y0382D02*
X0181Y0378D01*
X0141Y0383D02*
X0142Y0382D01*
X014974Y0377374D02*
Y038126D01*
X0142Y0382D02*
X0149D01*
X014974Y038126D01*
X016574Y0377374D02*
Y038126D01*
X0165Y0382D02*
X016574Y038126D01*
X0149Y0382D02*
X0165D01*
X0177D01*
X0141Y0383D02*
Y0388D01*
X0036Y0108D02*
Y0191D01*
X0215Y02065D02*
Y02345D01*
X0189102Y021685D02*
X0189252Y0217D01*
X0181228Y021685D02*
X0185165D01*
X0034Y0058D02*
X0052199D01*
X0054Y0053D02*
X005825Y005725D01*
X0059Y0058D01*
X0036Y0191D02*
Y0227D01*
X004Y02105D02*
Y0228D01*
X003Y0243D02*
X0044Y0229D01*
Y02025D02*
Y0229D01*
X0192953Y0213D02*
X02045D01*
X0189102Y021685D02*
X0192953Y0213D01*
X00205Y02425D02*
X0036Y0227D01*
X0025Y0243D02*
X004Y0228D01*
X003Y0243D02*
Y0275D01*
X0181228Y021685D02*
Y0223728D01*
X01835Y0226D01*
Y02375D01*
X0186Y024D01*
X0082Y0295D02*
Y032D01*
X0025Y0243D02*
Y0265D01*
Y0288D01*
X00575Y0294D02*
X0072Y03085D01*
Y032D01*
X0082D02*
X0091Y0329D01*
X0115D01*
X0141858Y021685D02*
Y0225D01*
X02205Y024D02*
Y027D01*
X0187Y029D02*
X0209181D01*
X0025Y0288D02*
Y0317D01*
X0191181Y0359D02*
Y0377819D01*
Y0340819D02*
X0199Y0333D01*
X0181Y0378D02*
X0185D01*
X0191181Y0340819D02*
Y0359D01*
X0199Y0333D02*
X02155D01*
Y0317D02*
Y0333D01*
Y0345D01*
X02095Y0339D02*
Y03485D01*
X021725D01*
X021925Y027125D02*
Y02855D01*
Y03465D01*
X021725Y03485D02*
X021925Y03465D01*
X02095Y03485D02*
Y0351311D01*
X0201811Y0359D02*
X02095Y0351311D01*
X0061Y0027D02*
X0152D01*
X0057Y0023D02*
X0061Y0027D01*
X0011Y003D02*
X0018Y0023D01*
X0011Y003D02*
Y0076D01*
X00165Y00815D01*
Y0084D01*
X0018Y0023D02*
X0031D01*
X0057D01*
X00205Y0325D02*
X0023Y03225D01*
X00205Y0325D02*
Y0338D01*
X0056Y03735D02*
Y0375D01*
X00205Y0338D02*
X0056Y03735D01*
D29*
Y0383D02*
X005874Y038574D01*
X0060724D01*
X0056Y0375D02*
Y0383D01*
D30*
X0012576Y0369424D02*
X0015029Y0366971D01*
D31*
X0034Y0008D02*
Y0013998D01*
X0035999Y0011999D01*
X0037999Y0013998D01*
Y0008D01*
X0043997Y0012998D02*
X0042997Y0013998D01*
X0040998D01*
X0039998Y0012998D01*
Y0009D01*
X0040998Y0008D01*
X0042997D01*
X0043997Y0009D01*
Y0010999D01*
X0041997D01*
X000767Y002933D02*
X0024751Y0012249D01*
X-0089Y0459D02*
X-0088Y046D01*
X0055Y002D02*
X0076D01*
X0157D02*
X0179D01*
X0157Y0007D02*
Y002D01*
X0076Y0007D02*
X0157D01*
X0076D02*
Y002D01*
X000767Y002933D02*
Y00355D01*
X0196307Y00075D02*
X0225D01*
X0025Y00015D02*
X003D01*
X0179Y00075D02*
Y002D01*
Y00075D02*
X0196307D01*
X0055Y00015D02*
Y002D01*
X0225Y0035D02*
Y04375D01*
X003Y00015D02*
X0055D01*
X0024751D02*
Y0009249D01*
X0077Y04285D02*
Y0437D01*
Y04285D02*
X01575D01*
Y04375D01*
X0225D01*
X0024751Y0009249D02*
Y0012249D01*
X0225Y00075D02*
Y0035D01*
X000767Y0437D02*
X0077D01*
X000767Y00355D02*
Y0437D01*
D32*
X0164188Y0257436D02*
G03*
X0164188Y0257436I-0001969J0D01*
G01*
X0122559Y0117126D02*
G03*
X0122559Y0117126I-0001969J0D01*
G01*
X0189669Y0074331D02*
G03*
X0189669Y0074331I-0001969J0D01*
G01*
X0126392Y0253892D02*
X0165762D01*
X0126392Y0293263D02*
X0165762D01*
Y0253892D02*
Y0293263D01*
X0126392Y0253892D02*
Y0293263D01*
X0059543Y0375898D02*
Y0388102D01*
X0052457Y0375898D02*
Y0388102D01*
Y0375898D02*
X0059543D01*
X0052457Y0388102D02*
X0059543D01*
X0117047Y0113583D02*
Y0152953D01*
X0156417Y0113583D02*
Y0152953D01*
X0117047Y0113583D02*
X0156417D01*
X0117047Y0152953D02*
X0156417D01*
X0069898Y0374457D02*
X0082102D01*
X0069898Y0381543D02*
X0082102D01*
Y0374457D02*
Y0381543D01*
X0069898Y0374457D02*
Y0381543D01*
X0203842Y0062126D02*
Y0077874D01*
X0184158Y0062126D02*
Y0077874D01*
Y0062126D02*
X0203842D01*
X0184158Y0077874D02*
X0203842D01*
X01197Y02472D02*
X0172455D01*
X01197Y0299955D02*
X0172455D01*
Y02472D02*
Y0299955D01*
X01197Y02472D02*
Y0299955D01*
X0146077Y0271609D02*
Y0275546D01*
X0144109Y0273577D02*
X0148046D01*
X0063874Y0374913D02*
Y0389087D01*
X0048126Y0374913D02*
Y0389087D01*
Y0374913D02*
X0063874D01*
X0048126Y0389087D02*
X0063874D01*
X0054031Y0382D02*
X0057968D01*
X0056Y0380031D02*
Y0383968D01*
X0110354Y010689D02*
Y0159646D01*
X016311Y010689D02*
Y0159646D01*
X0110354Y010689D02*
X016311D01*
X0110354Y0159646D02*
X016311D01*
X0134764Y0133268D02*
X0138701D01*
X0136732Y0131299D02*
Y0135236D01*
X0068913Y0370126D02*
X0083087D01*
X0068913Y0385874D02*
X0083087D01*
Y0370126D02*
Y0385874D01*
X0068913Y0370126D02*
Y0385874D01*
X0076Y0376031D02*
Y0379969D01*
X0074032Y0378D02*
X0077969D01*
X0192032Y007D02*
X0195968D01*
X0194Y0068032D02*
Y0071969D01*
X0204827Y0055236D02*
Y0084764D01*
X0183173Y0055236D02*
Y0084764D01*
Y0055236D02*
X0204827D01*
X0183173Y0084764D02*
X0204827D01*
D33*
X00155Y0429D02*
D03*
X02175Y00155D02*
D03*
X0217Y04295D02*
D03*
D34*
X0027Y0034D02*
D03*
X0187Y0413D02*
D03*
D35*
X0027Y0044D02*
D03*
Y0054D02*
D03*
X0201Y0413D02*
D03*
Y0399D02*
D03*
X0187D02*
D03*
X0173Y0026D02*
D03*
D36*
X0107Y0067D02*
D03*
X0127D02*
D03*
D37*
X0159Y0062D02*
D03*
Y0052D02*
D03*
D38*
Y0042D02*
D03*
D39*
X0163Y0026D02*
D03*
D40*
X0217Y0402D02*
D03*
X01345Y0238D02*
D03*
X0152936Y03135D02*
D03*
X00835Y0137D02*
D03*
X0082Y0114D02*
D03*
X0087Y0128D02*
D03*
X0097Y0094D02*
D03*
X0196Y0018D02*
D03*
X0026Y03365D02*
D03*
X0023Y03225D02*
D03*
X02155Y0345D02*
D03*
X02095Y0339D02*
D03*
Y02495D02*
D03*
X0204Y02465D02*
D03*
X01645Y0297D02*
D03*
X0159Y02805D02*
D03*
X0138Y03265D02*
D03*
X0131Y033D02*
D03*
X01275Y0336D02*
D03*
X01085Y028D02*
D03*
X0193Y0223D02*
D03*
Y02355D02*
D03*
X01715Y02345D02*
D03*
X0222Y0209D02*
D03*
X01515Y0278D02*
D03*
X00985Y01485D02*
D03*
X01005Y01445D02*
D03*
X013Y01875D02*
D03*
X0133Y0132283D02*
D03*
X0132886Y0143D02*
D03*
X01065Y01865D02*
D03*
X0102374Y0183012D02*
D03*
X0098437Y0186551D02*
D03*
X0044Y038515D02*
D03*
X0191181Y0359D02*
D03*
X0185Y0389D02*
D03*
X0182Y0363D02*
D03*
X008Y0382D02*
D03*
X0155Y0284404D02*
D03*
X01585Y0288D02*
D03*
X011Y02905D02*
D03*
X01415Y0281D02*
D03*
X0145093Y0284593D02*
D03*
X00795Y0265D02*
D03*
X00915Y0276D02*
D03*
X01655Y0236D02*
D03*
X02015Y01745D02*
D03*
Y0167D02*
D03*
X02065Y0171D02*
D03*
X0211Y0151D02*
D03*
X0036Y0422D02*
D03*
X0021Y0391D02*
D03*
X001Y0411D02*
D03*
X0015D02*
D03*
X014426Y039626D02*
D03*
X002974Y040226D02*
D03*
X0032Y039D02*
D03*
X0082Y0404D02*
D03*
X0141Y0388D02*
D03*
X0085Y0391D02*
D03*
X0162Y04D02*
D03*
X0191Y04335D02*
D03*
X019Y0126D02*
D03*
X004Y0028D02*
D03*
X0044Y01785D02*
D03*
X02065Y01585D02*
D03*
X0222Y0127D02*
D03*
Y0111D02*
D03*
X0049Y0156D02*
D03*
X0148Y0083D02*
D03*
X0099Y0067D02*
D03*
X01255Y01015D02*
D03*
X01105Y01025D02*
D03*
X00995Y01065D02*
D03*
X00945Y014D02*
D03*
X0067055Y0180055D02*
D03*
X0127Y0166D02*
D03*
X016Y0114D02*
D03*
X0168Y01155D02*
D03*
X0136Y0092D02*
D03*
X0132Y0095D02*
D03*
X00985Y0167D02*
D03*
X00945Y0183D02*
D03*
X013Y0178D02*
D03*
X0126Y0174D02*
D03*
X0122Y017D02*
D03*
X0215Y01315D02*
D03*
X0175Y0142D02*
D03*
X0182Y0154D02*
D03*
X0175Y0129D02*
D03*
X0154Y0047D02*
D03*
X0055Y0078D02*
D03*
X0035D02*
D03*
X01965Y00675D02*
D03*
X01915Y0079449D02*
D03*
X0049Y0039D02*
D03*
X0031Y0023D02*
D03*
X0058Y003D02*
D03*
X0011Y0327D02*
D03*
X0063Y0035D02*
D03*
Y0023D02*
D03*
X0082D02*
D03*
X0092Y0039D02*
D03*
X0034Y0058D02*
D03*
X0049Y0053D02*
D03*
X0039Y0064D02*
D03*
X0011Y0084D02*
D03*
X003Y0078D02*
D03*
X004D02*
D03*
X0045D02*
D03*
X005D02*
D03*
X008Y0068D02*
D03*
X006Y0078D02*
D03*
X0203Y0142D02*
D03*
X0128Y0098D02*
D03*
X0138Y01885D02*
D03*
X0137672Y0183919D02*
D03*
X012611Y01835D02*
D03*
X0097Y0128D02*
D03*
X0088Y0114D02*
D03*
X0085Y0101D02*
D03*
X0043Y0375701D02*
D03*
X0077Y0404D02*
D03*
Y0399D02*
D03*
Y0394D02*
D03*
X0177D02*
D03*
X0169Y0399D02*
D03*
X0086Y0422D02*
D03*
X0148Y0412626D02*
D03*
X0102Y0409D02*
D03*
X0122Y04105D02*
D03*
X0222Y0147D02*
D03*
X0211Y02275D02*
D03*
X01475Y0275D02*
D03*
X01375Y0278D02*
D03*
X0123345Y0254845D02*
D03*
X0116345D02*
D03*
X01525Y0235D02*
D03*
X0148Y0048D02*
D03*
X00375Y02965D02*
D03*
X0041Y03065D02*
D03*
X0011Y0342D02*
D03*
X002Y0344D02*
D03*
X00325D02*
D03*
X004D02*
D03*
X0067Y0372D02*
D03*
X0195Y0383374D02*
D03*
X0091Y0373D02*
D03*
X01045Y0357D02*
D03*
X0196Y0317D02*
D03*
X0093Y03425D02*
D03*
Y03505D02*
D03*
X00635Y0171D02*
D03*
X0063118Y0177382D02*
D03*
X00745Y018D02*
D03*
X004Y02105D02*
D03*
X0219Y0217D02*
D03*
X0155Y0199D02*
D03*
X01655Y02005D02*
D03*
X01765Y0201D02*
D03*
X01885Y02005D02*
D03*
X01985D02*
D03*
X008674Y01835D02*
D03*
X0090677Y0186677D02*
D03*
X0082803Y0187197D02*
D03*
X0075Y0187D02*
D03*
X0090677Y0145D02*
D03*
X00865Y01485D02*
D03*
X0082803Y01525D02*
D03*
X0079Y01565D02*
D03*
X02015Y018D02*
D03*
X0075Y0161D02*
D03*
X0203Y01215D02*
D03*
X01625Y0173D02*
D03*
X015Y0144D02*
D03*
X00995Y0161D02*
D03*
X01Y01525D02*
D03*
X0098Y01565D02*
D03*
X0118D02*
D03*
X0044Y02025D02*
D03*
X0053Y0217D02*
D03*
X00165Y0084D02*
D03*
X0036Y0191D02*
D03*
X0079Y0185D02*
D03*
X0215Y02065D02*
D03*
X02045Y0213D02*
D03*
X0189252Y0217D02*
D03*
X0032Y02015D02*
D03*
X01975Y0224D02*
D03*
X01885Y0236D02*
D03*
X0025Y0265D02*
D03*
X003Y0275D02*
D03*
X0066Y02765D02*
D03*
X0053Y028D02*
D03*
Y02845D02*
D03*
X0036Y0337D02*
D03*
X0060852Y0306648D02*
D03*
Y03415D02*
D03*
X01565Y02315D02*
D03*
X01615Y02305D02*
D03*
X005Y02335D02*
D03*
X005625Y023375D02*
D03*
X005Y02495D02*
D03*
X005625Y0249D02*
D03*
X0056Y03555D02*
D03*
X006Y0353D02*
D03*
X01645Y0319D02*
D03*
X0149Y03045D02*
D03*
X0152Y0308D02*
D03*
X0169Y0319D02*
D03*
X01735D02*
D03*
X0178D02*
D03*
X0209Y0308D02*
D03*
X020075Y030475D02*
D03*
X0186Y024D02*
D03*
X018Y0282436D02*
D03*
X0134181Y0345181D02*
D03*
X01375Y0322D02*
D03*
X0082Y0295D02*
D03*
Y032D02*
D03*
X0025Y0288D02*
D03*
X00575Y0294D02*
D03*
X0072Y032D02*
D03*
X0115Y0329D02*
D03*
X01235Y02975D02*
D03*
X0116345D02*
D03*
X0092Y0321D02*
D03*
X0102Y03215D02*
D03*
X0141858Y0225D02*
D03*
X02205Y027D02*
D03*
X021925Y02855D02*
D03*
X02155Y0304D02*
D03*
X0209181Y029D02*
D03*
X0187D02*
D03*
X0025Y0317D02*
D03*
X0201811Y0359D02*
D03*
X0156Y0335D02*
D03*
X01775Y0343D02*
D03*
X0218Y036D02*
D03*
D41*
X002Y02235D02*
D03*
X0014Y028D02*
D03*
X0017Y02845D02*
D03*
Y022D02*
D03*
X0023Y02265D02*
D03*
X002Y023D02*
D03*
D42*
X00475Y0217D02*
D03*
X0181228Y021685D02*
D03*
X01418Y0211D02*
D03*
D43*
X006Y0382D02*
D03*
M02*
