M48
;Layer_Color=9474304
;FILE_FORMAT=2:5
INCH,LZ
;TYPE=PLATED
T1F00S00C0.01400
T2F00S00C0.01600
T3F00S00C0.03000
T4F00S00C0.03150
T5F00S00C0.03937
T6F00S00C0.04724
T7F00S00C0.07874
%
T01
X0181228Y021685
X01418Y0211
X00475Y0217
X0017Y022
X002Y02235
X0023Y02265
X002Y023
X0014Y028
X0017Y02845
T02
X0031Y0023
X004Y0028
X0049Y0039
Y0053
X0034Y0058
X0039Y0064
X008Y0068
X0099Y0067
X0092Y0039
X0082Y0023
X0063
X0058Y003
X0063Y0035
X0148Y0048
X0154Y0047
X01965Y00675
X0196Y0018
X01915Y0079449
X019Y0126
X0203Y01215
Y0142
X0211Y0151
X02065Y01585
Y0171
X02015Y01745
Y018
Y0167
X0182Y0154
X0175Y0142
Y0129
X0215Y01315
X0222Y0127
Y0111
Y0147
Y0209
X0215Y02065
X0219Y0217
X0211Y02275
X01975Y0224
X0193Y0223
X0189252Y0217
X01885Y02005
X01985
X02045Y0213
X01765Y0201
X01655Y02005
X0155Y0199
X0138Y01885
X0137672Y0183919
X013Y01875
X012611Y01835
X013Y0178
X0126Y0174
X0122Y017
X0127Y0166
X0118Y01565
X0098
X00995Y0161
X00985Y0167
X01Y01525
X00985Y01485
X01005Y01445
X0090677Y0145
X00865Y01485
X0082803Y01525
X0079Y01565
X0075Y0161
X00745Y018
X0067055Y0180055
X0063118Y0177382
X00635Y0171
X0044Y01785
X0036Y0191
X0032Y02015
X0044Y02025
X004Y02105
X0053Y0217
X005Y02335
X005625Y023375
X0075Y0187
X0079Y0185
X0082803Y0187197
X008674Y01835
X0090677Y0186677
X00945Y0183
X0098437Y0186551
X0102374Y0183012
X01065Y01865
X00945Y014
X00835Y0137
X0087Y0128
X0097
X0088Y0114
X0082
X0085Y0101
X0097Y0094
X00995Y01065
X01105Y01025
X01255Y01015
X0128Y0098
X0132Y0095
X0136Y0092
X0148Y0083
X016Y0114
X0168Y01155
X015Y0144
X0132886Y0143
X0133Y0132283
X01625Y0173
X01615Y02305
X01565Y02315
X0141858Y0225
X0049Y0156
X005Y0078
X0055
X006
X0045
X004
X0035
X003
X00165Y0084
X0011
Y0327
Y0342
X002Y0344
X00325
X004
X0036Y0337
X0026Y03365
X0023Y03225
X0025Y0317
X0041Y03065
X00375Y02965
X0025Y0288
X003Y0275
X0025Y0265
X005Y02495
X005625Y0249
X0053Y028
Y02845
X00575Y0294
X0060852Y0306648
X0072Y032
X0082
X0092Y0321
X0102Y03215
X0115Y0329
X0131Y033
X01275Y0336
X0134181Y0345181
X0138Y03265
X01375Y0322
X0152936Y03135
X0152Y0308
X0149Y03045
X01645Y0297
X01585Y0288
X0155Y0284404
X0159Y02805
X01515Y0278
X01475Y0275
X01415Y0281
X01375Y0278
X0145093Y0284593
X01235Y02975
X0116345
X011Y02905
X01085Y028
X00915Y0276
X00795Y0265
X0066Y02765
X0082Y0295
X0093Y03425
Y03505
X01045Y0357
X0091Y0373
X008Y0382
X006
X0067Y0372
X006Y0353
X0056Y03555
X0060852Y03415
X0043Y0375701
X0044Y038515
X0032Y039
X0141Y0388
X0156Y0335
X01645Y0319
X0169
X01655Y0236
X01715Y02345
X01525Y0235
X01345Y0238
X0123345Y0254845
X0116345
X0186Y024
X01885Y0236
X0193Y02355
X0204Y02465
X02095Y02495
X02205Y027
X021925Y02855
X0209181Y029
X0209Y0308
X02155Y0304
X020075Y030475
X0196Y0317
X0178Y0319
X01735
X01775Y0343
X0182Y0363
X0191181Y0359
X0201811
X0218Y036
X02155Y0345
X02095Y0339
X0195Y0383374
X0185Y0389
X0187Y029
X018Y0282436
X0177Y0394
X0217Y0402
X0191Y04335
X0169Y0399
X0162Y04
X014426Y039626
X0148Y0412626
X0122Y04105
X0102Y0409
X0082Y0404
X0077
Y0399
Y0394
X0085Y0391
X0086Y0422
X0036
X002974Y040226
X0021Y0391
X0015Y0411
X001
T03
X0159Y0042
Y0052
Y0062
T04
X0187Y0399
Y0413
X0201
Y0399
T05
X0027Y0034
Y0044
Y0054
X0163Y0026
X0173
T06
X0107Y0067
X0127
T07
X02175Y00155
X0217Y04295
X00155Y0429
M30
