%FSTAX25Y25*%
%MOIN*%
G70*
G01*
G75*
%ADD10R,0.07874X0.07480*%
%ADD11R,0.01969X0.15748*%
%ADD12R,0.04331X0.02559*%
%ADD13R,0.07874X0.05512*%
%ADD14R,0.17011X0.12579*%
%ADD15R,0.20011X0.12579*%
%ADD16R,0.13780X0.11811*%
%ADD17R,0.06102X0.04331*%
%ADD18R,0.06102X0.04331*%
%ADD19R,0.06102X0.13583*%
%ADD20R,0.04724X0.07000*%
%ADD21R,0.04724X0.07874*%
%ADD22R,0.03543X0.03740*%
%ADD23R,0.03543X0.03740*%
%ADD24R,0.05906X0.13780*%
%ADD25R,0.09843X0.07874*%
%ADD26R,0.07480X0.07874*%
%ADD27C,0.01200*%
%ADD28C,0.02000*%
%ADD29C,0.01400*%
%ADD30C,0.01600*%
%ADD31C,0.01000*%
%ADD32C,0.00394*%
%ADD33C,0.15748*%
%ADD34R,0.08000X0.08000*%
%ADD35C,0.08000*%
%ADD36C,0.09000*%
%ADD37O,0.08000X0.06400*%
%ADD38O,0.08000X0.06000*%
%ADD39R,0.08000X0.08000*%
%ADD40C,0.03000*%
%ADD41C,0.02600*%
%ADD42C,0.02700*%
%ADD43C,0.02800*%
%ADD44R,0.07874X0.09843*%
%ADD45R,0.07874X0.07842*%
%ADD46R,0.13780X0.01969*%
%ADD47R,0.15748X0.08071*%
%ADD48R,0.10236X0.08071*%
%ADD49R,0.13780X0.08071*%
G04:AMPARAMS|DCode=50|XSize=39.37mil|YSize=31.5mil|CornerRadius=7.87mil|HoleSize=0mil|Usage=FLASHONLY|Rotation=0.000|XOffset=0mil|YOffset=0mil|HoleType=Round|Shape=RoundedRectangle|*
%AMROUNDEDRECTD50*
21,1,0.03937,0.01575,0,0,0.0*
21,1,0.02362,0.03150,0,0,0.0*
1,1,0.01575,0.01181,-0.00787*
1,1,0.01575,-0.01181,-0.00787*
1,1,0.01575,-0.01181,0.00787*
1,1,0.01575,0.01181,0.00787*
%
%ADD50ROUNDEDRECTD50*%
G04:AMPARAMS|DCode=51|XSize=39.37mil|YSize=31.5mil|CornerRadius=7.87mil|HoleSize=0mil|Usage=FLASHONLY|Rotation=270.000|XOffset=0mil|YOffset=0mil|HoleType=Round|Shape=RoundedRectangle|*
%AMROUNDEDRECTD51*
21,1,0.03937,0.01575,0,0,270.0*
21,1,0.02362,0.03150,0,0,270.0*
1,1,0.01575,-0.00787,-0.01181*
1,1,0.01575,-0.00787,0.01181*
1,1,0.01575,0.00787,0.01181*
1,1,0.01575,0.00787,-0.01181*
%
%ADD51ROUNDEDRECTD51*%
G04:AMPARAMS|DCode=52|XSize=90mil|YSize=90mil|CornerRadius=22.5mil|HoleSize=0mil|Usage=FLASHONLY|Rotation=180.000|XOffset=0mil|YOffset=0mil|HoleType=Round|Shape=RoundedRectangle|*
%AMROUNDEDRECTD52*
21,1,0.09000,0.04500,0,0,180.0*
21,1,0.04500,0.09000,0,0,180.0*
1,1,0.04500,-0.02250,0.02250*
1,1,0.04500,0.02250,0.02250*
1,1,0.04500,0.02250,-0.02250*
1,1,0.04500,-0.02250,-0.02250*
%
%ADD52ROUNDEDRECTD52*%
%ADD53R,0.06693X0.09843*%
%ADD54R,0.05512X0.00984*%
%ADD55R,0.00984X0.05512*%
%ADD56C,0.01063*%
%ADD57R,0.10630X0.10630*%
%ADD58R,0.09843X0.06693*%
%ADD59R,0.11811X0.07874*%
%ADD60R,0.11811X0.02953*%
%ADD61R,0.09843X0.07874*%
G04:AMPARAMS|DCode=62|XSize=100mil|YSize=100mil|CornerRadius=25mil|HoleSize=0mil|Usage=FLASHONLY|Rotation=0.000|XOffset=0mil|YOffset=0mil|HoleType=Round|Shape=RoundedRectangle|*
%AMROUNDEDRECTD62*
21,1,0.10000,0.05000,0,0,0.0*
21,1,0.05000,0.10000,0,0,0.0*
1,1,0.05000,0.02500,-0.02500*
1,1,0.05000,-0.02500,-0.02500*
1,1,0.05000,-0.02500,0.02500*
1,1,0.05000,0.02500,0.02500*
%
%ADD62ROUNDEDRECTD62*%
%ADD63O,0.01181X0.10236*%
%ADD64O,0.10236X0.01181*%
%ADD65R,0.04567X0.05906*%
%ADD66R,0.08661X0.15748*%
%ADD67R,0.08661X0.13780*%
%ADD68R,0.11024X0.09055*%
%ADD69R,0.01575X0.05512*%
%ADD70R,0.05512X0.01575*%
%ADD71R,0.02756X0.03543*%
%ADD72R,0.04724X0.03543*%
%ADD73R,0.01969X0.07087*%
%ADD74R,0.05906X0.07874*%
%ADD75R,0.05906X0.07574*%
%ADD76R,0.02165X0.07874*%
%ADD77R,0.07874X0.02165*%
G04:AMPARAMS|DCode=78|XSize=51.18mil|YSize=51.18mil|CornerRadius=12.8mil|HoleSize=0mil|Usage=FLASHONLY|Rotation=270.000|XOffset=0mil|YOffset=0mil|HoleType=Round|Shape=RoundedRectangle|*
%AMROUNDEDRECTD78*
21,1,0.05118,0.02559,0,0,270.0*
21,1,0.02559,0.05118,0,0,270.0*
1,1,0.02559,-0.01280,-0.01280*
1,1,0.02559,-0.01280,0.01280*
1,1,0.02559,0.01280,0.01280*
1,1,0.02559,0.01280,-0.01280*
%
%ADD78ROUNDEDRECTD78*%
%ADD79R,0.13780X0.05906*%
%ADD80R,0.10880X0.05906*%
%ADD81R,0.02559X0.04331*%
%ADD82O,0.02362X0.08661*%
%ADD83C,0.01500*%
D10*
X0217Y0382189D02*
D03*
Y0392819D02*
D03*
X01308Y0409811D02*
D03*
Y0399181D02*
D03*
X01019Y0409811D02*
D03*
Y0399181D02*
D03*
X01158Y0409811D02*
D03*
Y0399181D02*
D03*
X0045Y0424189D02*
D03*
X0217Y0402189D02*
D03*
Y0412819D02*
D03*
X0017Y0045811D02*
D03*
Y0035181D02*
D03*
Y0056189D02*
D03*
Y0066819D02*
D03*
X0117Y0378189D02*
D03*
Y0388819D02*
D03*
X0131Y0378189D02*
D03*
Y0388819D02*
D03*
X0103Y0378189D02*
D03*
Y0388819D02*
D03*
X0021Y0391811D02*
D03*
Y0381181D02*
D03*
X0035Y0391811D02*
D03*
Y0381181D02*
D03*
X0045Y0407811D02*
D03*
Y0397181D02*
D03*
X0057Y0424189D02*
D03*
X0189D02*
D03*
X0165D02*
D03*
X0177D02*
D03*
X0069D02*
D03*
D11*
X0189102Y021685D02*
D03*
X0185165D02*
D03*
X0181228D02*
D03*
X0177291D02*
D03*
X0173354D02*
D03*
X0169417D02*
D03*
X016548D02*
D03*
X0161543D02*
D03*
X0157606D02*
D03*
X0153669D02*
D03*
X0149732D02*
D03*
X0145795D02*
D03*
X0141858D02*
D03*
X0137921D02*
D03*
X0133984D02*
D03*
X0130047D02*
D03*
X012611D02*
D03*
X0122173D02*
D03*
X0118236D02*
D03*
X0114299D02*
D03*
X0110362D02*
D03*
X0106425D02*
D03*
X0102488D02*
D03*
X0098551D02*
D03*
X0094614D02*
D03*
X0090677D02*
D03*
X008674D02*
D03*
X0082803D02*
D03*
X0078866D02*
D03*
X0074929D02*
D03*
X0070992D02*
D03*
X0067055D02*
D03*
X0063118D02*
D03*
X0059181D02*
D03*
X0055244D02*
D03*
X0051307D02*
D03*
X004737D02*
D03*
D12*
X0060724Y037826D02*
D03*
Y0382D02*
D03*
Y038574D02*
D03*
X0051276D02*
D03*
Y037826D02*
D03*
D13*
X0045Y0434819D02*
D03*
X0057D02*
D03*
X0189D02*
D03*
X0165D02*
D03*
X0177D02*
D03*
X0069D02*
D03*
D14*
X0081Y00525D02*
D03*
D15*
X008Y0067D02*
D03*
D16*
X006Y0066D02*
D03*
X0044D02*
D03*
D17*
X0063287Y0034945D02*
D03*
D18*
Y0044D02*
D03*
Y0053055D02*
D03*
D19*
X0036713Y0044D02*
D03*
D20*
X0071323Y03942D02*
D03*
X0063449D02*
D03*
X0056362D02*
D03*
D21*
X0071323Y0414D02*
D03*
X0063842D02*
D03*
X0056362D02*
D03*
X0177323Y0393921D02*
D03*
X0169449D02*
D03*
X0162362D02*
D03*
X0177323Y0414D02*
D03*
X0169843D02*
D03*
X0162362D02*
D03*
D22*
X0146Y0386626D02*
D03*
X014226Y0377374D02*
D03*
X0026Y0422626D02*
D03*
X002226Y0413374D02*
D03*
X0162Y0386626D02*
D03*
X015826Y0377374D02*
D03*
X0178Y0386626D02*
D03*
X017426Y0377374D02*
D03*
X0086Y0412626D02*
D03*
X008226Y0403374D02*
D03*
X0148Y0412626D02*
D03*
X014426Y0403374D02*
D03*
D23*
X014974Y0377374D02*
D03*
X002974Y0413374D02*
D03*
X016574Y0377374D02*
D03*
X018174D02*
D03*
X008974Y0403374D02*
D03*
X015174D02*
D03*
D24*
X0196Y0018D02*
D03*
X0186D02*
D03*
D25*
X01895Y008D02*
D03*
X0202D02*
D03*
X011Y0422D02*
D03*
X01225D02*
D03*
D26*
X0192189Y0385D02*
D03*
X0202819D02*
D03*
X0144819Y0423D02*
D03*
X0134189D02*
D03*
D31*
X000767Y002933D02*
X0024751Y0012249D01*
X-0089Y0459D02*
X-0088Y046D01*
X0055Y002D02*
X0076D01*
X0157D02*
X0179D01*
X0157Y0007D02*
Y002D01*
X0076Y0007D02*
X0157D01*
X0076D02*
Y002D01*
X000767Y002933D02*
Y00355D01*
X0196307Y00075D02*
X0225D01*
X0025Y00015D02*
X003D01*
X0179Y00075D02*
Y002D01*
Y00075D02*
X0196307D01*
X0055Y00015D02*
Y002D01*
X0225Y0035D02*
Y04375D01*
X003Y00015D02*
X0055D01*
X0024751D02*
Y0009249D01*
X0077Y04285D02*
Y0437D01*
Y04285D02*
X01575D01*
Y04375D01*
X0225D01*
X0024751Y0009249D02*
Y0012249D01*
X0225Y00075D02*
Y0035D01*
X000767Y0437D02*
X0077D01*
X000767Y00355D02*
Y0437D01*
D32*
X0164188Y0257436D02*
G03*
X0164188Y0257436I-0001969J0D01*
G01*
X0122559Y0117126D02*
G03*
X0122559Y0117126I-0001969J0D01*
G01*
X0189669Y0074331D02*
G03*
X0189669Y0074331I-0001969J0D01*
G01*
X0126392Y0253892D02*
X0165762D01*
X0126392Y0293263D02*
X0165762D01*
Y0253892D02*
Y0293263D01*
X0126392Y0253892D02*
Y0293263D01*
X0059543Y0375898D02*
Y0388102D01*
X0052457Y0375898D02*
Y0388102D01*
Y0375898D02*
X0059543D01*
X0052457Y0388102D02*
X0059543D01*
X0117047Y0113583D02*
Y0152953D01*
X0156417Y0113583D02*
Y0152953D01*
X0117047Y0113583D02*
X0156417D01*
X0117047Y0152953D02*
X0156417D01*
X0069898Y0374457D02*
X0082102D01*
X0069898Y0381543D02*
X0082102D01*
Y0374457D02*
Y0381543D01*
X0069898Y0374457D02*
Y0381543D01*
X0203842Y0062126D02*
Y0077874D01*
X0184158Y0062126D02*
Y0077874D01*
Y0062126D02*
X0203842D01*
X0184158Y0077874D02*
X0203842D01*
X01197Y02472D02*
X0172455D01*
X01197Y0299955D02*
X0172455D01*
Y02472D02*
Y0299955D01*
X01197Y02472D02*
Y0299955D01*
X0146077Y0271609D02*
Y0275546D01*
X0144109Y0273577D02*
X0148046D01*
X0063874Y0374913D02*
Y0389087D01*
X0048126Y0374913D02*
Y0389087D01*
Y0374913D02*
X0063874D01*
X0048126Y0389087D02*
X0063874D01*
X0054031Y0382D02*
X0057968D01*
X0056Y0380031D02*
Y0383968D01*
X0110354Y010689D02*
Y0159646D01*
X016311Y010689D02*
Y0159646D01*
X0110354Y010689D02*
X016311D01*
X0110354Y0159646D02*
X016311D01*
X0134764Y0133268D02*
X0138701D01*
X0136732Y0131299D02*
Y0135236D01*
X0068913Y0370126D02*
X0083087D01*
X0068913Y0385874D02*
X0083087D01*
Y0370126D02*
Y0385874D01*
X0068913Y0370126D02*
Y0385874D01*
X0076Y0376031D02*
Y0379969D01*
X0074032Y0378D02*
X0077969D01*
X0192032Y007D02*
X0195968D01*
X0194Y0068032D02*
Y0071969D01*
X0204827Y0055236D02*
Y0084764D01*
X0183173Y0055236D02*
Y0084764D01*
Y0055236D02*
X0204827D01*
X0183173Y0084764D02*
X0204827D01*
D33*
X00155Y0429D02*
D03*
X02175Y00155D02*
D03*
X0217Y04295D02*
D03*
D34*
X0027Y0034D02*
D03*
X0187Y0413D02*
D03*
D35*
X0027Y0044D02*
D03*
Y0054D02*
D03*
X0201Y0413D02*
D03*
Y0399D02*
D03*
X0187D02*
D03*
X0173Y0026D02*
D03*
D36*
X0107Y0067D02*
D03*
X0127D02*
D03*
D37*
X0159Y0062D02*
D03*
Y0052D02*
D03*
D38*
Y0042D02*
D03*
D39*
X0163Y0026D02*
D03*
M02*
