%FSTAX25Y25*%
%MOIN*%
G70*
G01*
G75*
%ADD10R,0.07874X0.07480*%
%ADD11R,0.01969X0.15748*%
%ADD12R,0.04331X0.02559*%
%ADD13R,0.07874X0.05512*%
%ADD14R,0.17011X0.12579*%
%ADD15R,0.20011X0.12579*%
%ADD16R,0.13780X0.11811*%
%ADD17R,0.06102X0.04331*%
%ADD18R,0.06102X0.04331*%
%ADD19R,0.06102X0.13583*%
%ADD20R,0.04724X0.07000*%
%ADD21R,0.04724X0.07874*%
%ADD22R,0.03543X0.03740*%
%ADD23R,0.03543X0.03740*%
%ADD24R,0.05906X0.13780*%
%ADD25R,0.09843X0.07874*%
%ADD26R,0.07480X0.07874*%
%ADD27C,0.01200*%
%ADD28C,0.02000*%
%ADD29C,0.01400*%
%ADD30C,0.01600*%
%ADD31C,0.01000*%
%ADD32C,0.00394*%
%ADD33C,0.15748*%
%ADD34R,0.08000X0.08000*%
%ADD35C,0.08000*%
%ADD36C,0.09000*%
%ADD37O,0.08000X0.06400*%
%ADD38O,0.08000X0.06000*%
%ADD39R,0.08000X0.08000*%
%ADD40C,0.03000*%
%ADD41C,0.02600*%
%ADD42C,0.02700*%
%ADD43C,0.02800*%
%ADD44R,0.07874X0.09843*%
%ADD45R,0.07874X0.07842*%
%ADD46R,0.13780X0.01969*%
%ADD47R,0.15748X0.08071*%
%ADD48R,0.10236X0.08071*%
%ADD49R,0.13780X0.08071*%
G04:AMPARAMS|DCode=50|XSize=39.37mil|YSize=31.5mil|CornerRadius=7.87mil|HoleSize=0mil|Usage=FLASHONLY|Rotation=0.000|XOffset=0mil|YOffset=0mil|HoleType=Round|Shape=RoundedRectangle|*
%AMROUNDEDRECTD50*
21,1,0.03937,0.01575,0,0,0.0*
21,1,0.02362,0.03150,0,0,0.0*
1,1,0.01575,0.01181,-0.00787*
1,1,0.01575,-0.01181,-0.00787*
1,1,0.01575,-0.01181,0.00787*
1,1,0.01575,0.01181,0.00787*
%
%ADD50ROUNDEDRECTD50*%
G04:AMPARAMS|DCode=51|XSize=39.37mil|YSize=31.5mil|CornerRadius=7.87mil|HoleSize=0mil|Usage=FLASHONLY|Rotation=270.000|XOffset=0mil|YOffset=0mil|HoleType=Round|Shape=RoundedRectangle|*
%AMROUNDEDRECTD51*
21,1,0.03937,0.01575,0,0,270.0*
21,1,0.02362,0.03150,0,0,270.0*
1,1,0.01575,-0.00787,-0.01181*
1,1,0.01575,-0.00787,0.01181*
1,1,0.01575,0.00787,0.01181*
1,1,0.01575,0.00787,-0.01181*
%
%ADD51ROUNDEDRECTD51*%
G04:AMPARAMS|DCode=52|XSize=90mil|YSize=90mil|CornerRadius=22.5mil|HoleSize=0mil|Usage=FLASHONLY|Rotation=180.000|XOffset=0mil|YOffset=0mil|HoleType=Round|Shape=RoundedRectangle|*
%AMROUNDEDRECTD52*
21,1,0.09000,0.04500,0,0,180.0*
21,1,0.04500,0.09000,0,0,180.0*
1,1,0.04500,-0.02250,0.02250*
1,1,0.04500,0.02250,0.02250*
1,1,0.04500,0.02250,-0.02250*
1,1,0.04500,-0.02250,-0.02250*
%
%ADD52ROUNDEDRECTD52*%
%ADD53R,0.06693X0.09843*%
%ADD54R,0.05512X0.00984*%
%ADD55R,0.00984X0.05512*%
%ADD56C,0.01063*%
%ADD57R,0.10630X0.10630*%
%ADD58R,0.09843X0.06693*%
%ADD59R,0.11811X0.07874*%
%ADD60R,0.11811X0.02953*%
%ADD61R,0.09843X0.07874*%
G04:AMPARAMS|DCode=62|XSize=100mil|YSize=100mil|CornerRadius=25mil|HoleSize=0mil|Usage=FLASHONLY|Rotation=0.000|XOffset=0mil|YOffset=0mil|HoleType=Round|Shape=RoundedRectangle|*
%AMROUNDEDRECTD62*
21,1,0.10000,0.05000,0,0,0.0*
21,1,0.05000,0.10000,0,0,0.0*
1,1,0.05000,0.02500,-0.02500*
1,1,0.05000,-0.02500,-0.02500*
1,1,0.05000,-0.02500,0.02500*
1,1,0.05000,0.02500,0.02500*
%
%ADD62ROUNDEDRECTD62*%
%ADD63O,0.01181X0.10236*%
%ADD64O,0.10236X0.01181*%
%ADD65R,0.04567X0.05906*%
%ADD66R,0.08661X0.15748*%
%ADD67R,0.08661X0.13780*%
%ADD68R,0.11024X0.09055*%
%ADD69R,0.01575X0.05512*%
%ADD70R,0.05512X0.01575*%
%ADD71R,0.02756X0.03543*%
%ADD72R,0.04724X0.03543*%
%ADD73R,0.01969X0.07087*%
%ADD74R,0.05906X0.07874*%
%ADD75R,0.05906X0.07574*%
%ADD76R,0.02165X0.07874*%
%ADD77R,0.07874X0.02165*%
G04:AMPARAMS|DCode=78|XSize=51.18mil|YSize=51.18mil|CornerRadius=12.8mil|HoleSize=0mil|Usage=FLASHONLY|Rotation=270.000|XOffset=0mil|YOffset=0mil|HoleType=Round|Shape=RoundedRectangle|*
%AMROUNDEDRECTD78*
21,1,0.05118,0.02559,0,0,270.0*
21,1,0.02559,0.05118,0,0,270.0*
1,1,0.02559,-0.01280,-0.01280*
1,1,0.02559,-0.01280,0.01280*
1,1,0.02559,0.01280,0.01280*
1,1,0.02559,0.01280,-0.01280*
%
%ADD78ROUNDEDRECTD78*%
%ADD79R,0.13780X0.05906*%
%ADD80R,0.10880X0.05906*%
%ADD81R,0.02559X0.04331*%
%ADD82O,0.02362X0.08661*%
%ADD83C,0.01500*%
%ADD84C,0.00984*%
%ADD85C,0.00787*%
%ADD86C,0.02756*%
G36*
X0150799Y0016188D02*
X0150881Y0016176D01*
X0150969Y0016164D01*
X0151062Y0016141D01*
X0151156Y0016112D01*
X0151244Y0016071D01*
X015125D01*
X0151255Y0016065D01*
X0151285Y0016042D01*
X0151331Y0016012D01*
X0151384Y0015966D01*
X0151431Y0015901D01*
X0151478Y0015825D01*
X0151507Y0015732D01*
X0151519Y0015679D01*
Y0015626D01*
Y0015615D01*
X0151513Y0015591D01*
X0151507Y001555D01*
X0151489Y0015498D01*
X015146Y0015439D01*
X0151419Y0015375D01*
X0151361Y001531D01*
X0151279Y0015246D01*
X0151273Y001524D01*
X0151255Y0015234D01*
X0151226Y0015211D01*
X0151185Y0015188D01*
X0151127Y0015158D01*
X0151045Y0015117D01*
X0150951Y0015071D01*
X0150834Y0015012D01*
X0150033Y0014632D01*
X0150039Y0014626D01*
X0150056Y0014603D01*
X015008Y0014573D01*
X0150115Y0014532D01*
X0150156Y0014491D01*
X0150208Y0014445D01*
X0150261Y0014404D01*
X0150325Y0014368D01*
X0150331Y0014363D01*
X0150355Y0014357D01*
X0150396Y0014339D01*
X0150442Y0014328D01*
X0150501Y001431D01*
X0150571Y0014292D01*
X0150647Y0014287D01*
X0150729Y0014281D01*
X0150752D01*
X0150787Y0014287D01*
X0150828D01*
X0150875Y0014292D01*
X0150934Y0014304D01*
X0150998Y0014316D01*
X0151068Y0014333D01*
X0151074D01*
X015108Y0014339D01*
X0151109Y0014345D01*
X015115Y0014363D01*
X0151203Y001438D01*
X0151255Y001441D01*
X0151308Y0014439D01*
X0151355Y0014474D01*
X015139Y0014515D01*
X0151396Y0014521D01*
X0151402Y0014532D01*
X0151437Y0014573D01*
X0151484Y0014614D01*
X0151513Y0014626D01*
X0151542Y0014632D01*
X0151554D01*
X0151589Y0014626D01*
X015163Y0014608D01*
X0151677Y0014573D01*
X0151688Y0014562D01*
X0151706Y0014538D01*
X0151723Y0014497D01*
X0151735Y0014445D01*
Y0014433D01*
X0151729Y0014404D01*
X0151718Y0014363D01*
X0151688Y0014304D01*
X0151641Y0014246D01*
X0151612Y0014211D01*
X0151577Y0014175D01*
X015153Y001414D01*
X0151478Y0014105D01*
X0151419Y0014076D01*
X0151355Y0014041D01*
X0151349D01*
X0151343Y0014035D01*
X0151326Y0014029D01*
X0151302Y0014017D01*
X0151238Y0013994D01*
X0151162Y0013971D01*
X0151062Y0013947D01*
X0150963Y0013924D01*
X0150852Y0013906D01*
X0150735Y0013901D01*
X0150688D01*
X0150659Y0013906D01*
X0150618D01*
X0150571Y0013912D01*
X015046Y001393D01*
X0150337Y0013959D01*
X0150208Y0014D01*
X015008Y0014059D01*
X0149963Y0014134D01*
X0149957Y001414D01*
X0149951Y0014146D01*
X0149933Y0014164D01*
X0149916Y0014181D01*
X0149892Y0014211D01*
X0149863Y0014246D01*
X0149805Y0014328D01*
X0149746Y0014433D01*
X0149694Y0014556D01*
X0149658Y0014702D01*
X0149653Y0014784D01*
X0149647Y0014872D01*
Y0014877D01*
Y0014895D01*
Y0014924D01*
X0149653Y0014965D01*
Y0015012D01*
X0149658Y0015065D01*
X014967Y0015123D01*
X0149682Y0015193D01*
X0149711Y0015334D01*
X0149758Y0015492D01*
X0149822Y0015644D01*
X0149863Y001572D01*
X014991Y001579D01*
X0149916Y0015796D01*
X0149922Y0015808D01*
X0149939Y0015825D01*
X0149963Y0015854D01*
X0149992Y0015884D01*
X0150027Y0015919D01*
X0150068Y0015954D01*
X0150115Y0015995D01*
X0150226Y0016065D01*
X0150355Y0016129D01*
X0150425Y0016159D01*
X0150507Y0016176D01*
X0150589Y0016188D01*
X0150676Y0016194D01*
X0150735D01*
X0150799Y0016188D01*
D02*
G37*
G36*
X0154332D02*
X0154414Y0016176D01*
X0154502Y0016164D01*
X0154596Y0016141D01*
X0154689Y0016112D01*
X0154777Y0016071D01*
X0154783D01*
X0154789Y0016065D01*
X0154818Y0016042D01*
X0154865Y0016012D01*
X0154918Y0015966D01*
X0154964Y0015901D01*
X0155011Y0015825D01*
X015504Y0015732D01*
X0155052Y0015679D01*
Y0015626D01*
Y0015615D01*
X0155046Y0015591D01*
X015504Y001555D01*
X0155023Y0015498D01*
X0154994Y0015439D01*
X0154953Y0015375D01*
X0154894Y001531D01*
X0154812Y0015246D01*
X0154806Y001524D01*
X0154789Y0015234D01*
X015476Y0015211D01*
X0154719Y0015188D01*
X015466Y0015158D01*
X0154578Y0015117D01*
X0154485Y0015071D01*
X0154368Y0015012D01*
X0153566Y0014632D01*
X0153572Y0014626D01*
X015359Y0014603D01*
X0153613Y0014573D01*
X0153648Y0014532D01*
X0153689Y0014491D01*
X0153742Y0014445D01*
X0153794Y0014404D01*
X0153859Y0014368D01*
X0153865Y0014363D01*
X0153888Y0014357D01*
X0153929Y0014339D01*
X0153976Y0014328D01*
X0154034Y001431D01*
X0154104Y0014292D01*
X015418Y0014287D01*
X0154262Y0014281D01*
X0154286D01*
X0154321Y0014287D01*
X0154362D01*
X0154409Y0014292D01*
X0154467Y0014304D01*
X0154531Y0014316D01*
X0154602Y0014333D01*
X0154607D01*
X0154613Y0014339D01*
X0154643Y0014345D01*
X0154683Y0014363D01*
X0154736Y001438D01*
X0154789Y001441D01*
X0154841Y0014439D01*
X0154888Y0014474D01*
X0154923Y0014515D01*
X0154929Y0014521D01*
X0154935Y0014532D01*
X015497Y0014573D01*
X0155017Y0014614D01*
X0155046Y0014626D01*
X0155076Y0014632D01*
X0155087D01*
X0155122Y0014626D01*
X0155163Y0014608D01*
X015521Y0014573D01*
X0155222Y0014562D01*
X0155239Y0014538D01*
X0155257Y0014497D01*
X0155269Y0014445D01*
Y0014433D01*
X0155263Y0014404D01*
X0155251Y0014363D01*
X0155222Y0014304D01*
X0155175Y0014246D01*
X0155146Y0014211D01*
X0155111Y0014175D01*
X0155064Y001414D01*
X0155011Y0014105D01*
X0154953Y0014076D01*
X0154888Y0014041D01*
X0154882D01*
X0154876Y0014035D01*
X0154859Y0014029D01*
X0154836Y0014017D01*
X0154771Y0013994D01*
X0154695Y0013971D01*
X0154596Y0013947D01*
X0154496Y0013924D01*
X0154385Y0013906D01*
X0154268Y0013901D01*
X0154221D01*
X0154192Y0013906D01*
X0154151D01*
X0154104Y0013912D01*
X0153993Y001393D01*
X015387Y0013959D01*
X0153742Y0014D01*
X0153613Y0014059D01*
X0153496Y0014134D01*
X015349Y001414D01*
X0153484Y0014146D01*
X0153467Y0014164D01*
X0153449Y0014181D01*
X0153426Y0014211D01*
X0153396Y0014246D01*
X0153338Y0014328D01*
X0153279Y0014433D01*
X0153227Y0014556D01*
X0153192Y0014702D01*
X0153186Y0014784D01*
X015318Y0014872D01*
Y0014877D01*
Y0014895D01*
Y0014924D01*
X0153186Y0014965D01*
Y0015012D01*
X0153192Y0015065D01*
X0153203Y0015123D01*
X0153215Y0015193D01*
X0153244Y0015334D01*
X0153291Y0015492D01*
X0153356Y0015644D01*
X0153396Y001572D01*
X0153443Y001579D01*
X0153449Y0015796D01*
X0153455Y0015808D01*
X0153473Y0015825D01*
X0153496Y0015854D01*
X0153525Y0015884D01*
X015356Y0015919D01*
X0153601Y0015954D01*
X0153648Y0015995D01*
X0153759Y0016065D01*
X0153888Y0016129D01*
X0153958Y0016159D01*
X015404Y0016176D01*
X0154122Y0016188D01*
X015421Y0016194D01*
X0154268D01*
X0154332Y0016188D01*
D02*
G37*
G36*
X0147576Y0017352D02*
X0147611Y001734D01*
X0147646Y0017317D01*
X0147675Y0017288D01*
X0147704Y0017241D01*
X0147722Y0017177D01*
Y0017165D01*
X0147728Y0017142D01*
X0147734Y00171D01*
X014774Y0017054D01*
Y0016995D01*
X0147745Y0016937D01*
X0147751Y0016808D01*
Y0016796D01*
Y0016767D01*
Y0016726D01*
Y0016668D01*
Y0016597D01*
X0147745Y0016521D01*
Y0016434D01*
X014774Y0016346D01*
Y0016334D01*
Y0016305D01*
X0147734Y0016264D01*
Y0016205D01*
Y0016135D01*
X0147728Y0016053D01*
Y0015884D01*
X0147734Y0015702D01*
X014774Y0015714D01*
X0147763Y0015737D01*
X0147798Y0015778D01*
X0147845Y0015831D01*
X0147898Y001589D01*
X0147956Y0015942D01*
X0148026Y0016001D01*
X0148096Y0016048D01*
X0148108Y0016053D01*
X0148132Y0016065D01*
X0148172Y0016083D01*
X0148225Y0016106D01*
X014829Y0016129D01*
X014836Y0016147D01*
X0148436Y0016159D01*
X0148518Y0016164D01*
X0148553D01*
X0148576Y0016159D01*
X0148635Y0016153D01*
X0148711Y0016135D01*
X0148787Y0016112D01*
X0148869Y0016071D01*
X0148939Y0016012D01*
X0148997Y0015936D01*
X0149003Y0015931D01*
X0149015Y0015907D01*
X0149027Y0015866D01*
X0149044Y0015808D01*
X0149067Y0015737D01*
X0149085Y0015644D01*
X0149097Y0015533D01*
X0149108Y0015398D01*
X014912Y0015D01*
X0149161Y0014562D01*
Y001455D01*
X0149167Y0014521D01*
X0149173Y0014474D01*
X0149179Y0014415D01*
X014919Y0014351D01*
X0149202Y0014275D01*
X0149231Y0014129D01*
Y0014123D01*
X0149237Y0014111D01*
X0149243Y001407D01*
Y0014064D01*
Y0014059D01*
X0149237Y0014023D01*
X0149214Y0013977D01*
X0149202Y0013953D01*
X0149179Y001393D01*
X0149167Y0013918D01*
X0149138Y0013901D01*
X0149085Y0013883D01*
X0149027Y0013871D01*
X0149003D01*
X0148974Y0013877D01*
X0148945Y0013889D01*
X0148915Y0013912D01*
X014888Y0013936D01*
X0148851Y0013977D01*
X0148834Y0014029D01*
Y0014035D01*
X0148828Y0014059D01*
X0148816Y0014099D01*
X0148804Y0014152D01*
X0148793Y0014222D01*
X0148775Y0014304D01*
X0148763Y0014404D01*
X0148746Y0014515D01*
Y0014521D01*
Y0014526D01*
X014874Y0014544D01*
Y0014567D01*
X0148734Y001462D01*
X0148728Y001469D01*
X0148722Y0014772D01*
X0148716Y0014854D01*
X0148711Y0014942D01*
Y0015018D01*
Y001503D01*
Y0015059D01*
Y0015112D01*
X0148716Y0015182D01*
Y0015188D01*
Y0015199D01*
Y0015223D01*
X0148722Y0015246D01*
Y0015299D01*
Y0015346D01*
Y0015351D01*
Y0015363D01*
Y0015381D01*
Y001541D01*
X0148711Y0015474D01*
X0148699Y0015544D01*
X0148676Y001562D01*
X0148641Y0015679D01*
X0148617Y0015708D01*
X0148588Y0015726D01*
X0148558Y0015737D01*
X0148523Y0015743D01*
X0148512D01*
X0148477Y0015737D01*
X014843Y0015732D01*
X0148365Y0015714D01*
X014829Y0015685D01*
X0148207Y0015638D01*
X0148126Y0015579D01*
X0148044Y0015498D01*
X0148038Y0015492D01*
X0148026Y0015474D01*
X0148003Y0015439D01*
X0147968Y0015392D01*
X0147927Y0015328D01*
X0147874Y0015246D01*
X0147816Y0015147D01*
X0147751Y001503D01*
Y0015018D01*
Y0014995D01*
Y0014954D01*
Y0014901D01*
Y0014837D01*
X0147745Y0014766D01*
Y001469D01*
Y0014608D01*
X0147734Y0014445D01*
X0147728Y0014368D01*
X0147722Y0014292D01*
X0147716Y0014222D01*
X014771Y0014164D01*
X0147699Y0014117D01*
X0147687Y0014082D01*
Y0014076D01*
X0147675Y0014064D01*
X0147658Y0014041D01*
X014764Y0014017D01*
X0147611Y0013994D01*
X0147582Y0013971D01*
X0147541Y0013959D01*
X01475Y0013953D01*
X0147488D01*
X0147447Y0013959D01*
X0147394Y0013977D01*
X0147342Y0014012D01*
X014733Y0014023D01*
X0147312Y0014053D01*
X0147289Y0014094D01*
X0147283Y0014123D01*
X0147277Y0014152D01*
Y0014158D01*
Y0014175D01*
X0147283Y0014205D01*
X0147295Y0014246D01*
Y0014252D01*
X0147301Y0014257D01*
Y0014275D01*
X0147307Y0014304D01*
Y0014345D01*
X0147312Y0014398D01*
X0147318Y0014462D01*
Y001455D01*
X0147324Y001486D01*
X0147336Y0016404D01*
Y001641D01*
Y0016416D01*
Y0016445D01*
X0147342Y0016492D01*
Y0016545D01*
Y0016603D01*
X0147348Y0016662D01*
Y0016714D01*
Y0016755D01*
Y0016761D01*
Y0016773D01*
Y0016796D01*
Y001682D01*
X0147336Y0016884D01*
X0147324Y0016954D01*
Y001696D01*
Y0016972D01*
X0147318Y0016989D01*
Y0017019D01*
X0147312Y0017083D01*
X0147307Y0017159D01*
Y0017165D01*
Y0017177D01*
X0147312Y0017212D01*
X014733Y0017258D01*
X0147365Y0017305D01*
X0147371D01*
X0147377Y0017317D01*
X0147406Y0017334D01*
X0147459Y0017352D01*
X0147517Y0017364D01*
X0147547D01*
X0147576Y0017352D01*
D02*
G37*
G36*
X0120997Y0015943D02*
X0121056Y0015934D01*
X0121125Y0015904D01*
X0121204Y0015875D01*
X0121283Y0015825D01*
X0121352Y0015756D01*
X0121361Y0015747D01*
X0121381Y0015727D01*
X0121411Y0015687D01*
X012145Y0015629D01*
X0121489Y0015569D01*
X0121519Y0015491D01*
X0121538Y0015402D01*
X0121548Y0015314D01*
Y0015304D01*
Y0015274D01*
X0121538Y0015225D01*
X0121529Y0015166D01*
X0121499Y0015097D01*
X012147Y0015018D01*
X012142Y001494D01*
X0121361Y0014871D01*
X0121352Y0014861D01*
X0121332Y0014841D01*
X0121292Y0014812D01*
X0121233Y0014782D01*
X0121165Y0014743D01*
X0121096Y0014713D01*
X0121007Y0014694D01*
X0120909Y0014684D01*
X0120869D01*
X012082Y0014694D01*
X0120761Y0014704D01*
X0120692Y0014733D01*
X0120614Y0014763D01*
X0120535Y0014812D01*
X0120466Y0014871D01*
X0120456Y0014881D01*
X0120436Y00149D01*
X0120407Y001494D01*
X0120377Y0014999D01*
X0120338Y0015058D01*
X0120308Y0015136D01*
X0120289Y0015225D01*
X0120279Y0015314D01*
Y0015323D01*
Y0015363D01*
X0120289Y0015412D01*
X0120299Y0015471D01*
X0120318Y001555D01*
X0120358Y0015619D01*
X0120397Y0015697D01*
X0120456Y0015766D01*
X0120466Y0015776D01*
X0120486Y0015796D01*
X0120525Y0015825D01*
X0120584Y0015865D01*
X0120653Y0015894D01*
X0120722Y0015924D01*
X012081Y0015943D01*
X0120909Y0015953D01*
X0120948D01*
X0120997Y0015943D01*
D02*
G37*
G36*
X0099635Y0015402D02*
X009891Y0015239D01*
X0098887Y0015255D01*
X0098877Y0015264D01*
X0098788Y0015314D01*
X00987Y0015353D01*
X0098611Y0015382D01*
X0098533Y0015402D01*
X0098454Y0015412D01*
X0098395Y0015422D01*
X0099635Y0015402D01*
D02*
G37*
G36*
X0146055Y0016229D02*
X0146113Y0016223D01*
X0146183Y0016211D01*
X0146259Y0016194D01*
X0146347Y001617D01*
X0146441Y0016135D01*
X0146447D01*
X0146452Y0016129D01*
X0146493Y0016112D01*
X014654Y0016089D01*
X0146605Y0016053D01*
X0146663Y0016006D01*
X014671Y0015954D01*
X0146751Y0015895D01*
X0146757Y0015866D01*
X0146763Y0015831D01*
Y0015825D01*
Y0015819D01*
X0146757Y0015784D01*
X0146739Y0015737D01*
X014671Y0015691D01*
X0146698Y0015679D01*
X0146675Y0015661D01*
X0146634Y0015644D01*
X0146575Y0015632D01*
X0146564D01*
X014654Y0015638D01*
X0146505Y001565D01*
X014647Y0015667D01*
X0146464Y0015673D01*
X0146447Y0015691D01*
X0146417Y0015714D01*
X0146382Y0015737D01*
X0146377Y0015743D01*
X0146359Y0015755D01*
X014633Y0015773D01*
X0146289Y001579D01*
X014623Y0015808D01*
X014616Y0015825D01*
X0146078Y0015837D01*
X0145979Y0015843D01*
X0145967D01*
X0145944Y0015837D01*
X0145903Y0015825D01*
X014585Y0015796D01*
X0145786Y0015749D01*
X014575Y001572D01*
X014571Y0015679D01*
X0145675Y0015638D01*
X0145633Y0015585D01*
X0145598Y0015527D01*
X0145557Y0015457D01*
Y0015451D01*
X0145552Y0015439D01*
X014554Y0015421D01*
X0145528Y0015398D01*
X0145499Y0015328D01*
X0145464Y0015246D01*
X0145429Y0015152D01*
X0145399Y0015047D01*
X0145376Y0014942D01*
X014537Y0014842D01*
Y0014837D01*
Y0014831D01*
X0145376Y0014796D01*
X0145382Y0014749D01*
X0145394Y0014684D01*
X0145417Y0014614D01*
X0145452Y0014544D01*
X0145493Y0014468D01*
X0145557Y0014404D01*
X0145563Y0014398D01*
X0145587Y001438D01*
X0145628Y0014357D01*
X014568Y0014333D01*
X0145745Y0014304D01*
X0145821Y0014281D01*
X0145908Y0014263D01*
X0146008Y0014257D01*
X0146031D01*
X0146055Y0014263D01*
X014609D01*
X0146131Y0014275D01*
X0146178Y0014287D01*
X0146224Y0014298D01*
X0146277Y0014322D01*
X0146523Y001445D01*
X0146534Y0014456D01*
X0146558Y0014468D01*
X0146587Y001448D01*
X014661Y0014486D01*
X0146622D01*
X0146657Y001448D01*
X0146698Y0014456D01*
X0146722Y0014445D01*
X0146745Y0014421D01*
X0146757Y001441D01*
X0146774Y001438D01*
X0146792Y0014339D01*
X0146803Y0014281D01*
Y0014275D01*
X0146798Y0014257D01*
X0146786Y0014228D01*
X0146763Y0014187D01*
X0146722Y0014146D01*
X0146663Y0014094D01*
X0146628Y001407D01*
X0146587Y0014047D01*
X0146534Y0014017D01*
X0146476Y0013994D01*
X014647D01*
X0146464Y0013988D01*
X0146429Y0013977D01*
X0146377Y0013953D01*
X0146312Y001393D01*
X0146236Y0013906D01*
X014616Y0013883D01*
X0146084Y0013871D01*
X0146008Y0013866D01*
X0145967D01*
X0145938Y0013871D01*
X0145897D01*
X0145856Y0013877D01*
X0145756Y0013901D01*
X0145639Y001393D01*
X0145522Y0013977D01*
X0145399Y0014041D01*
X0145341Y0014076D01*
X0145288Y0014123D01*
X0145282Y0014129D01*
X0145277Y0014134D01*
X0145259Y0014152D01*
X0145242Y0014175D01*
X0145195Y0014234D01*
X0145142Y0014316D01*
X0145084Y0014421D01*
X0145037Y0014544D01*
X0145002Y0014684D01*
X0144996Y0014761D01*
X014499Y0014842D01*
Y0014848D01*
Y001486D01*
Y0014883D01*
X0144996Y0014919D01*
Y0014954D01*
X0145008Y0015D01*
X0145013Y0015053D01*
X0145025Y0015112D01*
X014506Y0015246D01*
X0145107Y0015398D01*
X0145177Y0015556D01*
X0145224Y0015638D01*
X0145271Y0015726D01*
X0145277Y0015732D01*
X0145282Y0015749D01*
X01453Y0015773D01*
X0145329Y0015808D01*
X0145359Y0015843D01*
X0145394Y001589D01*
X0145476Y0015983D01*
X0145581Y0016077D01*
X0145639Y0016118D01*
X0145704Y0016153D01*
X0145768Y0016188D01*
X0145838Y0016211D01*
X0145908Y0016229D01*
X0145979Y0016235D01*
X0146014D01*
X0146055Y0016229D01*
D02*
G37*
G36*
X0144288Y0017142D02*
X0144311Y0017136D01*
X0144364Y0017118D01*
X0144393Y0017095D01*
X0144423Y0017071D01*
X0144428Y0017065D01*
X0144434Y001706D01*
X0144464Y0017024D01*
X0144487Y0016972D01*
X0144493Y0016937D01*
X0144499Y0016902D01*
Y0016896D01*
Y0016884D01*
X0144493Y0016867D01*
X0144487Y0016843D01*
X0144469Y0016791D01*
X0144446Y0016761D01*
X0144423Y0016732D01*
X0144417D01*
X0144411Y001672D01*
X0144376Y0016697D01*
X0144323Y0016673D01*
X0144288Y0016668D01*
X0144253Y0016662D01*
X0144235D01*
X0144218Y0016668D01*
X0144194Y0016673D01*
X0144136Y0016691D01*
X0144107Y0016709D01*
X0144077Y0016732D01*
Y0016738D01*
X0144066Y0016744D01*
X0144042Y0016779D01*
X0144019Y0016831D01*
X0144013Y0016867D01*
X0144007Y0016902D01*
Y0016907D01*
Y0016919D01*
X0144013Y0016937D01*
X0144019Y001696D01*
X0144036Y0017013D01*
X0144054Y0017042D01*
X0144077Y0017071D01*
X0144083Y0017077D01*
X0144089Y0017083D01*
X0144107Y0017095D01*
X014413Y0017112D01*
X0144183Y0017136D01*
X0144218Y0017142D01*
X0144253Y0017147D01*
X0144271D01*
X0144288Y0017142D01*
D02*
G37*
G36*
X014258Y0017218D02*
X0142615Y0017206D01*
X0142656Y0017177D01*
X0142697Y0017136D01*
X014272Y0017106D01*
X0142744Y0017071D01*
X0142767Y001703D01*
X0142785Y0016984D01*
X0142808Y0016931D01*
X0142825Y0016867D01*
Y0016861D01*
X0142831Y0016843D01*
X0142837Y0016808D01*
X0142849Y0016761D01*
X0142861Y0016697D01*
X0142872Y0016609D01*
X014289Y0016504D01*
X0142902Y0016445D01*
X0142907Y0016375D01*
Y0016363D01*
X0142913Y0016334D01*
X0142919Y0016282D01*
X0142931Y0016217D01*
X0142943Y0016135D01*
X0142954Y0016042D01*
X0142972Y0015936D01*
X0142989Y0015819D01*
X0143013Y0015691D01*
X0143036Y0015562D01*
X0143089Y0015293D01*
X0143147Y0015018D01*
X0143176Y0014883D01*
X0143212Y0014755D01*
X0143317Y0014392D01*
Y0014386D01*
X0143323Y001438D01*
X0143329Y0014345D01*
X014334Y0014298D01*
X0143358Y001424D01*
X0143376Y0014181D01*
X0143387Y0014123D01*
X0143393Y0014076D01*
X0143399Y0014041D01*
Y0014035D01*
Y0014029D01*
X0143393Y0013988D01*
X014337Y0013941D01*
X0143352Y0013918D01*
X0143329Y0013895D01*
X0143323D01*
X0143317Y0013883D01*
X0143282Y0013866D01*
X0143235Y0013842D01*
X0143206Y0013836D01*
X0143176Y001383D01*
X0143159D01*
X0143136Y0013836D01*
X0143112Y0013848D01*
X0143077Y001386D01*
X0143048Y0013877D01*
X0143019Y0013906D01*
X0142989Y0013947D01*
Y0013953D01*
X0142978Y0013965D01*
X0142966Y0013994D01*
X0142948Y0014029D01*
X0142931Y001407D01*
X0142913Y0014129D01*
X014289Y0014199D01*
X0142872Y0014281D01*
X0142802Y0014638D01*
Y0014643D01*
X0142796Y0014655D01*
X014279Y0014679D01*
X0142785Y0014708D01*
X0142779Y0014749D01*
X0142767Y0014807D01*
X014275Y0014872D01*
X0142738Y0014948D01*
X0142714Y0015041D01*
X0142697Y0015147D01*
X0142674Y001527D01*
X014265Y0015404D01*
X0142621Y0015556D01*
X0142592Y0015726D01*
X0142562Y0015913D01*
X0142527Y0016118D01*
X0142106Y0014854D01*
X0141983Y0014456D01*
X0141977Y0014445D01*
X0141972Y0014415D01*
X0141954Y0014374D01*
X0141936Y0014322D01*
X0141913Y0014257D01*
X0141884Y0014193D01*
X0141854Y0014129D01*
X0141825Y001407D01*
X0141819Y0014064D01*
X0141808Y0014047D01*
X014179Y0014017D01*
X0141761Y0013994D01*
X0141732Y0013965D01*
X0141691Y0013936D01*
X0141644Y0013918D01*
X0141591Y0013912D01*
X0141574D01*
X014155Y0013918D01*
X0141521Y001393D01*
X0141492Y0013947D01*
X0141457Y0013971D01*
X0141422Y0014D01*
X0141392Y0014047D01*
Y0014053D01*
X0141386Y0014064D01*
X0141375Y0014082D01*
X0141363Y0014105D01*
X0141351Y001414D01*
X014134Y0014175D01*
X014131Y0014269D01*
X0141252Y0014503D01*
Y0014509D01*
X014124Y0014538D01*
X0141234Y0014579D01*
X0141217Y0014632D01*
X0141199Y0014702D01*
X0141176Y0014784D01*
X0141152Y0014872D01*
X0141129Y0014977D01*
X01411Y0015094D01*
X0141071Y0015217D01*
X0141035Y0015346D01*
X0141006Y0015486D01*
X0140971Y0015626D01*
X0140942Y0015778D01*
X0140877Y0016089D01*
X0140801Y0015708D01*
X0140526Y0014603D01*
Y0014591D01*
X0140521Y0014567D01*
Y0014521D01*
X0140509Y0014456D01*
X0140497Y001438D01*
X014048Y0014281D01*
X0140451Y0014164D01*
X0140421Y0014029D01*
Y0014023D01*
X014041Y0014006D01*
X0140398Y0013977D01*
X0140374Y0013947D01*
X0140345Y0013918D01*
X014031Y0013889D01*
X0140269Y0013871D01*
X0140217Y0013866D01*
X0140199D01*
X0140181Y0013871D01*
X0140158Y0013877D01*
X0140105Y0013901D01*
X0140076Y0013918D01*
X0140053Y0013941D01*
X0140047Y0013953D01*
X0140029Y0013983D01*
X0140006Y0014029D01*
X014Y0014094D01*
Y0014099D01*
Y0014111D01*
Y0014129D01*
Y0014158D01*
X0140006Y0014193D01*
Y0014234D01*
X0140012Y0014281D01*
X0140018Y0014333D01*
X0140023Y0014392D01*
X0140035Y0014456D01*
X0140059Y0014603D01*
X0140094Y0014772D01*
X014014Y0014954D01*
X0140374Y0015796D01*
X0140497Y0016457D01*
Y0016463D01*
X0140503Y0016475D01*
X0140509Y0016498D01*
X0140515Y0016533D01*
X0140521Y0016568D01*
X0140532Y0016609D01*
X0140556Y0016709D01*
X0140585Y0016808D01*
X014062Y0016907D01*
X0140655Y0016995D01*
X0140673Y0017036D01*
X014069Y0017065D01*
X0140696Y0017071D01*
X0140708Y0017083D01*
X0140725Y0017106D01*
X0140749Y001713D01*
X0140819Y0017171D01*
X0140854Y0017182D01*
X0140901Y0017188D01*
X0140924D01*
X0140948Y0017182D01*
X0140977Y0017171D01*
X0141012Y0017147D01*
X0141047Y0017124D01*
X0141076Y0017083D01*
X0141106Y001703D01*
X0141112Y0017019D01*
X0141117Y0016995D01*
X0141129Y0016972D01*
X0141135Y0016942D01*
X0141147Y0016907D01*
X0141158Y0016867D01*
X014117Y001682D01*
X0141188Y0016761D01*
X0141199Y0016703D01*
X0141217Y0016633D01*
X0141228Y0016551D01*
X0141246Y0016469D01*
X0141264Y0016375D01*
X0141281Y001627D01*
Y0016264D01*
X0141287Y001624D01*
X0141293Y00162D01*
X0141305Y0016147D01*
X0141316Y0016083D01*
X0141328Y0016006D01*
X0141346Y0015925D01*
X0141369Y0015825D01*
X0141386Y001572D01*
X0141416Y0015603D01*
X0141445Y001548D01*
X0141474Y0015351D01*
X0141509Y0015211D01*
X0141544Y0015071D01*
X0141626Y0014778D01*
X0141632Y001479D01*
X0141638Y0014813D01*
X0141656Y001486D01*
X0141679Y0014919D01*
X0141708Y0014995D01*
X0141737Y0015082D01*
X0141773Y0015182D01*
X0141808Y0015293D01*
X0141849Y001541D01*
X0141895Y0015544D01*
X0141936Y0015679D01*
X0141983Y0015825D01*
X014203Y0015977D01*
X0142077Y0016135D01*
X0142165Y0016457D01*
X0142229Y0016761D01*
Y0016767D01*
X0142235Y0016791D01*
X0142246Y0016826D01*
X0142252Y0016867D01*
X0142287Y0016966D01*
X0142305Y0017013D01*
X0142328Y001706D01*
X0142334Y0017065D01*
X0142346Y0017083D01*
X0142363Y0017112D01*
X0142387Y0017142D01*
X0142416Y0017171D01*
X0142457Y00172D01*
X0142504Y0017218D01*
X0142551Y0017223D01*
X0142556D01*
X014258Y0017218D01*
D02*
G37*
G36*
X015249Y001737D02*
X0152519Y0017364D01*
X015256Y0017352D01*
X0152601Y0017323D01*
X015263Y0017288D01*
X0152654Y0017235D01*
X0152665Y0017165D01*
Y0017159D01*
Y0017147D01*
Y001713D01*
Y0017106D01*
Y0017077D01*
Y0017036D01*
Y0016942D01*
Y0016831D01*
X0152659Y0016703D01*
Y0016562D01*
X0152654Y0016404D01*
Y0016398D01*
Y0016387D01*
Y0016363D01*
Y0016334D01*
Y0016293D01*
X0152648Y0016252D01*
Y0016153D01*
Y001603D01*
X0152642Y0015907D01*
Y0015778D01*
Y001565D01*
X0152607Y0014603D01*
Y0014597D01*
Y0014573D01*
Y0014532D01*
Y001448D01*
Y001441D01*
X0152601Y0014328D01*
Y0014228D01*
X0152595Y0014117D01*
Y0014111D01*
X0152589Y0014088D01*
X0152577Y0014053D01*
X015256Y0014017D01*
X0152537Y0013977D01*
X0152501Y0013947D01*
X0152449Y0013924D01*
X015239Y0013912D01*
X0152384D01*
X0152361Y0013918D01*
X0152326Y0013924D01*
X0152291Y0013941D01*
X015225Y0013965D01*
X0152221Y0014D01*
X0152197Y0014053D01*
X0152185Y0014123D01*
Y0014129D01*
Y0014134D01*
Y0014152D01*
Y001417D01*
Y0014199D01*
Y0014228D01*
Y0014269D01*
Y001431D01*
X0152191Y0014363D01*
Y0014421D01*
Y001448D01*
Y001455D01*
X0152197Y0014626D01*
Y0014702D01*
X0152203Y001479D01*
Y0014883D01*
Y0014889D01*
Y0014907D01*
Y001493D01*
X0152209Y0014965D01*
Y0015012D01*
Y0015059D01*
X0152215Y001517D01*
X0152221Y0015293D01*
Y0015421D01*
X0152226Y0015544D01*
Y0015597D01*
Y001565D01*
Y0015655D01*
Y0015667D01*
Y0015685D01*
Y0015708D01*
Y0015737D01*
Y0015778D01*
Y0015866D01*
X0152232Y0015977D01*
Y0016106D01*
Y0016252D01*
X0152238Y0016404D01*
Y001641D01*
Y0016422D01*
Y0016445D01*
Y0016475D01*
Y0016515D01*
X0152244Y0016556D01*
Y0016662D01*
Y0016779D01*
X015225Y0016907D01*
Y0017036D01*
Y0017165D01*
Y0017177D01*
X0152256Y00172D01*
X0152262Y0017229D01*
X0152273Y001727D01*
X0152303Y0017311D01*
X0152338Y001734D01*
X0152384Y0017364D01*
X0152455Y0017376D01*
X0152466D01*
X015249Y001737D01*
D02*
G37*
G36*
X0144241Y0016147D02*
X0144288Y0016124D01*
X0144311Y0016112D01*
X0144335Y0016089D01*
X0144347Y0016077D01*
X0144364Y0016048D01*
X0144382Y0016001D01*
X0144393Y0015936D01*
Y0015925D01*
Y0015901D01*
Y001586D01*
Y0015802D01*
X0144387Y0015726D01*
X0144382Y0015644D01*
X0144376Y0015544D01*
X014437Y0015439D01*
Y0015433D01*
Y0015427D01*
Y0015392D01*
X0144364Y0015334D01*
Y001527D01*
X0144358Y0015193D01*
Y0015112D01*
X0144352Y001503D01*
Y0014954D01*
Y0014948D01*
Y001493D01*
Y0014901D01*
Y001486D01*
Y0014801D01*
Y0014737D01*
X0144358Y0014661D01*
Y0014573D01*
Y0014562D01*
Y0014532D01*
Y0014486D01*
X0144364Y0014433D01*
Y0014368D01*
Y0014304D01*
Y0014246D01*
Y0014193D01*
Y0014187D01*
Y0014181D01*
X0144358Y001414D01*
X0144341Y0014094D01*
X0144306Y0014047D01*
X0144294Y0014035D01*
X0144265Y0014017D01*
X0144218Y0014D01*
X0144159Y0013988D01*
X0144142D01*
X0144107Y0013994D01*
X0144054Y0014012D01*
X0144007Y0014047D01*
X0144001Y0014059D01*
X0143984Y0014088D01*
X014396Y0014134D01*
X0143955Y0014193D01*
Y0014199D01*
Y0014217D01*
Y0014246D01*
Y0014287D01*
Y0014345D01*
Y001441D01*
X0143949Y0014486D01*
Y0014573D01*
Y0014579D01*
Y0014585D01*
Y0014614D01*
Y0014661D01*
Y0014714D01*
X0143943Y0014778D01*
Y0014842D01*
Y0014901D01*
Y0014954D01*
Y0014965D01*
Y0014989D01*
Y001503D01*
Y0015088D01*
X0143949Y0015158D01*
Y001524D01*
X0143955Y0015334D01*
X014396Y0015439D01*
Y0015445D01*
Y0015451D01*
X0143966Y0015492D01*
Y0015544D01*
X0143972Y0015615D01*
X0143978Y0015691D01*
Y0015773D01*
X0143984Y001586D01*
Y0015936D01*
Y0015942D01*
Y0015954D01*
X014399Y0015989D01*
X0144007Y0016042D01*
X0144036Y0016089D01*
Y0016094D01*
X0144048Y00161D01*
X0144077Y0016124D01*
X0144124Y0016141D01*
X0144153Y0016153D01*
X0144206D01*
X0144241Y0016147D01*
D02*
G37*
G36*
X0129401Y0014536D02*
X0129366Y0014525D01*
X0129302Y0014635D01*
X0129289Y001465D01*
X0129351Y0014674D01*
X0129401Y0014536D01*
D02*
G37*
G36*
X0108392Y0013985D02*
X0108432Y0013975D01*
X010854Y0013936D01*
X0108609Y0013906D01*
X0108678Y0013857D01*
X0108737Y0013798D01*
X0108806Y0013729D01*
X0108865Y0013641D01*
X0108914Y0013533D01*
X0108953Y0013405D01*
X0108993Y0013257D01*
X0109012Y001309D01*
X0109022Y0012893D01*
Y0012873D01*
Y0012834D01*
Y0012755D01*
Y0012657D01*
Y0012647D01*
Y0012627D01*
Y0012568D01*
Y0012489D01*
Y0012421D01*
Y0012401D01*
Y0012342D01*
Y0012263D01*
X0109032Y0012155D01*
X0109042Y0012037D01*
X0109052Y0011899D01*
X0109071Y0011771D01*
X0109091Y0011643D01*
Y0011633D01*
X0109101Y0011624D01*
X0109111Y0011565D01*
X010914Y0011476D01*
X0109189Y0011378D01*
X0109239Y0011279D01*
X0109307Y0011191D01*
X0109396Y0011132D01*
X0109445Y0011122D01*
X0109494Y0011112D01*
X0109524D01*
X0109544Y0011122D01*
X0109583D01*
X0109681Y0011151D01*
X0109809Y001121D01*
X0109878Y001125D01*
X0109947Y0011299D01*
X0110016Y0011358D01*
X0110085Y0011437D01*
X0110144Y0011525D01*
X0110213Y0011624D01*
X0110272Y0011742D01*
X0110321Y0011879D01*
Y0011889D01*
X0110331Y0011899D01*
X0110341Y0011938D01*
X011035Y0011978D01*
X011036Y0012027D01*
X011038Y0012086D01*
X0110409Y0012234D01*
X0110439Y0012421D01*
X0110468Y0012637D01*
X0110488Y0012883D01*
X0110498Y0013149D01*
Y0013159D01*
Y0013198D01*
X0110508Y0013247D01*
X0110518Y0013306D01*
X0110547Y0013375D01*
X0110577Y0013454D01*
X0110626Y0013533D01*
X0110685Y0013601D01*
X0110695Y0013611D01*
X0110714Y0013631D01*
X0110754Y001366D01*
X0110813Y00137D01*
X0110872Y0013729D01*
X0110951Y0013759D01*
X0111039Y0013779D01*
X0111128Y0013788D01*
X0111167D01*
X0111216Y0013779D01*
X0111275Y0013769D01*
X0111344Y0013749D01*
X0111423Y001372D01*
X0111492Y001368D01*
X0111561Y0013621D01*
X0111571Y0013611D01*
X011159Y0013592D01*
X011162Y0013552D01*
X0111649Y0013503D01*
X0111689Y0013444D01*
X0111718Y0013375D01*
X0111748Y0013287D01*
X0111767Y0013198D01*
X0111817D01*
Y0012893D01*
X0111767D01*
Y0012489D01*
Y001248D01*
Y001245D01*
Y0012401D01*
Y0012332D01*
X0111777Y0012244D01*
Y0012155D01*
X0111787Y0012047D01*
X0111797Y0011929D01*
X0111817Y0011673D01*
X0111846Y0011407D01*
X0111895Y0011141D01*
X0111964Y0010895D01*
Y0010886D01*
X0111974Y0010866D01*
X0111994Y0010807D01*
X0112004Y0010738D01*
X0112013Y0010679D01*
Y0010669D01*
Y001064D01*
X0112004Y0010581D01*
X0111994Y0010521D01*
X0111964Y0010453D01*
X0111935Y0010374D01*
X0111885Y0010295D01*
X0111817Y0010226D01*
X0111807Y0010216D01*
X0111787Y0010197D01*
X0111748Y0010167D01*
X0111689Y0010138D01*
X011162Y0010098D01*
X0111551Y0010069D01*
X0111462Y0010049D01*
X0111364Y0010039D01*
X0111344D01*
X0111305Y0010049D01*
X0111236Y0010059D01*
X0111157Y0010079D01*
X0111059Y0010128D01*
X011097Y0010187D01*
X0110882Y0010266D01*
X0110803Y0010384D01*
X0110793Y0010374D01*
X0110774Y0010364D01*
X0110744Y0010335D01*
X0110695Y0010295D01*
X0110636Y0010256D01*
X0110567Y0010207D01*
X0110488Y0010148D01*
X0110409Y0010098D01*
X0110203Y000999D01*
X0109986Y0009902D01*
X0109858Y0009862D01*
X010974Y0009843D01*
X0109603Y0009823D01*
X0109475Y0009813D01*
X0109416D01*
X0109347Y0009823D01*
X0109258Y0009843D01*
X010915Y0009882D01*
X0109032Y0009921D01*
X0108894Y000999D01*
X0108756Y0010079D01*
X0108609Y0010187D01*
X0108471Y0010325D01*
X0108323Y0010492D01*
X0108195Y0010689D01*
X0108127Y0010807D01*
X0108068Y0010935D01*
X0108009Y0011063D01*
X0107959Y001121D01*
X010791Y0011368D01*
X0107861Y0011535D01*
X0107822Y0011712D01*
X0107792Y0011899D01*
Y0011909D01*
Y0011929D01*
X0107782Y0011958D01*
X0107772Y0012007D01*
Y0012066D01*
X0107763Y0012135D01*
X0107753Y0012224D01*
X0107743Y0012312D01*
X0107723Y0012529D01*
X0107713Y0012775D01*
X0107694Y001305D01*
Y0013346D01*
Y0013355D01*
Y0013395D01*
X0107703Y0013444D01*
X0107713Y0013503D01*
X0107733Y0013582D01*
X0107772Y001366D01*
X0107812Y0013739D01*
X0107871Y0013808D01*
X0107881Y0013818D01*
X01079Y0013838D01*
X010794Y0013867D01*
X0107999Y0013906D01*
X0108068Y0013936D01*
X0108136Y0013965D01*
X0108225Y0013985D01*
X0108323Y0013995D01*
X0108353D01*
X0108392Y0013985D01*
D02*
G37*
G36*
X0098354Y0015147D02*
X0098395Y0015205D01*
Y0015123D01*
X0098355Y0015114D01*
X0098354Y0015147D01*
X0098326Y0015107D01*
X0098355Y0015114D01*
X0098355Y0015107D01*
X0098395D01*
Y0015123D01*
X009891Y0015239D01*
X0098916Y0015235D01*
X0098946Y0015195D01*
X0098995Y0015136D01*
X0099034Y0015068D01*
X0099064Y0014989D01*
X0099093Y001489D01*
X0099103Y0014782D01*
Y0014763D01*
X0099093Y0014723D01*
X0099074Y0014654D01*
X0099044Y0014576D01*
X0098975Y0014497D01*
X0098887Y0014408D01*
X0098828Y0014359D01*
X0098759Y001432D01*
X009868Y001428D01*
X0098592Y0014251D01*
X0098621Y0014143D01*
X0098611D01*
X0098562Y0014133D01*
X0098493Y0014123D01*
X0098395Y0014103D01*
X0098267Y0014093D01*
X0098119Y0014074D01*
X0097942Y0014064D01*
X0097736D01*
Y0014054D01*
X0097745Y0014015D01*
X0097755Y0013946D01*
X0097765Y0013867D01*
X0097785Y0013769D01*
X0097795Y001366D01*
X0097834Y0013434D01*
X0097873Y0013198D01*
X0097883Y001309D01*
X0097903Y0013001D01*
X0097913Y0012913D01*
X0097922Y0012854D01*
X0097932Y0012814D01*
Y0012795D01*
Y0012785D01*
Y0012765D01*
X0097942Y0012726D01*
X0097952Y0012676D01*
Y0012608D01*
X0097962Y0012539D01*
X0097982Y0012362D01*
X0098001Y0012165D01*
X0098011Y0011948D01*
X0098031Y0011732D01*
Y0011584D01*
X0098149Y0011574D01*
X0098306Y0011565D01*
X0098418Y0011551D01*
X0098365Y0011545D01*
X0098316Y0011535D01*
X0098296D01*
X0098051Y0011517D01*
X0098031Y0011525D01*
Y0011584D01*
X0097942Y0011594D01*
X0097863D01*
X0098031Y0011525D01*
Y0011515D01*
X0098051Y0011517D01*
X0098749Y001123D01*
X0098825Y0011476D01*
X009867Y0011506D01*
X0098474Y0011545D01*
X0098418Y0011551D01*
X0098444Y0011555D01*
X0098542Y0011565D01*
X0098601D01*
X0098631Y0011555D01*
X0098729Y0011545D01*
X0098838Y0011515D01*
X0098828Y0011486D01*
X0098825Y0011476D01*
X0098877Y0011466D01*
X0098887D01*
X0098906Y0011456D01*
X0098936D01*
X0098966Y0011437D01*
X0099064Y0011407D01*
X0099172Y0011348D01*
X009928Y0011269D01*
X0099379Y0011181D01*
X0099408Y0011122D01*
X0099438Y0011053D01*
X0099458Y0010984D01*
X0099467Y0010905D01*
Y0010886D01*
Y0010836D01*
X0099458Y0010768D01*
X0099438Y0010679D01*
X0099398Y001059D01*
X0099359Y0010492D01*
X009929Y0010413D01*
X0099202Y0010344D01*
X0099192D01*
X0099172Y0010335D01*
X0099123Y0010325D01*
X0099054Y0010305D01*
X0098966Y0010285D01*
X0098828Y0010266D01*
X0098759Y0010256D01*
X009867Y0010246D01*
X0098572Y0010236D01*
X0098464Y0010226D01*
X0098434D01*
X0098395Y0010216D01*
X0098346D01*
X0098228Y0010207D01*
X009809Y0010197D01*
X0097942Y0010177D01*
X0097814Y0010167D01*
X0097755D01*
X0097706Y0010157D01*
X0097667Y0010148D01*
X0097637D01*
X0096584Y0009951D01*
X0096565D01*
X0096535Y0009941D01*
X0096496Y0009931D01*
X0096397Y0009921D01*
X0096269Y0009902D01*
X0096122Y0009882D01*
X0095964Y0009862D01*
X0095807Y0009852D01*
X0095659Y0009843D01*
X009564D01*
X0095581Y0009852D01*
X0095502Y0009872D01*
X0095403Y0009911D01*
X0095394D01*
X0095374Y0009931D01*
X0095344Y0009941D01*
X0095305Y0009971D01*
X0095289Y0009984D01*
X0095354Y0009951D01*
X0095413Y0009921D01*
X0095561Y0010177D01*
X0095433Y0010246D01*
X0095277Y0009993D01*
X0095289Y0009984D01*
X0095275Y000999D01*
X0095277Y0009993D01*
X0095207Y0010049D01*
X0095118Y0010148D01*
Y0010157D01*
X0095098Y0010177D01*
X0095079Y0010207D01*
X0095059Y0010256D01*
X009502Y0010374D01*
X009501Y0010443D01*
X0095Y0010512D01*
Y0010521D01*
Y0010531D01*
X009501Y001059D01*
X0095039Y0010669D01*
X0095089Y0010768D01*
X0095118Y0010827D01*
X0095167Y0010876D01*
X0095217Y0010925D01*
X0095285Y0010984D01*
X0095364Y0011033D01*
X0095453Y0011073D01*
X0095561Y0011112D01*
X0095679Y0011151D01*
X0095689D01*
X0095709Y0011161D01*
X0095758Y0011171D01*
X0095797D01*
X0095846Y0011181D01*
X0095905Y0011191D01*
X0095974Y0011201D01*
X0096063Y001121D01*
X0096161Y001122D01*
X0096279Y001123D01*
X0096407Y001125D01*
X0096565Y0011259D01*
X0096732Y0011279D01*
Y0011289D01*
Y0011309D01*
Y0011338D01*
Y0011378D01*
Y0011427D01*
Y0011496D01*
X0096722Y0011653D01*
X0096712Y001184D01*
X0096693Y0012057D01*
X0096663Y0012293D01*
X0096633Y0012549D01*
X0096437Y0013916D01*
X0095827Y0013867D01*
X0095679D01*
X009562Y0013877D01*
X0095551Y0013887D01*
X0095472Y0013906D01*
X0095384Y0013936D01*
X0095305Y0013975D01*
X0095236Y0014034D01*
X0095226Y0014044D01*
X0095207Y0014064D01*
X0095187Y0014103D01*
X0095157Y0014162D01*
X0095118Y0014231D01*
X0095098Y001432D01*
X0095079Y0014418D01*
X0095069Y0014526D01*
Y0014536D01*
Y0014566D01*
X0095079Y0014605D01*
X0095089Y0014664D01*
X0095128Y0014792D01*
X0095157Y0014851D01*
X0095207Y001492D01*
X0095217Y001493D01*
X0095236Y001495D01*
X0095266Y0014979D01*
X0095305Y0015018D01*
X0095364Y0015058D01*
X0095423Y0015087D01*
X0095492Y0015127D01*
X0095571Y0015146D01*
X00956D01*
X009564Y0015156D01*
X0095689Y0015166D01*
X0095758D01*
X0095836Y0015176D01*
X0095915Y0015195D01*
X0096013Y0015205D01*
X009623Y0015235D01*
X0096466Y0015264D01*
X0096722Y0015294D01*
X0096978Y0015333D01*
X0097017D01*
X0097057Y0015343D01*
X0097116D01*
X0097184Y0015353D01*
X0097263Y0015363D01*
X0097362Y0015373D01*
X009746Y0015382D01*
X0097676Y0015392D01*
X0097913Y0015412D01*
X0098159Y0015422D01*
X0098346D01*
X0098354Y0015147D01*
D02*
G37*
G36*
X0133592Y0013621D02*
X0133701Y0013611D01*
X0133819Y0013601D01*
X0133957Y0013572D01*
X0134104Y0013542D01*
X0134262Y0013493D01*
X0134409Y0013434D01*
X0134557Y0013365D01*
X0134695Y0013277D01*
X0134813Y0013169D01*
X0134921Y0013041D01*
X0135Y0012903D01*
X0135049Y0012735D01*
X0135069Y0012539D01*
Y0012529D01*
Y0012519D01*
Y0012489D01*
X0135059Y001245D01*
X0135039Y0012352D01*
X013499Y0012224D01*
X0134911Y0012076D01*
X0134862Y0011998D01*
X0134803Y0011909D01*
X0134724Y001183D01*
X0134635Y0011751D01*
X0134537Y0011663D01*
X0134429Y0011584D01*
X0134419Y0011574D01*
X0134389Y0011555D01*
X013435Y0011525D01*
X0134291Y0011486D01*
X0134222Y0011446D01*
X0134143Y0011387D01*
X0133976Y0011269D01*
X0133809Y0011151D01*
X0133642Y0011033D01*
X0133573Y0010974D01*
X0133514Y0010925D01*
X0133474Y0010886D01*
X0133445Y0010856D01*
X0135265Y0010964D01*
X0135393Y0010029D01*
X0131831Y0009843D01*
Y0009862D01*
X0131821Y0009902D01*
X0131811Y0009971D01*
X0131802Y0010059D01*
X0131772Y0010246D01*
X0131762Y0010335D01*
Y0010413D01*
Y0010423D01*
Y0010433D01*
Y0010463D01*
X0131772Y0010502D01*
X0131782Y00106D01*
X0131821Y0010728D01*
X013187Y0010876D01*
X0131949Y0011043D01*
X0132057Y001121D01*
X0132126Y0011289D01*
X0132205Y0011368D01*
X0132225Y0011387D01*
X0132264Y0011417D01*
X0132333Y0011466D01*
X0132372Y0011496D01*
X0132431Y0011545D01*
X01325Y0011594D01*
X0132579Y0011643D01*
X0132668Y0011712D01*
X0132766Y0011791D01*
X0132884Y001187D01*
X0133022Y0011968D01*
X0133032D01*
X0133041Y0011978D01*
X0133091Y0012017D01*
X0133169Y0012086D01*
X0133248Y0012155D01*
X0133327Y0012244D01*
X0133405Y0012342D01*
X0133455Y001245D01*
X0133474Y0012499D01*
Y0012549D01*
Y0012558D01*
Y0012578D01*
X0133465Y0012608D01*
X0133445Y0012647D01*
X0133405Y0012686D01*
X0133366Y0012716D01*
X0133297Y0012735D01*
X0133209Y0012745D01*
X0133189D01*
X013313Y0012735D01*
X0133081Y0012706D01*
X0133061Y0012686D01*
X0133051Y0012657D01*
Y0012647D01*
Y0012627D01*
X0133061Y0012598D01*
Y0012539D01*
X0133071Y001246D01*
X0133091Y0012362D01*
X013311Y0012234D01*
X013314Y0012086D01*
X0131615Y0012007D01*
Y0012027D01*
X0131605Y0012076D01*
X0131595Y0012145D01*
X0131585Y0012234D01*
X0131556Y0012431D01*
X0131546Y0012519D01*
Y0012588D01*
Y0012598D01*
Y0012617D01*
Y0012647D01*
X0131556Y0012686D01*
X0131585Y0012785D01*
X0131634Y0012913D01*
X0131664Y0012981D01*
X0131713Y001306D01*
X0131772Y0013129D01*
X0131841Y0013198D01*
X013192Y0013267D01*
X0132008Y0013336D01*
X0132116Y0013395D01*
X0132235Y0013444D01*
X0132244D01*
X0132254Y0013454D01*
X0132284Y0013464D01*
X0132323Y0013474D01*
X0132372Y0013483D01*
X0132431Y0013503D01*
X0132569Y0013542D01*
X0132746Y0013572D01*
X0132953Y0013601D01*
X0133189Y0013621D01*
X0133445Y0013631D01*
X0133514D01*
X0133592Y0013621D01*
D02*
G37*
G36*
X0121046Y0013798D02*
X0121106Y0013788D01*
X0121233Y0013749D01*
X0121292Y001372D01*
X0121361Y001367D01*
X0121371Y001366D01*
X0121391Y0013651D01*
X012142Y0013621D01*
X012146Y0013582D01*
X0121499Y0013533D01*
X0121529Y0013474D01*
X0121568Y0013405D01*
X0121588Y0013326D01*
X0121302Y0013237D01*
X0121598Y0013306D01*
Y0013267D01*
X0121343Y0013197D01*
X0121361Y0013178D01*
X0121381Y0013139D01*
X0121411Y00131D01*
X012144Y0013041D01*
X012146Y0012972D01*
X0121489Y0012893D01*
X0121519Y0012795D01*
X0121548Y0012686D01*
X0121578Y0012558D01*
X0121607Y0012411D01*
X0121637Y0012253D01*
X0121657Y0012066D01*
Y0012057D01*
Y0012037D01*
X0121666Y0011998D01*
Y0011948D01*
X0121676Y0011889D01*
X0121686Y001182D01*
X0121706Y0011653D01*
X0121716Y0011446D01*
X0121735Y001123D01*
X0121745Y0010994D01*
Y0010758D01*
Y0010748D01*
Y0010718D01*
Y0010669D01*
X0121735Y001062D01*
X0121725Y0010541D01*
X0121716Y0010472D01*
X0121666Y0010305D01*
X0121588Y0010128D01*
X0121538Y0010059D01*
X012147Y000999D01*
X0121401Y0009931D01*
X0121312Y0009882D01*
X0121214Y0009852D01*
X0121096Y0009843D01*
X0121046D01*
X0120987Y0009852D01*
X0120919Y0009872D01*
X012085Y0009892D01*
X0120771Y0009931D01*
X0120692Y000998D01*
X0120623Y0010049D01*
X0120614Y0010059D01*
X0120604Y0010089D01*
X0120574Y0010128D01*
X0120554Y0010187D01*
X0120525Y0010256D01*
X0120495Y0010344D01*
X0120486Y0010443D01*
X0120476Y0010551D01*
Y0011761D01*
Y0011771D01*
Y0011811D01*
Y001187D01*
X0120466Y0011958D01*
X0120456Y0012076D01*
X0120446Y0012234D01*
X0120427Y0012421D01*
X0120407Y0012529D01*
X0120397Y0012647D01*
Y0012657D01*
X0120387Y0012706D01*
X0120377Y0012765D01*
Y0012834D01*
X0120358Y0013011D01*
X0120348Y00131D01*
Y0013178D01*
Y0013188D01*
Y0013218D01*
X0120358Y0013267D01*
X0120368Y0013326D01*
X0120387Y0013395D01*
X0120427Y0013474D01*
X0120466Y0013552D01*
X0120525Y0013621D01*
X0120535Y0013631D01*
X0120554Y0013651D01*
X0120594Y001368D01*
X0120653Y001372D01*
X0120712Y0013749D01*
X0120791Y0013779D01*
X0120879Y0013798D01*
X0120968Y0013808D01*
X0121007D01*
X0121046Y0013798D01*
D02*
G37*
G36*
X0124176Y0013965D02*
X0124274Y0013956D01*
X0124392Y0013926D01*
X012453Y0013897D01*
X0124658Y0013847D01*
X0124795Y0013779D01*
X0124805D01*
X0124815Y0013769D01*
X0124864Y0013739D01*
X0124933Y001368D01*
X0125012Y0013611D01*
X0125091Y0013513D01*
X012516Y0013405D01*
X0125209Y0013287D01*
X0125229Y0013218D01*
Y0013149D01*
Y0013139D01*
Y0013109D01*
X0125219Y001306D01*
X0125209Y0013011D01*
X0125189Y0012942D01*
X012515Y0012873D01*
X0125145Y0012864D01*
X012515Y0012863D01*
X0125238Y0012844D01*
X0125337Y0012804D01*
X0125465Y0012745D01*
X0125593Y0012657D01*
X0125661Y0012598D01*
X012573Y0012529D01*
X0125789Y001244D01*
X0125858Y0012352D01*
Y0012342D01*
X0125868Y0012332D01*
X0125907Y0012273D01*
X0125957Y0012184D01*
X0126016Y0012066D01*
X0126065Y0011938D01*
X0126114Y0011791D01*
X0126153Y0011633D01*
X0126163Y0011476D01*
Y0011466D01*
Y0011446D01*
Y0011397D01*
X0126153Y0011348D01*
X0126144Y0011279D01*
X0126124Y001121D01*
X0126075Y0011033D01*
X0126035Y0010935D01*
X0125986Y0010836D01*
X0125927Y0010728D01*
X0125848Y001063D01*
X012577Y0010521D01*
X0125671Y0010423D01*
X0125553Y0010325D01*
X0125425Y0010236D01*
X0125415D01*
X0125396Y0010216D01*
X0125366Y0010197D01*
X0125317Y0010177D01*
X0125258Y0010148D01*
X0125189Y0010108D01*
X012511Y0010079D01*
X0125012Y0010039D01*
X0124805Y0009971D01*
X0124579Y0009902D01*
X0124313Y0009862D01*
X0124038Y0009843D01*
X0123949D01*
X012389Y0009852D01*
X0123821Y0009862D01*
X0123733Y0009872D01*
X0123634Y0009882D01*
X0123526Y0009902D01*
X012329Y0009961D01*
X0123044Y0010059D01*
X0122926Y0010108D01*
X0122798Y0010177D01*
X012268Y0010256D01*
X0122562Y0010344D01*
X0122552Y0010354D01*
X0122532Y0010374D01*
X0122503Y0010403D01*
X0122463Y0010443D01*
X0122414Y0010492D01*
X0122355Y0010561D01*
X0122306Y001063D01*
X0122247Y0010718D01*
X0122178Y0010817D01*
X0122129Y0010915D01*
X0122021Y0011151D01*
X0121981Y0011289D01*
X0121952Y0011427D01*
X0121932Y0011574D01*
X0121922Y0011732D01*
Y0011742D01*
Y0011771D01*
Y001182D01*
X0121932Y0011879D01*
X0121942Y0011958D01*
X0121952Y0012047D01*
X0121971Y0012155D01*
X0122001Y0012263D01*
X012207Y0012509D01*
X0122119Y0012637D01*
X0122178Y0012775D01*
X0122247Y0012903D01*
X0122326Y0013041D01*
X0122414Y0013169D01*
X0122522Y0013296D01*
X0122532Y0013306D01*
X0122552Y0013326D01*
X0122582Y0013355D01*
X0122631Y0013405D01*
X012269Y0013454D01*
X0122759Y0013513D01*
X0122847Y0013572D01*
X0122936Y0013641D01*
X0123044Y00137D01*
X0123152Y0013759D01*
X0123408Y0013867D01*
X0123556Y0013916D01*
X0123703Y0013946D01*
X0123851Y0013965D01*
X0124018Y0013975D01*
X0124087D01*
X0124176Y0013965D01*
D02*
G37*
G36*
X0114365Y0013985D02*
X0114434D01*
X0114513Y0013965D01*
X0114709Y0013936D01*
X0114916Y0013877D01*
X0115143Y0013788D01*
X0115251Y0013729D01*
X0115359Y001367D01*
X0115467Y0013592D01*
X0115566Y0013503D01*
X0115575Y0013493D01*
X0115585Y0013483D01*
X0115615Y0013454D01*
X0115644Y0013415D01*
X0115684Y0013365D01*
X0115733Y0013306D01*
X0115782Y0013237D01*
X0115831Y0013159D01*
X011592Y0012972D01*
X0116008Y0012755D01*
X0116067Y0012499D01*
X0116077Y0012352D01*
X0116087Y0012204D01*
Y0012194D01*
Y0012175D01*
Y0012125D01*
X0116077Y0012076D01*
Y0012007D01*
X0116058Y0011929D01*
X0116028Y0011742D01*
X0115969Y0011535D01*
X0115881Y0011299D01*
X0115831Y0011191D01*
X0115762Y0011073D01*
X0115693Y0010954D01*
X0115605Y0010846D01*
X0115595Y0010836D01*
X0115585Y0010817D01*
X0115556Y0010787D01*
X0115516Y0010748D01*
X0115467Y0010708D01*
X0115398Y0010649D01*
X0115251Y0010541D01*
X0115064Y0010433D01*
X0114847Y0010335D01*
X0114729Y0010295D01*
X0114601Y0010266D01*
X0114463Y0010246D01*
X0114326Y0010236D01*
X0114247D01*
X0114168Y0010246D01*
X011406Y0010266D01*
X0113932Y0010285D01*
X0113804Y0010325D01*
X0113666Y0010384D01*
X0113529Y0010453D01*
Y0010167D01*
Y0010157D01*
Y0010138D01*
Y0010108D01*
Y0010059D01*
Y001D01*
X0113519Y0009931D01*
Y0009774D01*
X0113499Y0009587D01*
X0113489Y000937D01*
X011346Y0009144D01*
X011343Y0008918D01*
X0113381Y0008681D01*
X0113332Y0008455D01*
X0113263Y0008239D01*
X0113184Y0008052D01*
X0113086Y0007894D01*
X0113037Y0007825D01*
X0112978Y0007766D01*
X0112919Y0007717D01*
X011285Y0007688D01*
X0112781Y0007668D01*
X0112702Y0007658D01*
X0112653D01*
X0112604Y0007668D01*
X0112545Y0007688D01*
X0112466Y0007707D01*
X0112387Y0007737D01*
X0112309Y0007786D01*
X011223Y0007855D01*
X011222Y0007865D01*
X01122Y0007894D01*
X0112171Y0007934D01*
X0112141Y0007993D01*
X0112102Y0008061D01*
X0112072Y000814D01*
X0112053Y0008229D01*
X0112043Y0008327D01*
Y0008347D01*
Y0008367D01*
Y0008396D01*
Y0008445D01*
X0112053Y0008504D01*
Y0008583D01*
X0112063Y0008681D01*
Y000879D01*
X0112072Y0008927D01*
X0112082Y0009075D01*
X0112102Y0009252D01*
X0112112Y0009459D01*
X0112131Y0009685D01*
X0112151Y0009931D01*
X0112171Y0010216D01*
Y0010226D01*
Y0010236D01*
Y0010266D01*
X0112181Y0010305D01*
Y0010403D01*
X011219Y0010531D01*
X01122Y0010669D01*
Y0010807D01*
X011221Y0010945D01*
Y0011063D01*
Y001307D01*
Y001308D01*
Y0013119D01*
X011222Y0013169D01*
X011223Y0013228D01*
X0112259Y0013296D01*
X0112289Y0013375D01*
X0112338Y0013454D01*
X0112397Y0013533D01*
X0112407Y0013542D01*
X0112436Y0013562D01*
X0112476Y0013592D01*
X0112535Y0013631D01*
X0112604Y001367D01*
X0112682Y00137D01*
X0112771Y001372D01*
X0112869Y0013729D01*
X0112928D01*
X0112968Y001372D01*
X0113056Y00137D01*
X0113165Y0013651D01*
X0113174D01*
X0113184Y001367D01*
X0113243Y001371D01*
X0113342Y0013759D01*
X011346Y0013828D01*
X0113617Y0013887D01*
X0113804Y0013946D01*
X0114001Y0013985D01*
X0114227Y0013995D01*
X0114306D01*
X0114365Y0013985D01*
D02*
G37*
G36*
X0118488D02*
X0118557D01*
X0118636Y0013965D01*
X0118833Y0013936D01*
X0119039Y0013877D01*
X0119265Y0013788D01*
X0119374Y0013729D01*
X0119482Y001367D01*
X011959Y0013592D01*
X0119689Y0013503D01*
X0119698Y0013493D01*
X0119708Y0013483D01*
X0119738Y0013454D01*
X0119767Y0013415D01*
X0119807Y0013365D01*
X0119856Y0013306D01*
X0119905Y0013237D01*
X0119954Y0013159D01*
X0120043Y0012972D01*
X0120131Y0012755D01*
X012019Y0012499D01*
X01202Y0012352D01*
X012021Y0012204D01*
Y0012194D01*
Y0012175D01*
Y0012125D01*
X01202Y0012076D01*
Y0012007D01*
X0120181Y0011929D01*
X0120151Y0011742D01*
X0120092Y0011535D01*
X0120003Y0011299D01*
X0119954Y0011191D01*
X0119885Y0011073D01*
X0119817Y0010954D01*
X0119728Y0010846D01*
X0119718Y0010836D01*
X0119708Y0010817D01*
X0119679Y0010787D01*
X0119639Y0010748D01*
X011959Y0010708D01*
X0119521Y0010649D01*
X0119374Y0010541D01*
X0119187Y0010433D01*
X011897Y0010335D01*
X0118852Y0010295D01*
X0118724Y0010266D01*
X0118587Y0010246D01*
X0118449Y0010236D01*
X011837D01*
X0118291Y0010246D01*
X0118183Y0010266D01*
X0118055Y0010285D01*
X0117927Y0010325D01*
X0117789Y0010384D01*
X0117652Y0010453D01*
Y0010167D01*
Y0010157D01*
Y0010138D01*
Y0010108D01*
Y0010059D01*
Y001D01*
X0117642Y0009931D01*
Y0009774D01*
X0117622Y0009587D01*
X0117612Y000937D01*
X0117583Y0009144D01*
X0117553Y0008918D01*
X0117504Y0008681D01*
X0117455Y0008455D01*
X0117386Y0008239D01*
X0117307Y0008052D01*
X0117209Y0007894D01*
X011716Y0007825D01*
X0117101Y0007766D01*
X0117042Y0007717D01*
X0116973Y0007688D01*
X0116904Y0007668D01*
X0116825Y0007658D01*
X0116776D01*
X0116727Y0007668D01*
X0116668Y0007688D01*
X0116589Y0007707D01*
X011651Y0007737D01*
X0116431Y0007786D01*
X0116353Y0007855D01*
X0116343Y0007865D01*
X0116323Y0007894D01*
X0116294Y0007934D01*
X0116264Y0007993D01*
X0116225Y0008061D01*
X0116195Y000814D01*
X0116176Y0008229D01*
X0116166Y0008327D01*
Y0008347D01*
Y0008367D01*
Y0008396D01*
Y0008445D01*
X0116176Y0008504D01*
Y0008583D01*
X0116185Y0008681D01*
Y000879D01*
X0116195Y0008927D01*
X0116205Y0009075D01*
X0116225Y0009252D01*
X0116235Y0009459D01*
X0116254Y0009685D01*
X0116274Y0009931D01*
X0116294Y0010216D01*
Y0010226D01*
Y0010236D01*
Y0010266D01*
X0116304Y0010305D01*
Y0010403D01*
X0116313Y0010531D01*
X0116323Y0010669D01*
Y0010807D01*
X0116333Y0010945D01*
Y0011063D01*
Y001307D01*
Y001308D01*
Y0013119D01*
X0116343Y0013169D01*
X0116353Y0013228D01*
X0116382Y0013296D01*
X0116412Y0013375D01*
X0116461Y0013454D01*
X011652Y0013533D01*
X011653Y0013542D01*
X0116559Y0013562D01*
X0116599Y0013592D01*
X0116658Y0013631D01*
X0116727Y001367D01*
X0116805Y00137D01*
X0116894Y001372D01*
X0116992Y0013729D01*
X0117051D01*
X0117091Y001372D01*
X0117179Y00137D01*
X0117288Y0013651D01*
X0117297D01*
X0117307Y001367D01*
X0117366Y001371D01*
X0117465Y0013759D01*
X0117583Y0013828D01*
X011774Y0013887D01*
X0117927Y0013946D01*
X0118124Y0013985D01*
X011835Y0013995D01*
X0118429D01*
X0118488Y0013985D01*
D02*
G37*
G36*
X0101799Y0015412D02*
X0101918Y0015402D01*
X0102045Y0015373D01*
X0102183Y0015343D01*
X0102341Y0015294D01*
X0102488Y0015235D01*
X0102498D01*
X0102508Y0015225D01*
X0102567Y0015195D01*
X0102646Y0015136D01*
X0102734Y0015068D01*
X0102823Y0014959D01*
X0102892Y0014841D01*
X0102951Y0014684D01*
X0102961Y0014595D01*
X010297Y0014507D01*
Y0014497D01*
Y0014448D01*
X0102961Y0014389D01*
X0102941Y001431D01*
X0102911Y0014221D01*
X0102872Y0014123D01*
X0102813Y0014025D01*
X0102734Y0013936D01*
X0102724Y0013926D01*
X0102695Y0013897D01*
X0102646Y0013857D01*
X0102577Y0013818D01*
X0102507Y0013787D01*
X0102793Y0013651D01*
X0102303Y0013715D01*
X0102282Y001371D01*
X0102164Y00137D01*
X0102134D01*
X0102095Y001371D01*
X0102045D01*
X0101918Y0013739D01*
X0101816Y001378D01*
X0101603Y0013808D01*
X0101573D01*
X0101544Y0013798D01*
X0101504Y0013788D01*
X0101445Y0013769D01*
X0101396Y0013749D01*
X0101337Y001371D01*
X0101278Y001366D01*
X0101209Y0013592D01*
X010115Y0013513D01*
X0101101Y0013424D01*
X0101052Y0013306D01*
X0101002Y0013169D01*
X0100973Y0013011D01*
X0100953Y0012824D01*
X0100943Y0012617D01*
Y0012598D01*
Y0012549D01*
Y001248D01*
X0100953Y0012539D01*
X0100983Y0012627D01*
X0101042Y0012735D01*
X0101081Y0012795D01*
X010113Y0012863D01*
X0101189Y0012923D01*
X0101268Y0012981D01*
X0101357Y0013041D01*
X0101455Y001309D01*
X0101573Y0013139D01*
X0101711Y0013188D01*
X0101721D01*
X0101731Y0013198D01*
X010176D01*
X0101799Y0013208D01*
X0101898Y0013228D01*
X0102036Y0013257D01*
X0102203Y0013277D01*
X01024Y0013296D01*
X0102626Y0013316D01*
X0102882Y0013326D01*
X0103472D01*
X0103551Y0013316D01*
X0103649Y0013306D01*
X0103758Y0013287D01*
X0103994Y0013228D01*
X0104112Y0013188D01*
X010423Y0013139D01*
X0104338Y001307D01*
X0104437Y0012991D01*
X0104515Y0012893D01*
X0104574Y0012785D01*
X0104623Y0012657D01*
X0104633Y0012509D01*
Y0012499D01*
Y001245D01*
X0104623Y0012391D01*
X0104604Y0012312D01*
X0104574Y0012224D01*
X0104535Y0012135D01*
X0104476Y0012037D01*
X0104397Y0011938D01*
X0104387Y0011929D01*
X0104358Y0011899D01*
X0104309Y001186D01*
X010424Y001182D01*
X0104161Y0011771D01*
X0104063Y0011732D01*
X0103954Y0011702D01*
X0103836Y0011693D01*
Y001185D01*
X0103826Y0011791D01*
X0103817Y0011732D01*
X0103807Y0011712D01*
X0103787Y0011693D01*
Y0011683D01*
X0103797Y0011673D01*
X0103817Y0011604D01*
X0103826Y0011515D01*
X0103836Y0011417D01*
Y0011407D01*
Y0011378D01*
X0103826Y0011338D01*
X0103817Y0011269D01*
Y001125D01*
X0103797Y001121D01*
X0103787Y0011161D01*
X0103777Y0011132D01*
Y0011122D01*
X0103767Y0011102D01*
X0103758Y0011073D01*
X0103738Y0011033D01*
X0103669Y0010925D01*
X010358Y0010787D01*
X0103521Y0010708D01*
X0103443Y001063D01*
X0103364Y0010551D01*
X0103275Y0010472D01*
X0103177Y0010384D01*
X0103059Y0010305D01*
X0102931Y0010226D01*
X0102793Y0010157D01*
X0102783D01*
X0102764Y0010148D01*
X0102724Y0010128D01*
X0102685Y0010108D01*
X0102616Y0010079D01*
X0102547Y0010059D01*
X010238Y001D01*
X0102183Y0009931D01*
X0101957Y0009882D01*
X0101721Y0009843D01*
X0101475Y0009833D01*
X0101426D01*
X0101366Y0009843D01*
X0101288Y0009852D01*
X0101199Y0009862D01*
X0101091Y0009882D01*
X0100973Y0009921D01*
X0100845Y0009961D01*
X0100707Y001001D01*
X0100569Y0010079D01*
X0100432Y0010167D01*
X0100294Y0010256D01*
X0100156Y0010374D01*
X0100018Y0010512D01*
X00999Y0010669D01*
X0099782Y0010846D01*
Y0010856D01*
X0099763Y0010886D01*
X0099743Y0010925D01*
X0099713Y0010994D01*
X0099674Y0011073D01*
X0099635Y0011161D01*
X0099595Y0011269D01*
X0099556Y0011397D01*
X0099507Y0011535D01*
X0099467Y0011683D01*
X0099428Y001184D01*
X0099389Y0012017D01*
X0099359Y0012194D01*
X0099339Y0012391D01*
X009933Y0012588D01*
X009932Y0012795D01*
Y0012804D01*
Y0012844D01*
Y0012903D01*
X009933Y0012981D01*
X0099339Y001307D01*
X0099349Y0013178D01*
X0099369Y0013306D01*
X0099398Y0013434D01*
X0099467Y0013729D01*
X0099517Y0013877D01*
X0099576Y0014034D01*
X0099645Y0014182D01*
X0099723Y0014339D01*
X0099812Y0014487D01*
X009992Y0014625D01*
X009993Y0014635D01*
X009995Y0014664D01*
X0099989Y0014704D01*
X0100038Y0014753D01*
X0100107Y0014812D01*
X0100186Y0014881D01*
X0100274Y001495D01*
X0100382Y0015028D01*
X0100501Y0015097D01*
X0100628Y0015166D01*
X0100766Y0015235D01*
X0100924Y0015294D01*
X0101081Y0015353D01*
X0101258Y0015392D01*
X0101445Y0015412D01*
X0101642Y0015422D01*
X0101721D01*
X0101799Y0015412D01*
D02*
G37*
G36*
X0131024D02*
X0131083Y0015392D01*
X0131152Y0015373D01*
X0131231Y0015333D01*
X01313Y0015284D01*
X0131369Y0015215D01*
X0131378Y0015205D01*
X0131398Y0015176D01*
X0131418Y0015136D01*
X0131457Y0015087D01*
X0131487Y0015018D01*
X0131506Y001494D01*
X0131526Y0014851D01*
X0131536Y0014753D01*
Y0014743D01*
Y0014733D01*
Y0014704D01*
Y0014664D01*
X0131526Y0014615D01*
Y0014546D01*
X0131516Y0014477D01*
X0131506Y0014399D01*
X0131497Y00143D01*
X0131487Y0014202D01*
X0131467Y0014084D01*
X0131447Y0013965D01*
X0131388Y001369D01*
X0131319Y0013375D01*
Y0013365D01*
X013131Y0013346D01*
X01313Y0013306D01*
X013129Y0013257D01*
X013127Y0013198D01*
X0131251Y0013119D01*
X0131221Y0013031D01*
X0131201Y0012932D01*
X0131162Y0012814D01*
X0131132Y0012696D01*
X0131093Y0012558D01*
X0131044Y0012421D01*
X0130995Y0012263D01*
X0130946Y0012096D01*
X0130837Y0011742D01*
X0130385Y0010344D01*
Y0010335D01*
X0130375Y0010305D01*
X0130355Y0010266D01*
X0130335Y0010207D01*
X0130306Y0010148D01*
X0130267Y0010089D01*
X0130217Y0010029D01*
X0130148Y000998D01*
X0130139Y0009971D01*
X0130119Y0009961D01*
X013008Y0009941D01*
X0130021Y0009911D01*
X0129962Y0009882D01*
X0129883Y0009862D01*
X0129804Y0009852D01*
X0129716Y0009843D01*
X0129637Y0009862D01*
X0129627D01*
X0129607Y0009872D01*
X0129568Y0009882D01*
X0129519Y0009892D01*
X0129401Y0009941D01*
X0129351Y000998D01*
X0129292Y0010029D01*
X0129283Y0010039D01*
X0129273Y0010059D01*
X0129253Y0010089D01*
X0129224Y0010128D01*
X0129194Y0010177D01*
X0129165Y0010236D01*
X0129125Y0010384D01*
Y0010403D01*
X0129115Y0010443D01*
X0129096Y0010521D01*
X0129086Y001062D01*
X0129066Y0010758D01*
X0129037Y0010915D01*
X0129017Y0011112D01*
X0128987Y0011328D01*
Y0011338D01*
Y0011358D01*
X0128978Y0011387D01*
Y0011437D01*
X0128958Y0011545D01*
X0128938Y0011693D01*
X0128909Y001184D01*
X0128889Y0011998D01*
X0128859Y0012145D01*
X012884Y0012273D01*
Y0012283D01*
Y0012293D01*
X012883Y0012322D01*
X012882Y0012362D01*
X01288Y001246D01*
X0128771Y0012588D01*
X0128732Y0012726D01*
X0128682Y0012883D01*
X0128633Y0013041D01*
X0128574Y0013188D01*
Y0013198D01*
X0128554Y0013228D01*
X0128535Y0013277D01*
X0128505Y0013346D01*
X0128466Y0013434D01*
X0128417Y0013542D01*
X0128358Y001367D01*
X0128289Y0013818D01*
X0128279Y0013838D01*
X0128269Y0013887D01*
X012824Y0013956D01*
X012821Y0014044D01*
X0128181Y0014153D01*
X0128161Y0014261D01*
X0128141Y0014369D01*
X0128131Y0014467D01*
Y0014477D01*
Y0014517D01*
X0128141Y0014566D01*
X0128161Y0014625D01*
X0128181Y0014694D01*
X012821Y0014772D01*
X0128259Y0014841D01*
X0128328Y001491D01*
X0128338Y001492D01*
X0128367Y001494D01*
X0128407Y0014959D01*
X0128456Y0014999D01*
X0128525Y0015028D01*
X0128604Y0015048D01*
X0128692Y0015068D01*
X0128791Y0015077D01*
X012881D01*
X0128859Y0015058D01*
X0128928Y0015018D01*
X0128978Y0014989D01*
X0129037Y001495D01*
X0129096Y001489D01*
X0129155Y0014822D01*
X0129224Y0014733D01*
X0129289Y001465D01*
X0129066Y0014566D01*
X0129115Y0014448D01*
X0129366Y0014525D01*
X0129371Y0014517D01*
X012945Y0014369D01*
X0129538Y0014211D01*
X0129617Y0014025D01*
X0129627Y0014015D01*
X0129637Y0013965D01*
X0129666Y0013897D01*
X0129706Y0013798D01*
X0129745Y001368D01*
X0129794Y0013542D01*
X0129853Y0013385D01*
X0129912Y0013208D01*
Y0013218D01*
X0129922Y0013247D01*
X0129932Y0013287D01*
X0129952Y0013346D01*
X0129962Y0013424D01*
X0129981Y0013503D01*
X0130011Y0013601D01*
X013003Y001371D01*
X0130089Y0013956D01*
X0130148Y0014231D01*
X0130208Y0014526D01*
X0130267Y0014831D01*
Y0014841D01*
X0130276Y0014861D01*
Y001489D01*
X0130286Y001492D01*
X0130326Y0015018D01*
X0130385Y0015127D01*
X0130473Y0015235D01*
X0130591Y0015333D01*
X013066Y0015363D01*
X0130739Y0015392D01*
X0130827Y0015412D01*
X0130926Y0015422D01*
X0130975D01*
X0131024Y0015412D01*
D02*
G37*
G36*
X0106641Y0013946D02*
X0106729Y0013936D01*
X0106847Y0013906D01*
X0106975Y0013857D01*
X0107103Y0013788D01*
X0107241Y001369D01*
X0107369Y0013562D01*
X0107379Y0013542D01*
X0107418Y0013493D01*
X0107467Y0013424D01*
X0107517Y0013316D01*
X0107576Y0013198D01*
X0107615Y001305D01*
X0107654Y0012883D01*
X0107664Y0012706D01*
Y0012696D01*
Y0012647D01*
X0107654Y0012588D01*
X0107644Y0012509D01*
X0107625Y0012421D01*
X0107595Y0012332D01*
X0107556Y0012244D01*
X0107497Y0012155D01*
X0107487Y0012145D01*
X0107467Y0012116D01*
X0107428Y0012076D01*
X0107369Y0012037D01*
X01073Y0011988D01*
X0107221Y0011948D01*
X0107123Y0011919D01*
X0107005Y0011909D01*
X0106956D01*
X0106906Y0011919D01*
X0106847Y0011929D01*
X0106779Y0011948D01*
X01067Y0011988D01*
X0106631Y0012027D01*
X0106562Y0012086D01*
X0106552Y0012096D01*
X0106533Y0012116D01*
X0106513Y0012165D01*
X0106483Y0012214D01*
X0106444Y0012283D01*
X0106424Y0012362D01*
X0106405Y001246D01*
X0106397Y0012537D01*
X0106434Y0012578D01*
X0106513Y0012637D01*
X0106572Y0012676D01*
X0106582Y0012686D01*
X0106591D01*
X01065Y0012732D01*
X0106473Y0012696D01*
X0106454Y0012706D01*
X0106479Y0012743D01*
X0106395Y0012785D01*
Y0012716D01*
Y0012686D01*
Y0012657D01*
Y0012608D01*
Y0012578D01*
Y0012558D01*
X0106397Y0012537D01*
X0106345Y001248D01*
X0106296Y0012411D01*
X0106257Y0012342D01*
X0106218Y0012253D01*
X0106178Y0012165D01*
X0106149Y0012057D01*
X0106119Y0011938D01*
X0106109Y0011811D01*
X0106099Y0011663D01*
Y0011427D01*
Y0011417D01*
Y0011407D01*
Y0011368D01*
Y0011319D01*
Y0011309D01*
Y0011279D01*
Y001124D01*
Y001121D01*
Y0011201D01*
Y0011191D01*
Y0011132D01*
Y0011043D01*
X010609Y0010925D01*
X010608Y0010797D01*
X010605Y0010649D01*
X0106021Y0010502D01*
X0105981Y0010364D01*
Y0010354D01*
X0105972Y0010344D01*
X0105952Y0010285D01*
X0105903Y0010197D01*
X0105844Y0010108D01*
X0105765Y001001D01*
X0105667Y0009921D01*
X0105549Y0009862D01*
X010548Y0009852D01*
X0105411Y0009843D01*
X0105391D01*
X0105342Y0009852D01*
X0105263Y0009882D01*
X0105165Y0009921D01*
X0105066Y001D01*
X0105017Y0010059D01*
X0104958Y0010118D01*
X0104919Y0010197D01*
X0104869Y0010285D01*
X010483Y0010384D01*
X0104801Y0010502D01*
Y0010521D01*
X0104791Y0010581D01*
X0104781Y001062D01*
X0104771Y0010669D01*
Y0010738D01*
X0104761Y0010807D01*
X0104751Y0010895D01*
X0104742Y0010984D01*
Y0011092D01*
X0104732Y0011201D01*
Y0011328D01*
Y0011466D01*
Y0011614D01*
Y0011771D01*
Y0011781D01*
Y0011811D01*
Y001185D01*
Y0011909D01*
Y0011978D01*
Y0012057D01*
X0104722Y0012244D01*
Y001244D01*
X0104702Y0012637D01*
X0104683Y0012814D01*
X0104673Y0012903D01*
X0104653Y0012972D01*
Y0012981D01*
X0104643Y0013001D01*
X0104623Y0013031D01*
X0104614Y001308D01*
X0104574Y0013178D01*
X0104564Y0013296D01*
Y0013306D01*
Y0013336D01*
X0104574Y0013385D01*
X0104584Y0013444D01*
X0104604Y0013513D01*
X0104643Y0013592D01*
X0104683Y001367D01*
X0104742Y0013739D01*
X0104751Y0013749D01*
X0104771Y0013769D01*
X0104811Y0013798D01*
X0104869Y0013838D01*
X0104938Y0013867D01*
X0105007Y0013897D01*
X0105096Y0013916D01*
X0105194Y0013926D01*
X0105253D01*
X0105312Y0013906D01*
X0105381Y0013887D01*
X010547Y0013847D01*
X0105558Y0013798D01*
X0105637Y001372D01*
X0105716Y0013621D01*
X0105726D01*
X0105735Y0013631D01*
X0105795Y001367D01*
X0105883Y0013729D01*
X0105991Y0013788D01*
X0106119Y0013847D01*
X0106267Y0013906D01*
X0106414Y0013946D01*
X0106562Y0013956D01*
X0106582D01*
X0106641Y0013946D01*
D02*
G37*
G36*
X0142365Y0011235D02*
X0142411Y0011217D01*
X0142464Y0011182D01*
X014247D01*
X0142476Y001117D01*
X0142499Y0011141D01*
X0142517Y0011094D01*
X0142528Y0011065D01*
Y001103D01*
Y0011024D01*
Y0011012D01*
Y0010989D01*
X0142522Y0010954D01*
Y0010913D01*
X0142517Y001086D01*
X0142511Y0010796D01*
X0142499Y001072D01*
Y0010708D01*
X0142493Y0010685D01*
X0142487Y001065D01*
Y0010603D01*
X0142476Y0010498D01*
X014247Y0010445D01*
Y0010398D01*
Y0010392D01*
Y0010381D01*
Y0010363D01*
Y001034D01*
Y0010275D01*
Y0010193D01*
X0142476Y00101D01*
Y0009995D01*
X0142481Y0009895D01*
X0142487Y0009796D01*
Y0009784D01*
X0142493Y0009755D01*
X0142499Y0009708D01*
X0142505Y0009655D01*
X0142517Y0009591D01*
X0142528Y0009527D01*
X014254Y0009456D01*
X0142558Y0009398D01*
X0142563D01*
X0142569Y0009392D01*
X0142598Y0009374D01*
X0142639Y0009357D01*
X0142686Y0009339D01*
X0142698D01*
X0142733Y0009334D01*
X0142774Y0009328D01*
X0142827Y0009322D01*
X0142873D01*
X0142932Y0009328D01*
X0143008Y0009334D01*
X0143096Y0009345D01*
X0143195Y0009357D01*
X0143306Y000938D01*
X0143423Y0009409D01*
X0143418Y0009837D01*
X0143412Y001024D01*
Y0010246D01*
Y0010258D01*
Y0010287D01*
Y0010316D01*
Y0010357D01*
Y0010404D01*
X0143418Y0010509D01*
X0143423Y0010632D01*
X0143429Y0010767D01*
X0143441Y0010901D01*
X0143453Y001103D01*
Y0011036D01*
X0143458Y0011059D01*
X014347Y0011089D01*
X0143488Y0011129D01*
X0143511Y0011164D01*
X0143546Y0011194D01*
X0143593Y0011217D01*
X0143657Y0011223D01*
X0143675D01*
X014371Y0011217D01*
X0143757Y0011194D01*
X014378Y0011182D01*
X0143804Y0011159D01*
X0143809D01*
X0143815Y0011147D01*
X0143839Y0011118D01*
X0143856Y0011071D01*
X0143868Y0011042D01*
Y0011012D01*
X0143833Y0010223D01*
Y0010217D01*
Y0010193D01*
Y0010158D01*
Y0010112D01*
Y0010047D01*
Y0009965D01*
Y0009872D01*
Y0009766D01*
Y000976D01*
Y0009755D01*
Y0009719D01*
Y0009667D01*
Y0009597D01*
Y0009527D01*
Y000945D01*
Y000938D01*
Y0009316D01*
Y000931D01*
Y0009281D01*
Y000924D01*
X0143839Y0009176D01*
Y000917D01*
Y0009158D01*
X0143844Y0009123D01*
X014385Y0009076D01*
Y0009035D01*
Y0009029D01*
Y0009023D01*
X0143844Y0008982D01*
X0143821Y0008936D01*
X0143809Y0008912D01*
X0143786Y0008889D01*
X0143774Y0008877D01*
X0143745Y000886D01*
X0143698Y0008842D01*
X014364Y000883D01*
X0143634D01*
X0143616Y0008836D01*
X0143587Y0008842D01*
X0143552Y0008854D01*
X0143517Y0008877D01*
X0143482Y0008912D01*
X0143453Y0008965D01*
X0143429Y0009029D01*
X0143418Y0009023D01*
X0143382Y0009006D01*
X014333Y0008988D01*
X014326Y0008965D01*
X0143172Y0008936D01*
X0143067Y0008918D01*
X0142949Y0008901D01*
X0142827Y0008895D01*
X014278D01*
X0142733Y0008901D01*
X0142669Y0008912D01*
X0142593Y0008924D01*
X0142517Y0008941D01*
X014244Y0008971D01*
X014237Y0009012D01*
X0142365Y0009018D01*
X0142341Y0009035D01*
X0142306Y000907D01*
X0142265Y0009111D01*
X0142224Y000917D01*
X0142189Y0009234D01*
X0142154Y0009316D01*
X0142136Y0009409D01*
Y0009415D01*
X014213Y0009433D01*
Y0009462D01*
X0142125Y0009503D01*
X0142119Y000955D01*
X0142113Y0009608D01*
X0142101Y0009673D01*
X0142095Y0009743D01*
X0142078Y0009895D01*
X0142066Y0010059D01*
X014206Y0010234D01*
X0142054Y0010398D01*
Y0010404D01*
Y001041D01*
Y0010427D01*
Y0010451D01*
X014206Y0010509D01*
Y0010585D01*
X0142066Y0010685D01*
X0142078Y0010796D01*
X0142095Y0010919D01*
X0142113Y0011053D01*
Y0011059D01*
X0142119Y0011083D01*
X014213Y0011112D01*
X0142148Y0011147D01*
X0142177Y0011182D01*
X0142207Y0011211D01*
X0142253Y0011235D01*
X0142312Y0011241D01*
X0142329D01*
X0142365Y0011235D01*
D02*
G37*
G36*
X0155106Y0012141D02*
X0155129Y0012136D01*
X0155182Y0012118D01*
X0155211Y0012095D01*
X015524Y0012071D01*
X0155246Y0012065D01*
X0155252Y001206D01*
X0155281Y0012025D01*
X0155305Y0011972D01*
X015531Y0011937D01*
X0155316Y0011902D01*
Y0011896D01*
Y0011884D01*
X015531Y0011867D01*
X0155305Y0011843D01*
X0155287Y001179D01*
X0155264Y0011761D01*
X015524Y0011732D01*
X0155234D01*
X0155229Y001172D01*
X0155193Y0011697D01*
X0155141Y0011673D01*
X0155106Y0011668D01*
X0155071Y0011662D01*
X0155053D01*
X0155035Y0011668D01*
X0155012Y0011673D01*
X0154954Y0011691D01*
X0154924Y0011709D01*
X0154895Y0011732D01*
Y0011738D01*
X0154883Y0011744D01*
X015486Y0011779D01*
X0154837Y0011831D01*
X0154831Y0011867D01*
X0154825Y0011902D01*
Y0011908D01*
Y0011919D01*
X0154831Y0011937D01*
X0154837Y001196D01*
X0154854Y0012013D01*
X0154872Y0012042D01*
X0154895Y0012071D01*
X0154901Y0012077D01*
X0154907Y0012083D01*
X0154924Y0012095D01*
X0154948Y0012112D01*
X0155Y0012136D01*
X0155035Y0012141D01*
X0155071Y0012147D01*
X0155088D01*
X0155106Y0012141D01*
D02*
G37*
G36*
X0082364Y0014405D02*
X0082405Y0014387D01*
X0082452Y0014358D01*
X0082458D01*
X0082464Y0014346D01*
X0082487Y0014323D01*
X0082504Y0014282D01*
X0082516Y0014258D01*
Y0014229D01*
Y0014223D01*
Y00142D01*
X0082504Y0014159D01*
X0082493Y0014112D01*
X0082253Y0013539D01*
Y0013533D01*
X0082247Y0013521D01*
X0082241Y0013498D01*
X008223Y0013469D01*
X0082212Y0013434D01*
X0082194Y0013393D01*
X0082177Y001334D01*
X0082153Y0013282D01*
X0082124Y0013217D01*
X0082095Y0013153D01*
X0082025Y0013001D01*
X0081949Y0012831D01*
X0081855Y0012644D01*
X0081399Y0011778D01*
X0081019Y0010942D01*
Y0010936D01*
X0081007Y0010924D01*
X0080995Y00109D01*
X0080978Y0010877D01*
X0080954Y0010854D01*
X0080925Y001083D01*
X008089Y0010819D01*
X0080849Y0010813D01*
X0080837D01*
X0080802Y0010819D01*
X0080761Y0010836D01*
X0080714Y0010865D01*
X0080703Y0010877D01*
X0080685Y00109D01*
X0080668Y0010947D01*
X0080656Y0011D01*
Y0011006D01*
Y0011017D01*
X0080662Y0011035D01*
X0080668Y0011064D01*
Y001107D01*
X0080673Y0011088D01*
X0080685Y0011111D01*
X0080703Y0011146D01*
X008072Y0011193D01*
X0080744Y0011252D01*
X0080773Y0011316D01*
X0080808Y0011398D01*
X0080843Y0011486D01*
X008089Y0011579D01*
X0080943Y0011684D01*
X0080995Y0011801D01*
X008106Y001193D01*
X0081124Y0012065D01*
X00812Y0012211D01*
X0081282Y0012363D01*
X0081288Y0012375D01*
X0081299Y0012398D01*
X0081323Y0012445D01*
X0081358Y0012503D01*
X0081393Y0012574D01*
X0081434Y0012655D01*
X0081481Y0012749D01*
X0081533Y0012843D01*
X0081633Y0013053D01*
X0081738Y001327D01*
X0081826Y001348D01*
X0081867Y001358D01*
X0081902Y0013668D01*
X0081908Y0013673D01*
X0081914Y0013703D01*
X0081931Y0013738D01*
X0081949Y0013785D01*
X0081972Y0013843D01*
X0081996Y0013902D01*
X008206Y0014042D01*
X0082124Y0014177D01*
X0082159Y0014241D01*
X0082194Y0014299D01*
X008223Y0014346D01*
X0082259Y0014381D01*
X0082288Y0014405D01*
X0082317Y0014411D01*
X0082329D01*
X0082364Y0014405D01*
D02*
G37*
G36*
X0149384Y0012141D02*
X0149408Y0012136D01*
X014946Y0012118D01*
X014949Y0012095D01*
X0149519Y0012071D01*
X0149525Y0012065D01*
X0149531Y001206D01*
X014956Y0012025D01*
X0149583Y0011972D01*
X0149589Y0011937D01*
X0149595Y0011902D01*
Y0011896D01*
Y0011884D01*
X0149589Y0011867D01*
X0149583Y0011843D01*
X0149566Y001179D01*
X0149542Y0011761D01*
X0149519Y0011732D01*
X0149513D01*
X0149507Y001172D01*
X0149472Y0011697D01*
X014942Y0011673D01*
X0149384Y0011668D01*
X0149349Y0011662D01*
X0149332D01*
X0149314Y0011668D01*
X0149291Y0011673D01*
X0149232Y0011691D01*
X0149203Y0011709D01*
X0149174Y0011732D01*
Y0011738D01*
X0149162Y0011744D01*
X0149139Y0011779D01*
X0149115Y0011831D01*
X0149109Y0011867D01*
X0149104Y0011902D01*
Y0011908D01*
Y0011919D01*
X0149109Y0011937D01*
X0149115Y001196D01*
X0149133Y0012013D01*
X0149151Y0012042D01*
X0149174Y0012071D01*
X014918Y0012077D01*
X0149186Y0012083D01*
X0149203Y0012095D01*
X0149226Y0012112D01*
X0149279Y0012136D01*
X0149314Y0012141D01*
X0149349Y0012147D01*
X0149367D01*
X0149384Y0012141D01*
D02*
G37*
G36*
X0141411Y0011206D02*
X0141446Y0011194D01*
X0141487Y0011182D01*
X0141528Y0011159D01*
X0141569Y0011124D01*
X0141604Y0011083D01*
X014161Y0011077D01*
X0141616Y0011059D01*
X0141633Y001103D01*
X0141651Y0010989D01*
X0141662Y0010931D01*
X014168Y0010866D01*
X0141686Y001079D01*
X0141692Y0010696D01*
Y0010691D01*
Y0010679D01*
Y0010661D01*
Y0010638D01*
Y0010585D01*
X0141686Y0010562D01*
Y0010544D01*
Y0010533D01*
X014168Y0010503D01*
X0141674Y0010463D01*
X0141657Y0010416D01*
X0141627Y0010369D01*
X0141592Y0010328D01*
X014154Y0010299D01*
X014151Y0010293D01*
X0141475Y0010287D01*
X0141469D01*
X0141446Y0010293D01*
X0141423Y0010299D01*
X0141387Y001031D01*
X0141358Y001034D01*
X0141329Y0010375D01*
X0141306Y0010422D01*
X01413Y0010492D01*
Y0010498D01*
Y0010527D01*
Y0010574D01*
X0141294Y0010603D01*
Y0010638D01*
X0141288Y0010819D01*
X014127D01*
X0141253Y0010813D01*
X0141229D01*
X0141171Y0010796D01*
X0141095Y0010778D01*
X0141007Y0010755D01*
X0140919Y0010726D01*
X0140832Y0010685D01*
X014075Y0010632D01*
X0140744Y0010626D01*
X0140721Y0010609D01*
X0140685Y0010574D01*
X0140639Y0010527D01*
X0140592Y0010468D01*
X0140539Y0010398D01*
X0140487Y0010316D01*
X014044Y0010217D01*
X0140446Y000907D01*
Y0009059D01*
X014044Y0009035D01*
X0140434Y0009006D01*
X0140422Y0008965D01*
X0140393Y0008924D01*
X0140358Y0008895D01*
X0140305Y0008871D01*
X0140235Y000886D01*
X0140229D01*
X0140206Y0008865D01*
X0140176Y0008871D01*
X0140147Y0008889D01*
X0140112Y0008912D01*
X0140083Y0008947D01*
X0140059Y0009D01*
X0140054Y000907D01*
Y0010538D01*
Y0010544D01*
Y001055D01*
Y0010568D01*
Y0010591D01*
Y001062D01*
Y0010655D01*
X0140059Y0010696D01*
Y0010743D01*
Y0010749D01*
Y0010767D01*
Y001079D01*
X0140065Y0010825D01*
Y0010889D01*
Y0010925D01*
Y0010954D01*
Y0010966D01*
X0140071Y0010989D01*
X0140077Y0011024D01*
X0140089Y0011065D01*
X0140112Y00111D01*
X0140141Y0011135D01*
X0140188Y0011159D01*
X0140247Y001117D01*
X0140258D01*
X0140282Y0011164D01*
X0140311Y0011153D01*
X0140352Y0011129D01*
X0140387Y0011083D01*
X0140405Y0011059D01*
X0140422Y0011024D01*
X0140434Y0010983D01*
X0140446Y0010936D01*
X0140452Y0010884D01*
X0140457Y0010819D01*
X0140463Y0010825D01*
X0140475Y0010837D01*
X0140498Y0010854D01*
X0140527Y0010884D01*
X0140568Y0010913D01*
X0140609Y0010942D01*
X0140662Y0010977D01*
X0140721Y0011018D01*
X0140855Y0011089D01*
X0141007Y0011153D01*
X0141089Y0011176D01*
X0141171Y0011194D01*
X0141259Y0011206D01*
X0141352Y0011211D01*
X0141382D01*
X0141411Y0011206D01*
D02*
G37*
G36*
X0138556Y0012294D02*
X0138615Y0012282D01*
X0138691Y001227D01*
X0138773Y0012247D01*
X0138872Y0012212D01*
X0138983Y0012171D01*
X0138989D01*
X0139001Y0012165D01*
X0139018Y0012153D01*
X0139042Y0012141D01*
X0139106Y0012112D01*
X0139176Y0012071D01*
X0139246Y0012025D01*
X0139311Y0011966D01*
X0139334Y0011937D01*
X0139352Y0011902D01*
X0139363Y0011872D01*
X0139369Y0011837D01*
Y0011831D01*
Y0011825D01*
X0139363Y0011785D01*
X013934Y0011738D01*
X0139328Y0011709D01*
X0139305Y0011685D01*
X0139293Y0011673D01*
X0139264Y0011656D01*
X0139211Y0011632D01*
X0139182Y0011627D01*
X0139153Y0011621D01*
X0139147D01*
X0139118Y0011627D01*
X0139077Y0011638D01*
X0139024Y0011668D01*
X0139018D01*
X0139012Y0011673D01*
X0138995Y0011685D01*
X0138971Y0011697D01*
X0138913Y0011732D01*
X0138837Y0011767D01*
X0138749Y0011802D01*
X0138661Y0011837D01*
X0138568Y0011861D01*
X013848Y0011867D01*
X0138451D01*
X0138422Y0011861D01*
X0138381Y0011849D01*
X0138328Y0011825D01*
X0138275Y0011796D01*
X0138217Y0011755D01*
X0138152Y0011703D01*
X0138147Y0011697D01*
X0138135Y0011685D01*
X0138117Y0011668D01*
X0138088Y0011632D01*
X0138053Y0011592D01*
X0138012Y0011545D01*
X0137959Y001148D01*
X0137901Y0011404D01*
X0137895Y0011399D01*
X0137883Y0011375D01*
X0137854Y001134D01*
X0137825Y0011293D01*
X013779Y0011235D01*
X0137749Y0011159D01*
X0137708Y0011077D01*
X0137661Y0010989D01*
X0137614Y0010889D01*
X0137573Y0010778D01*
X0137532Y0010667D01*
X0137497Y0010544D01*
X0137468Y0010416D01*
X0137445Y0010281D01*
X0137427Y0010147D01*
X0137421Y0010006D01*
Y001D01*
Y0009989D01*
Y0009971D01*
Y0009942D01*
X0137427Y0009872D01*
X0137439Y000979D01*
X0137451Y0009702D01*
X0137468Y0009608D01*
X0137497Y0009527D01*
X0137538Y0009456D01*
X0137544Y000945D01*
X0137567Y0009433D01*
X0137602Y0009404D01*
X0137649Y0009374D01*
X013772Y0009339D01*
X0137801Y0009316D01*
X0137907Y0009292D01*
X013803Y0009287D01*
X0138065D01*
X0138094Y0009292D01*
X0138123D01*
X0138164Y0009298D01*
X0138252Y0009316D01*
X0138357Y0009345D01*
X0138462Y0009386D01*
X0138574Y0009445D01*
X0138685Y0009521D01*
X0138691Y0009527D01*
X0138697Y0009532D01*
X0138732Y0009567D01*
X0138784Y0009626D01*
X0138849Y0009708D01*
X0138913Y0009807D01*
X0138983Y000993D01*
X0139042Y0010076D01*
X0139094Y001024D01*
X0139071D01*
X0139036Y0010234D01*
X0138995D01*
X0138948Y0010228D01*
X013889Y0010223D01*
X0138819Y0010211D01*
X0138749Y0010199D01*
X0138591Y001017D01*
X0138427Y0010129D01*
X0138258Y0010076D01*
X0138094Y0010012D01*
X0138088D01*
X0138065Y0010006D01*
X013803Y001D01*
X0137995Y0009995D01*
X0137983D01*
X0137942Y0010006D01*
X0137895Y0010024D01*
X0137866Y0010041D01*
X0137842Y0010065D01*
Y0010071D01*
X0137837Y0010076D01*
X0137819Y0010106D01*
X0137796Y0010158D01*
X013779Y0010217D01*
Y0010223D01*
Y0010234D01*
X0137796Y0010258D01*
X0137801Y0010287D01*
X0137819Y0010316D01*
X0137837Y0010345D01*
X0137866Y0010375D01*
X0137901Y0010404D01*
X0137907Y001041D01*
X0137924Y0010416D01*
X0137948Y0010427D01*
X0137989Y0010445D01*
X0138041Y0010468D01*
X01381Y0010492D01*
X0138176Y0010515D01*
X0138264Y0010544D01*
X0138369Y0010568D01*
X013848Y0010591D01*
X0138609Y0010615D01*
X0138749Y0010638D01*
X0138907Y0010655D01*
X0139077Y0010667D01*
X0139264Y0010679D01*
X013948D01*
X0139515Y0010673D01*
X0139568Y001065D01*
X0139592Y0010638D01*
X0139615Y0010615D01*
X0139621D01*
X0139627Y0010603D01*
X013965Y0010574D01*
X0139668Y0010527D01*
X0139679Y0010498D01*
Y0010463D01*
Y0010457D01*
Y0010439D01*
X0139673Y0010416D01*
X0139668Y0010386D01*
X013965Y0010357D01*
X0139632Y0010322D01*
X0139603Y0010293D01*
X0139562Y0010264D01*
Y0010258D01*
X0139556Y0010234D01*
X0139545Y0010199D01*
X0139533Y0010158D01*
X0139521Y0010106D01*
X0139498Y0010041D01*
X0139474Y0009971D01*
X0139445Y0009895D01*
X0139369Y0009731D01*
X0139276Y0009556D01*
X0139217Y0009474D01*
X0139153Y0009392D01*
X0139088Y000931D01*
X0139012Y0009234D01*
X0139006Y0009228D01*
X0138995Y0009217D01*
X0138971Y0009199D01*
X0138936Y0009176D01*
X0138901Y0009146D01*
X0138849Y0009111D01*
X0138796Y0009082D01*
X0138732Y0009047D01*
X0138667Y0009006D01*
X0138591Y0008977D01*
X0138509Y0008941D01*
X0138422Y0008912D01*
X0138334Y0008889D01*
X0138234Y0008871D01*
X0138135Y000886D01*
X013803Y0008854D01*
X0137983D01*
X0137948Y000886D01*
X0137901Y0008865D01*
X0137854Y0008871D01*
X0137743Y0008889D01*
X0137614Y0008924D01*
X0137486Y0008977D01*
X0137427Y0009006D01*
X0137363Y0009047D01*
X013731Y0009088D01*
X0137257Y000914D01*
Y0009146D01*
X0137246Y0009152D01*
X0137234Y000917D01*
X0137216Y0009193D01*
X0137199Y0009222D01*
X0137176Y0009263D01*
X0137152Y0009304D01*
X0137129Y0009357D01*
X0137105Y0009415D01*
X0137082Y000948D01*
X0137058Y000955D01*
X0137041Y0009626D01*
X0137023Y0009714D01*
X0137012Y0009801D01*
X0137006Y0009901D01*
X0137Y0010006D01*
Y0010012D01*
Y001003D01*
Y0010059D01*
X0137006Y00101D01*
Y0010153D01*
X0137012Y0010211D01*
X0137023Y0010275D01*
X0137029Y0010351D01*
X0137047Y0010433D01*
X0137064Y0010521D01*
X0137105Y0010708D01*
X013717Y0010913D01*
X0137205Y0011018D01*
X0137251Y0011124D01*
X0137257Y0011129D01*
X0137263Y0011147D01*
X0137281Y0011182D01*
X0137298Y0011217D01*
X0137322Y001127D01*
X0137357Y0011328D01*
X0137392Y0011387D01*
X0137433Y0011457D01*
X0137527Y0011609D01*
X0137638Y0011761D01*
X0137766Y0011919D01*
X0137913Y001206D01*
X0137918D01*
X0137924Y0012071D01*
X0137959Y0012095D01*
X0138012Y0012136D01*
X0138082Y0012182D01*
X013817Y0012223D01*
X0138264Y0012264D01*
X0138369Y0012288D01*
X013848Y0012299D01*
X0138515D01*
X0138556Y0012294D01*
D02*
G37*
G36*
X0084178Y0014212D02*
X0084259Y00142D01*
X0084353Y0014177D01*
X0084452Y0014147D01*
X0084558Y00141D01*
X0084657Y0014036D01*
X0084663D01*
X0084669Y0014024D01*
X0084704Y0014001D01*
X0084751Y0013954D01*
X0084809Y001389D01*
X0084868Y0013814D01*
X0084915Y001372D01*
X008495Y0013621D01*
X0084956Y0013562D01*
X0084961Y0013504D01*
Y0013492D01*
Y0013469D01*
X0084956Y0013428D01*
Y0013375D01*
X0084944Y0013311D01*
X0084932Y0013246D01*
X0084921Y0013176D01*
X0084897Y0013106D01*
Y00131D01*
X0084886Y0013077D01*
X0084874Y0013042D01*
X008485Y0012995D01*
X0084827Y0012948D01*
X0084798Y0012889D01*
X0084757Y0012837D01*
X0084716Y0012778D01*
X008471Y0012773D01*
X0084686Y0012743D01*
X0084646Y0012708D01*
X0084587Y0012655D01*
X0084517Y0012591D01*
X0084423Y0012521D01*
X0084312Y0012445D01*
X0084178Y0012357D01*
X0084172D01*
X008416Y0012346D01*
X0084143Y0012334D01*
X0084113Y0012316D01*
X0084049Y0012275D01*
X0083967Y0012217D01*
X0083879Y0012158D01*
X0083797Y0012094D01*
X0083721Y0012036D01*
X0083686Y0012006D01*
X0083663Y0011983D01*
X0083651Y0011971D01*
X0083628Y0011942D01*
X0083587Y0011889D01*
X0083546Y0011819D01*
X0083505Y0011731D01*
X008347Y0011632D01*
X0083441Y0011521D01*
X0083435Y0011398D01*
X0083868Y0011433D01*
X0083908D01*
X0083938Y0011439D01*
X0083979D01*
X008402Y0011445D01*
X0084113Y001145D01*
X0084219D01*
X0084324Y0011456D01*
X0084417Y0011462D01*
X0084558D01*
X0084599Y0011456D01*
X0084646Y001145D01*
X0084698Y0011439D01*
X0084803Y0011404D01*
X0084809Y0011398D01*
X0084833Y0011392D01*
X0084862Y0011374D01*
X0084903Y0011351D01*
X0084938Y0011322D01*
X0084967Y0011287D01*
X0084991Y0011246D01*
X0084997Y0011199D01*
Y0011193D01*
Y0011187D01*
X0084991Y0011152D01*
X0084973Y0011105D01*
X0084938Y0011053D01*
X0084926Y0011041D01*
X0084897Y0011023D01*
X0084856Y0011006D01*
X0084798Y0010994D01*
X0084786D01*
X0084757Y0011D01*
X008471Y0011006D01*
X0084646Y0011023D01*
X008464D01*
X0084628Y0011029D01*
X0084593Y0011041D01*
X0084546Y0011053D01*
X0084499Y0011058D01*
X0084417D01*
X0084377Y0011053D01*
X0084318D01*
X0084254Y0011047D01*
X0084178Y0011041D01*
X0084143D01*
X0084107Y0011035D01*
X0084061D01*
X0083955Y0011029D01*
X0083797D01*
X0083762Y0011023D01*
X0083715D01*
X0083669Y0011017D01*
X008361Y0011012D01*
X0083587D01*
X0083557Y0011006D01*
X0083522D01*
X0083441Y0011D01*
X0083405Y0010994D01*
X0083329D01*
X00833Y0011D01*
X0083294D01*
X0083277Y0011006D01*
X0083212D01*
X0083189Y0011012D01*
X008316Y0011023D01*
X0083125Y0011041D01*
X0083095Y0011064D01*
X0083066Y00111D01*
X0083049Y0011146D01*
Y0011152D01*
X0083043Y0011164D01*
Y0011181D01*
X0083037Y0011205D01*
X0083031Y001124D01*
Y0011287D01*
X0083025Y0011339D01*
Y0011398D01*
Y0011404D01*
Y0011421D01*
Y0011445D01*
X0083031Y001148D01*
Y0011521D01*
X0083037Y0011567D01*
X008306Y0011679D01*
X008309Y0011807D01*
X0083136Y0011936D01*
X0083201Y0012071D01*
X0083242Y0012129D01*
X0083288Y0012188D01*
X0083294Y0012193D01*
X0083318Y0012217D01*
X0083353Y0012252D01*
X0083382Y0012275D01*
X0083417Y0012299D01*
X0083458Y0012334D01*
X0083505Y0012369D01*
X0083557Y001241D01*
X0083616Y0012457D01*
X0083686Y0012509D01*
X0083762Y0012562D01*
X008385Y0012626D01*
X0083944Y0012691D01*
X008395D01*
X0083955Y0012702D01*
X008399Y0012726D01*
X0084043Y0012761D01*
X0084107Y0012808D01*
X0084172Y001286D01*
X0084242Y0012913D01*
X0084301Y0012966D01*
X0084347Y0013012D01*
X0084353Y0013024D01*
X0084377Y0013047D01*
X0084406Y0013089D01*
X0084441Y0013147D01*
X008447Y0013217D01*
X0084499Y0013293D01*
X0084523Y0013381D01*
X0084529Y001348D01*
Y0013486D01*
Y0013504D01*
X0084517Y0013527D01*
X0084505Y0013562D01*
X0084488Y0013597D01*
X0084452Y0013638D01*
X0084412Y0013679D01*
X0084353Y001372D01*
X0084347Y0013726D01*
X008433Y0013738D01*
X0084295Y0013749D01*
X0084259Y0013773D01*
X0084213Y0013791D01*
X008416Y0013802D01*
X0084107Y0013814D01*
X0084049Y001382D01*
X0084014D01*
X0083979Y0013814D01*
X0083932Y0013808D01*
X0083873Y0013791D01*
X0083815Y0013773D01*
X008375Y0013744D01*
X0083686Y0013709D01*
X0083382Y0013475D01*
X0083376D01*
X008337Y0013463D01*
X0083329Y0013439D01*
X0083283Y0013416D01*
X0083259Y001341D01*
X0083236Y0013404D01*
X0083201D01*
X0083171Y0013416D01*
X008313Y0013428D01*
X008309Y0013445D01*
X008306Y0013475D01*
X0083037Y0013516D01*
X0083025Y0013574D01*
Y001358D01*
Y0013592D01*
X0083031Y0013609D01*
X0083037Y0013633D01*
X008306Y0013685D01*
X0083078Y0013714D01*
X0083101Y0013744D01*
X0083113Y0013755D01*
X0083142Y0013779D01*
X0083189Y001382D01*
X0083248Y0013872D01*
X0083312Y0013925D01*
X0083388Y0013984D01*
X0083458Y001403D01*
X0083528Y0014077D01*
X0083534D01*
X008354Y0014083D01*
X0083575Y00141D01*
X0083622Y0014124D01*
X0083692Y0014153D01*
X0083768Y0014177D01*
X0083862Y00142D01*
X0083955Y0014218D01*
X0084055Y0014223D01*
X0084113D01*
X0084178Y0014212D01*
D02*
G37*
G36*
X0089168Y001427D02*
X0089191Y0014258D01*
X0089214Y0014235D01*
X0089238Y0014206D01*
X0089255Y0014165D01*
X0089261Y0014112D01*
Y0014106D01*
Y0014077D01*
X0089255Y001403D01*
X0089244Y0013966D01*
Y001396D01*
Y0013948D01*
X0089238Y0013913D01*
X0089232Y0013867D01*
Y0013826D01*
Y001382D01*
Y0013814D01*
Y0013796D01*
Y0013773D01*
Y0013744D01*
Y0013709D01*
X0089238Y0013662D01*
Y0013615D01*
Y0013609D01*
Y0013592D01*
X0089244Y0013568D01*
Y0013539D01*
X0089249Y0013469D01*
Y0013434D01*
Y0013404D01*
Y0013393D01*
Y0013358D01*
Y0013305D01*
X0089244Y0013223D01*
X0089238Y0013124D01*
X0089232Y0013001D01*
X008922Y001286D01*
X0089203Y0012691D01*
Y0012685D01*
Y0012667D01*
X0089197Y0012644D01*
Y0012615D01*
X0089191Y0012574D01*
Y0012527D01*
X0089179Y0012422D01*
X0089174Y001231D01*
X0089162Y0012188D01*
X0089156Y0012076D01*
Y0011977D01*
Y0011971D01*
Y0011953D01*
Y001193D01*
Y0011895D01*
X0089162Y0011848D01*
Y0011801D01*
Y0011743D01*
X0089168Y0011679D01*
Y0011673D01*
X0089174Y0011649D01*
Y001162D01*
X0089179Y0011579D01*
X0089185Y0011491D01*
X0089191Y0011398D01*
X0089425D01*
X008946Y0011392D01*
X0089513Y0011374D01*
X008956Y0011339D01*
X0089571Y0011328D01*
X0089589Y0011304D01*
X0089606Y0011257D01*
X0089618Y0011199D01*
Y0011193D01*
Y0011187D01*
X0089612Y0011146D01*
X0089595Y00111D01*
X008956Y0011053D01*
X0089548Y0011047D01*
X0089519Y0011029D01*
X0089472Y0011006D01*
X0089413Y0011D01*
X0088495D01*
X0088431Y0011006D01*
X0088396Y0011012D01*
X0088372Y0011017D01*
X0088366D01*
X0088354Y0011023D01*
X0088319Y0011053D01*
X0088302Y0011076D01*
X0088284Y00111D01*
X0088273Y0011135D01*
X0088267Y0011175D01*
Y0011187D01*
X0088273Y0011211D01*
X0088284Y0011246D01*
X0088308Y0011287D01*
X0088349Y0011322D01*
X0088407Y0011357D01*
X0088442Y0011374D01*
X0088489Y001138D01*
X0088536Y0011392D01*
X0088594D01*
X0088694Y0011386D01*
X0088782D01*
Y0011392D01*
Y0011404D01*
Y0011427D01*
Y0011462D01*
X0088776Y0011503D01*
Y001155D01*
X008877Y0011608D01*
X0088764Y0011679D01*
Y001169D01*
Y0011714D01*
X0088758Y0011749D01*
Y001179D01*
X0088752Y0011889D01*
X0088747Y0011936D01*
Y0011977D01*
Y0011983D01*
Y0011989D01*
Y0012006D01*
Y001203D01*
Y0012059D01*
Y0012088D01*
X0088752Y0012135D01*
Y0012182D01*
Y0012234D01*
X0088758Y0012293D01*
Y0012363D01*
X0088764Y0012433D01*
X008877Y0012515D01*
X0088776Y0012597D01*
X0088782Y0012691D01*
X0088787Y001279D01*
Y0012796D01*
Y0012813D01*
X0088793Y0012843D01*
Y0012878D01*
X0088799Y0012925D01*
X0088805Y0012971D01*
X0088811Y0013094D01*
X0088823Y0013223D01*
X0088828Y0013358D01*
X0088834Y0013486D01*
Y0013551D01*
Y0013603D01*
X0088828D01*
X0088823Y0013592D01*
X0088787Y0013568D01*
X0088741Y0013533D01*
X0088682Y0013498D01*
X0088624Y0013457D01*
X0088565Y0013422D01*
X0088512Y0013398D01*
X0088477Y0013387D01*
X0088466D01*
X0088425Y0013393D01*
X0088378Y001341D01*
X0088331Y0013445D01*
Y0013451D01*
X0088319Y0013457D01*
X0088302Y0013486D01*
X0088284Y0013533D01*
X0088273Y0013592D01*
Y0013597D01*
X0088278Y0013609D01*
X0088284Y0013633D01*
X0088296Y0013662D01*
X0088314Y0013697D01*
X0088349Y0013738D01*
X008839Y0013779D01*
X0088448Y0013831D01*
X0088454Y0013837D01*
X0088472Y0013849D01*
X0088495Y0013867D01*
X008853Y001389D01*
X0088577Y0013925D01*
X0088629Y0013972D01*
X0088694Y0014024D01*
X008877Y0014089D01*
X0088776Y0014095D01*
X0088799Y0014118D01*
X0088834Y0014147D01*
X0088881Y0014182D01*
X0088934Y0014218D01*
X0088992Y0014247D01*
X0089056Y001427D01*
X0089121Y0014276D01*
X0089144D01*
X0089168Y001427D01*
D02*
G37*
G36*
X0091274Y0014258D02*
X0091315D01*
X0091356Y0014253D01*
X0091414Y0014241D01*
X0091473Y0014223D01*
X0091537Y0014206D01*
X0091601Y0014182D01*
X0091672Y0014147D01*
X0091742Y0014112D01*
X0091818Y0014065D01*
X0091888Y0014013D01*
X0091952Y0013948D01*
X0092023Y0013872D01*
X0092081Y0013791D01*
X0092087Y0013785D01*
X0092093Y0013773D01*
X0092104Y0013749D01*
X0092122Y001372D01*
X0092145Y0013679D01*
X0092169Y0013633D01*
X0092192Y001358D01*
X0092216Y0013516D01*
X0092239Y0013445D01*
X0092262Y0013369D01*
X0092286Y0013287D01*
X0092309Y00132D01*
X0092338Y0013006D01*
X009235Y0012907D01*
Y0012796D01*
Y0012784D01*
Y0012755D01*
Y0012708D01*
X0092344Y0012644D01*
X0092338Y0012562D01*
X0092333Y0012474D01*
X0092327Y0012375D01*
X0092315Y0012269D01*
X009228Y0012041D01*
X0092227Y0011807D01*
X0092192Y001169D01*
X0092151Y0011585D01*
X0092104Y001148D01*
X0092052Y0011386D01*
X0092046Y001138D01*
X009204Y0011369D01*
X0092023Y0011345D01*
X0091993Y0011316D01*
X0091964Y0011275D01*
X0091929Y001124D01*
X0091882Y0011193D01*
X0091829Y0011152D01*
X0091771Y0011111D01*
X0091701Y0011064D01*
X0091631Y0011029D01*
X0091549Y0010994D01*
X0091461Y0010959D01*
X0091367Y0010936D01*
X0091268Y0010924D01*
X0091157Y0010918D01*
X0091127D01*
X0091098Y0010924D01*
X0091051Y001093D01*
X0090999Y0010936D01*
X009094Y0010947D01*
X0090876Y0010965D01*
X00908Y0010988D01*
X0090724Y0011023D01*
X0090648Y0011058D01*
X0090572Y0011105D01*
X0090496Y0011164D01*
X009042Y0011228D01*
X0090349Y0011304D01*
X0090285Y0011398D01*
X0090227Y0011497D01*
Y0011503D01*
X0090215Y0011521D01*
X0090209Y0011544D01*
X0090191Y0011579D01*
X0090174Y0011626D01*
X0090156Y0011679D01*
X0090139Y0011743D01*
X0090115Y0011813D01*
X0090092Y0011895D01*
X0090074Y0011983D01*
X0090057Y0012076D01*
X0090039Y0012182D01*
X0090028Y0012293D01*
X0090016Y001241D01*
X0090004Y0012539D01*
Y0012667D01*
Y0012673D01*
Y0012697D01*
Y0012726D01*
X009001Y0012773D01*
X0090016Y0012825D01*
X0090022Y0012884D01*
X0090028Y0012954D01*
X0090039Y001303D01*
X0090074Y0013194D01*
X0090127Y0013375D01*
X0090156Y0013463D01*
X0090197Y0013556D01*
X0090238Y0013644D01*
X0090291Y0013732D01*
X0090297Y0013738D01*
X0090308Y0013755D01*
X0090326Y0013779D01*
X0090355Y0013814D01*
X009039Y0013855D01*
X0090431Y0013902D01*
X0090478Y0013948D01*
X0090536Y0014001D01*
X0090595Y0014048D01*
X0090665Y0014095D01*
X0090741Y0014141D01*
X0090829Y0014182D01*
X0090917Y0014218D01*
X009101Y0014241D01*
X0091116Y0014258D01*
X0091221Y0014264D01*
X0091244D01*
X0091274Y0014258D01*
D02*
G37*
G36*
X0078456Y0014153D02*
X0078649D01*
X0078725Y0014147D01*
X0078901D01*
X0078995Y0014141D01*
X0079129D01*
X0079176Y0014136D01*
X0079422D01*
X0079556Y001413D01*
X0080211D01*
X0080246Y0014124D01*
X0080293Y0014112D01*
X0080334Y0014095D01*
X0080369Y0014071D01*
X0080393Y0014042D01*
X0080404Y0013995D01*
Y0013989D01*
Y0013978D01*
X0080398Y0013954D01*
X0080387Y0013925D01*
X0080375Y001389D01*
X0080352Y0013843D01*
X0080317Y0013796D01*
X0080276Y0013738D01*
X0080083Y0013516D01*
Y001351D01*
X0080071Y0013504D01*
X0080059Y0013486D01*
X0080036Y0013457D01*
X0080012Y0013428D01*
X0079983Y0013393D01*
X0079954Y0013352D01*
X0079919Y0013299D01*
X0079843Y0013188D01*
X0079755Y0013059D01*
X0079667Y0012907D01*
X007958Y0012743D01*
X0079199Y0011907D01*
Y0011901D01*
X0079193Y0011883D01*
X0079182Y0011854D01*
X0079164Y0011813D01*
X0079141Y0011749D01*
X0079106Y0011661D01*
X0079088Y0011614D01*
X0079071Y0011556D01*
X0079047Y0011491D01*
X0079024Y0011421D01*
Y0011415D01*
X0079018Y001141D01*
X0079012Y0011392D01*
X0079006Y0011369D01*
X0078983Y0011316D01*
X0078959Y0011246D01*
X0078924Y001117D01*
X0078889Y0011094D01*
X0078854Y0011023D01*
X0078819Y0010959D01*
Y0010953D01*
X0078807Y0010942D01*
X0078778Y0010912D01*
X0078725Y0010877D01*
X007869Y0010865D01*
X0078649Y001086D01*
X0078638D01*
X0078602Y0010865D01*
X0078556Y0010889D01*
X0078527Y00109D01*
X0078503Y0010924D01*
X0078491Y0010936D01*
X0078474Y0010965D01*
X0078451Y0011006D01*
X0078445Y0011029D01*
X0078439Y0011058D01*
Y0011064D01*
Y0011076D01*
X0078445Y00111D01*
X0078456Y001114D01*
X0078474Y0011193D01*
X0078497Y0011263D01*
X0078527Y0011357D01*
X007855Y001141D01*
X0078573Y0011468D01*
X0079047Y001262D01*
X0079053Y0012626D01*
X0079059Y001265D01*
X0079076Y0012685D01*
X00791Y0012732D01*
X0079129Y001279D01*
X0079164Y001286D01*
X0079199Y0012931D01*
X0079246Y0013012D01*
X007934Y0013182D01*
X0079451Y0013358D01*
X0079568Y0013527D01*
X0079626Y0013609D01*
X0079691Y0013679D01*
X0079732Y0013726D01*
X0078673Y0013744D01*
X0078199Y0013755D01*
X0078193D01*
X007817Y0013761D01*
X0078135Y0013773D01*
X00781Y0013791D01*
X0078064Y0013814D01*
X0078029Y0013849D01*
X0078006Y0013896D01*
X0078Y001396D01*
Y0013966D01*
Y0013978D01*
X0078006Y0014013D01*
X0078023Y0014054D01*
X0078058Y00141D01*
X007807Y0014112D01*
X00781Y001413D01*
X0078146Y0014147D01*
X0078205Y0014159D01*
X0078404D01*
X0078456Y0014153D01*
D02*
G37*
G36*
X0086711Y0014258D02*
X0086752D01*
X0086793Y0014253D01*
X0086851Y0014241D01*
X008691Y0014223D01*
X0086974Y0014206D01*
X0087038Y0014182D01*
X0087108Y0014147D01*
X0087179Y0014112D01*
X0087255Y0014065D01*
X0087325Y0014013D01*
X0087389Y0013948D01*
X0087459Y0013872D01*
X0087518Y0013791D01*
X0087524Y0013785D01*
X008753Y0013773D01*
X0087541Y0013749D01*
X0087559Y001372D01*
X0087582Y0013679D01*
X0087606Y0013633D01*
X0087629Y001358D01*
X0087652Y0013516D01*
X0087676Y0013445D01*
X0087699Y0013369D01*
X0087723Y0013287D01*
X0087746Y00132D01*
X0087775Y0013006D01*
X0087787Y0012907D01*
Y0012796D01*
Y0012784D01*
Y0012755D01*
Y0012708D01*
X0087781Y0012644D01*
X0087775Y0012562D01*
X008777Y0012474D01*
X0087764Y0012375D01*
X0087752Y0012269D01*
X0087717Y0012041D01*
X0087664Y0011807D01*
X0087629Y001169D01*
X0087588Y0011585D01*
X0087541Y001148D01*
X0087489Y0011386D01*
X0087483Y001138D01*
X0087477Y0011369D01*
X0087459Y0011345D01*
X008743Y0011316D01*
X0087401Y0011275D01*
X0087366Y001124D01*
X0087319Y0011193D01*
X0087266Y0011152D01*
X0087208Y0011111D01*
X0087138Y0011064D01*
X0087068Y0011029D01*
X0086986Y0010994D01*
X0086898Y0010959D01*
X0086804Y0010936D01*
X0086705Y0010924D01*
X0086594Y0010918D01*
X0086564D01*
X0086535Y0010924D01*
X0086488Y001093D01*
X0086436Y0010936D01*
X0086377Y0010947D01*
X0086313Y0010965D01*
X0086237Y0010988D01*
X0086161Y0011023D01*
X0086085Y0011058D01*
X0086009Y0011105D01*
X0085933Y0011164D01*
X0085857Y0011228D01*
X0085786Y0011304D01*
X0085722Y0011398D01*
X0085663Y0011497D01*
Y0011503D01*
X0085652Y0011521D01*
X0085646Y0011544D01*
X0085628Y0011579D01*
X0085611Y0011626D01*
X0085593Y0011679D01*
X0085576Y0011743D01*
X0085552Y0011813D01*
X0085529Y0011895D01*
X0085511Y0011983D01*
X0085494Y0012076D01*
X0085476Y0012182D01*
X0085465Y0012293D01*
X0085453Y001241D01*
X0085441Y0012539D01*
Y0012667D01*
Y0012673D01*
Y0012697D01*
Y0012726D01*
X0085447Y0012773D01*
X0085453Y0012825D01*
X0085459Y0012884D01*
X0085465Y0012954D01*
X0085476Y001303D01*
X0085511Y0013194D01*
X0085564Y0013375D01*
X0085593Y0013463D01*
X0085634Y0013556D01*
X0085675Y0013644D01*
X0085728Y0013732D01*
X0085734Y0013738D01*
X0085745Y0013755D01*
X0085763Y0013779D01*
X0085792Y0013814D01*
X0085827Y0013855D01*
X0085868Y0013902D01*
X0085915Y0013948D01*
X0085974Y0014001D01*
X0086032Y0014048D01*
X0086102Y0014095D01*
X0086178Y0014141D01*
X0086266Y0014182D01*
X0086354Y0014218D01*
X0086447Y0014241D01*
X0086553Y0014258D01*
X0086658Y0014264D01*
X0086681D01*
X0086711Y0014258D01*
D02*
G37*
G36*
X0149338Y0011147D02*
X0149384Y0011124D01*
X0149408Y0011112D01*
X0149431Y0011089D01*
X0149443Y0011077D01*
X014946Y0011048D01*
X0149478Y0011001D01*
X014949Y0010936D01*
Y0010925D01*
Y0010901D01*
Y001086D01*
Y0010802D01*
X0149484Y0010726D01*
X0149478Y0010644D01*
X0149472Y0010544D01*
X0149466Y0010439D01*
Y0010433D01*
Y0010427D01*
Y0010392D01*
X014946Y0010334D01*
Y001027D01*
X0149455Y0010193D01*
Y0010112D01*
X0149449Y001003D01*
Y0009954D01*
Y0009948D01*
Y000993D01*
Y0009901D01*
Y000986D01*
Y0009801D01*
Y0009737D01*
X0149455Y0009661D01*
Y0009573D01*
Y0009562D01*
Y0009532D01*
Y0009486D01*
X014946Y0009433D01*
Y0009369D01*
Y0009304D01*
Y0009246D01*
Y0009193D01*
Y0009187D01*
Y0009181D01*
X0149455Y000914D01*
X0149437Y0009094D01*
X0149402Y0009047D01*
X014939Y0009035D01*
X0149361Y0009018D01*
X0149314Y0009D01*
X0149256Y0008988D01*
X0149238D01*
X0149203Y0008994D01*
X0149151Y0009012D01*
X0149104Y0009047D01*
X0149098Y0009059D01*
X014908Y0009088D01*
X0149057Y0009135D01*
X0149051Y0009193D01*
Y0009199D01*
Y0009217D01*
Y0009246D01*
Y0009287D01*
Y0009345D01*
Y0009409D01*
X0149045Y0009486D01*
Y0009573D01*
Y0009579D01*
Y0009585D01*
Y0009614D01*
Y0009661D01*
Y0009714D01*
X0149039Y0009778D01*
Y0009842D01*
Y0009901D01*
Y0009954D01*
Y0009965D01*
Y0009989D01*
Y001003D01*
Y0010088D01*
X0149045Y0010158D01*
Y001024D01*
X0149051Y0010334D01*
X0149057Y0010439D01*
Y0010445D01*
Y0010451D01*
X0149063Y0010492D01*
Y0010544D01*
X0149069Y0010615D01*
X0149074Y0010691D01*
Y0010773D01*
X014908Y001086D01*
Y0010936D01*
Y0010942D01*
Y0010954D01*
X0149086Y0010989D01*
X0149104Y0011042D01*
X0149133Y0011089D01*
Y0011094D01*
X0149145Y00111D01*
X0149174Y0011124D01*
X0149221Y0011141D01*
X014925Y0011153D01*
X0149302D01*
X0149338Y0011147D01*
D02*
G37*
G36*
X0155059D02*
X0155106Y0011124D01*
X0155129Y0011112D01*
X0155152Y0011089D01*
X0155164Y0011077D01*
X0155182Y0011048D01*
X0155199Y0011001D01*
X0155211Y0010936D01*
Y0010925D01*
Y0010901D01*
Y001086D01*
Y0010802D01*
X0155205Y0010726D01*
X0155199Y0010644D01*
X0155193Y0010544D01*
X0155188Y0010439D01*
Y0010433D01*
Y0010427D01*
Y0010392D01*
X0155182Y0010334D01*
Y001027D01*
X0155176Y0010193D01*
Y0010112D01*
X015517Y001003D01*
Y0009954D01*
Y0009948D01*
Y000993D01*
Y0009901D01*
Y000986D01*
Y0009801D01*
Y0009737D01*
X0155176Y0009661D01*
Y0009573D01*
Y0009562D01*
Y0009532D01*
Y0009486D01*
X0155182Y0009433D01*
Y0009369D01*
Y0009304D01*
Y0009246D01*
Y0009193D01*
Y0009187D01*
Y0009181D01*
X0155176Y000914D01*
X0155158Y0009094D01*
X0155123Y0009047D01*
X0155112Y0009035D01*
X0155082Y0009018D01*
X0155035Y0009D01*
X0154977Y0008988D01*
X0154959D01*
X0154924Y0008994D01*
X0154872Y0009012D01*
X0154825Y0009047D01*
X0154819Y0009059D01*
X0154801Y0009088D01*
X0154778Y0009135D01*
X0154772Y0009193D01*
Y0009199D01*
Y0009217D01*
Y0009246D01*
Y0009287D01*
Y0009345D01*
Y0009409D01*
X0154766Y0009486D01*
Y0009573D01*
Y0009579D01*
Y0009585D01*
Y0009614D01*
Y0009661D01*
Y0009714D01*
X0154761Y0009778D01*
Y0009842D01*
Y0009901D01*
Y0009954D01*
Y0009965D01*
Y0009989D01*
Y001003D01*
Y0010088D01*
X0154766Y0010158D01*
Y001024D01*
X0154772Y0010334D01*
X0154778Y0010439D01*
Y0010445D01*
Y0010451D01*
X0154784Y0010492D01*
Y0010544D01*
X015479Y0010615D01*
X0154796Y0010691D01*
Y0010773D01*
X0154801Y001086D01*
Y0010936D01*
Y0010942D01*
Y0010954D01*
X0154807Y0010989D01*
X0154825Y0011042D01*
X0154854Y0011089D01*
Y0011094D01*
X0154866Y00111D01*
X0154895Y0011124D01*
X0154942Y0011141D01*
X0154971Y0011153D01*
X0155024D01*
X0155059Y0011147D01*
D02*
G37*
G36*
X0144593Y0011299D02*
X014464Y0011282D01*
X0144687Y0011246D01*
X0144699Y0011235D01*
X0144716Y0011206D01*
X0144734Y0011159D01*
X0144745Y00111D01*
Y0011094D01*
Y0011089D01*
X014474Y0011065D01*
X0144734Y0011036D01*
Y001103D01*
Y0011024D01*
X0144728Y0010995D01*
X0144722Y0010954D01*
Y0010913D01*
X0144728Y0010919D01*
X0144751Y0010931D01*
X0144786Y0010954D01*
X0144833Y0010983D01*
X0144886Y0011012D01*
X0144944Y0011042D01*
X0145067Y00111D01*
X0145073Y0011106D01*
X0145096Y0011112D01*
X0145132Y0011124D01*
X0145173Y0011135D01*
X0145219Y0011147D01*
X0145272Y0011153D01*
X014533Y0011164D01*
X014543D01*
X0145459Y0011159D01*
X0145494Y0011153D01*
X0145535Y0011147D01*
X0145629Y0011118D01*
X0145734Y0011071D01*
X0145787Y0011042D01*
X0145839Y0011001D01*
X0145886Y001096D01*
X0145939Y0010907D01*
X014598Y0010849D01*
X0146021Y0010778D01*
Y0010773D01*
X0146027Y0010767D01*
X0146038Y0010749D01*
X0146044Y0010726D01*
X0146056Y0010691D01*
X0146073Y0010655D01*
X0146085Y0010615D01*
X0146103Y0010562D01*
X0146126Y0010451D01*
X0146155Y001031D01*
X0146173Y0010153D01*
X0146179Y0009977D01*
Y0009971D01*
Y0009959D01*
Y0009936D01*
X0146173Y0009901D01*
Y0009866D01*
X0146167Y0009819D01*
X0146149Y0009714D01*
X014612Y0009597D01*
X0146073Y0009474D01*
X0146015Y0009351D01*
X0145933Y0009234D01*
Y0009228D01*
X0145921Y0009222D01*
X0145886Y0009187D01*
X0145828Y0009135D01*
X0145752Y0009082D01*
X0145652Y0009023D01*
X0145535Y0008971D01*
X0145395Y0008936D01*
X0145325Y000893D01*
X0145243Y0008924D01*
X0145208D01*
X0145161Y000893D01*
X0145108Y0008936D01*
X0145038Y0008941D01*
X0144962Y0008953D01*
X0144874Y0008971D01*
X0144781Y0008994D01*
Y0007988D01*
Y0007982D01*
Y0007976D01*
X0144775Y0007935D01*
X0144757Y0007888D01*
X0144722Y0007842D01*
X014471Y000783D01*
X0144681Y0007812D01*
X0144634Y0007789D01*
X0144605Y0007783D01*
X0144576Y0007777D01*
X0144558D01*
X0144523Y0007783D01*
X0144471Y0007807D01*
X0144447Y0007818D01*
X0144424Y0007842D01*
X0144418Y0007853D01*
X01444Y0007883D01*
X0144377Y0007929D01*
X0144371Y0007988D01*
X0144377Y000883D01*
Y0009661D01*
Y0009667D01*
Y0009684D01*
Y0009708D01*
Y0009737D01*
X0144371Y0009778D01*
Y0009825D01*
Y0009883D01*
Y0009942D01*
X0144365Y0010071D01*
X0144359Y0010211D01*
X0144348Y0010357D01*
X0144342Y0010498D01*
X0144313Y0010925D01*
Y0010931D01*
Y0010948D01*
X0144318Y0010977D01*
Y0011012D01*
X0144336Y0011094D01*
X0144365Y0011176D01*
X0144371Y0011182D01*
X0144377Y0011194D01*
X0144394Y0011217D01*
X0144412Y0011241D01*
X0144435Y0011264D01*
X0144471Y0011287D01*
X0144506Y0011299D01*
X0144546Y0011305D01*
X0144558D01*
X0144593Y0011299D01*
D02*
G37*
G36*
X0146892D02*
X0146939Y0011282D01*
X0146986Y0011246D01*
X0146998Y0011235D01*
X0147015Y0011206D01*
X0147033Y0011159D01*
X0147045Y00111D01*
Y0011094D01*
Y0011089D01*
X0147039Y0011065D01*
X0147033Y0011036D01*
Y001103D01*
Y0011024D01*
X0147027Y0010995D01*
X0147021Y0010954D01*
Y0010913D01*
X0147027Y0010919D01*
X014705Y0010931D01*
X0147085Y0010954D01*
X0147132Y0010983D01*
X0147185Y0011012D01*
X0147243Y0011042D01*
X0147366Y00111D01*
X0147372Y0011106D01*
X0147396Y0011112D01*
X0147431Y0011124D01*
X0147471Y0011135D01*
X0147518Y0011147D01*
X0147571Y0011153D01*
X0147629Y0011164D01*
X0147729D01*
X0147758Y0011159D01*
X0147793Y0011153D01*
X0147834Y0011147D01*
X0147928Y0011118D01*
X0148033Y0011071D01*
X0148086Y0011042D01*
X0148138Y0011001D01*
X0148185Y001096D01*
X0148238Y0010907D01*
X0148279Y0010849D01*
X014832Y0010778D01*
Y0010773D01*
X0148326Y0010767D01*
X0148337Y0010749D01*
X0148343Y0010726D01*
X0148355Y0010691D01*
X0148372Y0010655D01*
X0148384Y0010615D01*
X0148402Y0010562D01*
X0148425Y0010451D01*
X0148454Y001031D01*
X0148472Y0010153D01*
X0148478Y0009977D01*
Y0009971D01*
Y0009959D01*
Y0009936D01*
X0148472Y0009901D01*
Y0009866D01*
X0148466Y0009819D01*
X0148449Y0009714D01*
X0148419Y0009597D01*
X0148372Y0009474D01*
X0148314Y0009351D01*
X0148232Y0009234D01*
Y0009228D01*
X014822Y0009222D01*
X0148185Y0009187D01*
X0148127Y0009135D01*
X0148051Y0009082D01*
X0147951Y0009023D01*
X0147834Y0008971D01*
X0147694Y0008936D01*
X0147624Y000893D01*
X0147542Y0008924D01*
X0147507D01*
X014746Y000893D01*
X0147407Y0008936D01*
X0147337Y0008941D01*
X0147261Y0008953D01*
X0147173Y0008971D01*
X014708Y0008994D01*
Y0007988D01*
Y0007982D01*
Y0007976D01*
X0147074Y0007935D01*
X0147056Y0007888D01*
X0147021Y0007842D01*
X0147009Y000783D01*
X014698Y0007812D01*
X0146933Y0007789D01*
X0146904Y0007783D01*
X0146875Y0007777D01*
X0146857D01*
X0146822Y0007783D01*
X0146769Y0007807D01*
X0146746Y0007818D01*
X0146723Y0007842D01*
X0146717Y0007853D01*
X0146699Y0007883D01*
X0146676Y0007929D01*
X014667Y0007988D01*
X0146676Y000883D01*
Y0009661D01*
Y0009667D01*
Y0009684D01*
Y0009708D01*
Y0009737D01*
X014667Y0009778D01*
Y0009825D01*
Y0009883D01*
Y0009942D01*
X0146664Y0010071D01*
X0146658Y0010211D01*
X0146647Y0010357D01*
X0146641Y0010498D01*
X0146612Y0010925D01*
Y0010931D01*
Y0010948D01*
X0146617Y0010977D01*
Y0011012D01*
X0146635Y0011094D01*
X0146664Y0011176D01*
X014667Y0011182D01*
X0146676Y0011194D01*
X0146694Y0011217D01*
X0146711Y0011241D01*
X0146734Y0011264D01*
X0146769Y0011287D01*
X0146805Y0011299D01*
X0146846Y0011305D01*
X0146857D01*
X0146892Y0011299D01*
D02*
G37*
G36*
X0152672Y0011287D02*
X0152707Y0011282D01*
X0152742Y0011258D01*
X0152777Y0011229D01*
X0152813Y0011176D01*
X0152842Y0011112D01*
X0152848Y0011065D01*
X0152854Y0011018D01*
X0152865Y0010778D01*
X0152871Y0010784D01*
X0152883Y0010796D01*
X01529Y0010819D01*
X0152924Y0010854D01*
X0152959Y0010889D01*
X0152994Y0010925D01*
X0153087Y0011012D01*
X0153193Y00111D01*
X0153316Y0011176D01*
X015338Y0011206D01*
X015345Y0011229D01*
X0153515Y0011241D01*
X0153585Y0011246D01*
X0153614D01*
X0153637Y0011241D01*
X0153696Y0011229D01*
X0153766Y0011211D01*
X0153848Y0011176D01*
X0153924Y0011124D01*
X0153959Y0011089D01*
X0153994Y0011048D01*
X0154024Y0011001D01*
X0154053Y0010948D01*
X0154059Y0010936D01*
X0154065Y0010913D01*
X0154082Y0010866D01*
X01541Y0010802D01*
X0154117Y001072D01*
X0154135Y001062D01*
X0154146Y0010498D01*
X0154152Y0010363D01*
Y0010153D01*
X0154146Y0009959D01*
Y0009954D01*
Y000993D01*
Y0009889D01*
X0154152Y0009837D01*
X0154158Y0009772D01*
X0154164Y000969D01*
X0154176Y0009602D01*
X0154193Y0009503D01*
Y0009497D01*
Y0009491D01*
X0154199Y0009456D01*
X0154211Y0009409D01*
X0154217Y0009345D01*
X0154228Y0009275D01*
X0154234Y0009199D01*
X015424Y0009129D01*
Y0009059D01*
Y0009053D01*
Y0009047D01*
X0154234Y0009006D01*
X0154211Y0008959D01*
X0154199Y0008936D01*
X0154176Y0008912D01*
X0154164Y0008901D01*
X0154135Y0008883D01*
X0154088Y0008865D01*
X0154024Y0008854D01*
X0154018D01*
X0153994Y000886D01*
X0153965Y0008865D01*
X015393Y0008877D01*
X0153895Y0008901D01*
X0153866Y0008936D01*
X0153836Y0008982D01*
X0153825Y0009047D01*
X0153766Y0009509D01*
Y0009521D01*
X015376Y000955D01*
X0153754Y0009597D01*
Y0009661D01*
X0153749Y0009731D01*
X0153743Y0009807D01*
X0153737Y0009965D01*
Y0009971D01*
Y0009977D01*
Y0009989D01*
Y0010012D01*
Y0010041D01*
Y0010076D01*
X0153743Y0010117D01*
Y0010164D01*
Y001017D01*
Y0010188D01*
Y0010211D01*
X0153749Y001024D01*
Y001031D01*
Y001034D01*
Y0010363D01*
Y0010369D01*
Y0010381D01*
Y0010404D01*
Y0010433D01*
X0153743Y0010509D01*
X0153725Y0010591D01*
X0153708Y0010673D01*
X0153678Y0010749D01*
X0153655Y0010778D01*
X0153637Y0010802D01*
X0153608Y0010813D01*
X0153579Y0010819D01*
X0153567D01*
X0153538Y0010813D01*
X0153497Y0010808D01*
X0153438Y0010784D01*
X0153368Y0010749D01*
X0153298Y0010702D01*
X0153216Y0010632D01*
X0153175Y0010585D01*
X0153134Y0010538D01*
X0153128Y0010527D01*
X0153105Y0010492D01*
X015307Y0010439D01*
X0153023Y0010363D01*
X0152976Y001027D01*
X0152929Y0010158D01*
X0152877Y0010035D01*
X0152836Y0009895D01*
Y0009889D01*
Y0009883D01*
Y000986D01*
X015283Y0009837D01*
X0152824Y0009772D01*
X0152818Y000969D01*
Y0009684D01*
Y0009673D01*
X0152813Y0009649D01*
Y0009626D01*
X0152807Y0009562D01*
Y0009486D01*
Y0009474D01*
Y0009456D01*
Y0009439D01*
X0152813Y0009409D01*
Y0009374D01*
Y0009339D01*
X0152818Y0009292D01*
Y0009287D01*
Y0009275D01*
X0152824Y0009252D01*
Y0009222D01*
X015283Y0009164D01*
Y0009135D01*
Y0009111D01*
Y0009105D01*
Y0009094D01*
X0152824Y0009059D01*
X0152807Y0009006D01*
X0152772Y0008959D01*
X015276Y0008947D01*
X0152731Y000893D01*
X0152684Y0008912D01*
X0152625Y0008901D01*
X0152608D01*
X0152573Y0008906D01*
X015252Y0008924D01*
X0152473Y0008959D01*
X0152462Y0008971D01*
X0152444Y0009D01*
X0152426Y0009047D01*
X0152415Y0009111D01*
Y0009117D01*
Y0009123D01*
Y000914D01*
Y0009158D01*
X0152409Y0009217D01*
X0152403Y0009298D01*
Y0009304D01*
Y0009322D01*
X0152397Y0009345D01*
Y0009369D01*
X0152391Y0009433D01*
Y0009462D01*
Y0009486D01*
Y0009497D01*
Y0009527D01*
Y0009573D01*
X0152397Y0009644D01*
Y0009725D01*
X0152403Y0009831D01*
X0152409Y0009948D01*
X0152421Y0010082D01*
Y0010088D01*
Y00101D01*
Y0010117D01*
X0152426Y0010147D01*
X0152432Y0010217D01*
X0152438Y0010305D01*
Y0010398D01*
X0152444Y0010498D01*
X015245Y0010597D01*
Y0010685D01*
Y0010691D01*
Y0010696D01*
Y0010714D01*
Y0010737D01*
Y0010767D01*
X0152444Y0010796D01*
X0152438Y0010884D01*
Y0010889D01*
Y0010907D01*
Y0010931D01*
Y001096D01*
X0152432Y0011024D01*
Y0011053D01*
Y0011083D01*
Y0011089D01*
Y00111D01*
X0152438Y0011135D01*
X0152456Y0011188D01*
X0152491Y0011235D01*
X0152497D01*
X0152503Y0011246D01*
X0152532Y0011264D01*
X0152584Y0011282D01*
X0152643Y0011293D01*
X0152649D01*
X0152672Y0011287D01*
D02*
G37*
G36*
X0151163Y001117D02*
X0151198Y0011164D01*
X0151239Y0011159D01*
X0151332Y0011129D01*
X0151432Y0011083D01*
X0151485Y0011053D01*
X0151537Y0011012D01*
X015159Y0010971D01*
X0151643Y0010919D01*
X0151689Y001086D01*
X015173Y001079D01*
Y0010784D01*
X0151736Y0010778D01*
X0151748Y0010761D01*
X015176Y0010737D01*
X0151771Y0010702D01*
X0151783Y0010667D01*
X0151818Y001058D01*
X0151847Y0010468D01*
X0151876Y0010345D01*
X0151894Y0010199D01*
X01519Y0010041D01*
Y0010035D01*
Y0010024D01*
Y0009995D01*
X0151894Y0009965D01*
X0151888Y0009924D01*
X0151882Y0009877D01*
X0151865Y0009766D01*
X0151836Y0009644D01*
X0151789Y0009509D01*
X015173Y0009374D01*
X0151654Y0009246D01*
X0151648Y000924D01*
X0151643Y0009228D01*
X0151625Y0009211D01*
X0151607Y0009187D01*
X0151543Y0009129D01*
X0151467Y0009064D01*
X0151362Y0008994D01*
X0151239Y0008936D01*
X0151174Y0008912D01*
X0151099Y0008895D01*
X0151023Y0008883D01*
X0150941Y0008877D01*
X0150905D01*
X0150882Y0008883D01*
X0150818Y0008889D01*
X0150736Y0008912D01*
X0150636Y0008941D01*
X0150537Y0008988D01*
X0150432Y0009053D01*
X0150379Y0009088D01*
X0150332Y0009135D01*
X0150326Y000914D01*
X015032Y0009146D01*
X0150309Y0009164D01*
X0150291Y0009187D01*
X0150268Y0009217D01*
X0150244Y0009252D01*
X0150215Y0009292D01*
X0150192Y0009339D01*
X0150139Y000945D01*
X0150092Y0009585D01*
X0150057Y0009737D01*
X0150046Y0009825D01*
X015004Y0009913D01*
Y0009918D01*
Y0009936D01*
Y0009959D01*
Y0009995D01*
X0150046Y0010035D01*
Y0010082D01*
X0150051Y0010135D01*
X0150063Y0010193D01*
X0150086Y0010328D01*
X0150133Y0010468D01*
X0150192Y0010609D01*
X0150227Y0010679D01*
X0150274Y0010749D01*
X0150279Y0010755D01*
X0150285Y0010767D01*
X0150303Y001079D01*
X0150326Y0010813D01*
X0150361Y0010849D01*
X0150397Y0010884D01*
X0150437Y0010925D01*
X015049Y0010966D01*
X0150543Y0011001D01*
X0150607Y0011042D01*
X0150672Y0011077D01*
X0150748Y0011112D01*
X0150824Y0011135D01*
X0150905Y0011159D01*
X0150999Y001117D01*
X0151093Y0011176D01*
X0151134D01*
X0151163Y001117D01*
D02*
G37*
%LPC*%
G36*
X015421Y0015813D02*
X0154169D01*
X0154122Y0015802D01*
X0154058Y001579D01*
X0153993Y0015767D01*
X0153923Y0015732D01*
X0153847Y0015679D01*
X0153783Y0015615D01*
X0153777Y0015603D01*
X0153753Y0015579D01*
X0153724Y0015533D01*
X0153689Y0015468D01*
X0153648Y0015381D01*
X0153607Y0015281D01*
X0153566Y0015158D01*
X0153531Y0015018D01*
X0154174Y0015322D01*
X015418D01*
X0154192Y0015328D01*
X015421Y001534D01*
X0154239Y0015351D01*
X0154303Y0015386D01*
X0154385Y0015433D01*
X0154473Y0015486D01*
X0154567Y0015539D01*
X0154648Y0015591D01*
X0154719Y0015644D01*
X0154713Y001565D01*
X0154683Y0015673D01*
X0154643Y0015697D01*
X015459Y0015732D01*
X0154514Y0015761D01*
X0154426Y001579D01*
X0154327Y0015808D01*
X015421Y0015813D01*
D02*
G37*
G36*
X0100958Y0012327D02*
X0100963Y0012273D01*
X0100973Y0012155D01*
X0101022Y0011909D01*
Y0011899D01*
X0101032Y0011889D01*
X0101052Y001184D01*
X0101081Y0011761D01*
X010112Y0011673D01*
X010118Y0011584D01*
X0101248Y0011515D01*
X0101337Y0011456D01*
X0101386Y0011446D01*
X0101435Y0011437D01*
X0101504D01*
X0101573Y0011446D01*
X0101672Y0011466D01*
X010178Y0011486D01*
X0101898Y0011515D01*
X0102016Y0011565D01*
X0102134Y0011633D01*
X010174D01*
X0101691Y0011643D01*
X0101681D01*
X0101673Y0011652D01*
X0101711Y0011938D01*
X0101642Y0011958D01*
X0101595Y0011669D01*
X0101534Y0011693D01*
X0101435Y0011712D01*
X0101426Y0011722D01*
X0101396Y0011732D01*
X0101357Y0011751D01*
X0101307Y0011791D01*
X0101199Y0011879D01*
X0101081Y0012007D01*
X0101071Y0012017D01*
X0101061Y0012047D01*
X0101042Y0012086D01*
X0101012Y0012145D01*
X0100983Y0012204D01*
X0100963Y0012283D01*
X0100958Y0012327D01*
D02*
G37*
G36*
X0118331Y0012657D02*
X0118291D01*
X0118242Y0012647D01*
X0118183Y0012637D01*
X0118114Y0012608D01*
X0118055Y0012578D01*
X0118006Y0012529D01*
X0117957Y001246D01*
X0117947Y001245D01*
X0117937Y0012411D01*
X0117908Y0012362D01*
X0117868Y0012303D01*
X011778Y0012175D01*
X011774Y0012116D01*
X0117691Y0012076D01*
Y0011722D01*
X0117701Y0011732D01*
X011774Y0011742D01*
X0117799Y0011751D01*
X0117927D01*
X0117967Y0011742D01*
X0118016Y0011732D01*
X0118154Y0011702D01*
X0118222Y0011663D01*
X0118291Y0011624D01*
X011838Y0011584D01*
X01184D01*
X0118429Y0011574D01*
X0118478Y0011555D01*
X0118488D01*
X0118508Y0011565D01*
X0118547Y0011584D01*
X0118587Y0011604D01*
X0118636Y0011643D01*
X0118695Y0011683D01*
X0118744Y0011742D01*
X0118783Y0011801D01*
X0118793Y0011811D01*
X0118803Y001183D01*
X0118823Y001187D01*
X0118842Y0011909D01*
X0118862Y0011968D01*
X0118872Y0012037D01*
X0118892Y0012106D01*
Y0012184D01*
Y0012194D01*
Y0012224D01*
Y0012263D01*
X0118882Y0012312D01*
X0118852Y0012431D01*
X0118793Y0012558D01*
X0118783D01*
X0118754Y0012578D01*
X0118705Y0012588D01*
X0118646Y0012608D01*
X0118577Y0012627D01*
X0118498Y0012637D01*
X0118331Y0012657D01*
D02*
G37*
G36*
X0114208D02*
X0114168D01*
X0114119Y0012647D01*
X011406Y0012637D01*
X0113991Y0012608D01*
X0113932Y0012578D01*
X0113883Y0012529D01*
X0113834Y001246D01*
X0113824Y001245D01*
X0113814Y0012411D01*
X0113785Y0012362D01*
X0113745Y0012303D01*
X0113657Y0012175D01*
X0113617Y0012116D01*
X0113568Y0012076D01*
Y0011722D01*
X0113578Y0011732D01*
X0113617Y0011742D01*
X0113676Y0011751D01*
X0113804D01*
X0113844Y0011742D01*
X0113893Y0011732D01*
X0114031Y0011702D01*
X0114099Y0011663D01*
X0114168Y0011624D01*
X0114257Y0011584D01*
X0114277D01*
X0114306Y0011574D01*
X0114355Y0011555D01*
X0114365D01*
X0114385Y0011565D01*
X0114424Y0011584D01*
X0114463Y0011604D01*
X0114513Y0011643D01*
X0114572Y0011683D01*
X0114621Y0011742D01*
X011466Y0011801D01*
X011467Y0011811D01*
X011468Y001183D01*
X01147Y001187D01*
X0114719Y0011909D01*
X0114739Y0011968D01*
X0114749Y0012037D01*
X0114769Y0012106D01*
Y0012184D01*
Y0012194D01*
Y0012224D01*
Y0012263D01*
X0114759Y0012312D01*
X0114729Y0012431D01*
X011467Y0012558D01*
X011466D01*
X0114631Y0012578D01*
X0114582Y0012588D01*
X0114523Y0012608D01*
X0114454Y0012627D01*
X0114375Y0012637D01*
X0114208Y0012657D01*
D02*
G37*
G36*
X0091221Y0013861D02*
X0091186D01*
X0091157Y0013855D01*
X0091122Y0013849D01*
X0091087Y0013837D01*
X0090999Y0013814D01*
X0090899Y0013761D01*
X0090847Y0013732D01*
X0090794Y0013691D01*
X0090741Y001365D01*
X0090694Y0013592D01*
X0090648Y0013533D01*
X0090601Y0013463D01*
Y0013457D01*
X0090595Y0013445D01*
X0090583Y0013428D01*
X0090572Y0013404D01*
X009056Y0013375D01*
X0090542Y0013334D01*
X0090507Y001324D01*
X0090472Y0013129D01*
X0090443Y0013001D01*
X009042Y001286D01*
X0090414Y0012702D01*
Y0012697D01*
Y0012673D01*
Y0012638D01*
X009042Y0012591D01*
Y0012533D01*
X0090425Y0012468D01*
X0090431Y0012392D01*
X0090437Y0012316D01*
X009046Y0012147D01*
X009049Y0011977D01*
X0090536Y0011813D01*
X0090566Y0011737D01*
X0090595Y0011667D01*
Y0011661D01*
X0090607Y0011649D01*
X0090613Y0011638D01*
X009063Y0011614D01*
X0090677Y0011556D01*
X0090736Y0011497D01*
X0090817Y0011433D01*
X0090911Y0011374D01*
X0090964Y0011351D01*
X0091028Y0011339D01*
X0091087Y0011328D01*
X0091157Y0011322D01*
X0091174D01*
X0091198Y0011328D01*
X0091227D01*
X0091268Y0011339D01*
X0091309Y0011351D01*
X0091356Y0011363D01*
X0091402Y0011386D01*
X0091455Y001141D01*
X0091508Y0011445D01*
X009156Y0011486D01*
X0091613Y0011532D01*
X0091666Y0011591D01*
X0091712Y0011661D01*
X0091753Y0011737D01*
X0091794Y0011825D01*
Y0011831D01*
X00918Y0011842D01*
X0091806Y001186D01*
X0091818Y0011889D01*
X0091824Y0011924D01*
X0091835Y0011965D01*
X0091847Y0012018D01*
X0091865Y0012071D01*
X0091876Y0012135D01*
X0091888Y0012199D01*
X0091905Y0012351D01*
X0091923Y0012527D01*
X0091929Y001272D01*
Y0012726D01*
Y0012743D01*
Y0012773D01*
Y0012813D01*
X0091923Y001286D01*
X0091917Y0012919D01*
X0091905Y0013042D01*
X0091882Y0013182D01*
X0091853Y0013322D01*
X0091806Y0013457D01*
X0091777Y0013516D01*
X0091747Y0013574D01*
Y001358D01*
X0091742Y0013586D01*
X0091712Y0013621D01*
X0091672Y0013668D01*
X0091619Y001372D01*
X0091543Y0013773D01*
X0091449Y0013814D01*
X0091344Y0013849D01*
X0091285Y0013855D01*
X0091221Y0013861D01*
D02*
G37*
G36*
X0086658D02*
X0086623D01*
X0086594Y0013855D01*
X0086559Y0013849D01*
X0086523Y0013837D01*
X0086436Y0013814D01*
X0086336Y0013761D01*
X0086284Y0013732D01*
X0086231Y0013691D01*
X0086178Y001365D01*
X0086132Y0013592D01*
X0086085Y0013533D01*
X0086038Y0013463D01*
Y0013457D01*
X0086032Y0013445D01*
X008602Y0013428D01*
X0086009Y0013404D01*
X0085997Y0013375D01*
X0085979Y0013334D01*
X0085944Y001324D01*
X0085909Y0013129D01*
X008588Y0013001D01*
X0085857Y001286D01*
X0085851Y0012702D01*
Y0012697D01*
Y0012673D01*
Y0012638D01*
X0085857Y0012591D01*
Y0012533D01*
X0085862Y0012468D01*
X0085868Y0012392D01*
X0085874Y0012316D01*
X0085897Y0012147D01*
X0085927Y0011977D01*
X0085974Y0011813D01*
X0086003Y0011737D01*
X0086032Y0011667D01*
Y0011661D01*
X0086044Y0011649D01*
X008605Y0011638D01*
X0086067Y0011614D01*
X0086114Y0011556D01*
X0086172Y0011497D01*
X0086254Y0011433D01*
X0086348Y0011374D01*
X0086401Y0011351D01*
X0086465Y0011339D01*
X0086523Y0011328D01*
X0086594Y0011322D01*
X0086611D01*
X0086635Y0011328D01*
X0086664D01*
X0086705Y0011339D01*
X0086746Y0011351D01*
X0086793Y0011363D01*
X0086839Y0011386D01*
X0086892Y001141D01*
X0086945Y0011445D01*
X0086997Y0011486D01*
X008705Y0011532D01*
X0087103Y0011591D01*
X0087149Y0011661D01*
X008719Y0011737D01*
X0087231Y0011825D01*
Y0011831D01*
X0087237Y0011842D01*
X0087243Y001186D01*
X0087255Y0011889D01*
X0087261Y0011924D01*
X0087272Y0011965D01*
X0087284Y0012018D01*
X0087301Y0012071D01*
X0087313Y0012135D01*
X0087325Y0012199D01*
X0087342Y0012351D01*
X008736Y0012527D01*
X0087366Y001272D01*
Y0012726D01*
Y0012743D01*
Y0012773D01*
Y0012813D01*
X008736Y001286D01*
X0087354Y0012919D01*
X0087342Y0013042D01*
X0087319Y0013182D01*
X008729Y0013322D01*
X0087243Y0013457D01*
X0087214Y0013516D01*
X0087185Y0013574D01*
Y001358D01*
X0087179Y0013586D01*
X0087149Y0013621D01*
X0087108Y0013668D01*
X0087056Y001372D01*
X008698Y0013773D01*
X0086886Y0013814D01*
X0086781Y0013849D01*
X0086722Y0013855D01*
X0086658Y0013861D01*
D02*
G37*
G36*
X0123979Y0012834D02*
X0123959D01*
X012392Y0012824D01*
X0123851Y0012814D01*
X0123762Y0012785D01*
X0123664Y0012745D01*
X0123556Y0012676D01*
X0123438Y0012588D01*
X0123329Y001247D01*
X0123319Y001246D01*
X012329Y0012411D01*
X0123251Y0012352D01*
X0123201Y0012263D01*
X0123152Y0012155D01*
X0123113Y0012037D01*
X0123083Y0011909D01*
X0123073Y0011771D01*
Y0011761D01*
Y0011732D01*
X0123083Y0011683D01*
X0123103Y0011614D01*
X0123123Y0011535D01*
X0123162Y0011437D01*
X0123211Y0011338D01*
X012328Y001123D01*
X0123979Y0011004D01*
X0124038D01*
X0124087Y0011013D01*
X0124205Y0011023D01*
X0124343Y0011043D01*
X012451Y0011082D01*
X0124668Y0011141D01*
X0124835Y001121D01*
X0124973Y0011319D01*
X0125022Y0011466D01*
Y0011476D01*
Y0011486D01*
X0125012Y0011515D01*
X0124992Y0011565D01*
X0124953Y0011614D01*
X0124914Y0011673D01*
X0124845Y0011751D01*
X0124756Y001183D01*
X0124746Y001184D01*
X0124717Y001187D01*
X0124677Y0011919D01*
X0124628Y0011978D01*
X0124579Y0012047D01*
X012454Y0012125D01*
X012451Y0012214D01*
X01245Y0012303D01*
Y0012312D01*
Y0012342D01*
X012451Y0012391D01*
X012452Y001244D01*
X012454Y0012509D01*
X0124569Y0012568D01*
X0124577Y0012582D01*
X0124549Y0012588D01*
X0124441Y0012627D01*
X0124372Y0012657D01*
X0124303Y0012696D01*
X0124294Y0012706D01*
X0124274Y0012716D01*
X0124244Y0012735D01*
X0124195Y0012765D01*
X0124097Y0012814D01*
X0124038Y0012824D01*
X0123979Y0012834D01*
D02*
G37*
G36*
X0095905Y0011132D02*
X0095777Y0010856D01*
X0095866Y0010807D01*
X0096013Y0011073D01*
X0095964Y0011092D01*
X0095905Y0011132D01*
D02*
G37*
G36*
X0101878Y0014084D02*
X010176Y0013798D01*
X010177D01*
X0101816Y001378D01*
X0102303Y0013715D01*
X010239Y0013739D01*
X0102488Y0013779D01*
X0102507Y0013787D01*
X0101986Y0014034D01*
X0101878Y0014084D01*
D02*
G37*
G36*
X0150676Y0015813D02*
X0150635D01*
X0150589Y0015802D01*
X0150524Y001579D01*
X015046Y0015767D01*
X015039Y0015732D01*
X0150314Y0015679D01*
X0150249Y0015615D01*
X0150243Y0015603D01*
X015022Y0015579D01*
X0150191Y0015533D01*
X0150156Y0015468D01*
X0150115Y0015381D01*
X0150074Y0015281D01*
X0150033Y0015158D01*
X0149998Y0015018D01*
X0150641Y0015322D01*
X0150647D01*
X0150659Y0015328D01*
X0150676Y001534D01*
X0150706Y0015351D01*
X015077Y0015386D01*
X0150852Y0015433D01*
X015094Y0015486D01*
X0151033Y0015539D01*
X0151115Y0015591D01*
X0151185Y0015644D01*
X0151179Y001565D01*
X015115Y0015673D01*
X0151109Y0015697D01*
X0151057Y0015732D01*
X015098Y0015761D01*
X0150893Y001579D01*
X0150793Y0015808D01*
X0150676Y0015813D01*
D02*
G37*
G36*
X0151069Y0010749D02*
X015104D01*
X0151017Y0010743D01*
X0150964Y0010732D01*
X0150894Y0010714D01*
X0150818Y0010679D01*
X0150736Y0010626D01*
X0150695Y0010591D01*
X015066Y001055D01*
X0150625Y0010503D01*
X015059Y0010451D01*
X0150584Y0010439D01*
X0150566Y001041D01*
X0150549Y0010363D01*
X0150525Y0010299D01*
X0150496Y0010217D01*
X0150478Y0010123D01*
X0150461Y0010024D01*
X0150455Y0009913D01*
Y0009907D01*
Y0009901D01*
Y000986D01*
X0150467Y0009807D01*
X0150478Y0009737D01*
X0150496Y0009661D01*
X0150525Y0009585D01*
X0150566Y0009509D01*
X0150619Y0009439D01*
X0150625Y0009433D01*
X0150642Y0009415D01*
X0150672Y0009398D01*
X0150712Y0009374D01*
X0150759Y0009345D01*
X0150812Y0009328D01*
X015087Y000931D01*
X0150941Y0009304D01*
X0150976D01*
X0151017Y000931D01*
X0151069Y0009322D01*
X0151128Y0009345D01*
X0151192Y0009369D01*
X0151256Y0009409D01*
X0151315Y0009462D01*
X0151321Y0009468D01*
X0151344Y0009497D01*
X0151374Y0009532D01*
X0151409Y0009585D01*
X0151444Y0009655D01*
X0151473Y0009737D01*
X0151496Y0009831D01*
X0151508Y0009936D01*
Y0009948D01*
Y0009971D01*
Y0010012D01*
Y0010065D01*
X0151502Y0010123D01*
X015149Y0010193D01*
X0151467Y001034D01*
X0151444Y0010416D01*
X0151414Y0010492D01*
X0151379Y0010556D01*
X0151338Y001062D01*
X0151286Y0010673D01*
X0151221Y0010714D01*
X0151151Y0010737D01*
X0151069Y0010749D01*
D02*
G37*
G36*
X0147688Y0010743D02*
X0147653D01*
X0147618Y0010737D01*
X0147571Y0010732D01*
X0147518Y001072D01*
X014746Y0010708D01*
X0147401Y0010685D01*
X0147343Y0010655D01*
X0147337D01*
X0147325Y0010644D01*
X0147296Y0010626D01*
X0147267Y0010603D01*
X0147226Y0010574D01*
X0147179Y0010533D01*
X014712Y0010486D01*
X0147062Y0010433D01*
Y0010427D01*
Y001041D01*
Y0010386D01*
X0147068Y0010351D01*
Y0010305D01*
X0147074Y0010252D01*
Y0010193D01*
X014708Y0010129D01*
Y0010059D01*
Y0009977D01*
X0147085Y0009807D01*
X0147091Y0009626D01*
Y0009433D01*
X0147103Y0009427D01*
X0147132Y0009421D01*
X0147173Y0009404D01*
X0147232Y0009392D01*
X0147302Y0009374D01*
X0147378Y0009357D01*
X014746Y0009351D01*
X0147548Y0009345D01*
X0147559D01*
X0147589Y0009351D01*
X0147635Y0009357D01*
X0147694Y0009369D01*
X0147758Y0009392D01*
X0147822Y0009427D01*
X0147887Y0009474D01*
X0147945Y0009538D01*
X0147951Y0009544D01*
X0147963Y0009567D01*
X0147986Y0009608D01*
X014801Y0009655D01*
X0148027Y0009719D01*
X0148051Y0009796D01*
X0148062Y0009883D01*
X0148068Y0009977D01*
Y0009983D01*
Y0009995D01*
Y0010012D01*
Y0010041D01*
X0148062Y0010112D01*
X0148056Y0010193D01*
X0148045Y0010287D01*
X0148027Y0010381D01*
X0148004Y0010474D01*
X0147975Y001055D01*
X0147969Y0010556D01*
X0147957Y001058D01*
X0147934Y0010609D01*
X0147904Y001065D01*
X0147863Y0010685D01*
X0147817Y0010714D01*
X0147758Y0010737D01*
X0147688Y0010743D01*
D02*
G37*
G36*
X0145389D02*
X0145354D01*
X0145319Y0010737D01*
X0145272Y0010732D01*
X0145219Y001072D01*
X0145161Y0010708D01*
X0145102Y0010685D01*
X0145044Y0010655D01*
X0145038D01*
X0145026Y0010644D01*
X0144997Y0010626D01*
X0144968Y0010603D01*
X0144927Y0010574D01*
X014488Y0010533D01*
X0144822Y0010486D01*
X0144763Y0010433D01*
Y0010427D01*
Y001041D01*
Y0010386D01*
X0144769Y0010351D01*
Y0010305D01*
X0144775Y0010252D01*
Y0010193D01*
X0144781Y0010129D01*
Y0010059D01*
Y0009977D01*
X0144786Y0009807D01*
X0144792Y0009626D01*
Y0009433D01*
X0144804Y0009427D01*
X0144833Y0009421D01*
X0144874Y0009404D01*
X0144933Y0009392D01*
X0145003Y0009374D01*
X0145079Y0009357D01*
X0145161Y0009351D01*
X0145248Y0009345D01*
X014526D01*
X014529Y0009351D01*
X0145336Y0009357D01*
X0145395Y0009369D01*
X0145459Y0009392D01*
X0145524Y0009427D01*
X0145588Y0009474D01*
X0145646Y0009538D01*
X0145652Y0009544D01*
X0145664Y0009567D01*
X0145687Y0009608D01*
X0145711Y0009655D01*
X0145728Y0009719D01*
X0145752Y0009796D01*
X0145763Y0009883D01*
X0145769Y0009977D01*
Y0009983D01*
Y0009995D01*
Y0010012D01*
Y0010041D01*
X0145763Y0010112D01*
X0145757Y0010193D01*
X0145746Y0010287D01*
X0145728Y0010381D01*
X0145705Y0010474D01*
X0145676Y001055D01*
X014567Y0010556D01*
X0145658Y001058D01*
X0145635Y0010609D01*
X0145605Y001065D01*
X0145564Y0010685D01*
X0145518Y0010714D01*
X0145459Y0010737D01*
X0145389Y0010743D01*
D02*
G37*
G36*
X0125101Y0012873D02*
X0125081D01*
X0124992Y0012863D01*
X0124914Y0012844D01*
X0124845Y0012824D01*
X0124786Y0012795D01*
X0124736Y0012755D01*
X0124697Y0012735D01*
X0124677Y0012716D01*
X0124668Y0012706D01*
X0124609Y0012637D01*
X0124577Y0012582D01*
X0124599Y0012578D01*
X0124628Y0012568D01*
X0124658D01*
X0124736Y0012578D01*
X0124815Y0012598D01*
X0124884Y0012617D01*
X0124943Y0012657D01*
X0124983Y0012686D01*
X0125022Y0012706D01*
X0125041Y0012726D01*
X0125051Y0012735D01*
X012511Y0012804D01*
X0125145Y0012864D01*
X0125101Y0012873D01*
D02*
G37*
G36*
X0100943Y001248D02*
Y001247D01*
Y001246D01*
X0100953Y0012371D01*
X0100958Y0012327D01*
X0100953Y0012381D01*
X0100943Y001248D01*
D02*
G37*
G36*
X0121302Y0013237D02*
X0121312Y0013188D01*
X0121343Y0013197D01*
X0121342Y0013198D01*
X0121312Y0013228D01*
X0121302Y0013237D01*
D02*
G37*
G36*
X0106631Y0012962D02*
X0106479Y0012743D01*
X01065Y0012732D01*
X0106651Y0012942D01*
X0106631Y0012962D01*
D02*
G37*
%LPD*%
G36*
X0101612Y0011663D02*
X0101672Y0011653D01*
X0101673Y0011652D01*
X0101672Y0011643D01*
X0101593Y0011653D01*
X0101595Y0011669D01*
X0101612Y0011663D01*
D02*
G37*
D31*
X0194707Y0406D02*
G03*
X0194707Y0406I-0000707J0D01*
G01*
X0133771Y0040771D02*
G03*
X0133771Y0040771I-001677J0D01*
G01*
X0069Y0404D02*
G03*
X0069Y0404I-0006464J0D01*
G01*
X0175D02*
G03*
X0175Y0404I-0006464J0D01*
G01*
X0151Y002D02*
X01555D01*
X0204Y0012D02*
Y0024D01*
X0212Y0394D02*
X0222D01*
X0212Y0381D02*
Y0394D01*
Y0381D02*
X0222D01*
Y0394D01*
X01275Y0427D02*
X01295D01*
X01275Y0417D02*
X01295D01*
Y0427D01*
X01285Y0417D02*
Y0427D01*
X01258Y0398D02*
X01358D01*
Y0411D01*
X01258D02*
X01358D01*
X01258Y0398D02*
Y0411D01*
X01248Y0409D02*
Y0411D01*
X01368Y0409D02*
Y0411D01*
X01358Y0409D02*
X01368D01*
X01358Y0411D02*
X01368D01*
X01248Y0409D02*
X01258D01*
X01248Y0411D02*
X01258D01*
X00969Y0398D02*
X01069D01*
Y0411D01*
X00969D02*
X01069D01*
X00969Y0398D02*
Y0411D01*
X00959Y0409D02*
Y0411D01*
X01079Y0409D02*
Y0411D01*
X01069Y0409D02*
X01079D01*
X01069Y0411D02*
X01079D01*
X00959Y0409D02*
X00969D01*
X00959Y0411D02*
X00969D01*
X01108Y0398D02*
X01208D01*
Y0411D01*
X01108D02*
X01208D01*
X01108Y0398D02*
Y0411D01*
X01098Y0409D02*
Y0411D01*
X01218Y0409D02*
Y0411D01*
X01208Y0409D02*
X01218D01*
X01208Y0411D02*
X01218D01*
X01098Y0409D02*
X01108D01*
X01098Y0411D02*
X01108D01*
X0008Y007D02*
X0027685D01*
X0227D01*
X0008Y0376D02*
X0227D01*
X01175Y0223D02*
X0122D01*
X0113715Y0223106D02*
X0118215D01*
X0117622Y021867D02*
Y022317D01*
Y022767D01*
X0008Y007D02*
Y0376D01*
X0227Y007D02*
Y0376D01*
X004Y0436D02*
X005D01*
X004Y0423D02*
Y0436D01*
Y0423D02*
X005D01*
Y0436D01*
X0212Y0414D02*
X0222D01*
X0212Y0401D02*
Y0414D01*
Y0401D02*
X0222D01*
Y0414D01*
X0012Y0034D02*
X0022D01*
Y0047D01*
X0012D02*
X0022D01*
X0012Y0034D02*
Y0047D01*
X0011Y0045D02*
Y0047D01*
X0023Y0045D02*
Y0047D01*
X0022Y0045D02*
X0023D01*
X0022Y0047D02*
X0023D01*
X0011Y0045D02*
X0012D01*
X0011Y0047D02*
X0012D01*
Y0068D02*
X0022D01*
X0012Y0055D02*
Y0068D01*
Y0055D02*
X0022D01*
Y0068D01*
X0023Y0055D02*
Y0057D01*
X0011Y0055D02*
Y0057D01*
X0012D01*
X0011Y0055D02*
X0012D01*
X0022Y0057D02*
X0023D01*
X0022Y0055D02*
X0023D01*
X0112Y039D02*
X0122D01*
X0112Y0377D02*
Y039D01*
Y0377D02*
X0122D01*
Y039D01*
X00725Y00445D02*
Y00745D01*
X00875D01*
Y00445D02*
Y0057D01*
X00725Y00445D02*
X00875D01*
Y0057D02*
Y00745D01*
X0092Y00165D02*
X01395D01*
Y0064D01*
X0092D02*
X01395D01*
X0092Y00165D02*
Y0064D01*
X00375Y00585D02*
X00675D01*
X00375D02*
Y00735D01*
X0055D02*
X00675D01*
Y00585D02*
Y00735D01*
X00375D02*
X0055D01*
X0218961Y0032D02*
Y0071764D01*
X0154Y0032D02*
X0218961D01*
X0154D02*
Y0072158D01*
X0218961D01*
X0054Y0394D02*
X0074D01*
Y0414D01*
X0054D02*
X0074D01*
X0054Y0394D02*
Y0414D01*
X00075Y0416D02*
X00285Y0437D01*
X02035Y00075D02*
X0225Y0029D01*
X02025Y04375D02*
X0225Y0415D01*
X0181Y001D02*
X0201D01*
X0181Y0026D02*
X0201D01*
Y001D02*
Y0026D01*
X0191Y001D02*
Y0026D01*
X0181Y001D02*
Y0026D01*
X0207Y0075D02*
Y0085D01*
X01845D02*
X0207D01*
X01845Y0075D02*
Y0085D01*
Y0075D02*
X0207D01*
X0126Y039D02*
X0136D01*
X0126Y0377D02*
Y039D01*
Y0377D02*
X0136D01*
Y039D01*
X0098D02*
X0108D01*
X0098Y0377D02*
Y039D01*
Y0377D02*
X0108D01*
Y039D01*
X0016Y038D02*
X0026D01*
Y0393D01*
X0016D02*
X0026D01*
X0016Y038D02*
Y0393D01*
X003Y038D02*
X004D01*
Y0393D01*
X003D02*
X004D01*
X003Y038D02*
Y0393D01*
X0029Y0391D02*
Y0393D01*
X0041Y0391D02*
Y0393D01*
X004Y0391D02*
X0041D01*
X004Y0393D02*
X0041D01*
X0029Y0391D02*
X003D01*
X0029Y0393D02*
X003D01*
X004Y0396D02*
X005D01*
Y0409D01*
X004D02*
X005D01*
X004Y0396D02*
Y0409D01*
X0052Y0436D02*
X0062D01*
X0052Y0423D02*
Y0436D01*
Y0423D02*
X0062D01*
Y0436D01*
X016Y0394D02*
X018D01*
Y0414D01*
X016D02*
X018D01*
X016Y0394D02*
Y0414D01*
X0204Y038D02*
Y039D01*
X0191D02*
X0204D01*
X0191Y038D02*
Y039D01*
Y038D02*
X0204D01*
X0191Y0379D02*
X0193D01*
X0191Y0391D02*
X0193D01*
Y039D02*
Y0391D01*
X0191Y039D02*
Y0391D01*
X0193Y0379D02*
Y038D01*
X0191Y0379D02*
Y038D01*
X0184Y0436D02*
X0194D01*
X0184Y0423D02*
Y0436D01*
Y0423D02*
X0194D01*
Y0436D01*
X0133Y0418D02*
X0146D01*
X0133D02*
Y0428D01*
X0146D01*
Y0418D02*
Y0428D01*
X0105Y0427D02*
X01275D01*
Y0417D02*
Y0427D01*
X0105Y0417D02*
X01275D01*
X0105D02*
Y0427D01*
X016Y0436D02*
X017D01*
X016Y0423D02*
Y0436D01*
Y0423D02*
X017D01*
Y0436D01*
X0172D02*
X0182D01*
X0172Y0423D02*
Y0436D01*
Y0423D02*
X0182D01*
Y0436D01*
X0064D02*
X0074D01*
X0064Y0423D02*
Y0436D01*
Y0423D02*
X0074D01*
Y0436D01*
X0215Y0374D02*
X0220998D01*
Y0371001D01*
X0219998Y0370001D01*
X0217999D01*
X0216999Y0371001D01*
Y0374D01*
Y0372001D02*
X0215Y0370001D01*
X0219998Y0368002D02*
X0220998Y0367002D01*
Y0365003D01*
X0219998Y0364003D01*
X0218999D01*
X0217999Y0365003D01*
Y0366003D01*
Y0365003D01*
X0216999Y0364003D01*
X0216D01*
X0215Y0365003D01*
Y0367002D01*
X0216Y0368002D01*
X0220998Y0358005D02*
Y0362004D01*
X0217999D01*
X0218999Y0360004D01*
Y0359005D01*
X0217999Y0358005D01*
X0216D01*
X0215Y0359005D01*
Y0361004D01*
X0216Y0362004D01*
X0118Y0446D02*
Y0447999D01*
Y0447D01*
X0112002D01*
Y0446D01*
X0118Y0453997D02*
Y0451998D01*
X0117Y0450998D01*
X0115001D01*
X0114001Y0451998D01*
Y0453997D01*
X0115001Y0454997D01*
X0116001D01*
Y0450998D01*
X0112002Y0460995D02*
X0118D01*
Y0457996D01*
X0117Y0456996D01*
X0115001D01*
X0114001Y0457996D01*
Y0460995D01*
X0118Y0472991D02*
Y0468993D01*
X0114001Y0472991D01*
X0113002D01*
X0112002Y0471992D01*
Y0469992D01*
X0113002Y0468993D01*
X0126Y04465D02*
Y0448499D01*
Y04475D01*
X0120002D01*
Y04465D01*
X0126Y0454497D02*
Y0452498D01*
X0125Y0451498D01*
X0123001D01*
X0122001Y0452498D01*
Y0454497D01*
X0123001Y0455497D01*
X0124001D01*
Y0451498D01*
X0120002Y0461495D02*
X0126D01*
Y0458496D01*
X0125Y0457496D01*
X0123001D01*
X0122001Y0458496D01*
Y0461495D01*
X0121002Y0469493D02*
X0120002Y0470492D01*
Y0472492D01*
X0121002Y0473491D01*
X0122001D01*
X0123001Y0472492D01*
Y0471492D01*
Y0472492D01*
X0124001Y0473491D01*
X0125D01*
X0126Y0472492D01*
Y0470492D01*
X0125Y0469493D01*
X0016575Y04035D02*
Y0407498D01*
X0015575Y0408498D01*
X0013576D01*
X0012576Y0407498D01*
Y04035D01*
X0013576Y04025D01*
X0015575D01*
X0014575Y0404499D02*
X0016575Y04025D01*
X0015575D02*
X0016575Y04035D01*
X0018574Y0407498D02*
X0019574Y0408498D01*
X0021573D01*
X0022573Y0407498D01*
Y0406499D01*
X0021573Y0405499D01*
X0020573D01*
X0021573D01*
X0022573Y0404499D01*
Y04035D01*
X0021573Y04025D01*
X0019574D01*
X0018574Y04035D01*
X0024572Y04025D02*
Y0408498D01*
X0028571Y04025D01*
Y0408498D01*
X0149Y0361999D02*
X0145002D01*
X0144002Y0360999D01*
Y0359D01*
X0145002Y0358D01*
X0149D01*
X015Y0359D01*
Y0360999D01*
X0148001Y0359999D02*
X015Y0361999D01*
Y0360999D02*
X0149Y0361999D01*
X0145002Y0363998D02*
X0144002Y0364998D01*
Y0366997D01*
X0145002Y0367997D01*
X0146001D01*
X0147001Y0366997D01*
Y0365997D01*
Y0366997D01*
X0148001Y0367997D01*
X0149D01*
X015Y0366997D01*
Y0364998D01*
X0149Y0363998D01*
X015Y0369996D02*
X0144002D01*
Y0372995D01*
X0145002Y0373995D01*
X0147001D01*
X0148001Y0372995D01*
Y0369996D01*
X01645Y0361999D02*
X0160502D01*
X0159502Y0360999D01*
Y0359D01*
X0160502Y0358D01*
X01645D01*
X01655Y0359D01*
Y0360999D01*
X0163501Y0359999D02*
X01655Y0361999D01*
Y0360999D02*
X01645Y0361999D01*
X01655Y0367997D02*
Y0363998D01*
X0161501Y0367997D01*
X0160502D01*
X0159502Y0366997D01*
Y0364998D01*
X0160502Y0363998D01*
X01655Y0369996D02*
X0159502D01*
Y0372995D01*
X0160502Y0373995D01*
X0162501D01*
X0163501Y0372995D01*
Y0369996D01*
X0181Y0362999D02*
X0177002D01*
X0176002Y0361999D01*
Y036D01*
X0177002Y0359D01*
X0181D01*
X0182Y036D01*
Y0361999D01*
X0180001Y0360999D02*
X0182Y0362999D01*
Y0361999D02*
X0181Y0362999D01*
X0182Y0364998D02*
Y0366997D01*
Y0365998D01*
X0176002D01*
X0177002Y0364998D01*
X0182Y0369996D02*
X0176002D01*
Y0372995D01*
X0177002Y0373995D01*
X0179001D01*
X0180001Y0372995D01*
Y0369996D01*
X0181Y0094998D02*
Y0089D01*
X0183999D01*
X0184999Y009D01*
Y0090999D01*
X0183999Y0091999D01*
X0181D01*
X0183999D01*
X0184999Y0092999D01*
Y0093998D01*
X0183999Y0094998D01*
X0181D01*
X0186998Y0092999D02*
Y009D01*
X0187998Y0089D01*
X0190997D01*
Y0088D01*
X0189997Y0087001D01*
X0188997D01*
X0190997Y0089D02*
Y0092999D01*
X0192996Y0093998D02*
X0193996Y0094998D01*
X0195995D01*
X0196995Y0093998D01*
Y0092999D01*
X0195995Y0091999D01*
X0194995D01*
X0195995D01*
X0196995Y0090999D01*
Y009D01*
X0195995Y0089D01*
X0193996D01*
X0192996Y009D01*
X0198994Y0093998D02*
X0199994Y0094998D01*
X0201993D01*
X0202993Y0093998D01*
Y0092999D01*
X0201993Y0091999D01*
X0202993Y0090999D01*
Y009D01*
X0201993Y0089D01*
X0199994D01*
X0198994Y009D01*
Y0090999D01*
X0199994Y0091999D01*
X0198994Y0092999D01*
Y0093998D01*
X0199994Y0091999D02*
X0201993D01*
X0208991Y0094998D02*
X0206992Y0093998D01*
X0204992Y0091999D01*
Y009D01*
X0205992Y0089D01*
X0207991D01*
X0208991Y009D01*
Y0090999D01*
X0207991Y0091999D01*
X0204992D01*
X0192Y0375998D02*
Y037D01*
X0194999D01*
X0195999Y0371D01*
Y0371999D01*
X0194999Y0372999D01*
X0192D01*
X0194999D01*
X0195999Y0373999D01*
Y0374998D01*
X0194999Y0375998D01*
X0192D01*
X0197998Y037D02*
X0199997D01*
X0198998D01*
Y0375998D01*
X0197998Y0374998D01*
X0202996Y037D02*
X0204996D01*
X0203996D01*
Y0375998D01*
X0202996Y0374998D01*
X0111999Y0048998D02*
X0110999Y0049998D01*
X0109D01*
X0108Y0048998D01*
Y0047999D01*
X0109Y0046999D01*
X0110999D01*
X0111999Y0045999D01*
Y0045D01*
X0110999Y0044D01*
X0109D01*
X0108Y0045D01*
X0116997Y0049998D02*
X0114998D01*
X0113998Y0048998D01*
Y0045D01*
X0114998Y0044D01*
X0116997D01*
X0117997Y0045D01*
Y0048998D01*
X0116997Y0049998D01*
X0119996D02*
Y0044D01*
Y0045999D01*
X0123995Y0049998D01*
X0120996Y0046999D01*
X0123995Y0044D01*
X0182Y0031498D02*
Y0027499D01*
X0183999Y00255D01*
X0185999Y0027499D01*
Y0031498D01*
X0187998D02*
X0189997D01*
X0188998D01*
Y00255D01*
X0187998D01*
X0189997D01*
X0192996D02*
Y0031498D01*
X0196995Y00255D01*
Y0031498D01*
X0208991D02*
X0204993D01*
Y00255D01*
X0208991D01*
X0204993Y0028499D02*
X0206992D01*
X0210991Y0031498D02*
X0214989Y00255D01*
Y0031498D02*
X0210991Y00255D01*
X0216989Y0031498D02*
X0220987D01*
X0218988D01*
Y00255D01*
X0082499Y0394D02*
Y0397998D01*
X0081499Y0398998D01*
X00795D01*
X00785Y0397998D01*
Y0394D01*
X00795Y0393D01*
X0081499D01*
X0080499Y0394999D02*
X0082499Y0393D01*
X0081499D02*
X0082499Y0394D01*
X0087497Y0393D02*
Y0398998D01*
X0084498Y0395999D01*
X0088497D01*
X0090496Y0393D02*
Y0398998D01*
X0093495D01*
X0094495Y0397998D01*
Y0395999D01*
X0093495Y0394999D01*
X0090496D01*
X0143999Y0394D02*
Y0397998D01*
X0142999Y0398998D01*
X0141D01*
X014Y0397998D01*
Y0394D01*
X0141Y0393D01*
X0142999D01*
X0141999Y0394999D02*
X0143999Y0393D01*
X0142999D02*
X0143999Y0394D01*
X0148997Y0393D02*
Y0398998D01*
X0145998Y0395999D01*
X0149997D01*
X0151996Y0393D02*
Y0398998D01*
X0155995Y0393D01*
Y0398998D01*
X0073Y0040943D02*
Y0035945D01*
X0074Y0034945D01*
X0075999D01*
X0076999Y0035945D01*
Y0040943D01*
X0081997Y0034945D02*
Y0040943D01*
X0078998Y0037944D01*
X0082997D01*
X0056Y04015D02*
Y0407498D01*
X0058999D01*
X0059999Y0406498D01*
Y0404499D01*
X0058999Y0403499D01*
X0056D01*
X0057999D02*
X0059999Y04015D01*
X0065997Y0406498D02*
X0064997Y0407498D01*
X0062998D01*
X0061998Y0406498D01*
Y04025D01*
X0062998Y04015D01*
X0064997D01*
X0065997Y04025D01*
Y0404499D01*
X0063997D01*
X0067996Y0407498D02*
Y04015D01*
X0070995D01*
X0071995Y04025D01*
Y0403499D01*
X0070995Y0404499D01*
X0067996D01*
X0070995D01*
X0071995Y0405499D01*
Y0406498D01*
X0070995Y0407498D01*
X0067996D01*
X0162Y04D02*
Y0405998D01*
X0164999D01*
X0165999Y0404998D01*
Y0402999D01*
X0164999Y0401999D01*
X0162D01*
X0163999D02*
X0165999Y04D01*
X0171997Y0404998D02*
X0170997Y0405998D01*
X0168998D01*
X0167998Y0404998D01*
Y0401D01*
X0168998Y04D01*
X0170997D01*
X0171997Y0401D01*
Y0402999D01*
X0169997D01*
X0173996Y0405998D02*
Y04D01*
X0176995D01*
X0177995Y0401D01*
Y0401999D01*
X0176995Y0402999D01*
X0173996D01*
X0176995D01*
X0177995Y0403999D01*
Y0404998D01*
X0176995Y0405998D01*
X0173996D01*
X0179994Y04D02*
X0181993D01*
X0180994D01*
Y0405998D01*
X0179994Y0404998D01*
X01525Y04485D02*
X0146502D01*
Y0451499D01*
X0147502Y0452499D01*
X0149501D01*
X0150501Y0451499D01*
Y04485D01*
Y0450499D02*
X01525Y0452499D01*
X0147502Y0454498D02*
X0146502Y0455498D01*
Y0457497D01*
X0147502Y0458497D01*
X0148501D01*
X0149501Y0457497D01*
Y0456497D01*
Y0457497D01*
X0150501Y0458497D01*
X01515D01*
X01525Y0457497D01*
Y0455498D01*
X01515Y0454498D01*
X0147502Y0460496D02*
X0146502Y0461496D01*
Y0463495D01*
X0147502Y0464495D01*
X01515D01*
X01525Y0463495D01*
Y0461496D01*
X01515Y0460496D01*
X0147502D01*
X01405Y0448D02*
X0134502D01*
Y0450999D01*
X0135502Y0451999D01*
X0137501D01*
X0138501Y0450999D01*
Y0448D01*
Y0449999D02*
X01405Y0451999D01*
Y0457997D02*
Y0453998D01*
X0136501Y0457997D01*
X0135502D01*
X0134502Y0456997D01*
Y0454998D01*
X0135502Y0453998D01*
X0134502Y0463995D02*
X0135502Y0461996D01*
X0137501Y0459996D01*
X01395D01*
X01405Y0460996D01*
Y0462995D01*
X01395Y0463995D01*
X0138501D01*
X0137501Y0462995D01*
Y0459996D01*
X0205Y04155D02*
Y0421498D01*
X0207999D01*
X0208999Y0420498D01*
Y0418499D01*
X0207999Y0417499D01*
X0205D01*
X0206999D02*
X0208999Y04155D01*
X0210998D02*
X0212997D01*
X0211998D01*
Y0421498D01*
X0210998Y0420498D01*
X0215996D02*
X0216996Y0421498D01*
X0218995D01*
X0219995Y0420498D01*
Y0419499D01*
X0218995Y0418499D01*
X0219995Y0417499D01*
Y04165D01*
X0218995Y04155D01*
X0216996D01*
X0215996Y04165D01*
Y0417499D01*
X0216996Y0418499D01*
X0215996Y0419499D01*
Y0420498D01*
X0216996Y0418499D02*
X0218995D01*
X012Y03595D02*
X0114002D01*
Y0362499D01*
X0115002Y0363499D01*
X0117001D01*
X0118001Y0362499D01*
Y03595D01*
Y0361499D02*
X012Y0363499D01*
Y0365498D02*
Y0367497D01*
Y0366498D01*
X0114002D01*
X0115002Y0365498D01*
X012Y0370496D02*
Y0372496D01*
Y0371496D01*
X0114002D01*
X0115002Y0370496D01*
X00985Y0448D02*
X0092502D01*
Y0450999D01*
X0093502Y0451999D01*
X0095501D01*
X0096501Y0450999D01*
Y0448D01*
Y0449999D02*
X00985Y0451999D01*
Y0457997D02*
Y0453998D01*
X0094501Y0457997D01*
X0093502D01*
X0092502Y0456997D01*
Y0454998D01*
X0093502Y0453998D01*
X00985Y0459996D02*
Y0461996D01*
Y0460996D01*
X0092502D01*
X0093502Y0459996D01*
X0089Y04485D02*
X0083002D01*
Y0451499D01*
X0084002Y0452499D01*
X0086001D01*
X0087001Y0451499D01*
Y04485D01*
Y0450499D02*
X0089Y0452499D01*
Y0458497D02*
Y0454498D01*
X0085001Y0458497D01*
X0084002D01*
X0083002Y0457497D01*
Y0455498D01*
X0084002Y0454498D01*
X0089Y0464495D02*
Y0460496D01*
X0085001Y0464495D01*
X0084002D01*
X0083002Y0463495D01*
Y0461496D01*
X0084002Y0460496D01*
X0038Y04205D02*
X0032002D01*
Y0423499D01*
X0033002Y0424499D01*
X0035001D01*
X0036001Y0423499D01*
Y04205D01*
Y0422499D02*
X0038Y0424499D01*
Y0430497D02*
Y0426498D01*
X0034001Y0430497D01*
X0033002D01*
X0032002Y0429497D01*
Y0427498D01*
X0033002Y0426498D01*
Y0432496D02*
X0032002Y0433496D01*
Y0435495D01*
X0033002Y0436495D01*
X0034001D01*
X0035001Y0435495D01*
Y0434495D01*
Y0435495D01*
X0036001Y0436495D01*
X0037D01*
X0038Y0435495D01*
Y0433496D01*
X0037Y0432496D01*
X02045Y04195D02*
X0198502D01*
Y0422499D01*
X0199502Y0423499D01*
X0201501D01*
X0202501Y0422499D01*
Y04195D01*
Y0421499D02*
X02045Y0423499D01*
Y0429497D02*
Y0425498D01*
X0200501Y0429497D01*
X0199502D01*
X0198502Y0428497D01*
Y0426498D01*
X0199502Y0425498D01*
X02045Y0434495D02*
X0198502D01*
X0201501Y0431496D01*
Y0435495D01*
X0108Y0446D02*
Y0447999D01*
Y0447D01*
X0102002D01*
Y0446D01*
X0108Y0453997D02*
Y0451998D01*
X0107Y0450998D01*
X0105001D01*
X0104001Y0451998D01*
Y0453997D01*
X0105001Y0454997D01*
X0106001D01*
Y0450998D01*
X0102002Y0460995D02*
X0108D01*
Y0457996D01*
X0107Y0456996D01*
X0105001D01*
X0104001Y0457996D01*
Y0460995D01*
X0108Y0468993D02*
Y0470992D01*
Y0469992D01*
X0102002D01*
X0103002Y0468993D01*
X0020999Y0027498D02*
X0019999Y0028498D01*
X0018D01*
X0017Y0027498D01*
Y00235D01*
X0018Y00225D01*
X0019999D01*
X0020999Y00235D01*
X0022998Y0028498D02*
X0026997D01*
Y0027498D01*
X0022998Y00235D01*
Y00225D01*
X0028999Y0066498D02*
X0027999Y0067498D01*
X0026D01*
X0025Y0066498D01*
Y00625D01*
X0026Y00615D01*
X0027999D01*
X0028999Y00625D01*
X0034997Y0067498D02*
X0032997Y0066498D01*
X0030998Y0064499D01*
Y00625D01*
X0031998Y00615D01*
X0033997D01*
X0034997Y00625D01*
Y0063499D01*
X0033997Y0064499D01*
X0030998D01*
X0066999Y0080498D02*
X0065999Y0081498D01*
X0064D01*
X0063Y0080498D01*
Y00765D01*
X0064Y00755D01*
X0065999D01*
X0066999Y00765D01*
X0068998Y00755D02*
X0070997D01*
X0069998D01*
Y0081498D01*
X0068998Y0080498D01*
X0075Y0083998D02*
Y0078D01*
X0077999D01*
X0078999Y0079D01*
Y0082998D01*
X0077999Y0083998D01*
X0075D01*
X0080998Y0082998D02*
X0081998Y0083998D01*
X0083997D01*
X0084997Y0082998D01*
Y0081999D01*
X0083997Y0080999D01*
X0082997D01*
X0083997D01*
X0084997Y0079999D01*
Y0079D01*
X0083997Y0078D01*
X0081998D01*
X0080998Y0079D01*
X01825Y0041D02*
Y0046998D01*
X0184499Y0044999D01*
X0186499Y0046998D01*
Y0041D01*
X0188498D02*
X0190497D01*
X0189498D01*
Y0044999D01*
X0188498D01*
X0197495D02*
X0194496D01*
X0193496Y0043999D01*
Y0042D01*
X0194496Y0041D01*
X0197495D01*
X00385Y03985D02*
X0032502D01*
Y0401499D01*
X0033502Y0402499D01*
X0035501D01*
X0036501Y0401499D01*
Y03985D01*
Y0400499D02*
X00385Y0402499D01*
Y0404498D02*
Y0406497D01*
Y0405498D01*
X0032502D01*
X0033502Y0404498D01*
Y0409496D02*
X0032502Y0410496D01*
Y0412496D01*
X0033502Y0413495D01*
X0034501D01*
X0035501Y0412496D01*
Y0411496D01*
Y0412496D01*
X0036501Y0413495D01*
X00375D01*
X00385Y0412496D01*
Y0410496D01*
X00375Y0409496D01*
X01345Y03615D02*
X0128502D01*
Y0364499D01*
X0129502Y0365499D01*
X0131501D01*
X0132501Y0364499D01*
Y03615D01*
Y0363499D02*
X01345Y0365499D01*
X01335Y0367498D02*
X01345Y0368498D01*
Y0370497D01*
X01335Y0371497D01*
X0129502D01*
X0128502Y0370497D01*
Y0368498D01*
X0129502Y0367498D01*
X0130501D01*
X0131501Y0368498D01*
Y0371497D01*
X0106Y0357D02*
X0100002D01*
Y0359999D01*
X0101002Y0360999D01*
X0103001D01*
X0104001Y0359999D01*
Y0357D01*
Y0358999D02*
X0106Y0360999D01*
Y0362998D02*
Y0364997D01*
Y0363998D01*
X0100002D01*
X0101002Y0362998D01*
Y0367996D02*
X0100002Y0368996D01*
Y0370995D01*
X0101002Y0371995D01*
X0105D01*
X0106Y0370995D01*
Y0368996D01*
X0105Y0367996D01*
X0101002D01*
X0032002Y0364D02*
X0038D01*
Y0366999D01*
X0037Y0367999D01*
X0036001D01*
X0035001Y0366999D01*
Y0364D01*
Y0366999D01*
X0034001Y0367999D01*
X0033002D01*
X0032002Y0366999D01*
Y0364D01*
Y0369998D02*
X0037D01*
X0038Y0370998D01*
Y0372997D01*
X0037Y0373997D01*
X0032002D01*
X00795Y042D02*
X0081499D01*
X00805D01*
Y0425998D01*
X00795D01*
X0087497Y042D02*
X0085498D01*
X0084498Y0421D01*
Y0422999D01*
X0085498Y0423999D01*
X0087497D01*
X0088497Y0422999D01*
Y0421999D01*
X0084498D01*
X0094495Y0425998D02*
Y042D01*
X0091496D01*
X0090496Y0421D01*
Y0422999D01*
X0091496Y0423999D01*
X0094495D01*
X0100493Y0424998D02*
X0099493Y0425998D01*
X0097494D01*
X0096495Y0424998D01*
Y0421D01*
X0097494Y042D01*
X0099493D01*
X0100493Y0421D01*
X0051499Y0370498D02*
X0050499Y0371498D01*
X00485D01*
X00475Y0370498D01*
Y03665D01*
X00485Y03655D01*
X0050499D01*
X0051499Y03665D01*
X0053498Y0371498D02*
Y03655D01*
Y0368499D01*
X0054498Y0369499D01*
X0056497D01*
X0057497Y0368499D01*
Y03655D01*
X0060496Y0369499D02*
X0062495D01*
X0063495Y0368499D01*
Y03655D01*
X0060496D01*
X0059496Y03665D01*
X0060496Y0367499D01*
X0063495D01*
X0065494Y0369499D02*
Y03655D01*
Y0367499D01*
X0066494Y0368499D01*
X0067493Y0369499D01*
X0068493D01*
X0073492Y0363501D02*
X0074491D01*
X0075491Y03645D01*
Y0369499D01*
X0072492D01*
X0071492Y0368499D01*
Y03665D01*
X0072492Y03655D01*
X0075491D01*
X0080489D02*
X007849D01*
X007749Y03665D01*
Y0368499D01*
X007849Y0369499D01*
X0080489D01*
X0081489Y0368499D01*
Y0367499D01*
X007749D01*
X0024Y03595D02*
X0018002D01*
Y0362499D01*
X0019002Y0363499D01*
X0021001D01*
X0022001Y0362499D01*
Y03595D01*
Y0361499D02*
X0024Y0363499D01*
Y0369497D02*
Y0365498D01*
X0020001Y0369497D01*
X0019002D01*
X0018002Y0368497D01*
Y0366498D01*
X0019002Y0365498D01*
X0023Y0371496D02*
X0024Y0372496D01*
Y0374495D01*
X0023Y0375495D01*
X0019002D01*
X0018002Y0374495D01*
Y0372496D01*
X0019002Y0371496D01*
X0020001D01*
X0021001Y0372496D01*
Y0375495D01*
X0148Y04165D02*
Y0422498D01*
X0150999D01*
X0151999Y0421498D01*
Y0419499D01*
X0150999Y0418499D01*
X0148D01*
X0149999D02*
X0151999Y04165D01*
X0153998Y0421498D02*
X0154998Y0422498D01*
X0156997D01*
X0157997Y0421498D01*
Y0420499D01*
X0156997Y0419499D01*
X0155997D01*
X0156997D01*
X0157997Y0418499D01*
Y04175D01*
X0156997Y04165D01*
X0154998D01*
X0153998Y04175D01*
X0159996Y04165D02*
X0161995D01*
X0160996D01*
Y0422498D01*
X0159996Y0421498D01*
X-00885Y0471498D02*
Y04655D01*
X-0084501D01*
X-0078503Y0469499D02*
X-0081502D01*
X-0082502Y0468499D01*
Y04665D01*
X-0081502Y04655D01*
X-0078503D01*
X-0072505Y0471498D02*
Y04655D01*
X-0075504D01*
X-0076504Y04665D01*
Y0468499D01*
X-0075504Y0469499D01*
X-0072505D01*
X-0064508Y0470498D02*
X-0063508Y0471498D01*
X-0061509D01*
X-0060509Y0470498D01*
Y0469499D01*
X-0061509Y0468499D01*
X-0062508D01*
X-0061509D01*
X-0060509Y0467499D01*
Y04665D01*
X-0061509Y04655D01*
X-0063508D01*
X-0064508Y04665D01*
X-005751Y04645D02*
X-005651Y04655D01*
Y04665D01*
X-005751D01*
Y04655D01*
X-005651D01*
X-005751Y04645D01*
X-005851Y0463501D01*
X-0048513Y04655D02*
X-0052512D01*
X-0048513Y0469499D01*
Y0470498D01*
X-0049513Y0471498D01*
X-0051512D01*
X-0052512Y0470498D01*
X0182Y0049D02*
Y0054998D01*
X0183999Y0052999D01*
X0185999Y0054998D01*
Y0049D01*
X0187998D02*
X0189997D01*
X0188998D01*
Y0052999D01*
X0187998D01*
X0196995D02*
X0193996D01*
X0192996Y0051999D01*
Y005D01*
X0193996Y0049D01*
X0196995D01*
X025Y0026D02*
X0248001D01*
X0249D01*
Y0020002D01*
X025Y0021002D01*
X0064Y0174998D02*
Y0169D01*
X0066999D01*
X0067999Y017D01*
Y0170999D01*
X0066999Y0171999D01*
X0064D01*
X0066999D01*
X0067999Y0172999D01*
Y0173998D01*
X0066999Y0174998D01*
X0064D01*
X0069998Y0172999D02*
Y017D01*
X0070998Y0169D01*
X0073997D01*
Y0168D01*
X0072997Y0167001D01*
X0071997D01*
X0073997Y0169D02*
Y0172999D01*
X0081994Y0169D02*
Y0174998D01*
X0083994Y0172999D01*
X0085993Y0174998D01*
Y0169D01*
X0087992D02*
X0089992D01*
X0088992D01*
Y0172999D01*
X0087992D01*
X0096989D02*
X009399D01*
X0092991Y0171999D01*
Y017D01*
X009399Y0169D01*
X0096989D01*
X0098989Y0174998D02*
Y0169D01*
Y0171999D01*
X0099988Y0172999D01*
X0101988D01*
X0102987Y0171999D01*
Y0169D01*
X0107986D02*
X0105986D01*
X0104987Y017D01*
Y0171999D01*
X0105986Y0172999D01*
X0107986D01*
X0108985Y0171999D01*
Y0170999D01*
X0104987D01*
X0110985Y0169D02*
X0112984D01*
X0111985D01*
Y0174998D01*
X0110985D01*
X0118982Y0169D02*
X0116983D01*
X0115983Y017D01*
Y0171999D01*
X0116983Y0172999D01*
X0118982D01*
X0119982Y0171999D01*
Y0170999D01*
X0115983D01*
X0131978Y0173998D02*
X0130978Y0174998D01*
X0128979D01*
X0127979Y0173998D01*
Y017D01*
X0128979Y0169D01*
X0130978D01*
X0131978Y017D01*
Y0171999D01*
X0129979D01*
X0133977Y0172999D02*
Y0169D01*
Y0170999D01*
X0134977Y0171999D01*
X0135977Y0172999D01*
X0136976D01*
X0139975D02*
Y017D01*
X0140975Y0169D01*
X0143974D01*
Y0172999D01*
X0145974Y0167001D02*
Y0172999D01*
X0148972D01*
X0149972Y0171999D01*
Y017D01*
X0148972Y0169D01*
X0145974D01*
X0151971Y0167001D02*
Y0172999D01*
X0154971D01*
X015597Y0171999D01*
Y017D01*
X0154971Y0169D01*
X0151971D01*
X015797D02*
X0159969D01*
X0158969D01*
Y0172999D01*
X015797D01*
X0163968Y0169D02*
X0165967D01*
X0166967Y017D01*
Y0171999D01*
X0165967Y0172999D01*
X0163968D01*
X0162968Y0171999D01*
Y017D01*
X0163968Y0169D01*
X0168966D02*
Y0172999D01*
X0171965D01*
X0172965Y0171999D01*
Y0169D01*
X0174964D02*
X0176963D01*
X0175964D01*
Y0172999D01*
X0174964D01*
X0119499Y0156D02*
X01155D01*
X0119499Y0159999D01*
Y0160998D01*
X0118499Y0161998D01*
X01165D01*
X01155Y0160998D01*
X0121498D02*
X0122498Y0161998D01*
X0124497D01*
X0125497Y0160998D01*
Y0157D01*
X0124497Y0156D01*
X0122498D01*
X0121498Y0157D01*
Y0160998D01*
X0127496Y0156D02*
X0129496D01*
X0128496D01*
Y0161998D01*
X0127496Y0160998D01*
X0132494D02*
X0133494Y0161998D01*
X0135494D01*
X0136493Y0160998D01*
Y0157D01*
X0135494Y0156D01*
X0133494D01*
X0132494Y0157D01*
Y0160998D01*
X000767Y002933D02*
X0024751Y0012249D01*
X-0089Y0459D02*
X-0088Y046D01*
X0055Y002D02*
X0076D01*
X0157D02*
X0179D01*
X0157Y0007D02*
Y002D01*
X0076Y0007D02*
X0157D01*
X0076D02*
Y002D01*
X000767Y002933D02*
Y00355D01*
X0196307Y00075D02*
X0225D01*
X0025Y00015D02*
X003D01*
X0179Y00075D02*
Y002D01*
Y00075D02*
X0196307D01*
X0055Y00015D02*
Y002D01*
X0225Y0035D02*
Y04375D01*
X003Y00015D02*
X0055D01*
X0024751D02*
Y0009249D01*
X0077Y04285D02*
Y0437D01*
Y04285D02*
X01575D01*
Y04375D01*
X0225D01*
X0024751Y0009249D02*
Y0012249D01*
X0225Y00075D02*
Y0035D01*
X000767Y0437D02*
X0077D01*
X000767Y00355D02*
Y0437D01*
D32*
X0164188Y0257436D02*
G03*
X0164188Y0257436I-0001969J0D01*
G01*
X0122559Y0117126D02*
G03*
X0122559Y0117126I-0001969J0D01*
G01*
X0189669Y0074331D02*
G03*
X0189669Y0074331I-0001969J0D01*
G01*
X0126392Y0253892D02*
X0165762D01*
X0126392Y0293263D02*
X0165762D01*
Y0253892D02*
Y0293263D01*
X0126392Y0253892D02*
Y0293263D01*
X0059543Y0375898D02*
Y0388102D01*
X0052457Y0375898D02*
Y0388102D01*
Y0375898D02*
X0059543D01*
X0052457Y0388102D02*
X0059543D01*
X0117047Y0113583D02*
Y0152953D01*
X0156417Y0113583D02*
Y0152953D01*
X0117047Y0113583D02*
X0156417D01*
X0117047Y0152953D02*
X0156417D01*
X0069898Y0374457D02*
X0082102D01*
X0069898Y0381543D02*
X0082102D01*
Y0374457D02*
Y0381543D01*
X0069898Y0374457D02*
Y0381543D01*
X0203842Y0062126D02*
Y0077874D01*
X0184158Y0062126D02*
Y0077874D01*
Y0062126D02*
X0203842D01*
X0184158Y0077874D02*
X0203842D01*
X01197Y02472D02*
X0172455D01*
X01197Y0299955D02*
X0172455D01*
Y02472D02*
Y0299955D01*
X01197Y02472D02*
Y0299955D01*
X0146077Y0271609D02*
Y0275546D01*
X0144109Y0273577D02*
X0148046D01*
X0063874Y0374913D02*
Y0389087D01*
X0048126Y0374913D02*
Y0389087D01*
Y0374913D02*
X0063874D01*
X0048126Y0389087D02*
X0063874D01*
X0054031Y0382D02*
X0057968D01*
X0056Y0380031D02*
Y0383968D01*
X0110354Y010689D02*
Y0159646D01*
X016311Y010689D02*
Y0159646D01*
X0110354Y010689D02*
X016311D01*
X0110354Y0159646D02*
X016311D01*
X0134764Y0133268D02*
X0138701D01*
X0136732Y0131299D02*
Y0135236D01*
X0068913Y0370126D02*
X0083087D01*
X0068913Y0385874D02*
X0083087D01*
Y0370126D02*
Y0385874D01*
X0068913Y0370126D02*
Y0385874D01*
X0076Y0376031D02*
Y0379969D01*
X0074032Y0378D02*
X0077969D01*
X0192032Y007D02*
X0195968D01*
X0194Y0068032D02*
Y0071969D01*
X0204827Y0055236D02*
Y0084764D01*
X0183173Y0055236D02*
Y0084764D01*
Y0055236D02*
X0204827D01*
X0183173Y0084764D02*
X0204827D01*
D84*
X0061216Y0374815D02*
G03*
X0061216Y0374815I-0000492J0D01*
G01*
X0068996Y0034945D02*
G03*
X0068996Y0034945I-0000492J0D01*
G01*
X0138815Y0377374D02*
G03*
X0138815Y0377374I-0000492J0D01*
G01*
X0018815Y0413374D02*
G03*
X0018815Y0413374I-0000492J0D01*
G01*
X0154815Y0377374D02*
G03*
X0154815Y0377374I-0000492J0D01*
G01*
X0170815D02*
G03*
X0170815Y0377374I-0000492J0D01*
G01*
X0078815Y0403374D02*
G03*
X0078815Y0403374I-0000492J0D01*
G01*
X0140815D02*
G03*
X0140815Y0403374I-0000492J0D01*
G01*
D85*
X0055016Y0375898D02*
X0056984D01*
X0055016Y0388102D02*
X0056984D01*
Y0375898D02*
Y0388102D01*
X0055016Y0375898D02*
Y0388102D01*
X0042717Y0030811D02*
Y0057189D01*
X0057284D01*
Y0030811D02*
Y0057189D01*
X0042717Y0030811D02*
X0057284D01*
X0151118Y0380819D02*
Y0386626D01*
X0140882Y0380819D02*
Y0386626D01*
X0142654D01*
X0149346D02*
X0151118D01*
X0031118Y0416819D02*
Y0422626D01*
X0020882Y0416819D02*
Y0422626D01*
X0022654D01*
X0029346D02*
X0031118D01*
X0167118Y0380819D02*
Y0386626D01*
X0156882Y0380819D02*
Y0386626D01*
X0158653D01*
X0165347D02*
X0167118D01*
X0183118Y0380819D02*
Y0386626D01*
X0172882Y0380819D02*
Y0386626D01*
X0174653D01*
X0181346D02*
X0183118D01*
X0091118Y0406819D02*
Y0412626D01*
X0080882Y0406819D02*
Y0412626D01*
X0082653D01*
X0089346D02*
X0091118D01*
X0153118Y0406819D02*
Y0412626D01*
X0142882Y0406819D02*
Y0412626D01*
X0144653D01*
X0151347D02*
X0153118D01*
D86*
X0056Y0200245D02*
Y01845D01*
X0070545Y0196496D02*
X0069795Y0197995D01*
X0068296Y0199495D01*
X0066796Y0200245D01*
X0063797D01*
X0062298Y0199495D01*
X0060798Y0197995D01*
X0060049Y0196496D01*
X0059299Y0194247D01*
Y0190498D01*
X0060049Y0188249D01*
X0060798Y0186749D01*
X0062298Y018525D01*
X0063797Y01845D01*
X0066796D01*
X0068296Y018525D01*
X0069795Y0186749D01*
X0070545Y0188249D01*
Y0190498D01*
X0066796D02*
X0070545D01*
X0074144Y0194996D02*
Y01845D01*
Y0190498D02*
X0074894Y0192747D01*
X0076393Y0194247D01*
X0077893Y0194996D01*
X0080142D01*
X0081566D02*
Y0187499D01*
X0082316Y018525D01*
X0083816Y01845D01*
X0086065D01*
X0087564Y018525D01*
X0089814Y0187499D01*
Y0194996D02*
Y01845D01*
X0093937Y0194996D02*
Y0179252D01*
Y0192747D02*
X0095437Y0194247D01*
X0096936Y0194996D01*
X0099185D01*
X0100685Y0194247D01*
X0102184Y0192747D01*
X0102934Y0190498D01*
Y0188998D01*
X0102184Y0186749D01*
X0100685Y018525D01*
X0099185Y01845D01*
X0096936D01*
X0095437Y018525D01*
X0093937Y0186749D01*
X0106308Y0194996D02*
Y0179252D01*
Y0192747D02*
X0107807Y0194247D01*
X0109307Y0194996D01*
X0111556D01*
X0113056Y0194247D01*
X0114555Y0192747D01*
X0115305Y0190498D01*
Y0188998D01*
X0114555Y0186749D01*
X0113056Y018525D01*
X0111556Y01845D01*
X0109307D01*
X0107807Y018525D01*
X0106308Y0186749D01*
X0120178Y0200245D02*
X0120928Y0199495D01*
X0121678Y0200245D01*
X0120928Y0200994D01*
X0120178Y0200245D01*
X0120928Y0194996D02*
Y01845D01*
X01282Y0194996D02*
X0126701Y0194247D01*
X0125201Y0192747D01*
X0124452Y0190498D01*
Y0188998D01*
X0125201Y0186749D01*
X0126701Y018525D01*
X01282Y01845D01*
X013045D01*
X0131949Y018525D01*
X0133449Y0186749D01*
X0134198Y0188998D01*
Y0190498D01*
X0133449Y0192747D01*
X0131949Y0194247D01*
X013045Y0194996D01*
X01282D01*
X0150018Y0200245D02*
X0156016Y01845D01*
X0162014Y0200245D02*
X0156016Y01845D01*
X0164788Y0196496D02*
Y0197246D01*
X0165538Y0198745D01*
X0166288Y0199495D01*
X0167787Y0200245D01*
X0170786D01*
X0172285Y0199495D01*
X0173035Y0198745D01*
X0173785Y0197246D01*
Y0195746D01*
X0173035Y0194247D01*
X0171536Y0191998D01*
X0164038Y01845D01*
X0174535D01*
M02*
